<svg xmlns="http://www.w3.org/2000/svg" xmlns:xlink="http://www.w3.org/1999/xlink" version="1.1" x="0px" y="0px" viewBox="0 0 48 60" enable-background="new 0 0 48 48" xml:space="preserve"><g><path d="M34.917,36.341h-4.376v-7.275h2.588v2.43c0,0.547,0.443,0.989,0.99,0.989c0.546,0,0.989-0.442,0.989-0.989v-8.451   c0-0.547-0.443-0.989-0.989-0.989c-0.547,0-0.99,0.442-0.99,0.989v2.063h-2.588v-6.992c0-0.547-0.443-0.99-0.99-0.99H18.449   c-0.547,0-0.99,0.443-0.99,0.99v18.227h-4.377c-3.826,0-6.939,2.616-6.939,5.83S9.256,48,13.082,48h21.835   c3.827,0,6.94-2.615,6.94-5.829S38.744,36.341,34.917,36.341z"/><path d="M24,16.478c3.375,0,6.12-2.745,6.12-6.12c0-3.086-4.794-9.283-5.341-9.979C24.592,0.139,24.305,0,24,0   c-0.304,0-0.59,0.139-0.777,0.379c-0.547,0.695-5.343,6.893-5.343,9.979C17.88,13.732,20.625,16.478,24,16.478z"/></g></svg>
