<?xml version="1.0" encoding="UTF-8" standalone="no"?>
<svg
   xmlns:dc="http://purl.org/dc/elements/1.1/"
   xmlns:cc="http://creativecommons.org/ns#"
   xmlns:rdf="http://www.w3.org/1999/02/22-rdf-syntax-ns#"
   xmlns:svg="http://www.w3.org/2000/svg"
   xmlns="http://www.w3.org/2000/svg"
   xmlns:sodipodi="http://sodipodi.sourceforge.net/DTD/sodipodi-0.dtd"
   xmlns:inkscape="http://www.inkscape.org/namespaces/inkscape"
   version="1.1"
   x="0px"
   y="0px"
   viewBox="0 0 100 100"
   enable-background="new 0 0 100 100"
   xml:space="preserve"
   id="svg2"
   inkscape:version="0.48.5 r10040"
   width="100%"
   height="100%"
   sodipodi:docname="noun_13588.svg"><metadata
     id="metadata24"><rdf:RDF><cc:Work
         rdf:about=""><dc:format>image/svg+xml</dc:format><dc:type
           rdf:resource="http://purl.org/dc/dcmitype/StillImage" /></cc:Work></rdf:RDF></metadata><defs
     id="defs22" /><sodipodi:namedview
     pagecolor="#ffffff"
     bordercolor="#666666"
     borderopacity="1"
     objecttolerance="10"
     gridtolerance="10"
     guidetolerance="10"
     inkscape:pageopacity="0"
     inkscape:pageshadow="2"
     inkscape:window-width="1920"
     inkscape:window-height="1014"
     id="namedview20"
     showgrid="false"
     inkscape:zoom="2.36"
     inkscape:cx="50.847458"
     inkscape:cy="50"
     inkscape:window-x="0"
     inkscape:window-y="27"
     inkscape:window-maximized="1"
     inkscape:current-layer="svg2" /><g
     id="g4"><g
       id="g6"><g
         id="g8"><path
           d="M64.473,80H72v-4H56H34l0.007,4c-0.002,0-0.005,0-0.007,0v6v2v2h44v-4h-1.527L64.473,80z M54,86h-9.527L54,81.236V86z      M58,86v-4.764L67.527,86H58z"
           id="path10" /><rect
           x="74"
           y="73"
           width="4"
           height="10"
           id="rect12" /><path
           d="M34,76c-4.843,0-14,2.926-14,14h4c0-9.633,8.954-9.991,10-10c0.002,0,0.005,0,0.007,0L34,76z"
           id="path14" /></g><polygon
         points="58.559,30.027 66.266,26.874 68.484,18.467 65.799,22.086 66.616,12.979 62.879,17.616 61.828,9.125     60.193,12.979 56.982,-0.217 56.271,9.358 52,6.206 52,14.964 49,12.512 49,18.642 45.751,17.066 48.068,26.758 54.48,30.027     50.74,24.305 51.905,24.072 52.371,20.811 54.822,25.24 54.939,18.934 56.457,20.811 57.099,16.131 58.442,23.138 60.311,22.086     59.96,24.89 61.945,23.604   "
         id="polygon16" /><polygon
         points="60,38 64,38 64,34 48,34 48,38 52,38 52,54 52,70 48,70 48,74 64,74 64,70 60,70 60,54   "
         id="polygon18" /></g></g><path
     style="fill:#ff0000;fill-opacity:1;stroke:#fedcae;stroke-width:0.42372882000000001;stroke-opacity:0.78431373000000004"
     d="m 60.684559,26.489738 c 1.429688,-2.692433 1.672664,-3.846961 0.579565,-2.753862 -0.796066,0.796066 -1.078717,0.589596 -0.847644,-0.619183 0.194708,-1.018549 0.117537,-1.096331 -0.847421,-0.854142 -1.030409,0.258616 -1.077591,0.173175 -1.604101,-2.904828 -0.556479,-3.253212 -1.264965,-4.248987 -1.276531,-1.794164 -0.0036,0.757416 -0.183989,1.657792 -0.400935,2.000837 -0.337898,0.534302 -0.434585,0.519116 -0.674439,-0.105932 -0.57298,-1.493163 -1.037353,-0.649072 -1.055539,1.918655 l -0.01876,2.648305 -0.934634,-1.584834 c -1.070138,-1.814611 -1.570224,-2.014646 -1.570224,-0.628093 0,0.530772 -0.302922,1.397523 -0.673161,1.926113 -0.634506,0.905884 -0.599228,1.07473 0.614358,2.940375 0.708136,1.088617 1.224449,2.042374 1.147363,2.119462 -0.07709,0.07709 -1.204185,-0.38169 -2.504661,-1.019503 l -2.3645,-1.159661 -0.885525,-3.839302 c -0.487038,-2.111617 -0.98838,-4.186797 -1.114092,-4.611512 -0.21543,-0.72782 -0.154505,-0.733909 1.059868,-0.105932 0.708641,0.366452 1.393245,0.666277 1.521344,0.666277 0.128099,0 0.232907,-1.239407 0.232907,-2.754238 0,-1.51483 0.132574,-2.754237 0.29461,-2.754237 0.162036,0 0.829409,0.512369 1.483051,1.138598 l 1.18844,1.138598 0,-4.316564 c 0,-2.3741104 0.115569,-4.3165642 0.256821,-4.3165642 0.14125,0 0.979071,0.5720339 1.861823,1.2711864 0.882752,0.6991526 1.815912,1.2711865 2.073689,1.2711865 0.287928,0 0.484974,-1.0213628 0.510922,-2.6483051 0.08353,-5.2374849 0.535415,-5.1020228 1.835213,0.5501457 0.667327,2.9018687 1.317333,5.4603457 1.444458,5.6855037 0.127126,0.225158 0.551493,-0.316724 0.943038,-1.204181 l 0.711901,-1.613559 0.265813,1.945706 c 0.146198,1.070139 0.388679,2.842942 0.538848,3.939564 l 0.273034,1.993857 1.858128,-2.099789 c 1.562362,-1.765558 1.826233,-1.931173 1.657752,-1.040468 -0.400141,2.115415 -0.716505,7.20339 -0.447899,7.20339 0.151543,0 0.649863,-0.429025 1.107376,-0.95339 0.952269,-1.091412 0.956343,-1.145874 -0.23313,3.116711 l -0.662795,2.375186 -3.174268,1.332441 c -1.745847,0.732843 -3.286712,1.332442 -3.424144,1.332442 -0.137431,0 0.426905,-1.274534 1.254081,-2.832296 l 0,0 z"
     id="path3001"
     inkscape:connector-curvature="0" /><path
     style="fill:#800000;fill-opacity:1;stroke:#fedcae;stroke-width:0.42372882000000001;stroke-opacity:0.78431373000000004"
     d="m 48.220339,71.90678 0,-1.90678 1.90678,0 1.906779,0 0,-16.101695 0,-16.101695 -1.906779,0 -1.90678,0 0,-1.694915 0,-1.694915 7.838983,0 7.838983,0 0,1.694915 0,1.694915 -2.118644,0 -2.118644,0 0,16.101695 0,16.101695 2.118644,0 2.118644,0 0,1.90678 0,1.906779 -7.838983,0 -7.838983,0 0,-1.906779 z"
     id="path3003"
     inkscape:connector-curvature="0" /><path
     style="fill:#800000;fill-opacity:1;stroke:#fedcae;stroke-width:0.42372882;stroke-opacity:0.78431373"
     d="m 34.237288,83.135593 0,-6.779661 18.855932,0 18.855933,0 0,1.679015 0,1.679014 -3.919492,0.121833 -3.919492,0.121833 6.032489,3.072034 c 3.317868,1.689619 6.416384,3.072034 6.885592,3.072034 0.728602,0 0.853106,0.278278 0.853106,1.90678 l 0,1.906779 -21.822034,0 -21.822034,0 0,-6.779661 z m 19.915254,0.423729 c 0,-1.398305 -0.09851,-2.542373 -0.218922,-2.542373 -0.409216,0 -9.52684,4.666959 -9.52684,4.876421 0,0.114579 2.192796,0.208325 4.872881,0.208325 l 4.872881,0 0,-2.542373 z m 13.524012,2.378955 c -0.0971,-0.08988 -2.321681,-1.23554 -4.943503,-2.545912 l -4.766949,-2.382495 0,2.545912 0,2.545913 4.943503,0 c 2.718926,0 4.864053,-0.07354 4.766949,-0.163418 z"
     id="path3005"
     inkscape:connector-curvature="0" /><path
     style="fill:#800000;fill-opacity:1;stroke:#fedcae;stroke-width:0.42372882;stroke-opacity:0.78431373"
     d=""
     id="path3007"
     inkscape:connector-curvature="0" /><path
     style="fill:#800000;fill-opacity:1;stroke:#fedcae;stroke-width:0.42372882;stroke-opacity:0.78431373"
     d="m 20.254237,88.932839 c 0,-1.579972 1.28961,-5.478007 2.2684,-6.856568 2.062063,-2.904281 5.680929,-5.066593 9.312572,-5.564366 l 1.97835,-0.271163 0,1.705353 c 0,1.637225 -0.06348,1.716796 -1.588983,1.991775 -4.382465,0.789961 -7.303673,3.537486 -8.163212,7.67786 l -0.477379,2.299524 -1.664874,0 c -1.458624,0 -1.664874,-0.121704 -1.664874,-0.982415 z"
     id="path3009"
     inkscape:connector-curvature="0" /><path
     style="fill:#800000;fill-opacity:1;stroke:#fedcae;stroke-width:0.42372882;stroke-opacity:0.78431373"
     d="m 74.067797,78.050847 0,-4.661016 1.906779,0 1.90678,0 0,4.661016 0,4.661017 -1.90678,0 -1.906779,0 0,-4.661017 z"
     id="path3011"
     inkscape:connector-curvature="0" /></svg>