<?xml version="1.0" encoding="utf-8"?>
<!-- Generator: Adobe Illustrator 19.1.0, SVG Export Plug-In . SVG Version: 6.00 Build 0)  -->
<svg version="1.1" id="Layer_1" xmlns="http://www.w3.org/2000/svg" xmlns:xlink="http://www.w3.org/1999/xlink" x="0px" y="0px"
	 viewBox="-910 510 83.1 40.5" style="enable-background:new -910 510 83.1 40.5;" xml:space="preserve">
<style type="text/css">
	.st0{enable-background:new    ;}
	.st1{clip-path:url(#SVGID_2_);enable-background:new    ;}
	.st2{fill:#030303;}
	.st3{fill:#040404;}
	.st4{fill:#050505;}
	.st5{clip-path:url(#SVGID_4_);enable-background:new    ;}
	.st6{clip-path:url(#SVGID_6_);enable-background:new    ;}
	.st7{clip-path:url(#SVGID_8_);enable-background:new    ;}
	.st8{clip-path:url(#SVGID_10_);enable-background:new    ;}
	.st9{clip-path:url(#SVGID_12_);enable-background:new    ;}
	.st10{fill:#232323;}
	.st11{fill:#2F2F2F;}
	.st12{fill:#393939;}
	.st13{fill:#414141;}
	.st14{fill:#484848;}
	.st15{fill:#4E4E4E;}
	.st16{fill:#545454;}
	.st17{fill:#5A5A5A;}
	.st18{fill:#5F5F5F;}
	.st19{fill:#646464;}
	.st20{fill:#686868;}
	.st21{clip-path:url(#SVGID_14_);enable-background:new    ;}
	.st22{clip-path:url(#SVGID_16_);enable-background:new    ;}
	.st23{clip-path:url(#SVGID_18_);enable-background:new    ;}
	.st24{clip-path:url(#SVGID_20_);enable-background:new    ;}
	.st25{clip-path:url(#SVGID_22_);enable-background:new    ;}
	.st26{clip-path:url(#SVGID_24_);enable-background:new    ;}
	.st27{clip-path:url(#SVGID_26_);enable-background:new    ;}
	.st28{clip-path:url(#SVGID_28_);enable-background:new    ;}
	.st29{fill:#6D6D6D;}
	.st30{fill:#717171;}
	.st31{clip-path:url(#SVGID_30_);enable-background:new    ;}
	.st32{clip-path:url(#SVGID_32_);enable-background:new    ;}
	.st33{clip-path:url(#SVGID_34_);enable-background:new    ;}
	.st34{clip-path:url(#SVGID_36_);enable-background:new    ;}
</style>
<g>
	<g>
		<g class="st0">
			<g class="st0">
				<g>
					<defs>
						<path id="SVGID_1_" d="M-827,525.9c0,0-17.4,0-39.1,0V510c21.8,0,39.1,0,39.1,0C-827,514.8-827,521.1-827,525.9z"/>
					</defs>
					<clipPath id="SVGID_2_">
						<use xlink:href="#SVGID_1_"  style="overflow:visible;"/>
					</clipPath>
					<g class="st1">
						<path class="st2" d="M-827,525.9V510c0,0-2.9,0-7.9,0v15.9C-829.9,525.9-827,525.9-827,525.9"/>
						<path class="st2" d="M-834.9,525.9V510c-0.8,0-1.5,0-2.3,0v15.9C-836.4,525.9-835.6,525.9-834.9,525.9"/>
						<path class="st2" d="M-837.2,525.9V510c-0.7,0-1.3,0-2,0v15.9C-838.5,525.9-837.8,525.9-837.2,525.9"/>
						<path class="st2" d="M-839.2,525.9V510c-0.6,0-1.2,0-1.9,0v15.9C-840.5,525.9-839.8,525.9-839.2,525.9"/>
						<path class="st2" d="M-841.1,525.9V510c-0.6,0-1.2,0-1.8,0v15.9C-842.3,525.9-841.7,525.9-841.1,525.9"/>
						<path class="st2" d="M-842.9,525.9V510c-0.5,0-1.1,0-1.7,0v15.9C-844,525.9-843.4,525.9-842.9,525.9"/>
						<path class="st2" d="M-844.5,525.9V510c-0.5,0-1.1,0-1.6,0v15.9C-845.7,525.9-845.1,525.9-844.5,525.9"/>
						<path class="st2" d="M-846.3,525.9V510c-0.5,0-1.1,0-1.6,0v15.9C-847.4,525.9-846.8,525.9-846.3,525.9"/>
						<path class="st2" d="M-847.9,525.9V510c-0.5,0-1,0-1.6,0v15.9C-848.9,525.9-848.4,525.9-847.9,525.9"/>
						<path class="st2" d="M-849.5,525.9V510c-0.5,0-1,0-1.6,0v15.9C-850.6,525.9-850,525.9-849.5,525.9"/>
						<path class="st3" d="M-851.2,525.9V510c-0.5,0-1,0-1.5,0v15.9C-852.2,525.9-851.7,525.9-851.2,525.9"/>
						<path class="st3" d="M-852.7,525.9V510c-0.5,0-1,0-1.5,0v15.9C-853.7,525.9-853.2,525.9-852.7,525.9"/>
						<path class="st3" d="M-854.3,525.9V510c-0.5,0-0.9,0-1.5,0v15.9C-855.2,525.9-854.8,525.9-854.3,525.9"/>
						<path class="st3" d="M-855.7,525.9V510c-0.4,0-0.9,0-1.4,0v15.9C-856.7,525.9-856.1,525.9-855.7,525.9"/>
						<path class="st3" d="M-857.1,525.9V510c-0.4,0-0.9,0-1.2,0v15.9C-858,525.9-857.5,525.9-857.1,525.9"/>
						<path class="st3" d="M-858.3,525.9V510c-0.4,0-0.9,0-1.3,0v15.9C-859.2,525.9-858.7,525.9-858.3,525.9"/>
						<path class="st3" d="M-859.6,525.9V510c-0.3,0-0.6,0-0.9,0v15.9C-860.2,525.9-859.9,525.9-859.6,525.9"/>
						<path class="st3" d="M-860.5,525.9V510c-0.3,0-0.6,0-0.9,0v15.9C-861.1,525.9-860.9,525.9-860.5,525.9"/>
						<path class="st3" d="M-861.5,525.9V510c-0.3,0-0.6,0-0.9,0v15.9C-862.2,525.9-861.8,525.9-861.5,525.9"/>
						<path class="st4" d="M-862.4,525.9V510c-0.3,0-0.5,0-0.9,0v15.9C-863,525.9-862.7,525.9-862.4,525.9"/>
						<path class="st4" d="M-863.3,525.9V510c-0.3,0-0.5,0-0.8,0v15.9C-863.8,525.9-863.5,525.9-863.3,525.9"/>
						<path class="st4" d="M-864.1,525.9V510c-0.3,0-0.5,0-0.8,0v15.9C-864.5,525.9-864.2,525.9-864.1,525.9"/>
						<path class="st4" d="M-864.8,525.9V510c-0.3,0-0.5,0-0.8,0v15.9C-865.3,525.9-865,525.9-864.8,525.9"/>
						<path class="st4" d="M-865.5,525.9V510c-0.2,0-0.4,0-0.6,0v15.9C-866,525.9-865.7,525.9-865.5,525.9"/>
					</g>
				</g>
			</g>
			<g class="st0">
				<g>
					<defs>
						<path id="SVGID_3_" d="M-827.8,510v15.6c0,0-16.9,0-38.3,0V510C-844.8,510-827.8,510-827.8,510z"/>
					</defs>
					<clipPath id="SVGID_4_">
						<use xlink:href="#SVGID_3_"  style="overflow:visible;"/>
					</clipPath>
					<g class="st5">
						<path class="st2" d="M-827.8,510v15.6c0,0-2.8,0-7.7,0V510C-830.7,510-827.8,510-827.8,510"/>
						<path class="st2" d="M-835.6,510v15.6c-0.7,0-1.5,0-2.3,0V510C-837.1,510-836.3,510-835.6,510"/>
						<path class="st2" d="M-837.8,510v15.6c-0.6,0-1.3,0-2,0V510C-839.1,510-838.5,510-837.8,510"/>
						<path class="st2" d="M-839.8,510v15.6c-0.6,0-1.2,0-1.8,0V510C-841,510-840.4,510-839.8,510"/>
						<path class="st2" d="M-841.6,510v15.6c-0.6,0-1.1,0-1.7,0V510C-842.8,510-842.2,510-841.6,510"/>
						<path class="st2" d="M-843.4,510v15.6c-0.5,0-1.1,0-1.6,0V510C-844.4,510-843.9,510-843.4,510"/>
						<path class="st2" d="M-845.1,510v15.6c-0.5,0-1.1,0-1.6,0V510C-846.1,510-845.6,510-845.1,510"/>
						<path class="st2" d="M-846.7,510v15.6c-0.5,0-1.1,0-1.6,0V510C-847.7,510-847.2,510-846.7,510"/>
						<path class="st2" d="M-848.3,510v15.6c-0.5,0-1,0-1.5,0V510C-849.4,510-848.8,510-848.3,510"/>
						<path class="st2" d="M-849.9,510v15.6c-0.5,0-1,0-1.5,0V510C-850.9,510-850.4,510-849.9,510"/>
						<path class="st3" d="M-851.5,510v15.6c-0.5,0-1,0-1.5,0V510C-852.5,510-852,510-851.5,510"/>
						<path class="st3" d="M-853.1,510v15.6c-0.5,0-1,0-1.5,0V510C-854,510-853.5,510-853.1,510"/>
						<path class="st3" d="M-854.5,510v15.6c-0.5,0-0.9,0-1.5,0V510C-855.5,510-855,510-854.5,510"/>
						<path class="st3" d="M-856,510v15.6c-0.4,0-0.9,0-1.4,0V510C-856.8,510-856.4,510-856,510"/>
						<path class="st3" d="M-857.4,510v15.6c-0.4,0-0.8,0-1.2,0V510C-858.1,510-857.7,510-857.4,510"/>
						<path class="st3" d="M-858.6,510v15.6c-0.4,0-0.8,0-1.2,0V510C-859.3,510-858.9,510-858.6,510"/>
						<path class="st3" d="M-859.8,510v15.6c-0.3,0-0.6,0-0.9,0V510C-860.4,510-860,510-859.8,510"/>
						<path class="st3" d="M-860.7,510v15.6c-0.3,0-0.6,0-0.9,0V510C-861.3,510-861,510-860.7,510"/>
						<path class="st3" d="M-861.7,510v15.6c-0.3,0-0.6,0-0.9,0V510C-862.3,510-861.9,510-861.7,510"/>
						<path class="st4" d="M-862.5,510v15.6c-0.3,0-0.5,0-0.8,0V510C-863.1,510-862.9,510-862.5,510"/>
						<path class="st4" d="M-863.4,510v15.6c-0.3,0-0.5,0-0.7,0V510C-863.8,510-863.6,510-863.4,510"/>
						<path class="st4" d="M-864.1,510v15.6c-0.3,0-0.5,0-0.7,0V510C-864.6,510-864.3,510-864.1,510"/>
						<path class="st4" d="M-864.8,510v15.6c-0.3,0-0.5,0-0.8,0V510C-865.3,510-865.1,510-864.8,510"/>
						<path class="st4" d="M-865.5,510v15.6c-0.2,0-0.4,0-0.6,0V510C-866,510-865.8,510-865.5,510"/>
					</g>
				</g>
			</g>
			<g>
				<path class="st2" d="M-867.2,550.5h0.3h0.3c7.9,0,14.3,0,14.1,0C-852.6,550.5-859.3,550.5-867.2,550.5z"/>
			</g>
			<g class="st0">
				<g>
					<defs>
						<path id="SVGID_5_" d="M-852.5,550.5c0,0-6.3,0-14.1,0l0.5-24.6c21.8,0,39.1,0,39.1,0C-835.5,534.1-844,542.3-852.5,550.5z"/>
					</defs>
					<clipPath id="SVGID_6_">
						<use xlink:href="#SVGID_5_"  style="overflow:visible;"/>
					</clipPath>
					<g class="st6">
						<path class="st2" d="M-852.5,550.5l25.6-24.6c0,0-1.2,0-3.4,0l-23.4,24.6C-853,550.5-852.5,550.5-852.5,550.5"/>
						<path class="st2" d="M-853.7,550.5l23.4-24.6c-0.6,0-1.3,0-2.1,0l-22.1,24.6C-854.3,550.5-854,550.5-853.7,550.5"/>
						<path class="st2" d="M-854.5,550.5l22.1-24.6c-0.6,0-1.2,0-1.9,0l-20.9,24.6C-854.9,550.5-854.8,550.5-854.5,550.5"/>
						<path class="st2" d="M-855.2,550.5l20.9-24.6c-0.6,0-1.2,0-1.8,0l-19.7,24.6C-855.6,550.5-855.4,550.5-855.2,550.5"/>
						<path class="st2" d="M-855.9,550.5l19.7-24.6c-0.6,0-1.2,0-1.8,0l-18.6,24.6C-856.3,550.5-856.1,550.5-855.9,550.5"/>
						<path class="st2" d="M-856.5,550.5l18.6-24.6c-0.6,0-1.2,0-1.8,0l-17.4,24.6C-856.9,550.5-856.8,550.5-856.5,550.5"/>
						<path class="st2" d="M-857.2,550.5l17.4-24.6c-0.6,0-1.2,0-1.8,0l-16.3,24.6C-857.6,550.5-857.4,550.5-857.2,550.5"/>
						<path class="st2" d="M-857.8,550.5l16.3-24.6c-0.6,0-1.2,0-1.8,0l-15.1,24.6C-858.2,550.5-858,550.5-857.8,550.5"/>
						<path class="st2" d="M-858.5,550.5l15.1-24.6c-0.6,0-1.2,0-1.8,0l-14,24.6C-858.9,550.5-858.6,550.5-858.5,550.5"/>
						<path class="st2" d="M-859.1,550.5l14-24.6c-0.6,0-1.2,0-1.8,0l-12.8,24.6C-859.5,550.5-859.3,550.5-859.1,550.5"/>
						<path class="st3" d="M-859.8,550.5l12.8-24.6c-0.6,0-1.2,0-1.8,0l-11.6,24.6C-860.2,550.5-859.9,550.5-859.8,550.5"/>
						<path class="st3" d="M-860.4,550.5l11.6-24.6c-0.6,0-1.2,0-1.9,0l-10.4,24.6C-860.9,550.5-860.6,550.5-860.4,550.5"/>
						<path class="st3" d="M-861.1,550.5l10.4-24.6c-0.6,0-1.3,0-1.9,0l-9.2,24.6C-861.6,550.5-861.3,550.5-861.1,550.5"/>
						<path class="st3" d="M-861.7,550.5l9.2-24.6c-0.7,0-1.3,0-2,0l-8,24.6C-862.3,550.5-862,550.5-861.7,550.5"/>
						<path class="st3" d="M-862.5,550.5l8-24.6c-0.7,0-1.4,0-2.1,0l-6.6,24.6C-862.9,550.5-862.7,550.5-862.5,550.5"/>
						<path class="st3" d="M-863.2,550.5l6.6-24.6c-0.7,0-1.4,0-2.1,0l-5.3,24.6C-863.7,550.5-863.5,550.5-863.2,550.5"/>
						<path class="st3" d="M-864,550.5l5.3-24.6c-0.7,0-1.5,0-2.2,0l-4,24.6C-864.5,550.5-864.2,550.5-864,550.5"/>
						<path class="st3" d="M-864.8,550.5l4-24.6c-0.8,0-1.5,0-2.2,0l-2.5,24.6C-865.3,550.5-865,550.5-864.8,550.5"/>
						<path class="st3" d="M-865.5,550.5l2.5-24.6c-0.8,0-1.6,0-2.4,0l-0.9,24.6C-866.1,550.5-865.9,550.5-865.5,550.5"/>
						<path class="st4" d="M-866.5,550.5l0.9-24.6c-0.2,0-0.4,0-0.6,0l-0.5,24.6C-866.6,550.5-866.5,550.5-866.5,550.5"/>
					</g>
				</g>
			</g>
			<g class="st0">
				<g>
					<defs>
						<path id="SVGID_7_" d="M-827.8,525.6c-8.3,8.1-16.8,16.1-25.1,24.2c0,0-6.1,0-13.7,0l0.5-24.2
							C-844.8,525.6-827.8,525.6-827.8,525.6z"/>
					</defs>
					<clipPath id="SVGID_8_">
						<use xlink:href="#SVGID_7_"  style="overflow:visible;"/>
					</clipPath>
					<g class="st7">
						<path class="st2" d="M-827.8,525.6l-25.1,24.2c0,0-0.4,0-1.2,0l23.1-24.2C-829,525.6-827.8,525.6-827.8,525.6"/>
						<path class="st2" d="M-831.1,525.6l-23.1,24.2c-0.3,0-0.4,0-0.8,0l21.7-24.2C-832.4,525.6-831.7,525.6-831.1,525.6"/>
						<path class="st2" d="M-833.2,525.6l-21.7,24.2c-0.2,0-0.4,0-0.7,0l20.5-24.2C-834.4,525.6-833.8,525.6-833.2,525.6"/>
						<path class="st2" d="M-835.1,525.6l-20.5,24.2c-0.2,0-0.4,0-0.6,0l19.4-24.2C-836.2,525.6-835.6,525.6-835.1,525.6"/>
						<path class="st2" d="M-836.8,525.6l-19.4,24.2c-0.2,0-0.4,0-0.6,0l18.2-24.2C-838,525.6-837.4,525.6-836.8,525.6"/>
						<path class="st2" d="M-838.6,525.6l-18.2,24.2c-0.2,0-0.4,0-0.6,0l17.1-24.2C-839.7,525.6-839.1,525.6-838.6,525.6"/>
						<path class="st2" d="M-840.3,525.6l-17.1,24.2c-0.2,0-0.4,0-0.6,0l16-24.2C-841.4,525.6-840.9,525.6-840.3,525.6"/>
						<path class="st2" d="M-842,525.6l-16,24.2c-0.2,0-0.4,0-0.6,0l14.9-24.2C-843.2,525.6-842.6,525.6-842,525.6"/>
						<path class="st2" d="M-843.8,525.6l-14.9,24.2c-0.2,0-0.4,0-0.6,0l13.8-24.2C-845,525.6-844.4,525.6-843.8,525.6"/>
						<path class="st2" d="M-845.6,525.6l-13.8,24.2c-0.2,0-0.4,0-0.6,0l12.6-24.2C-846.8,525.6-846.2,525.6-845.6,525.6"/>
						<path class="st3" d="M-847.4,525.6l-12.6,24.2c-0.2,0-0.4,0-0.6,0l11.4-24.2C-848.5,525.6-847.9,525.6-847.4,525.6"/>
						<path class="st3" d="M-849.2,525.6l-11.4,24.2c-0.3,0-0.4,0-0.7,0l10.2-24.2C-850.4,525.6-849.8,525.6-849.2,525.6"/>
						<path class="st3" d="M-851,525.6l-10.2,24.2c-0.3,0-0.4,0-0.7,0l9-24.2C-852.2,525.6-851.6,525.6-851,525.6"/>
						<path class="st3" d="M-852.9,525.6l-9,24.2c-0.3,0-0.4,0-0.7,0l7.8-24.2C-854.2,525.6-853.5,525.6-852.9,525.6"/>
						<path class="st3" d="M-854.8,525.6l-7.8,24.2c-0.3,0-0.4,0-0.7,0l6.5-24.2C-856.1,525.6-855.5,525.6-854.8,525.6"/>
						<path class="st3" d="M-856.8,525.6l-6.5,24.2c-0.3,0-0.5,0-0.8,0l5.2-24.2C-858.1,525.6-857.4,525.6-856.8,525.6"/>
						<path class="st3" d="M-858.8,525.6l-5.2,24.2c-0.3,0-0.5,0-0.8,0l3.9-24.2C-860.3,525.6-859.5,525.6-858.8,525.6"/>
						<path class="st3" d="M-861,525.6l-3.9,24.2c-0.3,0-0.5,0-0.8,0l2.4-24.2C-862.4,525.6-861.7,525.6-861,525.6"/>
						<path class="st3" d="M-863.2,525.6l-2.4,24.2c-0.3,0-0.6,0-0.9,0l0.9-24.2C-864.8,525.6-864,525.6-863.2,525.6"/>
						<path class="st4" d="M-865.5,525.6l-0.9,24.2c-0.1,0-0.2,0-0.2,0l0.5-24.2C-866,525.6-865.8,525.6-865.5,525.6"/>
					</g>
				</g>
			</g>
			<g>
				<path class="st2" d="M-867,510L-867,510L-867,510c0.5,0,0.9,0,0.9,0S-866.5,510-867,510z"/>
			</g>
			<g class="st0">
				<g>
					<defs>
						<path id="SVGID_9_" d="M-853,549.8L-853,549.8c-0.2,0-6.5,0-14.3,0l-0.5-24.2c21.6,0,39.5,0,39.9,0l0,0
							C-836.2,533.7-844.6,541.7-853,549.8z"/>
					</defs>
					<clipPath id="SVGID_10_">
						<use xlink:href="#SVGID_9_"  style="overflow:visible;"/>
					</clipPath>
					<g class="st8">
						<path class="st2" d="M-867.8,525.6l0.5,24.2c0.7,0,1.4,0,2.1,0l3.2-24.2C-863.9,525.6-865.8,525.6-867.8,525.6"/>
						<path class="st2" d="M-862,525.6l-3.2,24.2c2.9,0,5.5,0,7.7,0l16.9-24.2C-846.5,525.6-853.9,525.6-862,525.6"/>
						<path class="st2" d="M-840.7,525.6l-16.9,24.2c0.5,0,1,0,1.5,0l19.6-24.2C-837.7,525.6-839.2,525.6-840.7,525.6"/>
						<path class="st2" d="M-836.4,525.6l-19.6,24.2c0.3,0,0.7,0,1,0l21.4-24.2C-834.5,525.6-835.4,525.6-836.4,525.6"/>
						<path class="st2" d="M-833.6,525.6l-21.4,24.2c0.3,0,0.5,0,0.8,0l22.9-24.2C-832,525.6-832.7,525.6-833.6,525.6"/>
						<path class="st2" d="M-831.4,525.6l-22.9,24.2c0.3,0,0.4,0,0.6,0l24-24.2C-830.1,525.6-830.7,525.6-831.4,525.6"/>
						<path class="st2" d="M-829.7,525.6l-24,24.2c0.2,0,0.3,0,0.4,0l24.9-24.2C-828.6,525.6-829,525.6-829.7,525.6"/>
						<path class="st2" d="M-828.4,525.6l-24.9,24.2c0.1,0,0.2,0,0.2,0l0,0l25.1-24.2l0,0C-827.8,525.6-828,525.6-828.4,525.6"/>
					</g>
				</g>
			</g>
			<g class="st0">
				<g>
					<defs>
						<path id="SVGID_11_" d="M-827.8,525.6L-827.8,525.6c-0.4,0-18.3,0-39.9,0V510c21.6,0,39.5,0,39.9,0l0,0
							C-827.8,514.7-827.8,520.9-827.8,525.6z"/>
					</defs>
					<clipPath id="SVGID_12_">
						<use xlink:href="#SVGID_11_"  style="overflow:visible;"/>
					</clipPath>
					<g class="st9">
						<path class="st4" d="M-867.8,510v15.6h0.1L-867.8,510L-867.8,510"/>
						<path class="st4" d="M-867.7,510v15.6c0.2,0,0.4,0,0.6,0V510C-867.2,510-867.4,510-867.7,510"/>
						<path class="st10" d="M-867,510v15.6c0.2,0,0.4,0,0.6,0V510C-866.6,510-866.8,510-867,510"/>
						<path class="st11" d="M-866.4,510v15.6c0.2,0,0.4,0,0.6,0V510C-866,510-866.1,510-866.4,510"/>
						<path class="st12" d="M-865.7,510v15.6c0.2,0,0.4,0,0.6,0V510C-865.3,510-865.5,510-865.7,510"/>
						<path class="st13" d="M-865.1,510v15.6c0.3,0,0.4,0,0.7,0V510C-864.7,510-864.8,510-865.1,510"/>
						<path class="st14" d="M-864.4,510v15.6c0.3,0,0.5,0,0.7,0V510C-864,510-864.2,510-864.4,510"/>
						<path class="st15" d="M-863.7,510v15.6c0.3,0,0.5,0,0.7,0V510C-863.3,510-863.5,510-863.7,510"/>
						<path class="st16" d="M-863,510v15.6c0.3,0,0.4,0,0.7,0V510C-862.5,510-862.8,510-863,510"/>
						<path class="st17" d="M-862.3,510v15.6c0.3,0,0.4,0,0.7,0V510C-861.8,510-862.1,510-862.3,510"/>
						<path class="st18" d="M-861.6,510v15.6c0.3,0,0.8,0,1.1,0V510C-860.9,510-861.2,510-861.6,510"/>
						<path class="st19" d="M-860.5,510v15.6c0.4,0,0.9,0,1.3,0V510C-859.6,510-860,510-860.5,510"/>
						<path class="st20" d="M-859.2,510v15.6c1.4,0,2.8,0,4.1,0V510C-856.4,510-857.8,510-859.2,510"/>
						<path class="st19" d="M-855,510v15.6c0.3,0,0.8,0,1.1,0V510C-854.3,510-854.7,510-855,510"/>
						<path class="st18" d="M-853.9,510v15.6c0.3,0,0.8,0,1.1,0V510C-853.2,510-853.6,510-853.9,510"/>
						<path class="st17" d="M-852.8,510v15.6c0.3,0,0.6,0,0.9,0V510C-852.3,510-852.5,510-852.8,510"/>
						<path class="st16" d="M-851.9,510v15.6c0.3,0,0.5,0,0.8,0V510C-851.4,510-851.7,510-851.9,510"/>
						<path class="st15" d="M-851.2,510v15.6c0.3,0,0.5,0,0.8,0V510C-850.6,510-850.9,510-851.2,510"/>
						<path class="st14" d="M-850.4,510v15.6c0.3,0,0.5,0,0.8,0V510C-849.9,510-850.1,510-850.4,510"/>
						<path class="st13" d="M-849.6,510v15.6c0.3,0,0.5,0,0.8,0V510C-849.1,510-849.4,510-849.6,510"/>
						<path class="st12" d="M-848.8,510v15.6c0.3,0,0.5,0,0.8,0V510C-848.3,510-848.6,510-848.8,510"/>
						<path class="st11" d="M-848,510v15.6c0.3,0,0.5,0,0.8,0V510C-847.5,510-847.7,510-848,510"/>
						<path class="st10" d="M-847.2,510v15.6c0.3,0,0.6,0,0.9,0V510C-846.6,510-846.9,510-847.2,510"/>
						<path class="st4" d="M-846.3,510v15.6c0.3,0,0.7,0,1,0V510C-845.6,510-845.9,510-846.3,510"/>
						<path class="st4" d="M-845.3,510v15.6c0.3,0,0.7,0,1,0V510C-844.5,510-844.9,510-845.3,510"/>
						<path class="st4" d="M-844.2,510v15.6c0.4,0,0.9,0,1.4,0V510C-843.3,510-843.8,510-844.2,510"/>
						<path class="st4" d="M-842.9,510v15.6c0.5,0,0.9,0,1.5,0V510C-841.9,510-842.4,510-842.9,510"/>
						<path class="st4" d="M-841.4,510v15.6c0.5,0,1.1,0,1.6,0V510C-840.3,510-840.8,510-841.4,510"/>
						<path class="st4" d="M-839.8,510v15.6c0.5,0,1.1,0,1.6,0V510C-838.7,510-839.3,510-839.8,510"/>
						<path class="st3" d="M-838.2,510v15.6c0.5,0,1,0,1.5,0V510C-837.2,510-837.7,510-838.2,510"/>
						<path class="st3" d="M-836.7,510v15.6c0.4,0,0.9,0,1.3,0V510C-835.8,510-836.3,510-836.7,510"/>
						<path class="st3" d="M-835.4,510v15.6c0.4,0,0.8,0,1.1,0V510C-834.6,510-835,510-835.4,510"/>
						<path class="st3" d="M-834.3,510v15.6c0.3,0,0.7,0,1,0V510C-833.6,510-833.9,510-834.3,510"/>
						<path class="st3" d="M-833.3,510v15.6c0.3,0,0.6,0,0.9,0V510C-832.7,510-832.9,510-833.3,510"/>
						<path class="st3" d="M-832.3,510v15.6c0.3,0,0.5,0,0.8,0V510C-831.8,510-832.1,510-832.3,510"/>
						<path class="st3" d="M-831.5,510v15.6c0.3,0,0.5,0,0.7,0V510C-831,510-831.3,510-831.5,510"/>
						<path class="st3" d="M-830.9,510v15.6c0.3,0,0.4,0,0.6,0V510C-830.3,510-830.6,510-830.9,510"/>
						<path class="st3" d="M-830.2,510v15.6c0.2,0,0.4,0,0.6,0V510C-829.8,510-830,510-830.2,510"/>
						<path class="st2" d="M-829.7,510v15.6c0.2,0,0.3,0,0.5,0V510C-829.3,510-829.5,510-829.7,510"/>
						<path class="st2" d="M-829.1,510v15.6c0.2,0,0.3,0,0.4,0V510C-828.8,510-829,510-829.1,510"/>
						<path class="st2" d="M-828.7,510v15.6c0.2,0,0.3,0,0.3,0V510C-828.4,510-828.5,510-828.7,510"/>
						<path class="st2" d="M-828.4,510v15.6c0.1,0,0.2,0,0.3,0V510C-828.2,510-828.3,510-828.4,510"/>
						<path class="st2" d="M-828.1,510v15.6c0.1,0,0.2,0,0.2,0V510C-827.9,510-828,510-828.1,510"/>
						<path class="st2" d="M-827.9,510v15.6h0.1l0,0L-827.9,510C-827.8,510-827.8,510-827.9,510C-827.8,510-827.8,510-827.9,510"/>
						<polyline class="st2" points="-827.8,510 -827.8,525.6 -827.8,525.6 -827.8,510 -827.8,510 						"/>
					</g>
				</g>
			</g>
			<g class="st0">
				<g>
					<defs>
						<path id="SVGID_13_" d="M-827,525.9c-8.5,8.2-17,16.4-25.6,24.6l0,0c-0.2,0-6.7,0-14.7,0l-0.5-24.6
							C-845.7,525.9-827.4,525.9-827,525.9L-827,525.9z"/>
					</defs>
					<clipPath id="SVGID_14_">
						<use xlink:href="#SVGID_13_"  style="overflow:visible;"/>
					</clipPath>
					<g class="st21">
						<path class="st2" d="M-867.2,550.5l-0.5-24.6c2,0,4,0,5.9,0l-3.3,24.6C-865.9,550.5-866.6,550.5-867.2,550.5"/>
						<path class="st2" d="M-865.1,550.5l3.3-24.6c8.3,0,15.8,0,21.8,0l-17.1,24.6C-859.4,550.5-862.2,550.5-865.1,550.5"/>
						<path class="st2" d="M-857.3,550.5l17.1-24.6c1.5,0,3,0,4.3,0l-20,24.6C-856.2,550.5-856.8,550.5-857.3,550.5"/>
						<path class="st2" d="M-855.7,550.5l19.9-24.6c1.1,0,2.1,0,3,0l-21.9,24.6C-855,550.5-855.4,550.5-855.7,550.5"/>
						<path class="st2" d="M-854.7,550.5l21.9-24.6c0.9,0,1.6,0,2.2,0l-23.3,24.6C-854.1,550.5-854.3,550.5-854.7,550.5"/>
						<path class="st2" d="M-853.8,550.5l23.3-24.6c0.7,0,1.3,0,1.8,0l-24.4,24.6C-853.4,550.5-853.6,550.5-853.8,550.5"/>
						<path class="st2" d="M-853.2,550.5l24.4-24.6c0.6,0,1,0,1.3,0l-25.3,24.6C-852.9,550.5-853.1,550.5-853.2,550.5"/>
						<path class="st2" d="M-852.7,550.5l25.3-24.6c0.3,0,0.4,0,0.5,0l0,0l-25.6,24.6l0,0C-852.5,550.5-852.6,550.5-852.7,550.5"/>
					</g>
				</g>
			</g>
			<g class="st0">
				<g>
					<defs>
						<path id="SVGID_15_" d="M-827,510v15.9l0,0c-0.4,0-18.8,0-40.9,0V510C-845.7,510-827.4,510-827,510L-827,510z"/>
					</defs>
					<clipPath id="SVGID_16_">
						<use xlink:href="#SVGID_15_"  style="overflow:visible;"/>
					</clipPath>
					<g class="st22">
						<path class="st4" d="M-867.8,525.9V510c0.1,0,0.1,0,0.2,0v15.9C-867.7,525.9-867.8,525.9-867.8,525.9"/>
						<path class="st4" d="M-867.7,525.9V510c0.3,0,0.4,0,0.7,0v15.9C-867.2,525.9-867.4,525.9-867.7,525.9"/>
						<path class="st10" d="M-867,525.9V510c0.3,0,0.4,0,0.7,0v15.9C-866.6,525.9-866.8,525.9-867,525.9"/>
						<path class="st11" d="M-866.4,525.9V510c0.3,0,0.4,0,0.7,0v15.9C-865.9,525.9-866.1,525.9-866.4,525.9"/>
						<path class="st12" d="M-865.7,525.9V510c0.3,0,0.4,0,0.7,0v15.9C-865.3,525.9-865.4,525.9-865.7,525.9"/>
						<path class="st13" d="M-865,525.9V510c0.3,0,0.4,0,0.7,0v15.9C-864.6,525.9-864.8,525.9-865,525.9"/>
						<path class="st14" d="M-864.4,525.9V510c0.3,0,0.5,0,0.7,0v15.9C-863.9,525.9-864.2,525.9-864.4,525.9"/>
						<path class="st15" d="M-863.6,525.9V510c0.3,0,0.5,0,0.7,0v15.9C-863.2,525.9-863.4,525.9-863.6,525.9"/>
						<path class="st16" d="M-862.9,525.9V510c0.3,0,0.5,0,0.7,0v15.9C-862.4,525.9-862.7,525.9-862.9,525.9"/>
						<path class="st17" d="M-862.2,525.9V510c0.3,0,0.5,0,0.7,0v15.9C-861.7,525.9-862,525.9-862.2,525.9"/>
						<path class="st18" d="M-861.5,525.9V510c0.4,0,0.8,0,1.1,0v15.9C-860.7,525.9-861.1,525.9-861.5,525.9"/>
						<path class="st19" d="M-860.4,525.9V510c0.4,0,0.9,0,1.3,0v15.9C-859.4,525.9-859.8,525.9-860.4,525.9"/>
						<path class="st20" d="M-859,525.9V510c1.5,0,2.8,0,4.2,0v15.9C-856.1,525.9-857.6,525.9-859,525.9"/>
						<path class="st19" d="M-854.8,525.9V510c0.3,0,0.8,0,1.1,0v15.9C-854,525.9-854.4,525.9-854.8,525.9"/>
						<path class="st18" d="M-853.7,525.9V510c0.3,0,0.8,0,1.1,0v15.9C-852.9,525.9-853.2,525.9-853.7,525.9"/>
						<path class="st17" d="M-852.5,525.9V510c0.3,0,0.6,0,0.9,0v15.9C-851.9,525.9-852.2,525.9-852.5,525.9"/>
						<path class="st16" d="M-851.6,525.9V510c0.3,0,0.5,0,0.8,0v15.9C-851.1,525.9-851.3,525.9-851.6,525.9"/>
						<path class="st15" d="M-850.8,525.9V510c0.3,0,0.5,0,0.8,0v15.9C-850.3,525.9-850.6,525.9-850.8,525.9"/>
						<path class="st14" d="M-850,525.9V510c0.3,0,0.5,0,0.8,0v15.9C-849.5,525.9-849.8,525.9-850,525.9"/>
						<path class="st13" d="M-849.3,525.9V510c0.3,0,0.5,0,0.9,0v15.9C-848.7,525.9-848.9,525.9-849.3,525.9"/>
						<path class="st12" d="M-848.4,525.9V510c0.3,0,0.5,0,0.8,0v15.9C-847.9,525.9-848.1,525.9-848.4,525.9"/>
						<path class="st11" d="M-847.6,525.9V510c0.3,0,0.5,0,0.8,0v15.9C-847,525.9-847.4,525.9-847.6,525.9"/>
						<path class="st10" d="M-846.8,525.9V510c0.3,0,0.7,0,0.9,0v15.9C-846.2,525.9-846.4,525.9-846.8,525.9"/>
						<path class="st4" d="M-845.8,525.9V510c0.3,0,0.7,0,1,0v15.9C-845.1,525.9-845.5,525.9-845.8,525.9"/>
						<path class="st4" d="M-844.8,525.9V510c0.3,0,0.7,0,1.1,0v15.9C-844.1,525.9-844.4,525.9-844.8,525.9"/>
						<path class="st4" d="M-843.7,525.9V510c0.4,0,0.9,0,1.4,0v15.9C-842.8,525.9-843.2,525.9-843.7,525.9"/>
						<path class="st4" d="M-842.4,525.9V510c0.5,0,1,0,1.5,0v15.9C-841.4,525.9-841.9,525.9-842.4,525.9"/>
						<path class="st4" d="M-840.8,525.9V510c0.5,0,1.1,0,1.6,0v15.9C-839.7,525.9-840.3,525.9-840.8,525.9"/>
						<path class="st4" d="M-839.2,525.9V510c0.6,0,1.1,0,1.6,0v15.9C-838.1,525.9-838.7,525.9-839.2,525.9"/>
						<path class="st3" d="M-837.6,525.9V510c0.5,0,1,0,1.5,0v15.9C-836.5,525.9-837.1,525.9-837.6,525.9"/>
						<path class="st3" d="M-836.1,525.9V510c0.4,0,0.9,0,1.4,0v15.9C-835.2,525.9-835.6,525.9-836.1,525.9"/>
						<path class="st3" d="M-834.7,525.9V510c0.4,0,0.8,0,1.2,0v15.9C-834,525.9-834.3,525.9-834.7,525.9"/>
						<path class="st3" d="M-833.5,525.9V510c0.3,0,0.7,0,1,0v15.9C-832.8,525.9-833.2,525.9-833.5,525.9"/>
						<path class="st3" d="M-832.5,525.9V510c0.3,0,0.6,0,0.9,0v15.9C-831.9,525.9-832.1,525.9-832.5,525.9"/>
						<path class="st3" d="M-831.5,525.9V510c0.3,0,0.5,0,0.9,0v15.9C-831,525.9-831.3,525.9-831.5,525.9"/>
						<path class="st3" d="M-830.8,525.9V510c0.3,0,0.5,0,0.8,0v15.9C-830.3,525.9-830.5,525.9-830.8,525.9"/>
						<path class="st3" d="M-830,525.9V510c0.3,0,0.4,0,0.7,0v15.9C-829.6,525.9-829.8,525.9-830,525.9"/>
						<path class="st3" d="M-829.4,525.9V510c0.2,0,0.4,0,0.6,0v15.9C-829,525.9-829.1,525.9-829.4,525.9"/>
						<path class="st2" d="M-828.8,525.9V510c0.2,0,0.3,0,0.5,0v15.9C-828.4,525.9-828.6,525.9-828.8,525.9"/>
						<path class="st2" d="M-828.3,525.9V510c0.2,0,0.3,0,0.4,0v15.9C-828,525.9-828.1,525.9-828.3,525.9"/>
						<path class="st2" d="M-827.8,525.9V510c0.2,0,0.3,0,0.3,0v15.9C-827.6,525.9-827.8,525.9-827.8,525.9"/>
						<path class="st2" d="M-827.5,525.9V510c0.1,0,0.2,0,0.3,0v15.9C-827.3,525.9-827.4,525.9-827.5,525.9"/>
						<path class="st2" d="M-827.2,525.9V510c0.1,0,0.2,0,0.2,0v15.9C-827.1,525.9-827.2,525.9-827.2,525.9"/>
						<path class="st2" d="M-827.1,525.9V510h0.1l0,0L-827.1,525.9C-827,525.9-827,525.9-827.1,525.9
							C-827,525.9-827,525.9-827.1,525.9"/>
						<polyline class="st2" points="-827,525.9 -827,510 -827,510 -827,525.9 -827,525.9 						"/>
					</g>
				</g>
			</g>
			<g>
				<path class="st2" d="M-867.8,510L-867.8,510c21.6,0,39.5,0,40,0s-16.7,0-38.3,0l0,0c22.1,0,39.6,0,39.1,0
					C-827.4,510-845.7,510-867.8,510z"/>
			</g>
		</g>
	</g>
</g>
<g>
	<g>
		<g class="st0">
			<g>
				<path class="st2" d="M-871.2,510c-22.1,0-39.4,0-38.7,0s19.2,0,41.2,0l0,0c-21.6,0-39.7,0-40.3,0S-892.8,510-871.2,510
					L-871.2,510z"/>
			</g>
			<g class="st0">
				<g>
					<defs>
						<path id="SVGID_17_" d="M-910,510c0,0,17.1,0,38.7,0v15.9c-21.7,0-38.7,0-38.7,0C-910,521.1-910,514.8-910,510z"/>
					</defs>
					<clipPath id="SVGID_18_">
						<use xlink:href="#SVGID_17_"  style="overflow:visible;"/>
					</clipPath>
					<g class="st23">
						<path class="st2" d="M-871.2,525.9V510c-0.4,0-0.9,0-1.3,0v15.9C-872.2,525.9-871.7,525.9-871.2,525.9"/>
						<path class="st2" d="M-872.6,525.9V510c-0.6,0-1.2,0-1.8,0v15.9C-873.8,525.9-873.2,525.9-872.6,525.9"/>
						<path class="st2" d="M-874.4,525.9V510c-0.7,0-1.5,0-2.2,0v15.9C-875.9,525.9-875.2,525.9-874.4,525.9"/>
						<path class="st2" d="M-876.5,525.9V510c-0.8,0-1.5,0-2.3,0v15.9C-878.1,525.9-877.3,525.9-876.5,525.9"/>
						<path class="st2" d="M-878.9,525.9V510c-0.9,0-1.7,0-2.6,0v15.9C-880.6,525.9-879.7,525.9-878.9,525.9"/>
						<path class="st2" d="M-881.4,525.9V510c-1.1,0-2.2,0-3.3,0v15.9C-883.7,525.9-882.6,525.9-881.4,525.9"/>
						<path class="st2" d="M-884.7,525.9V510c-14.8,0-25.2,0-25.2,0v15.9C-910,525.9-899.6,525.9-884.7,525.9"/>
					</g>
				</g>
			</g>
			<g class="st0">
				<g>
					<defs>
						<path id="SVGID_19_" d="M-909.1,525.6V510c0,0,16.7,0,37.9,0v15.6C-892.4,525.6-909.1,525.6-909.1,525.6z"/>
					</defs>
					<clipPath id="SVGID_20_">
						<use xlink:href="#SVGID_19_"  style="overflow:visible;"/>
					</clipPath>
					<g class="st24">
						<path class="st2" d="M-871.2,510v15.6c-0.4,0-0.9,0-1.3,0V510C-872.1,510-871.6,510-871.2,510"/>
						<path class="st2" d="M-872.5,510v15.6c-0.6,0-1.2,0-1.8,0V510C-873.7,510-873.1,510-872.5,510"/>
						<path class="st2" d="M-874.3,510v15.6c-0.7,0-1.4,0-2.1,0V510C-875.7,510-875,510-874.3,510"/>
						<path class="st2" d="M-876.4,510v15.6c-0.8,0-1.5,0-2.2,0V510C-877.9,510-877.1,510-876.4,510"/>
						<path class="st2" d="M-878.7,510v15.6c-0.9,0-1.7,0-2.6,0V510C-880.3,510-879.5,510-878.7,510"/>
						<path class="st2" d="M-881.2,510v15.6c-1.1,0-2.2,0-3.3,0V510C-883.4,510-882.3,510-881.2,510"/>
						<path class="st2" d="M-884.5,510v15.6c-14.5,0-24.7,0-24.7,0V510C-909.1,510-899,510-884.5,510"/>
					</g>
				</g>
			</g>
			<g class="st0">
				<g>
					<defs>
						<path id="SVGID_21_" d="M-910,525.9c0,0,17.1,0,38.7,0l0.8,24.6c-7.8,0-13.9,0-13.9,0C-892.9,542.3-901.5,534.1-910,525.9z"/>
					</defs>
					<clipPath id="SVGID_22_">
						<use xlink:href="#SVGID_21_"  style="overflow:visible;"/>
					</clipPath>
					<g class="st25">
						<path class="st2" d="M-870.4,550.5l-0.8-24.6c-0.3,0-0.7,0-1.1,0l1.5,24.6C-870.7,550.5-870.6,550.5-870.4,550.5"/>
						<path class="st2" d="M-870.9,550.5l-1.5-24.6c-1.6,0-3.3,0-4.8,0l4.6,24.6C-872,550.5-871.4,550.5-870.9,550.5"/>
						<path class="st2" d="M-872.6,550.5l-4.6-24.6c-18.8,0-32.9,0-32.9,0l25.6,24.6C-884.4,550.5-879.3,550.5-872.6,550.5"/>
					</g>
				</g>
			</g>
			<g class="st0">
				<g>
					<defs>
						<path id="SVGID_23_" d="M-883.9,549.8c-8.3-8.1-16.8-16.1-25.1-24.2c0,0,16.7,0,37.9,0l0.8,24.2
							C-878,549.8-883.9,549.8-883.9,549.8z"/>
					</defs>
					<clipPath id="SVGID_24_">
						<use xlink:href="#SVGID_23_"  style="overflow:visible;"/>
					</clipPath>
					<g class="st26">
						<path class="st2" d="M-871.2,525.6l0.8,24.2c-0.1,0-0.3,0-0.3,0l-1.5-24.2C-871.9,525.6-871.5,525.6-871.2,525.6"/>
						<path class="st2" d="M-872.3,525.6l1.5,24.2c-0.6,0-1.1,0-1.7,0l-4.5-24.2C-875.4,525.6-873.9,525.6-872.3,525.6"/>
						<path class="st2" d="M-877,525.6l4.5,24.2c-6.5,0-11.4,0-11.4,0l-25.1-24.2C-909.1,525.6-895.4,525.6-877,525.6"/>
					</g>
				</g>
			</g>
			<g class="st0">
				<g>
					<defs>
						<path id="SVGID_25_" d="M-870.9,510c0,0,0.3,0,0.9,0v39.8c-0.4,0-0.9,0-0.9,0C-870.9,537.9-870.9,521.9-870.9,510z"/>
					</defs>
					<clipPath id="SVGID_26_">
						<use xlink:href="#SVGID_25_"  style="overflow:visible;"/>
					</clipPath>
					<g class="st27">
						<path class="st2" d="M-870,549.8V510l0,0V549.8L-870,549.8"/>
						<path class="st2" d="M-870,549.8V510l0,0V549.8C-870.1,549.8-870.1,549.8-870,549.8"/>
						<path class="st2" d="M-870.1,549.8V510c0,0,0,0-0.1,0L-870.1,549.8L-870.1,549.8"/>
						<path class="st2" d="M-870.1,549.8V510c0,0,0,0-0.1,0L-870.1,549.8C-870.2,549.8-870.2,549.8-870.1,549.8"/>
						<path class="st2" d="M-870.2,549.8V510c0,0,0,0-0.1,0L-870.2,549.8L-870.2,549.8"/>
						<path class="st2" d="M-870.3,549.8V510h-0.1L-870.3,549.8L-870.3,549.8"/>
						<path class="st2" d="M-870.3,549.8V510c-0.3,0-0.5,0-0.5,0v39.8C-870.9,549.8-870.6,549.8-870.3,549.8"/>
					</g>
				</g>
			</g>
			<g class="st0">
				<g>
					<defs>
						<path id="SVGID_27_" d="M-870.9,549.8V510l0,0c0,0,0.4,0,0.9,0v39.8C-870.4,549.8-870.9,549.8-870.9,549.8L-870.9,549.8z"/>
					</defs>
					<clipPath id="SVGID_28_">
						<use xlink:href="#SVGID_27_"  style="overflow:visible;"/>
					</clipPath>
					<g class="st28">
						<polyline class="st3" points="-870.9,549.8 -870.9,510 -870.9,510 -870.9,510 -870.9,549.8 -870.9,549.8 -870.9,549.8 						
							"/>
						<polyline class="st3" points="-870.9,549.8 -870.9,510 -870.9,510 -870.9,549.8 -870.9,549.8 						"/>
						<polyline class="st4" points="-870.9,549.8 -870.9,510 -870.9,510 -870.9,549.8 -870.9,549.8 						"/>
						<polyline class="st4" points="-870.9,549.8 -870.9,510 -870.9,510 -870.9,549.8 -870.9,549.8 						"/>
						<path class="st4" d="M-870.9,549.8V510l0,0V549.8L-870.9,549.8"/>
						<path class="st4" d="M-870.8,549.8V510l0,0V549.8L-870.8,549.8"/>
						<path class="st4" d="M-870.8,549.8V510l0,0V549.8L-870.8,549.8"/>
						<path class="st4" d="M-870.8,549.8V510c0,0,0,0,0.1,0L-870.8,549.8C-870.7,549.8-870.8,549.8-870.8,549.8"/>
						<path class="st10" d="M-870.7,549.8V510l0,0V549.8L-870.7,549.8"/>
						<path class="st11" d="M-870.7,549.8V510l0,0V549.8L-870.7,549.8"/>
						<path class="st12" d="M-870.7,549.8V510l0,0V549.8C-870.6,549.8-870.6,549.8-870.7,549.8"/>
						<path class="st13" d="M-870.6,549.8V510l0,0V549.8L-870.6,549.8"/>
						<path class="st14" d="M-870.6,549.8V510l0,0V549.8L-870.6,549.8"/>
						<path class="st15" d="M-870.6,549.8V510l0,0V549.8L-870.6,549.8"/>
						<path class="st16" d="M-870.6,549.8V510l0,0V549.8L-870.6,549.8"/>
						<path class="st17" d="M-870.6,549.8V510l0,0V549.8C-870.5,549.8-870.6,549.8-870.6,549.8"/>
						<path class="st18" d="M-870.5,549.8V510l0,0V549.8L-870.5,549.8"/>
						<path class="st19" d="M-870.5,549.8V510l0,0V549.8L-870.5,549.8"/>
						<path class="st20" d="M-870.5,549.8V510l0,0V549.8L-870.5,549.8"/>
						<path class="st29" d="M-870.5,549.8V510l0,0V549.8L-870.5,549.8"/>
						<path class="st30" d="M-870.5,549.8V510c0,0,0,0,0.1,0L-870.5,549.8C-870.4,549.8-870.4,549.8-870.5,549.8"/>
						<path class="st29" d="M-870.4,549.8V510l0,0V549.8L-870.4,549.8"/>
						<path class="st20" d="M-870.4,549.8V510l0,0V549.8C-870.3,549.8-870.4,549.8-870.4,549.8"/>
						<path class="st19" d="M-870.3,549.8V510l0,0V549.8L-870.3,549.8"/>
						<path class="st18" d="M-870.3,549.8V510l0,0V549.8L-870.3,549.8"/>
						<polyline class="st17" points="-870.3,549.8 -870.3,510 -870.3,510 -870.3,549.8 -870.3,549.8 						"/>
						<polyline class="st16" points="-870.3,549.8 -870.3,510 -870.3,510 -870.3,549.8 -870.3,549.8 						"/>
						<polyline class="st15" points="-870.3,549.8 -870.3,510 -870.3,510 -870.3,549.8 -870.3,549.8 						"/>
						<polyline class="st14" points="-870.3,549.8 -870.3,510 -870.3,510 -870.3,549.8 -870.3,549.8 						"/>
						<polyline class="st13" points="-870.3,549.8 -870.3,510 -870.3,510 -870.3,549.8 -870.3,549.8 						"/>
						<polyline class="st12" points="-870.3,549.8 -870.3,510 -870.3,510 -870.3,549.8 -870.3,549.8 						"/>
						<polyline class="st11" points="-870.3,549.8 -870.3,510 -870.3,510 -870.3,549.8 -870.3,549.8 						"/>
						<polyline class="st10" points="-870.3,549.8 -870.3,510 -870.3,510 -870.3,549.8 -870.3,549.8 						"/>
						<polyline class="st4" points="-870.3,549.8 -870.3,510 -870.3,510 -870.3,549.8 -870.3,549.8 						"/>
						<polyline class="st4" points="-870.3,549.8 -870.3,510 -870.3,510 -870.3,549.8 -870.3,549.8 						"/>
						<polyline class="st4" points="-870.3,549.8 -870.3,510 -870.3,510 -870.3,549.8 -870.3,549.8 						"/>
						<polyline class="st4" points="-870.3,549.8 -870.3,510 -870.3,510 -870.3,549.8 -870.3,549.8 						"/>
						<polyline class="st4" points="-870.3,549.8 -870.3,510 -870.2,510 -870.2,549.8 -870.3,549.8 						"/>
						<polyline class="st4" points="-870.2,549.8 -870.2,510 -870.2,510 -870.2,549.8 -870.2,549.8 						"/>
						<polyline class="st3" points="-870.2,549.8 -870.2,510 -870.2,510 -870.2,549.8 -870.2,549.8 						"/>
						<polyline class="st3" points="-870.2,549.8 -870.2,510 -870.2,510 -870.2,549.8 -870.2,549.8 						"/>
						<polyline class="st3" points="-870.2,549.8 -870.2,510 -870.2,510 -870.2,549.8 -870.2,549.8 						"/>
						<path class="st3" d="M-870.2,549.8V510l0,0V549.8L-870.2,549.8"/>
						<path class="st3" d="M-870.2,549.8V510l0,0V549.8L-870.2,549.8"/>
						<path class="st3" d="M-870.2,549.8V510l0,0V549.8C-870.1,549.8-870.1,549.8-870.2,549.8"/>
						<path class="st3" d="M-870.1,549.8V510l0,0V549.8L-870.1,549.8"/>
						<path class="st3" d="M-870.1,549.8V510l0,0V549.8L-870.1,549.8"/>
						<path class="st3" d="M-870.1,549.8V510l0,0V549.8L-870.1,549.8"/>
						<path class="st2" d="M-870.1,549.8V510l0,0V549.8C-870,549.8-870.1,549.8-870.1,549.8"/>
						<path class="st2" d="M-870,549.8V510l0,0V549.8L-870,549.8"/>
						<path class="st2" d="M-870,549.8V510l0,0V549.8L-870,549.8"/>
						<polyline class="st2" points="-870,549.8 -870,510 -870,510 -869.9,549.8 -870,549.8 						"/>
					</g>
				</g>
			</g>
			<g>
				<path class="st2" d="M-870.4,550.5c-7.9,0-14.2,0-13.9,0c0.3,0,6.9,0,14.9,0h-0.4H-870.4z"/>
			</g>
			<g class="st0">
				<g>
					<defs>
						<path id="SVGID_29_" d="M-909.1,525.6L-909.1,525.6c0.7,0,18.8,0,40.3,0l-0.8,24.2c-7.7,0-14.2,0-14.5,0l0,0
							C-892.4,541.7-900.7,533.7-909.1,525.6z"/>
					</defs>
					<clipPath id="SVGID_30_">
						<use xlink:href="#SVGID_29_"  style="overflow:visible;"/>
					</clipPath>
					<g class="st31">
						<polyline class="st3" points="-909.1,525.6 -883.9,549.8 -883.9,549.8 -909.1,525.6 -909.1,525.6 						"/>
						<path class="st3" d="M-909.1,525.6l25.1,24.2l0,0l0,0L-909.1,525.6C-909.1,525.6-909.1,525.6-909.1,525.6L-909.1,525.6"/>
						<path class="st3" d="M-909,525.6l25,24.2h0.1l-24.9-24.2C-908.8,525.6-908.9,525.6-909,525.6"/>
						<path class="st3" d="M-908.6,525.6l24.9,24.2c0.1,0,0.2,0,0.3,0l-24.4-24.2C-908.2,525.6-908.5,525.6-908.6,525.6"/>
						<path class="st3" d="M-907.9,525.6l24.4,24.2c0.1,0,0.3,0,0.4,0l-23.6-24.2C-907.2,525.6-907.6,525.6-907.9,525.6"/>
						<path class="st3" d="M-906.7,525.6l23.6,24.2c0.8,0,2.1,0,3.6,0l-17-24.2C-901.1,525.6-904.6,525.6-906.7,525.6"/>
						<path class="st3" d="M-896.5,525.6l17,24.2c0.4,0,0.9,0,1.3,0l-14.8-24.2C-894.3,525.6-895.4,525.6-896.5,525.6"/>
						<path class="st3" d="M-893,525.6l14.8,24.2c0.3,0,0.7,0,1,0l-13-24.2C-891.2,525.6-892.1,525.6-893,525.6"/>
						<path class="st3" d="M-890.1,525.6l13,24.2c0.3,0,0.6,0,0.9,0l-11.4-24.2C-888.6,525.6-889.4,525.6-890.1,525.6"/>
						<path class="st3" d="M-887.7,525.6l11.4,24.2c0.3,0,0.5,0,0.8,0l-10-24.2C-886.3,525.6-886.9,525.6-887.7,525.6"/>
						<path class="st3" d="M-885.5,525.6l10,24.2c0.3,0,0.5,0,0.8,0l-8.6-24.2C-884,525.6-884.8,525.6-885.5,525.6"/>
						<path class="st3" d="M-883.3,525.6l8.6,24.2c0.3,0,0.5,0,0.8,0l-7.2-24.2C-882,525.6-882.6,525.6-883.3,525.6"/>
						<path class="st3" d="M-881.3,525.6l7.2,24.2c0.3,0,0.5,0,0.8,0l-5.9-24.2C-879.9,525.6-880.6,525.6-881.3,525.6"/>
						<path class="st3" d="M-879.2,525.6l5.9,24.2c0.3,0,0.5,0,0.8,0l-4.6-24.2C-877.8,525.6-878.5,525.6-879.2,525.6"/>
						<path class="st2" d="M-877.1,525.6l4.6,24.2c0.3,0,0.5,0,0.8,0l-3.2-24.2C-875.7,525.6-876.4,525.6-877.1,525.6"/>
						<path class="st2" d="M-875,525.6l3.2,24.2c0.3,0,0.5,0,0.8,0l-1.8-24.2C-873.5,525.6-874.3,525.6-875,525.6"/>
						<path class="st2" d="M-872.8,525.6l1.8,24.2c0.3,0,0.5,0,0.8,0l-0.3-24.2C-871.3,525.6-872.1,525.6-872.8,525.6"/>
						<path class="st2" d="M-870.5,525.6l0.3,24.2c0.2,0,0.4,0,0.6,0l0.8-24.2C-869.3,525.6-869.9,525.6-870.5,525.6"/>
					</g>
				</g>
			</g>
			<g class="st0">
				<g>
					<defs>
						<path id="SVGID_31_" d="M-909.1,510L-909.1,510c0.7,0,18.8,0,40.3,0v15.6c-21.6,0-39.7,0-40.3,0l0,0
							C-909.1,520.9-909.1,514.7-909.1,510z"/>
					</defs>
					<clipPath id="SVGID_32_">
						<use xlink:href="#SVGID_31_"  style="overflow:visible;"/>
					</clipPath>
					<g class="st32">
						<path class="st3" d="M-909.1,510v15.6l0,0l0,0V510C-909.1,510-909.1,510-909.1,510L-909.1,510"/>
						<path class="st3" d="M-909.1,510v15.6h0.1L-909.1,510C-909.1,510-909.1,510-909.1,510"/>
						<path class="st4" d="M-909,510v15.6c0.1,0,0.2,0,0.3,0V510C-908.8,510-908.9,510-909,510"/>
						<path class="st4" d="M-908.7,510v15.6c0.1,0,0.3,0,0.3,0V510C-908.5,510-908.6,510-908.7,510"/>
						<path class="st4" d="M-908.4,510v15.6c0.2,0,0.3,0,0.6,0V510C-908,510-908.2,510-908.4,510"/>
						<path class="st4" d="M-907.8,510v15.6c0.3,0,0.6,0,0.9,0V510C-907.3,510-907.5,510-907.8,510"/>
						<path class="st4" d="M-906.9,510v15.6c0.4,0,1,0,1.5,0V510C-905.9,510-906.4,510-906.9,510"/>
						<path class="st4" d="M-905.3,510v15.6c0.7,0,1.5,0,2.4,0V510C-903.8,510-904.6,510-905.3,510"/>
						<path class="st10" d="M-903,510v15.6c0.5,0,1,0,1.6,0V510C-901.8,510-902.4,510-903,510"/>
						<path class="st11" d="M-901.3,510v15.6c0.3,0,0.7,0,1.1,0V510C-900.5,510-901,510-901.3,510"/>
						<path class="st12" d="M-900.2,510v15.6c0.3,0,0.6,0,0.9,0V510C-899.6,510-899.9,510-900.2,510"/>
						<path class="st13" d="M-899.3,510v15.6c0.3,0,0.5,0,0.8,0V510C-898.7,510-899,510-899.3,510"/>
						<path class="st14" d="M-898.5,510v15.6c0.3,0,0.4,0,0.7,0V510C-898,510-898.3,510-898.5,510"/>
						<path class="st15" d="M-897.9,510v15.6c0.3,0,0.4,0,0.7,0V510C-897.4,510-897.6,510-897.9,510"/>
						<path class="st16" d="M-897.2,510v15.6c0.3,0,0.4,0,0.7,0V510C-896.7,510-896.9,510-897.2,510"/>
						<path class="st17" d="M-896.5,510v15.6c0.3,0,0.4,0,0.7,0V510C-896.1,510-896.2,510-896.5,510"/>
						<path class="st18" d="M-895.8,510v15.6c0.3,0,0.4,0,0.7,0V510C-895.4,510-895.6,510-895.8,510"/>
						<path class="st19" d="M-895.2,510v15.6c0.3,0,0.4,0,0.7,0V510C-894.7,510-894.9,510-895.2,510"/>
						<path class="st20" d="M-894.5,510v15.6c0.3,0,0.7,0,1,0V510C-893.8,510-894.2,510-894.5,510"/>
						<path class="st29" d="M-893.5,510v15.6c0.3,0,0.7,0,1,0V510C-892.8,510-893.1,510-893.5,510"/>
						<path class="st30" d="M-892.5,510v15.6c0.9,0,1.9,0,2.9,0V510C-890.6,510-891.5,510-892.5,510"/>
						<path class="st29" d="M-889.5,510v15.6c0.3,0,0.5,0,0.8,0V510C-889,510-889.3,510-889.5,510"/>
						<path class="st20" d="M-888.8,510v15.6c0.3,0,0.5,0,0.8,0V510C-888.2,510-888.5,510-888.8,510"/>
						<path class="st19" d="M-888,510v15.6c0.3,0,0.5,0,0.8,0V510C-887.4,510-887.7,510-888,510"/>
						<path class="st18" d="M-887.1,510v15.6c0.2,0,0.4,0,0.6,0V510C-886.8,510-886.9,510-887.1,510"/>
						<path class="st17" d="M-886.5,510v15.6c0.2,0,0.3,0,0.5,0V510C-886.3,510-886.4,510-886.5,510"/>
						<path class="st16" d="M-886.1,510v15.6c0.2,0,0.3,0,0.5,0V510C-885.7,510-885.9,510-886.1,510"/>
						<path class="st15" d="M-885.6,510v15.6c0.2,0,0.3,0,0.5,0V510C-885.2,510-885.4,510-885.6,510"/>
						<path class="st14" d="M-885.1,510v15.6c0.2,0,0.3,0,0.5,0V510C-884.8,510-885,510-885.1,510"/>
						<path class="st13" d="M-884.6,510v15.6c0.2,0,0.3,0,0.5,0V510C-884.3,510-884.5,510-884.6,510"/>
						<path class="st12" d="M-884.1,510v15.6c0.2,0,0.3,0,0.4,0V510C-883.9,510-883.9,510-884.1,510"/>
						<path class="st11" d="M-883.7,510v15.6c0.2,0,0.3,0,0.4,0V510C-883.3,510-883.5,510-883.7,510"/>
						<path class="st10" d="M-883.2,510v15.6c0.2,0,0.3,0,0.4,0V510C-882.9,510-883.1,510-883.2,510"/>
						<path class="st4" d="M-882.7,510v15.6c0.2,0,0.3,0,0.4,0V510C-882.5,510-882.6,510-882.7,510"/>
						<path class="st4" d="M-882.3,510v15.6c0.2,0,0.3,0,0.4,0V510C-882,510-882.1,510-882.3,510"/>
						<path class="st4" d="M-881.9,510v15.6c0.2,0,0.3,0,0.4,0V510C-881.5,510-881.7,510-881.9,510"/>
						<path class="st4" d="M-881.4,510v15.6c0.2,0,0.3,0,0.5,0V510C-881.1,510-881.2,510-881.4,510"/>
						<path class="st4" d="M-880.9,510v15.6c0.2,0,0.3,0,0.5,0V510C-880.5,510-880.8,510-880.9,510"/>
						<path class="st4" d="M-880.3,510v15.6c0.2,0,0.3,0,0.5,0V510C-880,510-880.2,510-880.3,510"/>
						<path class="st3" d="M-879.8,510v15.6c0.2,0,0.3,0,0.5,0V510C-879.5,510-879.6,510-879.8,510"/>
						<path class="st3" d="M-879.3,510v15.6c0.2,0,0.3,0,0.5,0V510C-878.9,510-879.1,510-879.3,510"/>
						<path class="st3" d="M-878.8,510v15.6c0.2,0,0.3,0,0.5,0V510C-878.3,510-878.6,510-878.8,510"/>
						<path class="st3" d="M-878.2,510v15.6c0.3,0,0.5,0,0.7,0V510C-877.7,510-878,510-878.2,510"/>
						<path class="st3" d="M-877.5,510v15.6c0.3,0,0.5,0,0.8,0V510C-877,510-877.2,510-877.5,510"/>
						<path class="st3" d="M-876.7,510v15.6c0.3,0,0.5,0,0.8,0V510C-876.3,510-876.5,510-876.7,510"/>
						<path class="st3" d="M-876,510v15.6c0.3,0,0.5,0,0.8,0V510C-875.5,510-875.8,510-876,510"/>
						<path class="st3" d="M-875.2,510v15.6c0.3,0,0.7,0,1,0V510C-874.6,510-874.9,510-875.2,510"/>
						<path class="st3" d="M-874.2,510v15.6c0.3,0,0.7,0,1,0V510C-873.5,510-873.9,510-874.2,510"/>
						<path class="st2" d="M-873.2,510v15.6c0.3,0,0.7,0,1.1,0V510C-872.4,510-872.8,510-873.2,510"/>
						<path class="st2" d="M-872.1,510v15.6c0.5,0,0.9,0,1.5,0V510C-871.1,510-871.6,510-872.1,510"/>
						<path class="st2" d="M-870.7,510v15.6c0.5,0,0.9,0,1.5,0V510C-869.7,510-870.2,510-870.7,510"/>
						<path class="st2" d="M-869.1,510v15.6c0.2,0,0.3,0,0.4,0V510C-868.9,510-869.1,510-869.1,510"/>
					</g>
				</g>
			</g>
			<g class="st0">
				<g>
					<defs>
						<path id="SVGID_33_" d="M-884.4,550.5c-8.5-8.2-17-16.4-25.6-24.6l0,0c0.7,0,19.2,0,41.2,0l-0.8,24.6
							C-877.5,550.5-884.1,550.5-884.4,550.5L-884.4,550.5z"/>
					</defs>
					<clipPath id="SVGID_34_">
						<use xlink:href="#SVGID_33_"  style="overflow:visible;"/>
					</clipPath>
					<g class="st33">
						<polyline class="st3" points="-884.4,550.5 -910,525.9 -910,525.9 -884.4,550.5 -884.4,550.5 						"/>
						<path class="st3" d="M-884.4,550.5l-25.6-24.6l0,0h0.1L-884.4,550.5L-884.4,550.5L-884.4,550.5"/>
						<path class="st3" d="M-884.4,550.5l-25.5-24.6c0.1,0,0.2,0,0.3,0l25.3,24.6C-884.3,550.5-884.3,550.5-884.4,550.5"/>
						<path class="st3" d="M-884.2,550.5l-25.3-24.6c0.2,0,0.4,0,0.7,0l24.9,24.6C-884,550.5-884.1,550.5-884.2,550.5"/>
						<path class="st3" d="M-883.9,550.5l-24.9-24.6c0.3,0,0.8,0,1.3,0l24,24.6C-883.7,550.5-883.9,550.5-883.9,550.5"/>
						<path class="st3" d="M-883.5,550.5l-24-24.6c2.2,0,5.8,0,10.4,0l17.4,24.6C-881.4,550.5-882.7,550.5-883.5,550.5"/>
						<path class="st3" d="M-879.7,550.5l-17.4-24.6c1.1,0,2.3,0,3.6,0l15.1,24.6C-878.9,550.5-879.4,550.5-879.7,550.5"/>
						<path class="st3" d="M-878.4,550.5l-15.1-24.6c0.9,0,1.9,0,2.9,0l13.2,24.6C-877.7,550.5-878.1,550.5-878.4,550.5"/>
						<path class="st3" d="M-877.4,550.5l-13.2-24.6c0.8,0,1.6,0,2.5,0l11.6,24.6C-876.8,550.5-877.1,550.5-877.4,550.5"/>
						<path class="st3" d="M-876.5,550.5l-11.6-24.6c0.8,0,1.5,0,2.3,0l10.2,24.6C-875.9,550.5-876.3,550.5-876.5,550.5"/>
						<path class="st3" d="M-875.7,550.5l-10.2-24.6c0.7,0,1.5,0,2.2,0l8.7,24.6C-875.2,550.5-875.4,550.5-875.7,550.5"/>
						<path class="st3" d="M-874.9,550.5l-8.7-24.6c0.7,0,1.4,0,2.2,0l7.4,24.6C-874.4,550.5-874.6,550.5-874.9,550.5"/>
						<path class="st3" d="M-874.1,550.5l-7.4-24.6c0.7,0,1.4,0,2.1,0l6,24.6C-873.6,550.5-873.9,550.5-874.1,550.5"/>
						<path class="st3" d="M-873.4,550.5l-6-24.6c0.7,0,1.4,0,2.2,0l4.6,24.6C-872.8,550.5-873.1,550.5-873.4,550.5"/>
						<path class="st2" d="M-872.6,550.5l-4.6-24.6c0.7,0,1.5,0,2.2,0l3.3,24.6C-872.1,550.5-872.3,550.5-872.6,550.5"/>
						<path class="st2" d="M-871.8,550.5l-3.3-24.6c0.8,0,1.5,0,2.2,0l1.8,24.6C-871.3,550.5-871.5,550.5-871.8,550.5"/>
						<path class="st2" d="M-871,550.5l-1.8-24.6c0.8,0,1.5,0,2.3,0l0.3,24.6C-870.4,550.5-870.8,550.5-871,550.5"/>
						<path class="st2" d="M-870.2,550.5l-0.3-24.6c0.6,0,1.2,0,1.8,0l-0.8,24.6C-869.7,550.5-870,550.5-870.2,550.5"/>
					</g>
				</g>
			</g>
			<g class="st0">
				<g>
					<defs>
						<path id="SVGID_35_" d="M-910,525.9V510l0,0c0.7,0,19.2,0,41.2,0v15.9C-890.8,525.9-909.2,525.9-910,525.9L-910,525.9z"/>
					</defs>
					<clipPath id="SVGID_36_">
						<use xlink:href="#SVGID_35_"  style="overflow:visible;"/>
					</clipPath>
					<g class="st34">
						<path class="st3" d="M-910,525.9V510l0,0l0,0V525.9C-909.9,525.9-909.9,525.9-910,525.9L-910,525.9"/>
						<path class="st3" d="M-909.9,525.9V510c0,0,0.1,0,0.2,0v15.9C-909.8,525.9-909.9,525.9-909.9,525.9"/>
						<path class="st4" d="M-909.8,525.9V510c0.1,0,0.2,0,0.3,0v15.9C-909.7,525.9-909.7,525.9-909.8,525.9"/>
						<path class="st4" d="M-909.6,525.9V510c0.1,0,0.3,0,0.3,0v15.9C-909.3,525.9-909.5,525.9-909.6,525.9"/>
						<path class="st4" d="M-909.2,525.9V510c0.2,0,0.3,0,0.6,0v15.9C-908.8,525.9-909.1,525.9-909.2,525.9"/>
						<path class="st4" d="M-908.6,525.9V510c0.3,0,0.6,0,0.9,0v15.9C-908,525.9-908.4,525.9-908.6,525.9"/>
						<path class="st4" d="M-907.7,525.9V510c0.4,0,1,0,1.6,0v15.9C-906.6,525.9-907.3,525.9-907.7,525.9"/>
						<path class="st4" d="M-906,525.9V510c0.7,0,1.5,0,2.4,0v15.9C-904.5,525.9-905.4,525.9-906,525.9"/>
						<path class="st10" d="M-903.6,525.9V510c0.5,0,1.1,0,1.6,0v15.9C-902.5,525.9-903.1,525.9-903.6,525.9"/>
						<path class="st11" d="M-902,525.9V510c0.3,0,0.7,0,1.1,0v15.9C-901.2,525.9-901.6,525.9-902,525.9"/>
						<path class="st12" d="M-900.9,525.9V510c0.3,0,0.6,0,0.9,0v15.9C-900.2,525.9-900.5,525.9-900.9,525.9"/>
						<path class="st13" d="M-899.9,525.9V510c0.3,0,0.5,0,0.8,0v15.9C-899.4,525.9-899.7,525.9-899.9,525.9"/>
						<path class="st14" d="M-899.2,525.9V510c0.3,0,0.4,0,0.7,0v15.9C-898.6,525.9-898.9,525.9-899.2,525.9"/>
						<path class="st15" d="M-898.5,525.9V510c0.3,0,0.4,0,0.7,0v15.9C-898,525.9-898.2,525.9-898.5,525.9"/>
						<path class="st16" d="M-897.8,525.9V510c0.3,0,0.4,0,0.7,0v15.9C-897.3,525.9-897.5,525.9-897.8,525.9"/>
						<path class="st17" d="M-897.1,525.9V510c0.3,0,0.4,0,0.7,0v15.9C-896.6,525.9-896.8,525.9-897.1,525.9"/>
						<path class="st18" d="M-896.4,525.9V510c0.3,0,0.4,0,0.7,0v15.9C-896,525.9-896.2,525.9-896.4,525.9"/>
						<path class="st19" d="M-895.7,525.9V510c0.3,0,0.4,0,0.7,0v15.9C-895.3,525.9-895.5,525.9-895.7,525.9"/>
						<path class="st20" d="M-895,525.9V510c0.3,0,0.7,0,1,0v15.9C-894.3,525.9-894.7,525.9-895,525.9"/>
						<path class="st29" d="M-894,525.9V510c0.3,0,0.7,0,1,0v15.9C-893.3,525.9-893.7,525.9-894,525.9"/>
						<path class="st30" d="M-892.9,525.9V510c0.9,0,2,0,3,0v15.9C-891,525.9-891.9,525.9-892.9,525.9"/>
						<path class="st29" d="M-890,525.9V510c0.3,0,0.5,0,0.8,0v15.9C-889.4,525.9-889.7,525.9-890,525.9"/>
						<path class="st20" d="M-889.2,525.9V510c0.3,0,0.5,0,0.8,0v15.9C-888.6,525.9-888.9,525.9-889.2,525.9"/>
						<path class="st19" d="M-888.3,525.9V510c0.3,0,0.5,0,0.9,0v15.9C-887.8,525.9-888.1,525.9-888.3,525.9"/>
						<path class="st18" d="M-887.6,525.9V510c0.2,0,0.4,0,0.6,0v15.9C-887.1,525.9-887.3,525.9-887.6,525.9"/>
						<path class="st17" d="M-886.9,525.9V510c0.2,0,0.3,0,0.5,0v15.9C-886.6,525.9-886.8,525.9-886.9,525.9"/>
						<path class="st16" d="M-886.4,525.9V510c0.2,0,0.3,0,0.5,0v15.9C-886.1,525.9-886.3,525.9-886.4,525.9"/>
						<path class="st15" d="M-885.9,525.9V510c0.2,0,0.3,0,0.5,0v15.9C-885.6,525.9-885.7,525.9-885.9,525.9"/>
						<path class="st14" d="M-885.4,525.9V510c0.2,0,0.3,0,0.5,0v15.9C-885.1,525.9-885.2,525.9-885.4,525.9"/>
						<path class="st13" d="M-885,525.9V510c0.2,0,0.3,0,0.5,0v15.9C-884.6,525.9-884.8,525.9-885,525.9"/>
						<path class="st12" d="M-884.5,525.9V510c0.2,0,0.3,0,0.4,0v15.9C-884.1,525.9-884.3,525.9-884.5,525.9"/>
						<path class="st11" d="M-883.9,525.9V510c0.2,0,0.3,0,0.4,0v15.9C-883.7,525.9-883.8,525.9-883.9,525.9"/>
						<path class="st10" d="M-883.5,525.9V510c0.2,0,0.3,0,0.4,0v15.9C-883.2,525.9-883.3,525.9-883.5,525.9"/>
						<path class="st4" d="M-883.1,525.9V510c0.2,0,0.3,0,0.4,0v15.9C-882.7,525.9-882.9,525.9-883.1,525.9"/>
						<path class="st4" d="M-882.6,525.9V510c0.2,0,0.3,0,0.4,0v15.9C-882.3,525.9-882.4,525.9-882.6,525.9"/>
						<path class="st4" d="M-882.1,525.9V510c0.2,0,0.3,0,0.4,0v15.9C-881.8,525.9-882,525.9-882.1,525.9"/>
						<path class="st4" d="M-881.6,525.9V510c0.2,0,0.3,0,0.5,0v15.9C-881.3,525.9-881.4,525.9-881.6,525.9"/>
						<path class="st4" d="M-881.1,525.9V510c0.2,0,0.3,0,0.5,0v15.9C-880.8,525.9-880.9,525.9-881.1,525.9"/>
						<path class="st4" d="M-880.6,525.9V510c0.2,0,0.3,0,0.5,0v15.9C-880.2,525.9-880.4,525.9-880.6,525.9"/>
						<path class="st3" d="M-880.1,525.9V510c0.2,0,0.3,0,0.5,0v15.9C-879.6,525.9-879.9,525.9-880.1,525.9"/>
						<path class="st3" d="M-879.5,525.9V510c0.2,0,0.3,0,0.5,0v15.9C-879.1,525.9-879.3,525.9-879.5,525.9"/>
						<path class="st3" d="M-878.9,525.9V510c0.2,0,0.3,0,0.5,0v15.9C-878.6,525.9-878.8,525.9-878.9,525.9"/>
						<path class="st3" d="M-878.3,525.9V510c0.3,0,0.5,0,0.8,0v15.9C-877.9,525.9-878.2,525.9-878.3,525.9"/>
						<path class="st3" d="M-877.7,525.9V510c0.3,0,0.5,0,0.8,0v15.9C-877.1,525.9-877.4,525.9-877.7,525.9"/>
						<path class="st3" d="M-876.9,525.9V510c0.3,0,0.5,0,0.8,0v15.9C-876.4,525.9-876.6,525.9-876.9,525.9"/>
						<path class="st3" d="M-876.1,525.9V510c0.3,0,0.5,0,0.8,0v15.9C-875.6,525.9-875.9,525.9-876.1,525.9"/>
						<path class="st3" d="M-875.3,525.9V510c0.3,0,0.7,0,1,0v15.9C-874.6,525.9-875,525.9-875.3,525.9"/>
						<path class="st3" d="M-874.3,525.9V510c0.3,0,0.7,0,1.1,0v15.9C-873.6,525.9-874,525.9-874.3,525.9"/>
						<path class="st2" d="M-873.3,525.9V510c0.3,0,0.8,0,1.1,0v15.9C-872.5,525.9-872.8,525.9-873.3,525.9"/>
						<path class="st2" d="M-872.2,525.9V510c0.5,0,0.9,0,1.5,0v15.9C-871.2,525.9-871.6,525.9-872.2,525.9"/>
						<path class="st2" d="M-870.7,525.9V510c0.5,0,1,0,1.5,0v15.9C-869.7,525.9-870.2,525.9-870.7,525.9"/>
						<path class="st2" d="M-869.1,525.9V510c0.2,0,0.3,0,0.4,0v15.9C-868.9,525.9-869.1,525.9-869.1,525.9"/>
					</g>
				</g>
			</g>
		</g>
	</g>
</g>
</svg>
