<?xml version="1.0" encoding="utf-8"?>
<!-- Generator: Adobe Illustrator 19.1.0, SVG Export Plug-In . SVG Version: 6.00 Build 0)  -->
<svg version="1.1" id="Layer_1" xmlns="http://www.w3.org/2000/svg" xmlns:xlink="http://www.w3.org/1999/xlink" x="0px" y="0px"
	 viewBox="0 0 200.6 116.2" style="enable-background:new 0 0 200.6 116.2;" xml:space="preserve">
<style type="text/css">
	.st0{enable-background:new    ;}
	.st1{clip-path:url(#SVGID_2_);enable-background:new    ;}
	.st2{fill:#3C3C3C;}
	.st3{fill:#3E3E3E;}
	.st4{fill:#3F3F3F;}
	.st5{fill:#414141;}
	.st6{fill:#424242;}
	.st7{fill:#444444;}
	.st8{fill:#454545;}
	.st9{fill:#474747;}
	.st10{fill:#484848;}
	.st11{clip-path:url(#SVGID_4_);enable-background:new    ;}
	.st12{fill:#4A4A4A;}
	.st13{fill:#4B4B4B;}
	.st14{fill:#4D4D4D;}
	.st15{fill:#626262;}
	.st16{fill:#6B6B6B;}
	.st17{fill:#727272;}
	.st18{fill:#787878;}
	.st19{fill:#7D7D7D;}
	.st20{fill:#818181;}
	.st21{fill:#868686;}
	.st22{fill:#898989;}
	.st23{fill:#8D8D8D;}
	.st24{fill:#919191;}
	.st25{fill:#949494;}
	.st26{fill:#979797;}
	.st27{fill:#3B3B3B;}
	.st28{fill:#393939;}
	.st29{fill:#373737;}
	.st30{fill:#363636;}
	.st31{fill:#343434;}
	.st32{fill:#333333;}
	.st33{fill:#313131;}
	.st34{fill:#303030;}
	.st35{fill:#2E2E2E;}
	.st36{fill:#2D2D2D;}
	.st37{fill:#2B2B2B;}
	.st38{fill:#2A2A2A;}
	.st39{fill:#282828;}
	.st40{clip-path:url(#SVGID_6_);enable-background:new    ;}
	.st41{clip-path:url(#SVGID_8_);enable-background:new    ;}
	.st42{clip-path:url(#SVGID_10_);enable-background:new    ;}
	.st43{clip-path:url(#SVGID_12_);enable-background:new    ;}
	.st44{fill:#272727;}
	.st45{clip-path:url(#SVGID_14_);enable-background:new    ;}
	.st46{clip-path:url(#SVGID_16_);enable-background:new    ;}
	.st47{clip-path:url(#SVGID_18_);enable-background:new    ;}
	.st48{clip-path:url(#SVGID_20_);enable-background:new    ;}
	.st49{clip-path:url(#SVGID_22_);enable-background:new    ;}
	.st50{clip-path:url(#SVGID_24_);enable-background:new    ;}
</style>
<g>
	<g>
		<g class="st0">
			<g class="st0">
				<defs>
					<path id="SVGID_1_" class="st0" d="M200.5,63.5c0-4.1-3.3-8.3-10.3-12.3l0.1-35.5c7,4,10.3,8.1,10.3,12.3
						C200.6,38.7,200.5,52.9,200.5,63.5z"/>
				</defs>
				<clipPath id="SVGID_2_">
					<use xlink:href="#SVGID_1_"  style="overflow:visible;"/>
				</clipPath>
				<g class="st1">
					<path class="st2" d="M200.5,63.5l0.1-35.5c0-0.3,0-0.6,0-0.8l-0.1,35.5C200.5,63,200.5,63.3,200.5,63.5"/>
					<path class="st3" d="M200.5,62.7l0.1-35.5c0-0.4-0.1-0.9-0.3-1.3l-0.1,35.5C200.3,61.8,200.4,62.3,200.5,62.7"/>
					<path class="st4" d="M200.2,61.4l0.1-35.5c-0.1-0.5-0.3-0.9-0.5-1.4L199.7,60C199.9,60.5,200.1,60.9,200.2,61.4"/>
					<path class="st5" d="M199.7,60l0.1-35.5c-0.2-0.5-0.5-1-0.8-1.4l-0.1,35.5C199.2,59.1,199.5,59.5,199.7,60"/>
					<path class="st6" d="M198.9,58.6l0.1-35.5c-0.3-0.5-0.7-1-1.1-1.5l-0.1,35.5C198.2,57.6,198.6,58.1,198.9,58.6"/>
					<path class="st7" d="M197.8,57.1l0.1-35.5c-0.5-0.5-1-1.1-1.6-1.6l-0.1,35.5C196.8,56,197.3,56.5,197.8,57.1"/>
					<path class="st8" d="M196.2,55.5l0.1-35.5c-0.7-0.6-1.4-1.2-2.3-1.9l-0.1,35.5C194.8,54.2,195.5,54.9,196.2,55.5"/>
					<path class="st9" d="M193.9,53.6l0.1-35.5c-1-0.7-2.1-1.4-3.3-2.2l-0.1,35.5C191.8,52.2,192.9,52.9,193.9,53.6"/>
					<path class="st10" d="M190.6,51.5l0.1-35.5c-0.1-0.1-0.2-0.1-0.4-0.2l-0.1,35.5C190.4,51.3,190.5,51.4,190.6,51.5"/>
				</g>
			</g>
			<g class="st0">
				<defs>
					<path id="SVGID_3_" class="st0" d="M0.1,27.7c0-10.3,20.6-20.1,56.1-24.9c49.7-6.7,109.8-0.9,134.1,13l-0.1,35.5
						c-24.4-13.8-84.4-19.7-134.1-13C20.6,43.1,0,52.9,0,63.2C0,52.5,0,38.3,0.1,27.7z"/>
				</defs>
				<clipPath id="SVGID_4_">
					<use xlink:href="#SVGID_3_"  style="overflow:visible;"/>
				</clipPath>
				<g class="st11">
					<path class="st10" d="M190.3,51.3l0.1-35.5c-1.3-0.7-2.7-1.5-4.3-2.2L186,49.1C187.5,49.8,188.9,50.5,190.3,51.3"/>
					<path class="st12" d="M186,49.1l0.1-35.5c-1.4-0.7-2.9-1.3-4.5-1.9l-0.1,35.5C183,47.8,184.6,48.4,186,49.1"/>
					<path class="st13" d="M181.4,47.2l0.1-35.5c-1.1-0.4-2.2-0.8-3.3-1.2L178.1,46C179.3,46.3,180.4,46.8,181.4,47.2"/>
					<path class="st14" d="M178.1,46l0.1-35.5c-0.8-0.3-1.7-0.6-2.6-0.8l-0.1,35.5C176.4,45.4,177.3,45.7,178.1,46"/>
					<path class="st15" d="M175.5,45.1l0.1-35.5c-0.7-0.2-1.5-0.5-2.2-0.7l-0.1,35.5C174.1,44.6,174.8,44.9,175.5,45.1"/>
					<path class="st16" d="M173.3,44.4l0.1-35.5c-0.7-0.2-1.4-0.4-2.1-0.6l-0.1,35.5C172,44,172.6,44.2,173.3,44.4"/>
					<path class="st17" d="M171.2,43.8l0.1-35.5c-0.5-0.2-1.1-0.3-1.7-0.5l-0.1,35.5C170.1,43.5,170.7,43.7,171.2,43.8"/>
					<path class="st18" d="M169.6,43.4l0.1-35.5c-0.6-0.1-1.1-0.3-1.7-0.4l-0.1,35.5C168.5,43.1,169,43.2,169.6,43.4"/>
					<path class="st19" d="M167.9,42.9L168,7.4c-0.6-0.1-1.1-0.3-1.7-0.4l-0.1,35.5C166.7,42.6,167.3,42.8,167.9,42.9"/>
					<path class="st20" d="M166.2,42.5L166.2,7c-0.5-0.1-1.1-0.3-1.6-0.4l-0.1,35.5C165.1,42.2,165.6,42.4,166.2,42.5"/>
					<path class="st21" d="M164.6,42.1l0.1-35.5c-0.5-0.1-1.1-0.2-1.6-0.4l-0.1,35.5C163.5,41.9,164,42,164.6,42.1"/>
					<path class="st22" d="M162.9,41.7L163,6.2c-0.5-0.1-1.1-0.2-1.6-0.4l-0.1,35.5C161.8,41.5,162.4,41.6,162.9,41.7"/>
					<path class="st23" d="M161.3,41.4l0.1-35.5c-0.6-0.1-1.2-0.3-1.8-0.4L159.5,41C160.1,41.1,160.7,41.3,161.3,41.4"/>
					<path class="st24" d="M159.5,41l0.1-35.5c-0.8-0.2-1.6-0.3-2.4-0.5l-0.1,35.5C158,40.7,158.7,40.8,159.5,41"/>
					<path class="st25" d="M157.2,40.5L157.2,5c-0.8-0.2-1.6-0.3-2.4-0.4l-0.1,35.5C155.6,40.2,156.4,40.4,157.2,40.5"/>
					<path class="st26" d="M154.8,40.1l0.1-35.5c-3.2-0.6-6.6-1.1-10-1.6l-0.1,35.5C148.2,39,151.5,39.5,154.8,40.1"/>
					<path class="st25" d="M144.8,38.5L144.8,3c-0.9-0.1-1.7-0.2-2.6-0.4l-0.1,35.5C143,38.3,143.9,38.4,144.8,38.5"/>
					<path class="st24" d="M142.1,38.1l0.1-35.5c-0.8-0.1-1.6-0.2-2.5-0.3l-0.1,35.5C140.5,37.9,141.3,38,142.1,38.1"/>
					<path class="st23" d="M139.7,37.8l0.1-35.5c-0.5-0.1-1-0.1-1.4-0.2l-0.1,35.5C138.7,37.7,139.2,37.8,139.7,37.8"/>
					<path class="st22" d="M138.2,37.7l0.1-35.5c-0.5-0.1-1-0.1-1.4-0.2l-0.1,35.5C137.3,37.6,137.7,37.6,138.2,37.7"/>
					<path class="st21" d="M136.8,37.5L136.8,2c-0.5-0.1-1-0.1-1.5-0.2l-0.1,35.5C135.8,37.4,136.3,37.4,136.8,37.5"/>
					<path class="st20" d="M135.3,37.3l0.1-35.5c-0.5-0.1-1-0.1-1.5-0.2l-0.1,35.5C134.3,37.2,134.8,37.3,135.3,37.3"/>
					<path class="st19" d="M133.9,37.2l0.1-35.5c-0.5,0-0.9-0.1-1.4-0.1l-0.1,35.5C132.9,37.1,133.4,37.1,133.9,37.2"/>
					<path class="st18" d="M132.4,37.1l0.1-35.5c-0.4,0-0.8-0.1-1.2-0.1l-0.1,35.5C131.6,37,132,37,132.4,37.1"/>
					<path class="st17" d="M131.2,36.9l0.1-35.5c-0.4,0-0.8-0.1-1.2-0.1L130,36.8C130.4,36.9,130.8,36.9,131.2,36.9"/>
					<path class="st16" d="M130,36.8L130,1.3c-0.4,0-0.8-0.1-1.2-0.1l-0.1,35.5C129.1,36.8,129.5,36.8,130,36.8"/>
					<path class="st15" d="M128.7,36.7l0.1-35.5c-0.4,0-0.8-0.1-1.3-0.1l-0.1,35.5C127.9,36.6,128.3,36.7,128.7,36.7"/>
					<path class="st14" d="M127.5,36.6l0.1-35.5c-0.4,0-0.8-0.1-1.3-0.1l-0.1,35.5C126.6,36.5,127,36.6,127.5,36.6"/>
					<path class="st13" d="M126.2,36.5L126.3,1c-0.4,0-0.9-0.1-1.3-0.1l-0.1,35.5C125.3,36.5,125.8,36.5,126.2,36.5"/>
					<path class="st12" d="M124.9,36.4L125,0.9c-0.5,0-0.9-0.1-1.4-0.1l-0.1,35.5C124,36.4,124.5,36.4,124.9,36.4"/>
					<path class="st10" d="M123.5,36.3l0.1-35.5c-0.5,0-0.9-0.1-1.4-0.1l-0.1,35.5C122.6,36.3,123.1,36.3,123.5,36.3"/>
					<path class="st9" d="M122.2,36.2l0.1-35.5c-0.5,0-0.9-0.1-1.4-0.1l-0.1,35.5C121.3,36.2,121.7,36.2,122.2,36.2"/>
					<path class="st8" d="M120.8,36.2l0.1-35.5c-0.5,0-0.9-0.1-1.4-0.1l-0.1,35.5C119.9,36.1,120.4,36.1,120.8,36.2"/>
					<path class="st7" d="M119.4,36.1l0.1-35.5c-0.5,0-0.9-0.1-1.4-0.1L118.1,36C118.5,36,119,36,119.4,36.1"/>
					<path class="st6" d="M118.1,36l0.1-35.5c-0.6,0-1.1-0.1-1.7-0.1l-0.1,35.5C117,35.9,117.5,36,118.1,36"/>
					<path class="st5" d="M116.4,35.9l0.1-35.5c-0.6,0-1.2-0.1-1.7-0.1l-0.1,35.5C115.2,35.9,115.8,35.9,116.4,35.9"/>
					<path class="st4" d="M114.7,35.8l0.1-35.5c-0.6,0-1.2,0-1.7-0.1l-0.1,35.5C113.5,35.8,114.1,35.8,114.7,35.8"/>
					<path class="st3" d="M112.9,35.8L113,0.2c-0.6,0-1.2,0-1.8-0.1l-0.1,35.5C111.7,35.7,112.3,35.7,112.9,35.8"/>
					<path class="st2" d="M111.2,35.7l0.1-35.5c-0.7,0-1.4,0-2-0.1l-0.1,35.5C109.8,35.7,110.5,35.7,111.2,35.7"/>
					<path class="st27" d="M109.1,35.6l0.1-35.5c-0.8,0-1.6,0-2.4-0.1l-0.1,35.5C107.5,35.6,108.3,35.6,109.1,35.6"/>
					<path class="st28" d="M106.7,35.6l0.1-35.5c-0.8,0-1.6,0-2.4,0l-0.1,35.5C105.1,35.6,105.9,35.6,106.7,35.6"/>
					<path class="st29" d="M104.3,35.5L104.4,0c-0.9,0-1.8,0-2.6,0l-0.1,35.5C102.5,35.5,103.4,35.5,104.3,35.5"/>
					<path class="st30" d="M101.7,35.5L101.7,0c-1.1,0-2.2,0-3.3,0l-0.1,35.5C99.4,35.5,100.6,35.5,101.7,35.5"/>
					<path class="st31" d="M98.3,35.5L98.4,0c-1.1,0-2.2,0-3.3,0L95,35.5C96.1,35.5,97.2,35.5,98.3,35.5"/>
					<path class="st32" d="M95,35.5L95.1,0c-1.4,0-2.8,0-4.2,0.1l-0.1,35.5C92.2,35.6,93.6,35.6,95,35.5"/>
					<path class="st33" d="M90.8,35.6l0.1-35.5c-1.4,0-2.9,0.1-4.3,0.1l-0.1,35.5C88,35.7,89.4,35.7,90.8,35.6"/>
					<path class="st34" d="M86.5,35.8l0.1-35.5c-1.7,0.1-3.3,0.1-5,0.2L81.5,36C83.2,35.9,84.9,35.8,86.5,35.8"/>
					<path class="st35" d="M81.5,36l0.1-35.5c-1.8,0.1-3.6,0.2-5.4,0.3l-0.1,35.5C77.9,36.2,79.7,36.1,81.5,36"/>
					<path class="st36" d="M76.2,36.3l0.1-35.5c-2,0.1-3.9,0.3-5.9,0.4l-0.1,35.5C72.2,36.6,74.2,36.4,76.2,36.3"/>
					<path class="st37" d="M70.3,36.7l0.1-35.5c-2.2,0.2-4.5,0.4-6.7,0.6l-0.1,35.5C65.8,37.2,68,36.9,70.3,36.7"/>
					<path class="st38" d="M63.6,37.4l0.1-35.5c-2.5,0.3-5,0.6-7.4,0.9c-0.4,0.1-0.8,0.1-1.2,0.2l-0.1,35.5c0.4-0.1,0.8-0.1,1.2-0.2
						C58.6,38,61.1,37.7,63.6,37.4"/>
					<path class="st39" d="M54.9,38.5L55,2.9C20.2,7.8,0.1,17.5,0.1,27.7L0,63.2C0,53,20.2,43.3,54.9,38.5"/>
				</g>
			</g>
			<g class="st0">
				<defs>
					<path id="SVGID_5_" class="st0" d="M126.3,104.6c-7.1-4-24.5-5.7-39-3.8c-14.4,1.9-20.4,6.8-13.3,10.8L10.3,75.5
						C-14.1,61.6,6.4,45,56.1,38.3s109.8-0.9,134.1,13L126.3,104.6z"/>
				</defs>
				<clipPath id="SVGID_6_">
					<use xlink:href="#SVGID_5_"  style="overflow:visible;"/>
				</clipPath>
				<g class="st40">
					<path class="st38" d="M126.3,104.6l63.9-53.4c-9-5.1-22.9-9.1-39.3-11.8l-36,61.8C119.7,102,123.7,103.1,126.3,104.6"/>
					<path class="st39" d="M114.9,101.2l36-61.8c-28-4.6-63.5-5.3-94.8-1.1C6.4,45-14.1,61.6,10.3,75.5L74,111.7
						c-7.1-4-1.1-8.9,13.3-10.8C96.5,99.6,106.7,99.9,114.9,101.2"/>
				</g>
			</g>
			<g class="st0">
				<defs>
					<path id="SVGID_7_" class="st0" d="M126.3,111.8c3.8-2.2,4.2-4.8,0-7.1l63.9-53.4c14.2,8.1,13.2,17.1-0.1,24.6
						C168.9,87.8,147.6,99.8,126.3,111.8z"/>
				</defs>
				<clipPath id="SVGID_8_">
					<use xlink:href="#SVGID_7_"  style="overflow:visible;"/>
				</clipPath>
				<g class="st41">
					<path class="st39" d="M126.3,111.8l63.9-35.9c11.3-6.4,13.7-13.9,5.3-21l-67.6,50.9C130.3,107.7,129.6,109.9,126.3,111.8"/>
					<path class="st38" d="M127.8,105.7l67.6-50.9c-1.4-1.2-3.2-2.4-5.2-3.5l-63.9,53.4C126.9,105,127.4,105.3,127.8,105.7"/>
				</g>
			</g>
			<g class="st0">
				<defs>
					<path id="SVGID_9_" class="st0" d="M199.6,28l-0.1,35c0-4.1-3.3-8.2-10.2-12.1l0.1-35C196.3,19.8,199.6,23.9,199.6,28z"/>
				</defs>
				<clipPath id="SVGID_10_">
					<use xlink:href="#SVGID_9_"  style="overflow:visible;"/>
				</clipPath>
				<g class="st42">
					<path class="st2" d="M199.6,28l-0.1,35c0-0.3,0-0.6,0-0.8l0.1-35C199.6,27.5,199.6,27.7,199.6,28"/>
					<path class="st3" d="M199.5,27.2l-0.1,35c0-0.4-0.1-0.9-0.3-1.3l0.1-35C199.4,26.3,199.5,26.7,199.5,27.2"/>
					<path class="st4" d="M199.3,25.9l-0.1,35c-0.1-0.4-0.3-0.9-0.5-1.3l0.1-35C199,25,199.2,25.4,199.3,25.9"/>
					<path class="st5" d="M198.8,24.5l-0.1,35c-0.2-0.5-0.5-0.9-0.8-1.4l0.1-35C198.3,23.6,198.6,24.1,198.8,24.5"/>
					<path class="st6" d="M198,23.1l-0.1,35c-0.3-0.5-0.7-1-1.1-1.5l0.1-35C197.3,22.1,197.7,22.6,198,23.1"/>
					<path class="st7" d="M196.9,21.6l-0.1,35c-0.5-0.5-1-1.1-1.6-1.6l0.1-35C195.9,20.6,196.4,21.1,196.9,21.6"/>
					<path class="st8" d="M195.3,20l-0.1,35c-0.7-0.6-1.4-1.2-2.3-1.8l0.1-35C193.9,18.8,194.7,19.4,195.3,20"/>
					<path class="st9" d="M193.1,18.2l-0.1,35c-1-0.7-2.1-1.4-3.3-2.1l0.1-35C191,16.8,192.1,17.5,193.1,18.2"/>
					<path class="st10" d="M189.8,16.1l-0.1,35c-0.1-0.1-0.2-0.1-0.4-0.2l0.1-35C189.5,15.9,189.7,16,189.8,16.1"/>
				</g>
			</g>
			<g class="st0">
				<defs>
					<path id="SVGID_11_" class="st0" d="M1,62.7l0.1-35C1.1,17.5,21.5,7.7,56.6,3c49.2-6.6,108.7-0.9,132.8,12.8l-0.1,35
						C165.2,37.2,105.8,31.4,56.6,38C21.4,42.7,1,52.5,1,62.7z"/>
				</defs>
				<clipPath id="SVGID_12_">
					<use xlink:href="#SVGID_11_"  style="overflow:visible;"/>
				</clipPath>
				<g class="st43">
					<path class="st10" d="M189.4,15.9l-0.1,35c-1.3-0.7-2.7-1.5-4.2-2.2l0.1-35C186.7,14.4,188.1,15.1,189.4,15.9"/>
					<path class="st12" d="M185.2,13.7l-0.1,35c-1.4-0.7-2.9-1.3-4.5-1.9l0.1-35C182.3,12.4,183.8,13.1,185.2,13.7"/>
					<path class="st13" d="M180.7,11.8l-0.1,35c-1.1-0.4-2.2-0.8-3.3-1.2l0.1-35C178.5,11,179.6,11.4,180.7,11.8"/>
					<path class="st14" d="M177.4,10.6l-0.1,35c-0.8-0.3-1.7-0.6-2.5-0.8l0.1-35C175.7,10,176.6,10.3,177.4,10.6"/>
					<path class="st15" d="M174.9,9.8l-0.1,35c-0.7-0.2-1.4-0.5-2.2-0.7l0.1-35C173.4,9.3,174.1,9.5,174.9,9.8"/>
					<path class="st16" d="M172.7,9.1l-0.1,35c-0.7-0.2-1.4-0.4-2.1-0.6l0.1-35C171.3,8.7,172,8.9,172.7,9.1"/>
					<path class="st17" d="M170.6,8.5l-0.1,35c-0.5-0.2-1.1-0.3-1.6-0.4L169,8C169.5,8.2,170.1,8.3,170.6,8.5"/>
					<path class="st18" d="M169,8l-0.1,35c-0.6-0.1-1.1-0.3-1.7-0.4l0.1-35C167.8,7.8,168.4,7.9,169,8"/>
					<path class="st19" d="M167.3,7.6l-0.1,35c-0.6-0.1-1.1-0.3-1.7-0.4l0.1-35C166.2,7.3,166.7,7.5,167.3,7.6"/>
					<path class="st20" d="M165.6,7.2l-0.1,35c-0.5-0.1-1.1-0.3-1.6-0.4l0.1-35C164.5,6.9,165,7.1,165.6,7.2"/>
					<path class="st21" d="M164,6.8l-0.1,35c-0.5-0.1-1.1-0.2-1.6-0.4l0.1-35C162.9,6.6,163.5,6.7,164,6.8"/>
					<path class="st22" d="M162.4,6.4l-0.1,35c-0.5-0.1-1.1-0.2-1.6-0.4l0.1-35C161.3,6.2,161.8,6.3,162.4,6.4"/>
					<path class="st23" d="M160.8,6.1l-0.1,35c-0.6-0.1-1.2-0.2-1.8-0.4l0.1-35C159.6,5.8,160.2,6,160.8,6.1"/>
					<path class="st24" d="M159,5.7l-0.1,35c-0.8-0.2-1.5-0.3-2.3-0.5l0.1-35C157.4,5.4,158.2,5.6,159,5.7"/>
					<path class="st25" d="M156.7,5.2l-0.1,35c-0.8-0.2-1.6-0.3-2.4-0.4l0.1-35C155.1,4.9,155.9,5.1,156.7,5.2"/>
					<path class="st26" d="M154.3,4.8l-0.1,35c-3.2-0.6-6.5-1.1-9.9-1.6l0.1-35C147.8,3.7,151.1,4.2,154.3,4.8"/>
					<path class="st25" d="M144.4,3.2l-0.1,35c-0.9-0.1-1.7-0.2-2.6-0.3l0.1-35C142.6,3,143.5,3.1,144.4,3.2"/>
					<path class="st24" d="M141.8,2.9l-0.1,35c-0.8-0.1-1.6-0.2-2.4-0.3l0.1-35C140.1,2.7,141,2.8,141.8,2.9"/>
					<path class="st23" d="M139.3,2.6l-0.1,35c-0.5-0.1-0.9-0.1-1.4-0.2l0.1-35C138.4,2.5,138.9,2.5,139.3,2.6"/>
					<path class="st22" d="M137.9,2.4l-0.1,35c-0.5-0.1-1-0.1-1.4-0.2l0.1-35C137,2.3,137.4,2.3,137.9,2.4"/>
					<path class="st21" d="M136.5,2.2l-0.1,35c-0.5-0.1-1-0.1-1.4-0.2l0.1-35C135.5,2.1,136,2.2,136.5,2.2"/>
					<path class="st20" d="M135,2.1l-0.1,35c-0.5-0.1-1-0.1-1.4-0.1l0.1-35C134.1,2,134.6,2,135,2.1"/>
					<path class="st19" d="M133.6,1.9l-0.1,35c-0.5,0-0.9-0.1-1.4-0.1l0.1-35C132.7,1.8,133.1,1.9,133.6,1.9"/>
					<path class="st18" d="M132.2,1.8l-0.1,35c-0.4,0-0.8-0.1-1.2-0.1l0.1-35C131.4,1.7,131.8,1.8,132.2,1.8"/>
					<path class="st17" d="M131,1.7l-0.1,35c-0.4,0-0.8-0.1-1.2-0.1l0.1-35C130.1,1.6,130.5,1.6,131,1.7"/>
					<path class="st16" d="M129.7,1.6l-0.1,35c-0.4,0-0.8-0.1-1.2-0.1l0.1-35C128.9,1.5,129.3,1.5,129.7,1.6"/>
					<path class="st15" d="M128.5,1.5l-0.1,35c-0.4,0-0.8-0.1-1.2-0.1l0.1-35C127.7,1.4,128.1,1.4,128.5,1.5"/>
					<path class="st14" d="M127.2,1.4l-0.1,35c-0.4,0-0.8-0.1-1.2-0.1l0.1-35C126.4,1.3,126.8,1.3,127.2,1.4"/>
					<path class="st13" d="M126,1.3l-0.1,35c-0.4,0-0.9-0.1-1.3-0.1l0.1-35C125.2,1.2,125.6,1.2,126,1.3"/>
					<path class="st12" d="M124.7,1.2l-0.1,35c-0.4,0-0.9-0.1-1.3-0.1l0.1-35C123.8,1.1,124.3,1.1,124.7,1.2"/>
					<path class="st10" d="M123.4,1.1l-0.1,35c-0.4,0-0.9-0.1-1.3-0.1L122,1C122.5,1,122.9,1,123.4,1.1"/>
					<path class="st9" d="M122,1L122,36c-0.5,0-0.9-0.1-1.4-0.1l0.1-35C121.1,0.9,121.6,1,122,1"/>
					<path class="st8" d="M120.7,0.9l-0.1,35c-0.5,0-0.9-0.1-1.4-0.1l0.1-35C119.8,0.9,120.2,0.9,120.7,0.9"/>
					<path class="st7" d="M119.3,0.8l-0.1,35c-0.5,0-0.9-0.1-1.4-0.1l0.1-35C118.4,0.8,118.9,0.8,119.3,0.8"/>
					<path class="st6" d="M118,0.8l-0.1,35c-0.5,0-1.1-0.1-1.6-0.1l0.1-35C116.9,0.7,117.4,0.7,118,0.8"/>
					<path class="st5" d="M116.3,0.7l-0.1,35c-0.6,0-1.1-0.1-1.7-0.1l0.1-35C115.2,0.6,115.7,0.6,116.3,0.7"/>
					<path class="st4" d="M114.6,0.6l-0.1,35c-0.6,0-1.2,0-1.7-0.1l0.1-35C113.4,0.5,114,0.6,114.6,0.6"/>
					<path class="st3" d="M112.9,0.5l-0.1,35c-0.6,0-1.2,0-1.7-0.1l0.1-35C111.7,0.5,112.3,0.5,112.9,0.5"/>
					<path class="st2" d="M111.1,0.5l-0.1,35c-0.7,0-1.3,0-2-0.1l0.1-35C109.8,0.4,110.5,0.4,111.1,0.5"/>
					<path class="st27" d="M109.1,0.4l-0.1,35c-0.8,0-1.6,0-2.4-0.1l0.1-35C107.5,0.4,108.3,0.4,109.1,0.4"/>
					<path class="st28" d="M106.7,0.3l-0.1,35c-0.8,0-1.6,0-2.4,0l0.1-35C105.1,0.3,105.9,0.3,106.7,0.3"/>
					<path class="st29" d="M104.3,0.3l-0.1,35c-0.9,0-1.7,0-2.6,0l0.1-35C102.6,0.3,103.5,0.3,104.3,0.3"/>
					<path class="st30" d="M101.7,0.3l-0.1,35c-1.1,0-2.2,0-3.3,0l0.1-35C99.5,0.3,100.6,0.3,101.7,0.3"/>
					<path class="st31" d="M98.4,0.3l-0.1,35c-1.1,0-2.2,0-3.3,0l0.1-35C96.2,0.3,97.3,0.3,98.4,0.3"/>
					<path class="st32" d="M95.1,0.3l-0.1,35c-1.4,0-2.7,0-4.1,0.1l0.1-35C92.4,0.3,93.7,0.3,95.1,0.3"/>
					<path class="st33" d="M91,0.4l-0.1,35c-1.4,0-2.8,0.1-4.3,0.1l0.1-35C88.2,0.5,89.6,0.4,91,0.4"/>
					<path class="st34" d="M86.7,0.5l-0.1,35c-1.7,0.1-3.3,0.1-5,0.2l0.1-35C83.4,0.6,85.1,0.6,86.7,0.5"/>
					<path class="st35" d="M81.8,0.7l-0.1,35c-1.8,0.1-3.6,0.2-5.3,0.3l0.1-35C78.2,0.9,80,0.8,81.8,0.7"/>
					<path class="st36" d="M76.5,1l-0.1,35c-1.9,0.1-3.9,0.3-5.8,0.4l0.1-35C72.6,1.3,74.5,1.2,76.5,1"/>
					<path class="st37" d="M70.6,1.5l-0.1,35c-2.2,0.2-4.4,0.4-6.6,0.6l0.1-35C66.2,1.9,68.4,1.7,70.6,1.5"/>
					<path class="st38" d="M64,2.1l-0.1,35c-2.5,0.3-4.9,0.6-7.4,0.9c-0.4,0.1-0.8,0.1-1.2,0.2l0.1-35c0.4-0.1,0.8-0.1,1.2-0.2
						C59.1,2.7,61.5,2.4,64,2.1"/>
					<path class="st39" d="M55.5,3.2l-0.1,35C21,43,1,52.6,1,62.7l0.1-35C1.1,17.6,21,8,55.5,3.2"/>
				</g>
			</g>
			<g>
				<path class="st44" d="M126.3,104.6c7.1,4,1.1,8.9-13.3,10.8c-14.4,1.9-31.9,0.3-39-3.8c-7.1-4-1.1-8.9,13.3-10.8
					C101.8,98.9,119.2,100.6,126.3,104.6z"/>
			</g>
			<g>
				<path class="st44" d="M126.1,103.7c7,4,1.1,8.8-13.2,10.7c-14.3,1.9-31.6,0.3-38.6-3.7c-7-4-1.1-8.8,13.2-10.7
					C101.8,98.1,119.1,99.7,126.1,103.7z"/>
			</g>
			<g class="st0">
				<defs>
					<path id="SVGID_13_" class="st0" d="M189.4,50.9l-63.3,52.8c-7-4-24.3-5.7-38.6-3.7c-14.3,1.9-20.2,6.7-13.2,10.7L11.2,74.8
						C-13,61.1,7.4,44.6,56.6,38S165.2,37.2,189.4,50.9z"/>
				</defs>
				<clipPath id="SVGID_14_">
					<use xlink:href="#SVGID_13_"  style="overflow:visible;"/>
				</clipPath>
				<g class="st45">
					<path class="st38" d="M189.4,50.9l-63.3,52.8c-2.6-1.5-6.6-2.6-11.3-3.4l35.7-61.2C166.7,41.8,180.4,45.8,189.4,50.9"/>
					<path class="st39" d="M150.4,39.1l-35.7,61.2c-8.1-1.3-18.3-1.5-27.3-0.3c-14.3,1.9-20.2,6.7-13.2,10.7L11.2,74.8
						C-13,61.1,7.4,44.6,56.6,38C87.6,33.9,122.7,34.6,150.4,39.1"/>
				</g>
			</g>
			<g class="st0">
				<defs>
					<path id="SVGID_15_" class="st0" d="M189.3,75.2C168.2,87,147.1,98.9,126,110.8c3.8-2.1,4.1-4.7,0-7.1l63.3-52.8
						C203.4,58.9,202.4,67.8,189.3,75.2z"/>
				</defs>
				<clipPath id="SVGID_16_">
					<use xlink:href="#SVGID_15_"  style="overflow:visible;"/>
				</clipPath>
				<g class="st46">
					<path class="st39" d="M189.3,75.2L126,110.8c3.3-1.8,4-4,1.5-6l66.9-50.4C202.9,61.4,200.5,68.9,189.3,75.2"/>
					<path class="st38" d="M194.5,54.4l-66.9,50.4c-0.4-0.3-0.9-0.7-1.5-1l63.3-52.8C191.4,52,193.1,53.2,194.5,54.4"/>
				</g>
			</g>
			<g class="st0">
				<defs>
					<path id="SVGID_17_" class="st0" d="M126,110.8c-2.7,1.5-7.2,2.8-13.2,3.6c-14.3,1.9-31.6,0.3-38.6-3.7L11.2,74.8
						c24.1,13.7,83.6,19.5,132.8,12.8c20.5-2.8,36-7.2,45.3-12.5C168.2,87,147.1,98.9,126,110.8z"/>
				</defs>
				<clipPath id="SVGID_18_">
					<use xlink:href="#SVGID_17_"  style="overflow:visible;"/>
				</clipPath>
				<g class="st47">
					<path class="st4" d="M11.2,74.8l63.1,35.8c2.3,1.3,5.8,2.4,9.9,3.2L45.3,85.7C31.1,83.1,19.2,79.4,11.2,74.8"/>
					<path class="st3" d="M45.3,85.7l38.9,28.1c1.1,0.2,2.3,0.4,3.5,0.6L57.4,87.6C53.2,87.1,49.2,86.4,45.3,85.7"/>
					<path class="st2" d="M57.4,87.6l30.3,26.8c1,0.1,2,0.2,3,0.3l-23-25.9C64.2,88.5,60.7,88.1,57.4,87.6"/>
					<path class="st27" d="M67.6,88.8l23,25.9c0.9,0.1,1.8,0.2,2.7,0.2L76.9,89.6C73.8,89.4,70.7,89.1,67.6,88.8"/>
					<path class="st28" d="M76.9,89.6L93.4,115c0.8,0.1,1.7,0.1,2.5,0.1l-10.3-25C82.7,90,79.8,89.8,76.9,89.6"/>
					<path class="st29" d="M85.6,90.1l10.3,25c0.8,0,1.6,0.1,2.4,0.1L94,90.3C91.2,90.3,88.4,90.2,85.6,90.1"/>
					<path class="st30" d="M94,90.3l4.4,24.8c0.8,0,1.6,0,2.4,0l1.4-24.8C99.4,90.4,96.7,90.4,94,90.3"/>
					<path class="st31" d="M102.1,90.4l-1.4,24.8c0.8,0,1.6,0,2.3,0l7.1-24.9C107.5,90.4,104.8,90.4,102.1,90.4"/>
					<path class="st32" d="M110.2,90.3l-7.1,24.9c0.8,0,1.6,0,2.3-0.1L118.3,90C115.6,90.1,112.9,90.2,110.2,90.3"/>
					<path class="st33" d="M118.3,90l-12.9,25.1c0.8,0,1.6-0.1,2.4-0.1l18.6-25.4C123.7,89.7,121,89.9,118.3,90"/>
					<path class="st34" d="M126.4,89.5l-18.6,25.4c0.8-0.1,1.6-0.1,2.4-0.2l24.6-26C132,89,129.2,89.3,126.4,89.5"/>
					<path class="st35" d="M134.8,88.7l-24.6,26c0.9-0.1,1.7-0.2,2.5-0.3l30.8-26.7C140.7,88.1,137.7,88.4,134.8,88.7"/>
					<path class="st36" d="M143.6,87.7l-30.8,26.7c0,0,0.1,0,0.1,0c0.9-0.1,1.8-0.3,2.6-0.4l37.4-27.7c-2.9,0.5-5.8,0.9-8.9,1.4
						C143.8,87.7,143.7,87.7,143.6,87.7"/>
					<path class="st37" d="M152.9,86.3L115.5,114c1-0.2,2-0.4,2.9-0.6l44.5-29.1C159.7,85,156.4,85.7,152.9,86.3"/>
					<path class="st38" d="M162.8,84.3l-44.5,29.1c1.2-0.3,2.3-0.6,3.3-0.9l52.6-31.2C170.8,82.4,167,83.4,162.8,84.3"/>
					<path class="st39" d="M174.3,81.3l-52.6,31.2c1.7-0.5,3.2-1.1,4.3-1.8l63.2-35.6C185.3,77.4,180.3,79.5,174.3,81.3"/>
				</g>
			</g>
			<g class="st0">
				<defs>
					<path id="SVGID_19_" class="st0" d="M190.2,75.8c-21.3,12-42.6,24-63.9,35.9c-2.7,1.5-7.3,2.9-13.3,3.7
						c-14.4,1.9-31.9,0.3-39-3.8L10.3,75.5c24.4,13.8,84.4,19.7,134.1,13C165.1,85.7,180.7,81.1,190.2,75.8z"/>
				</defs>
				<clipPath id="SVGID_20_">
					<use xlink:href="#SVGID_19_"  style="overflow:visible;"/>
				</clipPath>
				<g class="st48">
					<path class="st4" d="M74,111.7L10.3,75.5c8.1,4.6,20.2,8.3,34.5,11L84,114.9C79.9,114.1,76.4,113,74,111.7"/>
					<path class="st3" d="M84,114.9L44.8,86.5c3.9,0.7,8,1.4,12.2,1.9l30.6,27C86.4,115.3,85.2,115.1,84,114.9"/>
					<path class="st2" d="M87.6,115.4L57,88.4c3.4,0.5,6.8,0.9,10.4,1.2l23.3,26.2C89.6,115.7,88.6,115.6,87.6,115.4"/>
					<path class="st27" d="M90.6,115.8L67.3,89.6c3.1,0.3,6.2,0.6,9.3,0.8L93.3,116C92.4,115.9,91.5,115.9,90.6,115.8"/>
					<path class="st28" d="M93.3,116L76.6,90.4c2.9,0.2,5.8,0.4,8.8,0.5l10.4,25.3C95,116.1,94.2,116.1,93.3,116"/>
					<path class="st29" d="M95.9,116.1L85.4,90.9c2.8,0.1,5.6,0.2,8.5,0.3l4.4,25.1C97.5,116.2,96.7,116.2,95.9,116.1"/>
					<path class="st30" d="M98.3,116.2l-4.4-25.1c2.7,0.1,5.5,0.1,8.3,0.1l-1.4,25C99.9,116.2,99.1,116.2,98.3,116.2"/>
					<path class="st31" d="M100.7,116.2l1.4-25c2.7,0,5.4,0,8.1-0.1l-7.2,25.1C102.3,116.2,101.5,116.2,100.7,116.2"/>
					<path class="st32" d="M103.1,116.2l7.2-25.1c2.7-0.1,5.4-0.2,8.1-0.3l-13,25.3C104.7,116.2,103.9,116.2,103.1,116.2"/>
					<path class="st33" d="M105.5,116.1l13-25.3c2.8-0.1,5.5-0.3,8.2-0.5L107.9,116C107.1,116,106.3,116.1,105.5,116.1"/>
					<path class="st34" d="M107.9,116l18.8-25.7c2.8-0.2,5.7-0.5,8.5-0.7l-24.8,26.2C109.5,115.8,108.7,115.9,107.9,116"/>
					<path class="st35" d="M110.3,115.8l24.8-26.2c3-0.3,5.9-0.6,8.8-1l-31.1,27C112,115.6,111.2,115.7,110.3,115.8"/>
					<path class="st36" d="M112.9,115.5l31.1-27c0.1,0,0.3,0,0.4-0.1c3.1-0.4,6.1-0.9,9-1.4l-37.8,28c-0.8,0.1-1.7,0.3-2.6,0.4
						C113,115.4,112.9,115.4,112.9,115.5"/>
					<path class="st37" d="M115.6,115l37.8-28c3.5-0.6,6.9-1.3,10.1-2l-44.9,29.4C117.6,114.7,116.7,114.9,115.6,115"/>
					<path class="st38" d="M118.5,114.5l44.9-29.4c4.2-0.9,8.1-2,11.6-3.1l-53.2,31.5C120.9,113.9,119.8,114.2,118.5,114.5"/>
					<path class="st39" d="M121.9,113.6L175.1,82c6.1-1.9,11.1-4,15.1-6.2l-63.9,35.9C125.2,112.4,123.7,113,121.9,113.6"/>
				</g>
			</g>
			<g class="st0">
				<defs>
					<path id="SVGID_21_" class="st0" d="M1.1,27.7c0,4.1,3.3,8.2,10.2,12.1C35.4,53.5,94.8,59.3,144,52.7
						c35.1-4.7,55.5-14.5,55.6-24.7l-0.1,35c0,10.2-20.4,19.9-55.6,24.7C94.7,94.3,35.3,88.5,11.2,74.8C4.3,70.9,1,66.8,1,62.7
						C1,52.2,1,38.2,1.1,27.7z"/>
				</defs>
				<clipPath id="SVGID_22_">
					<use xlink:href="#SVGID_21_"  style="overflow:visible;"/>
				</clipPath>
				<g class="st49">
					<path class="st2" d="M1.1,27.7L1,62.7c0,0.3,0,0.6,0,0.8l0.1-35C1.1,28.2,1.1,28,1.1,27.7"/>
					<path class="st3" d="M1.1,28.5L1,63.5c0,0.4,0.1,0.9,0.3,1.3l0.1-35C1.2,29.4,1.2,28.9,1.1,28.5"/>
					<path class="st4" d="M1.4,29.8l-0.1,35c0.1,0.4,0.3,0.9,0.5,1.3l0.1-35C1.6,30.7,1.5,30.3,1.4,29.8"/>
					<path class="st5" d="M1.9,31.1l-0.1,35c0.2,0.5,0.5,0.9,0.8,1.4l0.1-35C2.3,32.1,2.1,31.6,1.9,31.1"/>
					<path class="st6" d="M2.6,32.6l-0.1,35c0.3,0.5,0.7,1,1.1,1.5l0.1-35C3.3,33.6,3,33.1,2.6,32.6"/>
					<path class="st7" d="M3.8,34.1l-0.1,35c0.5,0.5,1,1.1,1.6,1.6l0.1-35C4.7,35.1,4.2,34.6,3.8,34.1"/>
					<path class="st8" d="M5.3,35.7l-0.1,35c0.7,0.6,1.4,1.2,2.3,1.8l0.1-35C6.7,36.9,6,36.3,5.3,35.7"/>
					<path class="st9" d="M7.6,37.5l-0.1,35c1,0.7,2.1,1.4,3.3,2.1l0.1-35C9.6,38.9,8.6,38.2,7.6,37.5"/>
					<path class="st10" d="M10.9,39.6l-0.1,35c0.1,0.1,0.2,0.1,0.4,0.2c1.3,0.7,2.7,1.5,4.2,2.2l0.1-35c-1.5-0.7-2.9-1.4-4.2-2.2
						C11.1,39.8,11,39.7,10.9,39.6"/>
					<path class="st12" d="M15.4,42l-0.1,35c1.4,0.7,2.9,1.3,4.5,1.9l0.1-35C18.4,43.3,16.9,42.6,15.4,42"/>
					<path class="st13" d="M19.9,43.9l-0.1,35c1.1,0.4,2.2,0.8,3.3,1.2l0.1-35C22.1,44.7,21,44.3,19.9,43.9"/>
					<path class="st14" d="M23.2,45.1l-0.1,35c0.8,0.3,1.7,0.6,2.5,0.8l0.1-35C24.9,45.6,24.1,45.4,23.2,45.1"/>
					<path class="st15" d="M25.8,45.9l-0.1,35c0.7,0.2,1.4,0.5,2.2,0.7l0.1-35C27.2,46.4,26.5,46.2,25.8,45.9"/>
					<path class="st16" d="M28,46.6l-0.1,35c0.7,0.2,1.4,0.4,2.1,0.6l0.1-35C29.3,47,28.7,46.8,28,46.6"/>
					<path class="st17" d="M30,47.2l-0.1,35c0.5,0.2,1.1,0.3,1.6,0.4l0.1-35C31.1,47.5,30.6,47.3,30,47.2"/>
					<path class="st18" d="M31.7,47.6l-0.1,35c0.6,0.1,1.1,0.3,1.7,0.4l0.1-35C32.8,47.9,32.2,47.8,31.7,47.6"/>
					<path class="st19" d="M33.4,48.1l-0.1,35c0.6,0.1,1.1,0.3,1.7,0.4l0.1-35C34.5,48.4,33.9,48.2,33.4,48.1"/>
					<path class="st20" d="M35.1,48.5l-0.1,35c0.5,0.1,1.1,0.3,1.6,0.4l0.1-35C36.1,48.8,35.6,48.6,35.1,48.5"/>
					<path class="st21" d="M36.7,48.9l-0.1,35c0.5,0.1,1.1,0.2,1.6,0.4l0.1-35C37.7,49.1,37.2,49,36.7,48.9"/>
					<path class="st22" d="M38.3,49.3l-0.1,35c0.5,0.1,1.1,0.2,1.6,0.4l0.1-35C39.3,49.5,38.8,49.4,38.3,49.3"/>
					<path class="st23" d="M39.9,49.6l-0.1,35c0.6,0.1,1.2,0.2,1.8,0.4l0.1-35C41.1,49.9,40.5,49.7,39.9,49.6"/>
					<path class="st24" d="M41.7,50l-0.1,35c0.8,0.2,1.5,0.3,2.3,0.5l0.1-35C43.2,50.3,42.4,50.1,41.7,50"/>
					<path class="st25" d="M44,50.4l-0.1,35c0.8,0.2,1.6,0.3,2.4,0.4l0.1-35C45.6,50.7,44.8,50.6,44,50.4"/>
					<path class="st26" d="M46.4,50.9l-0.1,35c3.2,0.6,6.5,1.1,9.9,1.6l0.1-35C52.9,52,49.6,51.5,46.4,50.9"/>
					<path class="st25" d="M56.3,52.5l-0.1,35c0.9,0.1,1.7,0.2,2.6,0.3l0.1-35C58,52.7,57.1,52.6,56.3,52.5"/>
					<path class="st24" d="M58.9,52.8l-0.1,35c0.8,0.1,1.6,0.2,2.4,0.3l0.1-35C60.5,53,59.7,52.9,58.9,52.8"/>
					<path class="st23" d="M61.3,53.1l-0.1,35c0.5,0.1,0.9,0.1,1.4,0.2l0.1-35C62.3,53.2,61.8,53.2,61.3,53.1"/>
					<path class="st22" d="M62.7,53.3l-0.1,35c0.5,0.1,1,0.1,1.4,0.2l0.1-35C63.7,53.4,63.2,53.3,62.7,53.3"/>
					<path class="st21" d="M64.2,53.5l-0.1,35c0.5,0.1,1,0.1,1.4,0.2l0.1-35C65.1,53.6,64.6,53.5,64.2,53.5"/>
					<path class="st20" d="M65.6,53.6l-0.1,35c0.5,0.1,1,0.1,1.4,0.1l0.1-35C66.6,53.7,66.1,53.7,65.6,53.6"/>
					<path class="st19" d="M67.1,53.8l-0.1,35c0.5,0,0.9,0.1,1.4,0.1l0.1-35C68,53.8,67.5,53.8,67.1,53.8"/>
					<path class="st18" d="M68.5,53.9l-0.1,35c0.4,0,0.8,0.1,1.2,0.1l0.1-35C69.3,54,68.9,53.9,68.5,53.9"/>
					<path class="st17" d="M69.7,54l-0.1,35c0.4,0,0.8,0.1,1.2,0.1l0.1-35C70.5,54.1,70.1,54,69.7,54"/>
					<path class="st16" d="M70.9,54.1l-0.1,35c0.4,0,0.8,0.1,1.2,0.1l0.1-35C71.7,54.2,71.3,54.2,70.9,54.1"/>
					<path class="st15" d="M72.2,54.2l-0.1,35c0.4,0,0.8,0.1,1.2,0.1l0.1-35C73,54.3,72.6,54.3,72.2,54.2"/>
					<path class="st14" d="M73.4,54.3l-0.1,35c0.4,0,0.8,0.1,1.2,0.1l0.1-35C74.2,54.4,73.8,54.4,73.4,54.3"/>
					<path class="st13" d="M74.6,54.4l-0.1,35c0.4,0,0.9,0.1,1.3,0.1l0.1-35C75.5,54.5,75.1,54.5,74.6,54.4"/>
					<path class="st12" d="M75.9,54.5l-0.1,35c0.4,0,0.9,0.1,1.3,0.1l0.1-35C76.8,54.6,76.4,54.6,75.9,54.5"/>
					<path class="st10" d="M77.3,54.6l-0.1,35c0.4,0,0.9,0.1,1.3,0.1l0.1-35C78.2,54.7,77.7,54.6,77.3,54.6"/>
					<path class="st9" d="M78.6,54.7l-0.1,35c0.5,0,0.9,0.1,1.4,0.1l0.1-35C79.5,54.8,79.1,54.7,78.6,54.7"/>
					<path class="st8" d="M80,54.8l-0.1,35c0.5,0,0.9,0.1,1.4,0.1l0.1-35C80.9,54.8,80.4,54.8,80,54.8"/>
					<path class="st7" d="M81.3,54.9l-0.1,35c0.5,0,0.9,0.1,1.4,0.1l0.1-35C82.2,54.9,81.8,54.9,81.3,54.9"/>
					<path class="st6" d="M82.7,54.9l-0.1,35c0.5,0,1.1,0.1,1.6,0.1l0.1-35C83.8,55,83.2,55,82.7,54.9"/>
					<path class="st5" d="M84.3,55l-0.1,35c0.6,0,1.1,0.1,1.7,0.1l0.1-35C85.5,55.1,84.9,55,84.3,55"/>
					<path class="st4" d="M86.1,55.1l-0.1,35c0.6,0,1.2,0,1.7,0.1l0.1-35C87.2,55.1,86.6,55.1,86.1,55.1"/>
					<path class="st3" d="M87.8,55.2l-0.1,35c0.6,0,1.2,0,1.7,0.1l0.1-35C88.9,55.2,88.4,55.2,87.8,55.2"/>
					<path class="st2" d="M89.5,55.2l-0.1,35c0.7,0,1.3,0,2,0.1l0.1-35C90.9,55.3,90.2,55.3,89.5,55.2"/>
					<path class="st27" d="M91.5,55.3l-0.1,35c0.8,0,1.6,0,2.4,0.1l0.1-35C93.1,55.3,92.3,55.3,91.5,55.3"/>
					<path class="st28" d="M93.9,55.3l-0.1,35c0.8,0,1.6,0,2.4,0l0.1-35C95.5,55.4,94.7,55.4,93.9,55.3"/>
					<path class="st29" d="M96.3,55.4l-0.1,35c0.9,0,1.7,0,2.6,0l0.1-35C98.1,55.4,97.2,55.4,96.3,55.4"/>
					<path class="st30" d="M98.9,55.4l-0.1,35c1.1,0,2.2,0,3.3,0l0.1-35C101.1,55.4,100,55.4,98.9,55.4"/>
					<path class="st31" d="M102.2,55.4l-0.1,35c1.1,0,2.2,0,3.3,0l0.1-35C104.4,55.4,103.3,55.4,102.2,55.4"/>
					<path class="st32" d="M105.5,55.4l-0.1,35c1.4,0,2.7,0,4.1-0.1l0.1-35C108.3,55.3,106.9,55.4,105.5,55.4"/>
					<path class="st33" d="M109.6,55.3l-0.1,35c1.4,0,2.8-0.1,4.3-0.1l0.1-35C112.5,55.2,111.1,55.3,109.6,55.3"/>
					<path class="st34" d="M113.9,55.2l-0.1,35c1.7-0.1,3.3-0.1,5-0.2l0.1-35C117.2,55,115.6,55.1,113.9,55.2"/>
					<path class="st35" d="M118.9,55l-0.1,35c1.8-0.1,3.6-0.2,5.3-0.3l0.1-35C122.4,54.8,120.6,54.9,118.9,55"/>
					<path class="st36" d="M124.2,54.6l-0.1,35c1.9-0.1,3.9-0.3,5.8-0.4l0.1-35C128.1,54.4,126.1,54.5,124.2,54.6"/>
					<path class="st37" d="M130,54.2l-0.1,35c2.2-0.2,4.4-0.4,6.6-0.6l0.1-35C134.4,53.8,132.2,54,130,54.2"/>
					<path class="st38" d="M136.6,53.6l-0.1,35c2.5-0.3,4.9-0.6,7.4-0.9c0.4-0.1,0.8-0.1,1.2-0.2l0.1-35c-0.4,0.1-0.8,0.1-1.2,0.2
						C141.6,53,139.1,53.3,136.6,53.6"/>
					<path class="st39" d="M145.2,52.5l-0.1,35c34.4-4.8,54.4-14.4,54.4-24.5l0.1-35C199.6,38.1,179.6,47.7,145.2,52.5"/>
				</g>
			</g>
			<g class="st0">
				<defs>
					<path id="SVGID_23_" class="st0" d="M0,63.2l0.1-35.5c0,4.1,3.3,8.3,10.3,12.3c24.4,13.8,84.4,19.7,134.1,13
						c35.5-4.8,56.1-14.6,56.1-24.9l-0.1,35.5c0,10.3-20.6,20.1-56.1,24.9c-49.7,6.7-109.8,0.9-134.1-13C3.3,71.5,0,67.3,0,63.2z"/>
				</defs>
				<clipPath id="SVGID_24_">
					<use xlink:href="#SVGID_23_"  style="overflow:visible;"/>
				</clipPath>
				<g class="st50">
					<path class="st2" d="M0,63.2l0.1-35.5c0,0.3,0,0.6,0,0.8L0,64C0,63.8,0,63.5,0,63.2"/>
					<path class="st3" d="M0,64l0.1-35.5c0,0.4,0.1,0.9,0.3,1.3L0.3,65.4C0.2,64.9,0.1,64.5,0,64"/>
					<path class="st4" d="M0.3,65.4l0.1-35.5c0.1,0.5,0.3,0.9,0.5,1.4L0.8,66.7C0.6,66.3,0.4,65.8,0.3,65.4"/>
					<path class="st5" d="M0.8,66.7l0.1-35.5c0.2,0.5,0.5,1,0.8,1.4L1.6,68.1C1.3,67.7,1,67.2,0.8,66.7"/>
					<path class="st6" d="M1.6,68.1l0.1-35.5c0.3,0.5,0.7,1,1.1,1.5L2.7,69.6C2.3,69.1,1.9,68.6,1.6,68.1"/>
					<path class="st7" d="M2.7,69.6l0.1-35.5c0.5,0.5,1,1.1,1.6,1.6L4.3,71.2C3.7,70.7,3.2,70.2,2.7,69.6"/>
					<path class="st8" d="M4.3,71.2l0.1-35.5C5,36.4,5.8,37,6.6,37.6L6.6,73.1C5.7,72.5,5,71.9,4.3,71.2"/>
					<path class="st9" d="M6.6,73.1l0.1-35.5c1,0.7,2.1,1.4,3.3,2.2L9.9,75.3C8.7,74.5,7.6,73.8,6.6,73.1"/>
					<path class="st10" d="M9.9,75.3L10,39.7c0.1,0.1,0.2,0.1,0.4,0.2c1.3,0.7,2.7,1.5,4.3,2.2l-0.1,35.5c-1.5-0.7-2.9-1.4-4.3-2.2
						C10.1,75.4,10,75.3,9.9,75.3"/>
					<path class="st12" d="M14.5,77.6l0.1-35.5c1.4,0.7,2.9,1.3,4.5,1.9l-0.1,35.5C17.5,78.9,16,78.3,14.5,77.6"/>
					<path class="st13" d="M19.1,79.6L19.1,44c1.1,0.4,2.2,0.8,3.3,1.2l-0.1,35.5C21.3,80.4,20.1,80,19.1,79.6"/>
					<path class="st14" d="M22.4,80.8l0.1-35.5c0.8,0.3,1.7,0.6,2.6,0.8L25,81.6C24.1,81.3,23.2,81.1,22.4,80.8"/>
					<path class="st15" d="M25,81.6L25,46.1c0.7,0.2,1.5,0.5,2.2,0.7l-0.1,35.5C26.4,82.1,25.7,81.9,25,81.6"/>
					<path class="st16" d="M27.2,82.3l0.1-35.5c0.7,0.2,1.4,0.4,2.1,0.6l-0.1,35.5C28.6,82.7,27.9,82.5,27.2,82.3"/>
					<path class="st17" d="M29.3,82.9l0.1-35.5c0.5,0.2,1.1,0.3,1.7,0.5l-0.1,35.5C30.4,83.2,29.8,83.1,29.3,82.9"/>
					<path class="st18" d="M30.9,83.4L31,47.8c0.6,0.1,1.1,0.3,1.7,0.4l-0.1,35.5C32,83.7,31.5,83.5,30.9,83.4"/>
					<path class="st19" d="M32.6,83.8l0.1-35.5c0.6,0.1,1.1,0.3,1.7,0.4l-0.1,35.5C33.8,84.1,33.2,83.9,32.6,83.8"/>
					<path class="st20" d="M34.3,84.2l0.1-35.5c0.5,0.1,1.1,0.3,1.6,0.4L36,84.6C35.4,84.5,34.9,84.4,34.3,84.2"/>
					<path class="st21" d="M36,84.6L36,49.1c0.5,0.1,1.1,0.2,1.6,0.4L37.6,85C37,84.9,36.5,84.7,36,84.6"/>
					<path class="st22" d="M37.6,85l0.1-35.5c0.5,0.1,1.1,0.2,1.6,0.4l-0.1,35.5C38.7,85.2,38.1,85.1,37.6,85"/>
					<path class="st23" d="M39.2,85.3l0.1-35.5c0.6,0.1,1.2,0.3,1.8,0.4L41,85.7C40.4,85.6,39.8,85.5,39.2,85.3"/>
					<path class="st24" d="M41,85.7l0.1-35.5c0.8,0.2,1.6,0.3,2.4,0.5l-0.1,35.5C42.6,86,41.8,85.9,41,85.7"/>
					<path class="st25" d="M43.4,86.2l0.1-35.5c0.8,0.2,1.6,0.3,2.4,0.4l-0.1,35.5C44.9,86.5,44.1,86.3,43.4,86.2"/>
					<path class="st26" d="M45.8,86.6l0.1-35.5c3.2,0.6,6.6,1.1,10,1.6l-0.1,35.5C52.3,87.8,49,87.2,45.8,86.6"/>
					<path class="st25" d="M55.8,88.2l0.1-35.5c0.9,0.1,1.7,0.2,2.6,0.4l-0.1,35.5C57.5,88.5,56.6,88.4,55.8,88.2"/>
					<path class="st24" d="M58.4,88.6l0.1-35.5c0.8,0.1,1.6,0.2,2.5,0.3l-0.1,35.5C60,88.8,59.2,88.7,58.4,88.6"/>
					<path class="st23" d="M60.9,88.9l0.1-35.5c0.5,0.1,1,0.1,1.4,0.2l-0.1,35.5C61.8,89,61.3,89,60.9,88.9"/>
					<path class="st22" d="M62.3,89.1l0.1-35.5c0.5,0.1,1,0.1,1.4,0.2l-0.1,35.5C63.3,89.2,62.8,89.1,62.3,89.1"/>
					<path class="st21" d="M63.7,89.2l0.1-35.5c0.5,0.1,1,0.1,1.5,0.2l-0.1,35.5C64.7,89.3,64.2,89.3,63.7,89.2"/>
					<path class="st20" d="M65.2,89.4l0.1-35.5c0.5,0.1,1,0.1,1.5,0.2l-0.1,35.5C66.2,89.5,65.7,89.4,65.2,89.4"/>
					<path class="st19" d="M66.7,89.5L66.7,54c0.5,0,0.9,0.1,1.4,0.1l-0.1,35.5C67.6,89.6,67.1,89.6,66.7,89.5"/>
					<path class="st18" d="M68.1,89.7l0.1-35.5c0.4,0,0.8,0.1,1.2,0.1l-0.1,35.5C68.9,89.8,68.5,89.7,68.1,89.7"/>
					<path class="st17" d="M69.3,89.8l0.1-35.5c0.4,0,0.8,0.1,1.2,0.1l-0.1,35.5C70.1,89.9,69.7,89.8,69.3,89.8"/>
					<path class="st16" d="M70.6,89.9l0.1-35.5c0.4,0,0.8,0.1,1.2,0.1L71.8,90C71.4,90,71,89.9,70.6,89.9"/>
					<path class="st15" d="M71.8,90l0.1-35.5c0.4,0,0.8,0.1,1.3,0.1l-0.1,35.5C72.6,90.1,72.2,90,71.8,90"/>
					<path class="st14" d="M73.1,90.1l0.1-35.5c0.4,0,0.8,0.1,1.3,0.1l-0.1,35.5C73.9,90.2,73.5,90.1,73.1,90.1"/>
					<path class="st13" d="M74.3,90.2l0.1-35.5c0.4,0,0.9,0.1,1.3,0.1l-0.1,35.5C75.2,90.3,74.7,90.2,74.3,90.2"/>
					<path class="st12" d="M75.6,90.3l0.1-35.5c0.5,0,0.9,0.1,1.4,0.1L77,90.4C76.5,90.4,76.1,90.3,75.6,90.3"/>
					<path class="st10" d="M77,90.4L77,54.9c0.5,0,0.9,0.1,1.4,0.1l-0.1,35.5C77.9,90.5,77.4,90.4,77,90.4"/>
					<path class="st9" d="M78.3,90.5L78.4,55c0.5,0,0.9,0.1,1.4,0.1l-0.1,35.5C79.2,90.5,78.8,90.5,78.3,90.5"/>
					<path class="st8" d="M79.7,90.6l0.1-35.5c0.5,0,0.9,0.1,1.4,0.1l-0.1,35.5C80.6,90.6,80.2,90.6,79.7,90.6"/>
					<path class="st7" d="M81.1,90.7l0.1-35.5c0.5,0,0.9,0.1,1.4,0.1l-0.1,35.5C82,90.7,81.5,90.7,81.1,90.7"/>
					<path class="st6" d="M82.4,90.7l0.1-35.5c0.6,0,1.1,0.1,1.7,0.1l-0.1,35.5C83.6,90.8,83,90.8,82.4,90.7"/>
					<path class="st5" d="M84.1,90.8l0.1-35.5c0.6,0,1.2,0.1,1.7,0.1l-0.1,35.5C85.3,90.9,84.7,90.8,84.1,90.8"/>
					<path class="st4" d="M85.8,90.9l0.1-35.5c0.6,0,1.2,0,1.7,0.1L87.6,91C87,90.9,86.4,90.9,85.8,90.9"/>
					<path class="st3" d="M87.6,91l0.1-35.5c0.6,0,1.2,0,1.8,0.1L89.3,91C88.8,91,88.2,91,87.6,91"/>
					<path class="st2" d="M89.3,91l0.1-35.5c0.7,0,1.4,0,2,0.1l-0.1,35.5C90.7,91.1,90,91,89.3,91"/>
					<path class="st27" d="M91.4,91.1l0.1-35.5c0.8,0,1.6,0,2.4,0.1l-0.1,35.5C93,91.1,92.2,91.1,91.4,91.1"/>
					<path class="st28" d="M93.8,91.1l0.1-35.5c0.8,0,1.6,0,2.4,0l-0.1,35.5C95.4,91.2,94.6,91.2,93.8,91.1"/>
					<path class="st29" d="M96.2,91.2l0.1-35.5c0.9,0,1.8,0,2.6,0l-0.1,35.5C98,91.2,97.1,91.2,96.2,91.2"/>
					<path class="st30" d="M98.8,91.2l0.1-35.5c1.1,0,2.2,0,3.3,0l-0.1,35.5C101.1,91.2,100,91.2,98.8,91.2"/>
					<path class="st31" d="M102.2,91.2l0.1-35.5c1.1,0,2.2,0,3.3,0l-0.1,35.5C104.4,91.2,103.3,91.2,102.2,91.2"/>
					<path class="st32" d="M105.5,91.2l0.1-35.5c1.4,0,2.8,0,4.2-0.1l-0.1,35.5C108.3,91.1,106.9,91.2,105.5,91.2"/>
					<path class="st33" d="M109.7,91.1l0.1-35.5c1.4,0,2.9-0.1,4.3-0.1L114,91C112.5,91,111.1,91.1,109.7,91.1"/>
					<path class="st34" d="M114,91l0.1-35.5c1.7-0.1,3.3-0.1,5-0.2L119,90.8C117.3,90.8,115.6,90.9,114,91"/>
					<path class="st35" d="M119,90.8l0.1-35.5c1.8-0.1,3.6-0.2,5.4-0.3l-0.1,35.5C122.6,90.6,120.8,90.7,119,90.8"/>
					<path class="st36" d="M124.4,90.4l0.1-35.5c2-0.1,3.9-0.3,5.9-0.4L130.2,90C128.3,90.2,126.3,90.3,124.4,90.4"/>
					<path class="st37" d="M130.2,90l0.1-35.5c2.2-0.2,4.5-0.4,6.7-0.6l-0.1,35.5C134.7,89.6,132.5,89.8,130.2,90"/>
					<path class="st38" d="M136.9,89.3l0.1-35.5c2.5-0.3,5-0.6,7.4-0.9c0.4-0.1,0.8-0.1,1.2-0.2l-0.1,35.5c-0.4,0.1-0.8,0.1-1.2,0.2
						C141.9,88.8,139.4,89.1,136.9,89.3"/>
					<path class="st39" d="M145.6,88.3l0.1-35.5c34.8-4.8,54.9-14.6,54.9-24.7l-0.1,35.5C200.5,73.7,180.3,83.4,145.6,88.3"/>
				</g>
			</g>
			<g>
				<path class="st44" d="M190.3,15.7c24.4,13.8,3.8,30.5-45.9,37.2s-109.8,0.9-134.1-13S6.5,9.5,56.2,2.8S165.9,1.9,190.3,15.7z
					 M189.4,15.9C165.3,2.2,105.8-3.6,56.6,3s-69.5,23.1-45.4,36.8S94.8,59.3,144,52.7S213.5,29.6,189.4,15.9"/>
			</g>
		</g>
	</g>
</g>
</svg>
