<?xml version="1.0" encoding="utf-8"?>
<!-- Generator: Adobe Illustrator 19.1.0, SVG Export Plug-In . SVG Version: 6.00 Build 0)  -->
<svg version="1.1" id="Layer_1" xmlns="http://www.w3.org/2000/svg" xmlns:xlink="http://www.w3.org/1999/xlink" x="0px" y="0px"
	 viewBox="-835.2 506.3 96.5 60.5" style="enable-background:new -835.2 506.3 96.5 60.5;" xml:space="preserve">
<style type="text/css">
	.st0{enable-background:new    ;}
	.st1{clip-path:url(#SVGID_2_);enable-background:new    ;}
	.st2{fill:#030303;}
	.st3{fill:#040404;}
	.st4{fill:#050505;}
	.st5{clip-path:url(#SVGID_4_);enable-background:new    ;}
	.st6{clip-path:url(#SVGID_6_);enable-background:new    ;}
	.st7{clip-path:url(#SVGID_8_);enable-background:new    ;}
	.st8{clip-path:url(#SVGID_10_);enable-background:new    ;}
	.st9{clip-path:url(#SVGID_12_);enable-background:new    ;}
	.st10{fill:#232323;}
	.st11{fill:#2F2F2F;}
	.st12{fill:#393939;}
	.st13{fill:#414141;}
	.st14{fill:#484848;}
	.st15{fill:#4E4E4E;}
	.st16{fill:#545454;}
	.st17{fill:#5A5A5A;}
	.st18{fill:#5F5F5F;}
	.st19{fill:#646464;}
	.st20{fill:#686868;}
	.st21{clip-path:url(#SVGID_14_);enable-background:new    ;}
	.st22{clip-path:url(#SVGID_16_);enable-background:new    ;}
	.st23{clip-path:url(#SVGID_18_);enable-background:new    ;}
	.st24{clip-path:url(#SVGID_20_);enable-background:new    ;}
	.st25{clip-path:url(#SVGID_22_);enable-background:new    ;}
	.st26{clip-path:url(#SVGID_24_);enable-background:new    ;}
	.st27{clip-path:url(#SVGID_26_);enable-background:new    ;}
	.st28{clip-path:url(#SVGID_28_);enable-background:new    ;}
	.st29{fill:#6D6D6D;}
	.st30{fill:#717171;}
	.st31{clip-path:url(#SVGID_30_);enable-background:new    ;}
	.st32{clip-path:url(#SVGID_32_);enable-background:new    ;}
	.st33{clip-path:url(#SVGID_34_);enable-background:new    ;}
	.st34{clip-path:url(#SVGID_36_);enable-background:new    ;}
</style>
<g>
	<g>
		<g class="st0">
			<g class="st0">
				<defs>
					<path id="SVGID_1_" class="st0" d="M-738.7,530c0,0-20.2,0-45.5,0l0-23.7c25.3,0,45.5,0,45.5,0
						C-738.7,513.4-738.7,522.9-738.7,530z"/>
				</defs>
				<clipPath id="SVGID_2_">
					<use xlink:href="#SVGID_1_"  style="overflow:visible;"/>
				</clipPath>
				<g class="st1">
					<path class="st2" d="M-738.7,530l0-23.7c0,0-3.4,0-9.2,0l0,23.7C-742.1,530-738.7,530-738.7,530"/>
					<path class="st2" d="M-747.9,530l0-23.7c-0.9,0-1.8,0-2.7,0l0,23.7C-749.6,530-748.7,530-747.9,530"/>
					<path class="st2" d="M-750.6,530l0-23.7c-0.8,0-1.5,0-2.3,0l0,23.7C-752.1,530-751.3,530-750.6,530"/>
					<path class="st2" d="M-752.9,530l0-23.7c-0.7,0-1.4,0-2.2,0l0,23.7C-754.4,530-753.6,530-752.9,530"/>
					<path class="st2" d="M-755.1,530l0-23.7c-0.7,0-1.4,0-2.1,0l0,23.7C-756.5,530-755.8,530-755.1,530"/>
					<path class="st2" d="M-757.2,530l0-23.7c-0.6,0-1.3,0-2,0l0,23.7C-758.5,530-757.8,530-757.2,530"/>
					<path class="st2" d="M-759.1,530l0-23.7c-0.6,0-1.3,0-1.9,0l0,23.7C-760.4,530-759.8,530-759.1,530"/>
					<path class="st2" d="M-761.1,530l0-23.7c-0.6,0-1.3,0-1.9,0l0,23.7C-762.4,530-761.7,530-761.1,530"/>
					<path class="st2" d="M-763,530l0-23.7c-0.6,0-1.2,0-1.9,0l0,23.7C-764.2,530-763.6,530-763,530"/>
					<path class="st2" d="M-764.9,530l0-23.7c-0.6,0-1.2,0-1.9,0l0,23.7C-766.1,530-765.5,530-764.9,530"/>
					<path class="st3" d="M-766.8,530l0-23.7c-0.6,0-1.2,0-1.8,0l0,23.7C-768,530-767.4,530-766.8,530"/>
					<path class="st3" d="M-768.6,530l0-23.7c-0.6,0-1.2,0-1.8,0l0,23.7C-769.8,530-769.2,530-768.6,530"/>
					<path class="st3" d="M-770.4,530l0-23.7c-0.6,0-1.1,0-1.7,0l0,23.7C-771.5,530-771,530-770.4,530"/>
					<path class="st3" d="M-772.1,530l0-23.7c-0.5,0-1.1,0-1.6,0l0,23.7C-773.2,530-772.6,530-772.1,530"/>
					<path class="st3" d="M-773.7,530l0-23.7c-0.5,0-1,0-1.4,0l0,23.7C-774.7,530-774.2,530-773.7,530"/>
					<path class="st3" d="M-775.1,530l0-23.7c-0.5,0-1,0-1.5,0l0,23.7C-776.1,530-775.6,530-775.1,530"/>
					<path class="st3" d="M-776.6,530l0-23.7c-0.4,0-0.7,0-1.1,0l0,23.7C-777.3,530-777,530-776.6,530"/>
					<path class="st3" d="M-777.7,530l0-23.7c-0.4,0-0.7,0-1.1,0l0,23.7C-778.4,530-778.1,530-777.7,530"/>
					<path class="st3" d="M-778.8,530l0-23.7c-0.4,0-0.7,0-1.1,0l0,23.7C-779.6,530-779.2,530-778.8,530"/>
					<path class="st4" d="M-779.9,530l0-23.7c-0.3,0-0.6,0-1,0l0,23.7C-780.6,530-780.2,530-779.9,530"/>
					<path class="st4" d="M-780.9,530l0-23.7c-0.3,0-0.6,0-0.9,0l0,23.7C-781.5,530-781.2,530-780.9,530"/>
					<path class="st4" d="M-781.8,530l0-23.7c-0.3,0-0.6,0-0.9,0l0,23.7C-782.3,530-782,530-781.8,530"/>
					<path class="st4" d="M-782.6,530l0-23.7c-0.3,0-0.6,0-0.9,0l0,23.7C-783.2,530-782.9,530-782.6,530"/>
					<path class="st4" d="M-783.5,530l0-23.7c-0.2,0-0.5,0-0.7,0l0,23.7C-784,530-783.7,530-783.5,530"/>
				</g>
			</g>
			<g class="st0">
				<defs>
					<path id="SVGID_3_" class="st0" d="M-739.7,506.3l0,23.3c0,0-19.7,0-44.5,0l0-23.3C-759.4,506.3-739.7,506.3-739.7,506.3z"/>
				</defs>
				<clipPath id="SVGID_4_">
					<use xlink:href="#SVGID_3_"  style="overflow:visible;"/>
				</clipPath>
				<g class="st5">
					<path class="st2" d="M-739.7,506.3l0,23.3c0,0-3.3,0-9,0l0-23.3C-743,506.3-739.7,506.3-739.7,506.3"/>
					<path class="st2" d="M-748.7,506.3l0,23.3c-0.8,0-1.7,0-2.7,0l0-23.3C-750.4,506.3-749.5,506.3-748.7,506.3"/>
					<path class="st2" d="M-751.3,506.3l0,23.3c-0.7,0-1.5,0-2.3,0l0-23.3C-752.8,506.3-752.1,506.3-751.3,506.3"/>
					<path class="st2" d="M-753.6,506.3l0,23.3c-0.7,0-1.4,0-2.1,0l0-23.3C-755,506.3-754.3,506.3-753.6,506.3"/>
					<path class="st2" d="M-755.7,506.3l0,23.3c-0.7,0-1.3,0-2,0l0-23.3C-757.1,506.3-756.4,506.3-755.7,506.3"/>
					<path class="st2" d="M-757.8,506.3l0,23.3c-0.6,0-1.3,0-1.9,0l0-23.3C-759,506.3-758.4,506.3-757.8,506.3"/>
					<path class="st2" d="M-759.7,506.3l0,23.3c-0.6,0-1.3,0-1.9,0l0-23.3C-760.9,506.3-760.3,506.3-759.7,506.3"/>
					<path class="st2" d="M-761.6,506.3l0,23.3c-0.6,0-1.3,0-1.9,0l0-23.3C-762.8,506.3-762.2,506.3-761.6,506.3"/>
					<path class="st2" d="M-763.5,506.3l0,23.3c-0.6,0-1.2,0-1.8,0l0-23.3C-764.7,506.3-764.1,506.3-763.5,506.3"/>
					<path class="st2" d="M-765.3,506.3l0,23.3c-0.6,0-1.2,0-1.8,0l0-23.3C-766.5,506.3-765.9,506.3-765.3,506.3"/>
					<path class="st3" d="M-767.2,506.3l0,23.3c-0.6,0-1.2,0-1.8,0l0-23.3C-768.4,506.3-767.8,506.3-767.2,506.3"/>
					<path class="st3" d="M-769,506.3l0,23.3c-0.6,0-1.2,0-1.7,0l0-23.3C-770.1,506.3-769.5,506.3-769,506.3"/>
					<path class="st3" d="M-770.7,506.3l0,23.3c-0.6,0-1.1,0-1.7,0l0-23.3C-771.8,506.3-771.3,506.3-770.7,506.3"/>
					<path class="st3" d="M-772.4,506.3l0,23.3c-0.5,0-1,0-1.6,0l0-23.3C-773.4,506.3-772.9,506.3-772.4,506.3"/>
					<path class="st3" d="M-774,506.3l0,23.3c-0.5,0-0.9,0-1.4,0l0-23.3C-774.9,506.3-774.4,506.3-774,506.3"/>
					<path class="st3" d="M-775.4,506.3l0,23.3c-0.5,0-0.9,0-1.4,0l0-23.3C-776.3,506.3-775.8,506.3-775.4,506.3"/>
					<path class="st3" d="M-776.8,506.3l0,23.3c-0.4,0-0.7,0-1.1,0l0-23.3C-777.5,506.3-777.1,506.3-776.8,506.3"/>
					<path class="st3" d="M-777.9,506.3l0,23.3c-0.4,0-0.7,0-1.1,0l0-23.3C-778.6,506.3-778.2,506.3-777.9,506.3"/>
					<path class="st3" d="M-779,506.3l0,23.3c-0.4,0-0.7,0-1.1,0l0-23.3C-779.7,506.3-779.3,506.3-779,506.3"/>
					<path class="st4" d="M-780,506.3l0,23.3c-0.3,0-0.6,0-0.9,0l0-23.3C-780.7,506.3-780.4,506.3-780,506.3"/>
					<path class="st4" d="M-781,506.3l0,23.3c-0.3,0-0.6,0-0.8,0l0-23.3C-781.5,506.3-781.3,506.3-781,506.3"/>
					<path class="st4" d="M-781.8,506.3l0,23.3c-0.3,0-0.6,0-0.8,0l0-23.3C-782.4,506.3-782.1,506.3-781.8,506.3"/>
					<path class="st4" d="M-782.7,506.3l0,23.3c-0.3,0-0.6,0-0.9,0l0-23.3C-783.2,506.3-783,506.3-782.7,506.3"/>
					<path class="st4" d="M-783.5,506.3l0,23.3c-0.2,0-0.5,0-0.7,0l0-23.3C-784,506.3-783.8,506.3-783.5,506.3"/>
				</g>
			</g>
			<g>
				<path class="st2" d="M-785.5,566.8l0.4,0l0.4,0c9.2,0,16.6,0,16.4,0S-776.3,566.8-785.5,566.8z"/>
			</g>
			<g class="st0">
				<defs>
					<path id="SVGID_5_" class="st0" d="M-768.4,566.8c0,0-7.3,0-16.4,0l0.6-36.8c25.3,0,45.5,0,45.5,0
						C-748.6,542.3-758.5,554.5-768.4,566.8z"/>
				</defs>
				<clipPath id="SVGID_6_">
					<use xlink:href="#SVGID_5_"  style="overflow:visible;"/>
				</clipPath>
				<g class="st6">
					<path class="st2" d="M-768.4,566.8l29.8-36.8c0,0-1.4,0-3.9,0l-27.2,36.8C-768.9,566.8-768.4,566.8-768.4,566.8"/>
					<path class="st2" d="M-769.8,566.8l27.2-36.8c-0.7,0-1.5,0-2.4,0l-25.7,36.8C-770.4,566.8-770.1,566.8-769.8,566.8"/>
					<path class="st2" d="M-770.7,566.8L-745,530c-0.7,0-1.4,0-2.2,0l-24.3,36.8C-771.2,566.8-771,566.8-770.7,566.8"/>
					<path class="st2" d="M-771.5,566.8l24.3-36.8c-0.7,0-1.4,0-2.1,0l-22.9,36.8C-772,566.8-771.7,566.8-771.5,566.8"/>
					<path class="st2" d="M-772.3,566.8l22.9-36.8c-0.7,0-1.4,0-2.1,0l-21.6,36.8C-772.8,566.8-772.5,566.8-772.3,566.8"/>
					<path class="st2" d="M-773,566.8l21.6-36.8c-0.7,0-1.4,0-2.1,0l-20.2,36.8C-773.5,566.8-773.3,566.8-773,566.8"/>
					<path class="st2" d="M-773.8,566.8l20.2-36.8c-0.7,0-1.4,0-2.1,0l-18.9,36.8C-774.3,566.8-774,566.8-773.8,566.8"/>
					<path class="st2" d="M-774.5,566.8l18.9-36.8c-0.7,0-1.4,0-2.1,0l-17.6,36.8C-775,566.8-774.8,566.8-774.5,566.8"/>
					<path class="st2" d="M-775.3,566.8l17.6-36.8c-0.7,0-1.4,0-2.1,0l-16.3,36.8C-775.8,566.8-775.5,566.8-775.3,566.8"/>
					<path class="st2" d="M-776,566.8l16.3-36.8c-0.7,0-1.4,0-2.1,0l-14.9,36.8C-776.5,566.8-776.3,566.8-776,566.8"/>
					<path class="st3" d="M-776.8,566.8l14.9-36.8c-0.7,0-1.4,0-2.1,0l-13.5,36.8C-777.3,566.8-777,566.8-776.8,566.8"/>
					<path class="st3" d="M-777.5,566.8L-764,530c-0.7,0-1.4,0-2.2,0l-12.1,36.8C-778.1,566.8-777.8,566.8-777.5,566.8"/>
					<path class="st3" d="M-778.3,566.8l12.1-36.8c-0.7,0-1.5,0-2.2,0l-10.7,36.8C-778.9,566.8-778.6,566.8-778.3,566.8"/>
					<path class="st3" d="M-779.1,566.8l10.7-36.8c-0.8,0-1.5,0-2.3,0l-9.3,36.8C-779.7,566.8-779.4,566.8-779.1,566.8"/>
					<path class="st3" d="M-780,566.8l9.3-36.8c-0.8,0-1.6,0-2.4,0l-7.7,36.8C-780.5,566.8-780.2,566.8-780,566.8"/>
					<path class="st3" d="M-780.8,566.8l7.7-36.8c-0.8,0-1.6,0-2.4,0l-6.2,36.8C-781.4,566.8-781.1,566.8-780.8,566.8"/>
					<path class="st3" d="M-781.7,566.8l6.2-36.8c-0.8,0-1.7,0-2.5,0l-4.6,36.8C-782.3,566.8-782,566.8-781.7,566.8"/>
					<path class="st3" d="M-782.6,566.8l4.6-36.8c-0.9,0-1.8,0-2.6,0l-2.9,36.8C-783.2,566.8-782.9,566.8-782.6,566.8"/>
					<path class="st3" d="M-783.5,566.8l2.9-36.8c-0.9,0-1.9,0-2.8,0l-1.1,36.8C-784.2,566.8-783.9,566.8-783.5,566.8"/>
					<path class="st4" d="M-784.6,566.8l1.1-36.8c-0.2,0-0.5,0-0.7,0l-0.6,36.8C-784.7,566.8-784.6,566.8-784.6,566.8"/>
				</g>
			</g>
			<g class="st0">
				<defs>
					<path id="SVGID_7_" class="st0" d="M-739.7,529.6c-9.7,12.1-19.5,24.1-29.2,36.2c0,0-7.1,0-15.9,0l0.6-36.2
						C-759.4,529.6-739.7,529.6-739.7,529.6z"/>
				</defs>
				<clipPath id="SVGID_8_">
					<use xlink:href="#SVGID_7_"  style="overflow:visible;"/>
				</clipPath>
				<g class="st7">
					<path class="st2" d="M-739.7,529.6l-29.2,36.2c0,0-0.5,0-1.4,0l26.8-36.2C-741,529.6-739.7,529.6-739.7,529.6"/>
					<path class="st2" d="M-743.5,529.6l-26.8,36.2c-0.3,0-0.5,0-0.9,0l25.2-36.2C-745,529.6-744.2,529.6-743.5,529.6"/>
					<path class="st2" d="M-745.9,529.6l-25.2,36.2c-0.2,0-0.5,0-0.8,0l23.8-36.2C-747.3,529.6-746.6,529.6-745.9,529.6"/>
					<path class="st2" d="M-748.1,529.6l-23.8,36.2c-0.2,0-0.5,0-0.7,0l22.5-36.2C-749.4,529.6-748.7,529.6-748.1,529.6"/>
					<path class="st2" d="M-750.1,529.6l-22.5,36.2c-0.2,0-0.5,0-0.7,0l21.2-36.2C-751.5,529.6-750.8,529.6-750.1,529.6"/>
					<path class="st2" d="M-752.2,529.6l-21.2,36.2c-0.2,0-0.5,0-0.7,0l19.9-36.2C-753.5,529.6-752.8,529.6-752.2,529.6"/>
					<path class="st2" d="M-754.2,529.6l-19.9,36.2c-0.2,0-0.5,0-0.7,0l18.6-36.2C-755.5,529.6-754.9,529.6-754.2,529.6"/>
					<path class="st2" d="M-756.2,529.6l-18.6,36.2c-0.2,0-0.5,0-0.7,0l17.3-36.2C-757.6,529.6-756.9,529.6-756.2,529.6"/>
					<path class="st2" d="M-758.3,529.6l-17.3,36.2c-0.2,0-0.5,0-0.7,0l16-36.2C-759.6,529.6-758.9,529.6-758.3,529.6"/>
					<path class="st2" d="M-760.3,529.6l-16,36.2c-0.2,0-0.5,0-0.7,0l14.7-36.2C-761.7,529.6-761,529.6-760.3,529.6"/>
					<path class="st3" d="M-762.4,529.6l-14.7,36.2c-0.2,0-0.5,0-0.7,0l13.3-36.2C-763.7,529.6-763,529.6-762.4,529.6"/>
					<path class="st3" d="M-764.5,529.6l-13.3,36.2c-0.3,0-0.5,0-0.8,0l11.9-36.2C-765.9,529.6-765.2,529.6-764.5,529.6"/>
					<path class="st3" d="M-766.6,529.6l-11.9,36.2c-0.3,0-0.5,0-0.8,0l10.5-36.2C-768,529.6-767.3,529.6-766.6,529.6"/>
					<path class="st3" d="M-768.8,529.6l-10.5,36.2c-0.3,0-0.5,0-0.8,0l9.1-36.2C-770.3,529.6-769.5,529.6-768.8,529.6"/>
					<path class="st3" d="M-771,529.6l-9.1,36.2c-0.3,0-0.5,0-0.8,0l7.6-36.2C-772.5,529.6-771.8,529.6-771,529.6"/>
					<path class="st3" d="M-773.3,529.6l-7.6,36.2c-0.3,0-0.6,0-0.9,0l6.1-36.2C-774.9,529.6-774.1,529.6-773.3,529.6"/>
					<path class="st3" d="M-775.7,529.6l-6.1,36.2c-0.3,0-0.6,0-0.9,0l4.5-36.2C-777.4,529.6-776.5,529.6-775.7,529.6"/>
					<path class="st3" d="M-778.2,529.6l-4.5,36.2c-0.3,0-0.6,0-0.9,0l2.8-36.2C-779.9,529.6-779,529.6-778.2,529.6"/>
					<path class="st3" d="M-780.8,529.6l-2.8,36.2c-0.3,0-0.7,0-1,0l1-36.2C-782.6,529.6-781.7,529.6-780.8,529.6"/>
					<path class="st4" d="M-783.5,529.6l-1,36.2c-0.1,0-0.2,0-0.2,0l0.6-36.2C-784,529.6-783.8,529.6-783.5,529.6"/>
				</g>
			</g>
			<g>
				<path class="st2" d="M-785.2,506.3L-785.2,506.3L-785.2,506.3c0.6,0,1,0,1,0C-784.2,506.3-784.6,506.3-785.2,506.3z"/>
			</g>
			<g class="st0">
				<defs>
					<path id="SVGID_9_" class="st0" d="M-768.9,565.8C-768.9,565.8-768.9,565.8-768.9,565.8c-0.2,0-7.6,0-16.6,0l-0.6-36.2
						c25.1,0,45.9,0,46.4,0c0,0,0,0,0,0C-749.4,541.7-759.2,553.7-768.9,565.8z"/>
				</defs>
				<clipPath id="SVGID_10_">
					<use xlink:href="#SVGID_9_"  style="overflow:visible;"/>
				</clipPath>
				<g class="st8">
					<path class="st2" d="M-786.1,529.6l0.6,36.2c0.8,0,1.6,0,2.4,0l3.7-36.2C-781.6,529.6-783.8,529.6-786.1,529.6"/>
					<path class="st2" d="M-779.4,529.6l-3.7,36.2c3.4,0,6.4,0,8.9,0l19.6-36.2C-761.4,529.6-770,529.6-779.4,529.6"/>
					<path class="st2" d="M-754.7,529.6l-19.6,36.2c0.6,0,1.2,0,1.8,0l22.8-36.2C-751.2,529.6-752.9,529.6-754.7,529.6"/>
					<path class="st2" d="M-749.7,529.6l-22.8,36.2c0.4,0,0.8,0,1.2,0l24.9-36.2C-747.4,529.6-748.5,529.6-749.7,529.6"/>
					<path class="st2" d="M-746.4,529.6l-24.9,36.2c0.3,0,0.6,0,0.9,0l26.6-36.2C-744.5,529.6-745.4,529.6-746.4,529.6"/>
					<path class="st2" d="M-743.8,529.6l-26.6,36.2c0.3,0,0.5,0,0.7,0l27.9-36.2C-742.3,529.6-743,529.6-743.8,529.6"/>
					<path class="st2" d="M-741.8,529.6l-27.9,36.2c0.2,0,0.4,0,0.5,0l28.9-36.2C-740.6,529.6-741.1,529.6-741.8,529.6"/>
					<path class="st2" d="M-740.3,529.6l-28.9,36.2c0.1,0,0.2,0,0.2,0c0,0,0,0,0,0l29.2-36.2c0,0,0,0,0,0
						C-739.7,529.6-739.9,529.6-740.3,529.6"/>
				</g>
			</g>
			<g class="st0">
				<defs>
					<path id="SVGID_11_" class="st0" d="M-739.7,529.6C-739.7,529.6-739.7,529.6-739.7,529.6c-0.5,0-21.3,0-46.4,0l0-23.3
						c25.1,0,45.9,0,46.4,0c0,0,0,0,0,0C-739.7,513.3-739.7,522.6-739.7,529.6z"/>
				</defs>
				<clipPath id="SVGID_12_">
					<use xlink:href="#SVGID_11_"  style="overflow:visible;"/>
				</clipPath>
				<g class="st9">
					<path class="st4" d="M-786.1,506.3l0,23.3c0,0,0.1,0,0.1,0l0-23.3C-786,506.3-786.1,506.3-786.1,506.3"/>
					<path class="st4" d="M-786,506.3l0,23.3c0.2,0,0.5,0,0.7,0l0-23.3C-785.5,506.3-785.7,506.3-786,506.3"/>
					<path class="st10" d="M-785.2,506.3l0,23.3c0.2,0,0.5,0,0.7,0l0-23.3C-784.7,506.3-785,506.3-785.2,506.3"/>
					<path class="st11" d="M-784.5,506.3l0,23.3c0.2,0,0.5,0,0.7,0l0-23.3C-784,506.3-784.2,506.3-784.5,506.3"/>
					<path class="st12" d="M-783.7,506.3l0,23.3c0.2,0,0.5,0,0.7,0l0-23.3C-783.2,506.3-783.5,506.3-783.7,506.3"/>
					<path class="st13" d="M-783,506.3l0,23.3c0.3,0,0.5,0,0.8,0l0-23.3C-782.5,506.3-782.7,506.3-783,506.3"/>
					<path class="st14" d="M-782.2,506.3l0,23.3c0.3,0,0.6,0,0.8,0l0-23.3C-781.7,506.3-782,506.3-782.2,506.3"/>
					<path class="st15" d="M-781.4,506.3l0,23.3c0.3,0,0.6,0,0.8,0l0-23.3C-780.9,506.3-781.1,506.3-781.4,506.3"/>
					<path class="st16" d="M-780.6,506.3l0,23.3c0.3,0,0.5,0,0.8,0l0-23.3C-780,506.3-780.3,506.3-780.6,506.3"/>
					<path class="st17" d="M-779.8,506.3l0,23.3c0.3,0,0.5,0,0.8,0l0-23.3C-779.2,506.3-779.5,506.3-779.8,506.3"/>
					<path class="st18" d="M-778.9,506.3l0,23.3c0.4,0,0.9,0,1.3,0l0-23.3C-778.1,506.3-778.5,506.3-778.9,506.3"/>
					<path class="st19" d="M-777.6,506.3l0,23.3c0.5,0,1,0,1.5,0l0-23.3C-776.6,506.3-777.1,506.3-777.6,506.3"/>
					<path class="st20" d="M-776.1,506.3l0,23.3c1.6,0,3.2,0,4.8,0l0-23.3C-772.9,506.3-774.5,506.3-776.1,506.3"/>
					<path class="st19" d="M-771.3,506.3l0,23.3c0.4,0,0.9,0,1.3,0l0-23.3C-770.5,506.3-770.9,506.3-771.3,506.3"/>
					<path class="st18" d="M-770,506.3l0,23.3c0.4,0,0.9,0,1.3,0l0-23.3C-769.2,506.3-769.6,506.3-770,506.3"/>
					<path class="st17" d="M-768.7,506.3l0,23.3c0.3,0,0.7,0,1,0l0-23.3C-768.1,506.3-768.4,506.3-768.7,506.3"/>
					<path class="st16" d="M-767.7,506.3l0,23.3c0.3,0,0.6,0,0.9,0l0-23.3C-767.1,506.3-767.4,506.3-767.7,506.3"/>
					<path class="st15" d="M-766.8,506.3l0,23.3c0.3,0,0.6,0,0.9,0l0-23.3C-766.2,506.3-766.5,506.3-766.8,506.3"/>
					<path class="st14" d="M-765.9,506.3l0,23.3c0.3,0,0.6,0,0.9,0l0-23.3C-765.3,506.3-765.6,506.3-765.9,506.3"/>
					<path class="st13" d="M-765,506.3l0,23.3c0.3,0,0.6,0,0.9,0l0-23.3C-764.4,506.3-764.7,506.3-765,506.3"/>
					<path class="st12" d="M-764.1,506.3l0,23.3c0.3,0,0.6,0,0.9,0l0-23.3C-763.5,506.3-763.8,506.3-764.1,506.3"/>
					<path class="st11" d="M-763.1,506.3l0,23.3c0.3,0,0.6,0,0.9,0l0-23.3C-762.5,506.3-762.8,506.3-763.1,506.3"/>
					<path class="st10" d="M-762.2,506.3l0,23.3c0.4,0,0.7,0,1.1,0l0-23.3C-761.5,506.3-761.9,506.3-762.2,506.3"/>
					<path class="st4" d="M-761.1,506.3l0,23.3c0.4,0,0.8,0,1.2,0l0-23.3C-760.3,506.3-760.7,506.3-761.1,506.3"/>
					<path class="st4" d="M-760,506.3l0,23.3c0.4,0,0.8,0,1.2,0l0-23.3C-759.1,506.3-759.5,506.3-760,506.3"/>
					<path class="st4" d="M-758.7,506.3l0,23.3c0.5,0,1,0,1.6,0l0-23.3C-757.7,506.3-758.2,506.3-758.7,506.3"/>
					<path class="st4" d="M-757.2,506.3l0,23.3c0.6,0,1.1,0,1.7,0l0-23.3C-756,506.3-756.6,506.3-757.2,506.3"/>
					<path class="st4" d="M-755.5,506.3l0,23.3c0.6,0,1.3,0,1.9,0l0-23.3C-754.2,506.3-754.8,506.3-755.5,506.3"/>
					<path class="st4" d="M-753.6,506.3l0,23.3c0.6,0,1.3,0,1.9,0l0-23.3C-752.3,506.3-753,506.3-753.6,506.3"/>
					<path class="st3" d="M-751.7,506.3l0,23.3c0.6,0,1.2,0,1.7,0l0-23.3C-750.6,506.3-751.1,506.3-751.7,506.3"/>
					<path class="st3" d="M-750,506.3l0,23.3c0.5,0,1,0,1.5,0l0-23.3C-749,506.3-749.5,506.3-750,506.3"/>
					<path class="st3" d="M-748.5,506.3l0,23.3c0.5,0,0.9,0,1.3,0l0-23.3C-747.6,506.3-748,506.3-748.5,506.3"/>
					<path class="st3" d="M-747.2,506.3l0,23.3c0.4,0,0.8,0,1.2,0l0-23.3C-746.4,506.3-746.7,506.3-747.2,506.3"/>
					<path class="st3" d="M-746,506.3l0,23.3c0.4,0,0.7,0,1.1,0l0-23.3C-745.3,506.3-745.6,506.3-746,506.3"/>
					<path class="st3" d="M-744.9,506.3l0,23.3c0.3,0,0.6,0,0.9,0l0-23.3C-744.3,506.3-744.6,506.3-744.9,506.3"/>
					<path class="st3" d="M-744,506.3l0,23.3c0.3,0,0.6,0,0.8,0l0-23.3C-743.4,506.3-743.7,506.3-744,506.3"/>
					<path class="st3" d="M-743.2,506.3l0,23.3c0.3,0,0.5,0,0.7,0l0-23.3C-742.6,506.3-742.9,506.3-743.2,506.3"/>
					<path class="st3" d="M-742.4,506.3l0,23.3c0.2,0,0.5,0,0.7,0l0-23.3C-742,506.3-742.2,506.3-742.4,506.3"/>
					<path class="st2" d="M-741.8,506.3l0,23.3c0.2,0,0.4,0,0.6,0l0-23.3C-741.4,506.3-741.6,506.3-741.8,506.3"/>
					<path class="st2" d="M-741.2,506.3l0,23.3c0.2,0,0.3,0,0.5,0l0-23.3C-740.8,506.3-741,506.3-741.2,506.3"/>
					<path class="st2" d="M-740.7,506.3l0,23.3c0.2,0,0.3,0,0.4,0l0-23.3C-740.4,506.3-740.5,506.3-740.7,506.3"/>
					<path class="st2" d="M-740.3,506.3l0,23.3c0.1,0,0.2,0,0.3,0l0-23.3C-740.1,506.3-740.2,506.3-740.3,506.3"/>
					<path class="st2" d="M-740,506.3l0,23.3c0.1,0,0.2,0,0.2,0l0-23.3C-739.8,506.3-739.9,506.3-740,506.3"/>
					<path class="st2" d="M-739.8,506.3l0,23.3c0,0,0.1,0,0.1,0c0,0,0,0,0,0L-739.8,506.3C-739.7,506.3-739.7,506.3-739.8,506.3
						C-739.7,506.3-739.7,506.3-739.8,506.3"/>
					<polyline class="st2" points="-739.7,506.3 -739.7,529.6 -739.7,529.6 -739.7,506.3 -739.7,506.3 					"/>
				</g>
			</g>
			<g class="st0">
				<defs>
					<path id="SVGID_13_" class="st0" d="M-738.7,530c-9.9,12.3-19.8,24.5-29.8,36.8c0,0,0,0,0,0c-0.2,0-7.8,0-17.1,0l-0.6-36.8
						C-760.5,530-739.2,530-738.7,530C-738.7,530-738.7,530-738.7,530z"/>
				</defs>
				<clipPath id="SVGID_14_">
					<use xlink:href="#SVGID_13_"  style="overflow:visible;"/>
				</clipPath>
				<g class="st21">
					<path class="st2" d="M-785.5,566.8l-0.6-36.8c2.3,0,4.6,0,6.8,0l-3.8,36.8C-783.9,566.8-784.7,566.8-785.5,566.8"/>
					<path class="st2" d="M-783,566.8l3.8-36.8c9.7,0,18.4,0,25.3,0l-19.9,36.8C-776.4,566.8-779.6,566.8-783,566.8"/>
					<path class="st2" d="M-773.9,566.8L-754,530c1.8,0,3.5,0,5,0l-23.2,36.8C-772.7,566.8-773.3,566.8-773.9,566.8"/>
					<path class="st2" d="M-772.1,566.8L-749,530c1.3,0,2.4,0,3.5,0l-25.4,36.8C-771.3,566.8-771.7,566.8-772.1,566.8"/>
					<path class="st2" d="M-770.9,566.8l25.4-36.8c1,0,1.9,0,2.6,0l-27.1,36.8C-770.2,566.8-770.5,566.8-770.9,566.8"/>
					<path class="st2" d="M-769.9,566.8l27.1-36.8c0.8,0,1.5,0,2.1,0l-28.4,36.8C-769.4,566.8-769.6,566.8-769.9,566.8"/>
					<path class="st2" d="M-769.2,566.8l28.4-36.8c0.7,0,1.2,0,1.5,0l-29.4,36.8C-768.8,566.8-769,566.8-769.2,566.8"/>
					<path class="st2" d="M-768.6,566.8l29.4-36.8c0.3,0,0.5,0,0.6,0c0,0,0,0,0,0l-29.8,36.8c0,0,0,0,0,0
						C-768.4,566.8-768.5,566.8-768.6,566.8"/>
				</g>
			</g>
			<g class="st0">
				<defs>
					<path id="SVGID_15_" class="st0" d="M-738.7,506.3l0,23.7c0,0,0,0,0,0c-0.5,0-21.8,0-47.5,0l0-23.7
						C-760.5,506.3-739.2,506.3-738.7,506.3C-738.7,506.3-738.7,506.3-738.7,506.3z"/>
				</defs>
				<clipPath id="SVGID_16_">
					<use xlink:href="#SVGID_15_"  style="overflow:visible;"/>
				</clipPath>
				<g class="st22">
					<path class="st4" d="M-786.1,530l0-23.7c0.1,0,0.1,0,0.2,0l0,23.7C-786,530-786.1,530-786.1,530"/>
					<path class="st4" d="M-786,530l0-23.7c0.3,0,0.5,0,0.8,0l0,23.7C-785.5,530-785.7,530-786,530"/>
					<path class="st10" d="M-785.2,530l0-23.7c0.3,0,0.5,0,0.8,0l0,23.7C-784.7,530-785,530-785.2,530"/>
					<path class="st11" d="M-784.5,530l0-23.7c0.3,0,0.5,0,0.8,0l0,23.7C-783.9,530-784.2,530-784.5,530"/>
					<path class="st12" d="M-783.7,530l0-23.7c0.3,0,0.5,0,0.8,0l0,23.7C-783.2,530-783.4,530-783.7,530"/>
					<path class="st13" d="M-782.9,530l0-23.7c0.3,0,0.5,0,0.8,0l0,23.7C-782.4,530-782.7,530-782.9,530"/>
					<path class="st14" d="M-782.2,530l0-23.7c0.3,0,0.6,0,0.8,0l0,23.7C-781.6,530-781.9,530-782.2,530"/>
					<path class="st15" d="M-781.3,530l0-23.7c0.3,0,0.6,0,0.8,0l0,23.7C-780.8,530-781,530-781.3,530"/>
					<path class="st16" d="M-780.5,530l0-23.7c0.3,0,0.6,0,0.8,0l0,23.7C-779.9,530-780.2,530-780.5,530"/>
					<path class="st17" d="M-779.6,530l0-23.7c0.3,0,0.6,0,0.8,0l0,23.7C-779.1,530-779.4,530-779.6,530"/>
					<path class="st18" d="M-778.8,530l0-23.7c0.5,0,0.9,0,1.3,0l0,23.7C-777.9,530-778.4,530-778.8,530"/>
					<path class="st19" d="M-777.5,530l0-23.7c0.5,0,1,0,1.5,0l0,23.7C-776.4,530-776.9,530-777.5,530"/>
					<path class="st20" d="M-775.9,530l0-23.7c1.7,0,3.3,0,4.9,0l0,23.7C-772.6,530-774.3,530-775.9,530"/>
					<path class="st19" d="M-771,530l0-23.7c0.4,0,0.9,0,1.3,0l0,23.7C-770.1,530-770.6,530-771,530"/>
					<path class="st18" d="M-769.7,530l0-23.7c0.4,0,0.9,0,1.3,0l0,23.7C-768.8,530-769.2,530-769.7,530"/>
					<path class="st17" d="M-768.4,530l0-23.7c0.4,0,0.7,0,1.1,0l0,23.7C-767.7,530-768,530-768.4,530"/>
					<path class="st16" d="M-767.3,530l0-23.7c0.3,0,0.6,0,0.9,0l0,23.7C-766.7,530-767,530-767.3,530"/>
					<path class="st15" d="M-766.4,530l0-23.7c0.3,0,0.6,0,0.9,0l0,23.7C-765.8,530-766.1,530-766.4,530"/>
					<path class="st14" d="M-765.5,530l0-23.7c0.3,0,0.6,0,0.9,0l0,23.7C-764.9,530-765.2,530-765.5,530"/>
					<path class="st13" d="M-764.6,530l0-23.7c0.3,0,0.6,0,1,0l0,23.7C-763.9,530-764.2,530-764.6,530"/>
					<path class="st12" d="M-763.6,530l0-23.7c0.3,0,0.6,0,0.9,0l0,23.7C-763,530-763.3,530-763.6,530"/>
					<path class="st11" d="M-762.7,530l0-23.7c0.3,0,0.6,0,0.9,0l0,23.7C-762,530-762.4,530-762.7,530"/>
					<path class="st10" d="M-761.7,530l0-23.7c0.4,0,0.8,0,1.1,0l0,23.7C-761,530-761.3,530-761.7,530"/>
					<path class="st4" d="M-760.6,530l0-23.7c0.4,0,0.8,0,1.2,0l0,23.7C-759.8,530-760.2,530-760.6,530"/>
					<path class="st4" d="M-759.4,530l0-23.7c0.4,0,0.8,0,1.3,0l0,23.7C-758.6,530-759,530-759.4,530"/>
					<path class="st4" d="M-758.1,530l0-23.7c0.5,0,1.1,0,1.6,0l0,23.7C-757.1,530-757.6,530-758.1,530"/>
					<path class="st4" d="M-756.6,530l0-23.7c0.6,0,1.2,0,1.7,0l0,23.7C-755.4,530-756,530-756.6,530"/>
					<path class="st4" d="M-754.8,530l0-23.7c0.6,0,1.3,0,1.9,0l0,23.7C-753.5,530-754.2,530-754.8,530"/>
					<path class="st4" d="M-752.9,530l0-23.7c0.7,0,1.3,0,1.9,0l0,23.7C-751.6,530-752.3,530-752.9,530"/>
					<path class="st3" d="M-751,530l0-23.7c0.6,0,1.2,0,1.7,0l0,23.7C-749.8,530-750.4,530-751,530"/>
					<path class="st3" d="M-749.3,530l0-23.7c0.5,0,1.1,0,1.6,0l0,23.7C-748.2,530-748.7,530-749.3,530"/>
					<path class="st3" d="M-747.7,530l0-23.7c0.5,0,0.9,0,1.4,0l0,23.7C-746.8,530-747.2,530-747.7,530"/>
					<path class="st3" d="M-746.3,530l0-23.7c0.4,0,0.8,0,1.2,0l0,23.7C-745.5,530-745.9,530-746.3,530"/>
					<path class="st3" d="M-745.1,530l0-23.7c0.4,0,0.7,0,1.1,0l0,23.7C-744.4,530-744.7,530-745.1,530"/>
					<path class="st3" d="M-744,530l0-23.7c0.3,0,0.6,0,1,0l0,23.7C-743.4,530-743.7,530-744,530"/>
					<path class="st3" d="M-743.1,530l0-23.7c0.3,0,0.6,0,0.9,0l0,23.7C-742.5,530-742.8,530-743.1,530"/>
					<path class="st3" d="M-742.2,530l0-23.7c0.3,0,0.5,0,0.8,0l0,23.7C-741.7,530-742,530-742.2,530"/>
					<path class="st3" d="M-741.5,530l0-23.7c0.2,0,0.5,0,0.7,0l0,23.7C-741,530-741.2,530-741.5,530"/>
					<path class="st2" d="M-740.8,530l0-23.7c0.2,0,0.4,0,0.6,0l0,23.7C-740.4,530-740.6,530-740.8,530"/>
					<path class="st2" d="M-740.2,530l0-23.7c0.2,0,0.4,0,0.5,0l0,23.7C-739.9,530-740,530-740.2,530"/>
					<path class="st2" d="M-739.7,530l0-23.7c0.2,0,0.3,0,0.4,0l0,23.7C-739.4,530-739.6,530-739.7,530"/>
					<path class="st2" d="M-739.3,530l0-23.7c0.1,0,0.2,0,0.3,0l0,23.7C-739.1,530-739.2,530-739.3,530"/>
					<path class="st2" d="M-739,530l0-23.7c0.1,0,0.2,0,0.2,0l0,23.7C-738.8,530-738.9,530-739,530"/>
					<path class="st2" d="M-738.8,530l0-23.7c0,0,0.1,0,0.1,0c0,0,0,0,0,0L-738.8,530C-738.7,530-738.7,530-738.8,530
						C-738.7,530-738.7,530-738.8,530"/>
					<polyline class="st2" points="-738.7,530 -738.7,506.3 -738.7,506.3 -738.7,530 -738.7,530 					"/>
				</g>
			</g>
			<g>
				<path class="st2" d="M-786.1,506.3L-786.1,506.3c25.1,0,45.9,0,46.5,0s-19.4,0-44.5,0l0,0c25.7,0,46,0,45.5,0
					C-739.2,506.3-760.5,506.3-786.1,506.3z"/>
			</g>
		</g>
	</g>
</g>
<g>
	<g>
		<g class="st0">
			<g>
				<path class="st2" d="M-790.1,506.3c-25.7,0-45.8,0-45,0c0.8,0,22.3,0,47.9,0l0,0c-25.1,0-46.1,0-46.9,0
					C-834.9,506.3-815.2,506.3-790.1,506.3L-790.1,506.3z"/>
			</g>
			<g class="st0">
				<defs>
					<path id="SVGID_17_" class="st0" d="M-835.2,506.3c0,0,19.9,0,45,0l0,23.7c-25.2,0-45,0-45,0
						C-835.2,522.9-835.2,513.4-835.2,506.3z"/>
				</defs>
				<clipPath id="SVGID_18_">
					<use xlink:href="#SVGID_17_"  style="overflow:visible;"/>
				</clipPath>
				<g class="st23">
					<path class="st2" d="M-790.1,530l0-23.7c-0.5,0-1,0-1.5,0l0,23.7C-791.2,530-790.7,530-790.1,530"/>
					<path class="st2" d="M-791.7,530l0-23.7c-0.7,0-1.4,0-2.1,0l0,23.7C-793.1,530-792.4,530-791.7,530"/>
					<path class="st2" d="M-793.8,530l0-23.7c-0.8,0-1.7,0-2.5,0l0,23.7C-795.5,530-794.7,530-793.8,530"/>
					<path class="st2" d="M-796.3,530l0-23.7c-0.9,0-1.8,0-2.7,0l0,23.7C-798.1,530-797.2,530-796.3,530"/>
					<path class="st2" d="M-799,530l0-23.7c-1,0-2,0-3,0l0,23.7C-801,530-800,530-799,530"/>
					<path class="st2" d="M-802,530l0-23.7c-1.3,0-2.6,0-3.8,0l0,23.7C-804.6,530-803.3,530-802,530"/>
					<path class="st2" d="M-805.8,530l0-23.7c-17.2,0-29.3,0-29.3,0l0,23.7C-835.2,530-823.1,530-805.8,530"/>
				</g>
			</g>
			<g class="st0">
				<defs>
					<path id="SVGID_19_" class="st0" d="M-834.2,529.6l0-23.3c0,0,19.4,0,44.1,0l0,23.3C-814.7,529.6-834.2,529.6-834.2,529.6z"/>
				</defs>
				<clipPath id="SVGID_20_">
					<use xlink:href="#SVGID_19_"  style="overflow:visible;"/>
				</clipPath>
				<g class="st24">
					<path class="st2" d="M-790.1,506.3l0,23.3c-0.5,0-1,0-1.5,0l0-23.3C-791.1,506.3-790.6,506.3-790.1,506.3"/>
					<path class="st2" d="M-791.6,506.3l0,23.3c-0.7,0-1.4,0-2.1,0l0-23.3C-793,506.3-792.3,506.3-791.6,506.3"/>
					<path class="st2" d="M-793.7,506.3l0,23.3c-0.8,0-1.6,0-2.4,0l0-23.3C-795.3,506.3-794.5,506.3-793.7,506.3"/>
					<path class="st2" d="M-796.1,506.3l0,23.3c-0.9,0-1.8,0-2.6,0l0-23.3C-797.9,506.3-797,506.3-796.1,506.3"/>
					<path class="st2" d="M-798.8,506.3l0,23.3c-1,0-2,0-3,0l0-23.3C-800.7,506.3-799.8,506.3-798.8,506.3"/>
					<path class="st2" d="M-801.7,506.3l0,23.3c-1.3,0-2.5,0-3.8,0l0-23.3C-804.3,506.3-803,506.3-801.7,506.3"/>
					<path class="st2" d="M-805.5,506.3l0,23.3c-16.9,0-28.7,0-28.7,0l0-23.3C-834.2,506.3-822.4,506.3-805.5,506.3"/>
				</g>
			</g>
			<g class="st0">
				<defs>
					<path id="SVGID_21_" class="st0" d="M-835.2,530c0,0,19.9,0,45,0l0.9,36.8c-9.1,0-16.2,0-16.2,0
						C-815.3,554.5-825.3,542.3-835.2,530z"/>
				</defs>
				<clipPath id="SVGID_22_">
					<use xlink:href="#SVGID_21_"  style="overflow:visible;"/>
				</clipPath>
				<g class="st25">
					<path class="st2" d="M-789.2,566.8l-0.9-36.8c-0.4,0-0.8,0-1.3,0l1.7,36.8C-789.5,566.8-789.4,566.8-789.2,566.8"/>
					<path class="st2" d="M-789.7,566.8l-1.7-36.8c-1.9,0-3.8,0-5.6,0l5.3,36.8C-791,566.8-790.3,566.8-789.7,566.8"/>
					<path class="st2" d="M-791.7,566.8L-797,530c-21.8,0-38.2,0-38.2,0l29.8,36.8C-805.4,566.8-799.5,566.8-791.7,566.8"/>
				</g>
			</g>
			<g class="st0">
				<defs>
					<path id="SVGID_23_" class="st0" d="M-804.9,565.8c-9.7-12.1-19.5-24.1-29.2-36.2c0,0,19.4,0,44.1,0l0.9,36.2
						C-798,565.8-804.9,565.8-804.9,565.8z"/>
				</defs>
				<clipPath id="SVGID_24_">
					<use xlink:href="#SVGID_23_"  style="overflow:visible;"/>
				</clipPath>
				<g class="st26">
					<path class="st2" d="M-790.1,529.6l0.9,36.2c-0.1,0-0.3,0-0.4,0l-1.7-36.2C-790.9,529.6-790.5,529.6-790.1,529.6"/>
					<path class="st2" d="M-791.4,529.6l1.7,36.2c-0.7,0-1.3,0-2,0l-5.2-36.2C-795,529.6-793.2,529.6-791.4,529.6"/>
					<path class="st2" d="M-796.8,529.6l5.2,36.2c-7.6,0-13.3,0-13.3,0l-29.2-36.2C-834.2,529.6-818.2,529.6-796.8,529.6"/>
				</g>
			</g>
			<g class="st0">
				<defs>
					<path id="SVGID_25_" class="st0" d="M-789.7,506.3c0,0,0.4,0,1,0l0,59.5c-0.5,0-1,0-1,0C-789.7,547.9-789.7,524.1-789.7,506.3z
						"/>
				</defs>
				<clipPath id="SVGID_26_">
					<use xlink:href="#SVGID_25_"  style="overflow:visible;"/>
				</clipPath>
				<g class="st27">
					<path class="st2" d="M-788.7,565.8l0-59.5c0,0,0,0,0,0L-788.7,565.8C-788.7,565.8-788.7,565.8-788.7,565.8"/>
					<path class="st2" d="M-788.7,565.8l0-59.5c0,0,0,0,0,0L-788.7,565.8C-788.8,565.8-788.8,565.8-788.7,565.8"/>
					<path class="st2" d="M-788.8,565.8l0-59.5c0,0,0,0-0.1,0L-788.8,565.8C-788.8,565.8-788.8,565.8-788.8,565.8"/>
					<path class="st2" d="M-788.8,565.8l0-59.5c0,0,0,0-0.1,0L-788.8,565.8C-788.9,565.8-788.9,565.8-788.8,565.8"/>
					<path class="st2" d="M-788.9,565.8l0-59.5c0,0,0,0-0.1,0L-788.9,565.8C-788.9,565.8-788.9,565.8-788.9,565.8"/>
					<path class="st2" d="M-789,565.8l0-59.5c0,0-0.1,0-0.1,0L-789,565.8C-789,565.8-789,565.8-789,565.8"/>
					<path class="st2" d="M-789,565.8l0-59.5c-0.4,0-0.6,0-0.6,0l0,59.5C-789.7,565.8-789.4,565.8-789,565.8"/>
				</g>
			</g>
			<g class="st0">
				<defs>
					<path id="SVGID_27_" class="st0" d="M-789.7,565.8l0-59.5c0,0,0,0,0,0c0,0,0.5,0,1,0l0,59.5
						C-789.2,565.8-789.7,565.8-789.7,565.8C-789.7,565.8-789.7,565.8-789.7,565.8z"/>
				</defs>
				<clipPath id="SVGID_28_">
					<use xlink:href="#SVGID_27_"  style="overflow:visible;"/>
				</clipPath>
				<g class="st28">
					<polyline class="st3" points="-789.7,565.8 -789.7,506.3 -789.7,506.3 -789.7,506.3 -789.7,565.8 -789.7,565.8 -789.7,565.8 
											"/>
					<polyline class="st3" points="-789.7,565.8 -789.7,506.3 -789.7,506.3 -789.7,565.8 -789.7,565.8 					"/>
					<polyline class="st4" points="-789.7,565.8 -789.7,506.3 -789.7,506.3 -789.7,565.8 -789.7,565.8 					"/>
					<polyline class="st4" points="-789.7,565.8 -789.7,506.3 -789.7,506.3 -789.7,565.8 -789.7,565.8 					"/>
					<path class="st4" d="M-789.7,565.8l0-59.5c0,0,0,0,0,0L-789.7,565.8C-789.7,565.8-789.7,565.8-789.7,565.8"/>
					<path class="st4" d="M-789.6,565.8l0-59.5c0,0,0,0,0,0L-789.6,565.8C-789.6,565.8-789.6,565.8-789.6,565.8"/>
					<path class="st4" d="M-789.6,565.8l0-59.5c0,0,0,0,0,0L-789.6,565.8C-789.6,565.8-789.6,565.8-789.6,565.8"/>
					<path class="st4" d="M-789.6,565.8l0-59.5c0,0,0,0,0.1,0L-789.6,565.8C-789.5,565.8-789.6,565.8-789.6,565.8"/>
					<path class="st10" d="M-789.5,565.8l0-59.5c0,0,0,0,0,0L-789.5,565.8C-789.5,565.8-789.5,565.8-789.5,565.8"/>
					<path class="st11" d="M-789.5,565.8l0-59.5c0,0,0,0,0,0L-789.5,565.8C-789.5,565.8-789.5,565.8-789.5,565.8"/>
					<path class="st12" d="M-789.5,565.8l0-59.5c0,0,0,0,0,0L-789.5,565.8C-789.4,565.8-789.4,565.8-789.5,565.8"/>
					<path class="st13" d="M-789.4,565.8l0-59.5c0,0,0,0,0,0L-789.4,565.8C-789.4,565.8-789.4,565.8-789.4,565.8"/>
					<path class="st14" d="M-789.4,565.8l0-59.5c0,0,0,0,0,0L-789.4,565.8C-789.4,565.8-789.4,565.8-789.4,565.8"/>
					<path class="st15" d="M-789.4,565.8l0-59.5c0,0,0,0,0,0L-789.4,565.8C-789.4,565.8-789.4,565.8-789.4,565.8"/>
					<path class="st16" d="M-789.4,565.8l0-59.5c0,0,0,0,0,0L-789.4,565.8C-789.4,565.8-789.4,565.8-789.4,565.8"/>
					<path class="st17" d="M-789.4,565.8l0-59.5c0,0,0,0,0,0L-789.4,565.8C-789.3,565.8-789.4,565.8-789.4,565.8"/>
					<path class="st18" d="M-789.3,565.8l0-59.5c0,0,0,0,0,0L-789.3,565.8C-789.3,565.8-789.3,565.8-789.3,565.8"/>
					<path class="st19" d="M-789.3,565.8l0-59.5c0,0,0,0,0,0L-789.3,565.8C-789.3,565.8-789.3,565.8-789.3,565.8"/>
					<path class="st20" d="M-789.3,565.8l0-59.5c0,0,0,0,0,0L-789.3,565.8C-789.3,565.8-789.3,565.8-789.3,565.8"/>
					<path class="st29" d="M-789.3,565.8l0-59.5c0,0,0,0,0,0L-789.3,565.8C-789.3,565.8-789.3,565.8-789.3,565.8"/>
					<path class="st30" d="M-789.3,565.8l0-59.5c0,0,0,0,0.1,0L-789.3,565.8C-789.2,565.8-789.2,565.8-789.3,565.8"/>
					<path class="st29" d="M-789.2,565.8l0-59.5c0,0,0,0,0,0L-789.2,565.8C-789.2,565.8-789.2,565.8-789.2,565.8"/>
					<path class="st20" d="M-789.2,565.8l0-59.5c0,0,0,0,0,0L-789.2,565.8C-789.1,565.8-789.2,565.8-789.2,565.8"/>
					<path class="st19" d="M-789.1,565.8l0-59.5c0,0,0,0,0,0L-789.1,565.8C-789.1,565.8-789.1,565.8-789.1,565.8"/>
					<path class="st18" d="M-789.1,565.8l0-59.5c0,0,0,0,0,0L-789.1,565.8C-789.1,565.8-789.1,565.8-789.1,565.8"/>
					<polyline class="st17" points="-789.1,565.8 -789.1,506.3 -789.1,506.3 -789.1,565.8 -789.1,565.8 					"/>
					<polyline class="st16" points="-789.1,565.8 -789.1,506.3 -789.1,506.3 -789.1,565.8 -789.1,565.8 					"/>
					<polyline class="st15" points="-789.1,565.8 -789.1,506.3 -789.1,506.3 -789.1,565.8 -789.1,565.8 					"/>
					<polyline class="st14" points="-789.1,565.8 -789.1,506.3 -789.1,506.3 -789.1,565.8 -789.1,565.8 					"/>
					<polyline class="st13" points="-789.1,565.8 -789.1,506.3 -789,506.3 -789,565.8 -789.1,565.8 					"/>
					<polyline class="st12" points="-789,565.8 -789,506.3 -789,506.3 -789,565.8 -789,565.8 					"/>
					<polyline class="st11" points="-789,565.8 -789,506.3 -789,506.3 -789,565.8 -789,565.8 					"/>
					<polyline class="st10" points="-789,565.8 -789,506.3 -789,506.3 -789,565.8 -789,565.8 					"/>
					<polyline class="st4" points="-789,565.8 -789,506.3 -789,506.3 -789,565.8 -789,565.8 					"/>
					<polyline class="st4" points="-789,565.8 -789,506.3 -789,506.3 -789,565.8 -789,565.8 					"/>
					<polyline class="st4" points="-789,565.8 -789,506.3 -789,506.3 -789,565.8 -789,565.8 					"/>
					<polyline class="st4" points="-789,565.8 -789,506.3 -789,506.3 -789,565.8 -789,565.8 					"/>
					<polyline class="st4" points="-789,565.8 -789,506.3 -788.9,506.3 -788.9,565.8 -789,565.8 					"/>
					<polyline class="st4" points="-788.9,565.8 -788.9,506.3 -788.9,506.3 -788.9,565.8 -788.9,565.8 					"/>
					<polyline class="st3" points="-788.9,565.8 -788.9,506.3 -788.9,506.3 -788.9,565.8 -788.9,565.8 					"/>
					<polyline class="st3" points="-788.9,565.8 -788.9,506.3 -788.9,506.3 -788.9,565.8 -788.9,565.8 					"/>
					<polyline class="st3" points="-788.9,565.8 -788.9,506.3 -788.9,506.3 -788.9,565.8 -788.9,565.8 					"/>
					<path class="st3" d="M-788.9,565.8l0-59.5c0,0,0,0,0,0L-788.9,565.8C-788.9,565.8-788.9,565.8-788.9,565.8"/>
					<path class="st3" d="M-788.9,565.8l0-59.5c0,0,0,0,0,0L-788.9,565.8C-788.9,565.8-788.9,565.8-788.9,565.8"/>
					<path class="st3" d="M-788.9,565.8l0-59.5c0,0,0,0,0,0L-788.9,565.8C-788.8,565.8-788.8,565.8-788.9,565.8"/>
					<path class="st3" d="M-788.8,565.8l0-59.5c0,0,0,0,0,0L-788.8,565.8C-788.8,565.8-788.8,565.8-788.8,565.8"/>
					<path class="st3" d="M-788.8,565.8l0-59.5c0,0,0,0,0,0L-788.8,565.8C-788.8,565.8-788.8,565.8-788.8,565.8"/>
					<path class="st3" d="M-788.8,565.8l0-59.5c0,0,0,0,0,0L-788.8,565.8C-788.8,565.8-788.8,565.8-788.8,565.8"/>
					<path class="st2" d="M-788.8,565.8l0-59.5c0,0,0,0,0,0L-788.8,565.8C-788.7,565.8-788.8,565.8-788.8,565.8"/>
					<path class="st2" d="M-788.7,565.8l0-59.5c0,0,0,0,0,0L-788.7,565.8C-788.7,565.8-788.7,565.8-788.7,565.8"/>
					<path class="st2" d="M-788.7,565.8l0-59.5c0,0,0,0,0,0L-788.7,565.8C-788.7,565.8-788.7,565.8-788.7,565.8"/>
					<polyline class="st2" points="-788.7,565.8 -788.7,506.3 -788.7,506.3 -788.6,565.8 -788.7,565.8 					"/>
				</g>
			</g>
			<g>
				<path class="st2" d="M-789.2,566.8c-9.2,0-16.5,0-16.2,0s8,0,17.3,0l-0.5,0L-789.2,566.8z"/>
			</g>
			<g class="st0">
				<defs>
					<path id="SVGID_29_" class="st0" d="M-834.2,529.6C-834.2,529.6-834.2,529.6-834.2,529.6c0.8,0,21.8,0,46.9,0l-0.9,36.2
						c-9,0-16.5,0-16.8,0c0,0,0,0,0,0C-814.7,553.7-824.4,541.7-834.2,529.6z"/>
				</defs>
				<clipPath id="SVGID_30_">
					<use xlink:href="#SVGID_29_"  style="overflow:visible;"/>
				</clipPath>
				<g class="st31">
					<polyline class="st3" points="-834.2,529.6 -804.9,565.8 -804.9,565.8 -834.2,529.6 -834.2,529.6 					"/>
					<path class="st3" d="M-834.2,529.6l29.2,36.2c0,0,0,0,0,0c0,0,0,0,0,0l-29.1-36.2C-834.1,529.6-834.1,529.6-834.2,529.6
						C-834.2,529.6-834.2,529.6-834.2,529.6"/>
					<path class="st3" d="M-834,529.6l29.1,36.2c0,0,0.1,0,0.1,0l-28.9-36.2C-833.8,529.6-833.9,529.6-834,529.6"/>
					<path class="st3" d="M-833.6,529.6l28.9,36.2c0.1,0,0.2,0,0.3,0l-28.4-36.2C-833.1,529.6-833.4,529.6-833.6,529.6"/>
					<path class="st3" d="M-832.8,529.6l28.4,36.2c0.1,0,0.3,0,0.5,0l-27.4-36.2C-831.9,529.6-832.4,529.6-832.8,529.6"/>
					<path class="st3" d="M-831.4,529.6l27.4,36.2c0.9,0,2.4,0,4.2,0l-19.8-36.2C-824.8,529.6-828.9,529.6-831.4,529.6"/>
					<path class="st3" d="M-819.5,529.6l19.8,36.2c0.5,0,1,0,1.5,0l-17.2-36.2C-816.9,529.6-818.2,529.6-819.5,529.6"/>
					<path class="st3" d="M-815.4,529.6l17.2,36.2c0.4,0,0.8,0,1.2,0l-15.1-36.2C-813.3,529.6-814.4,529.6-815.4,529.6"/>
					<path class="st3" d="M-812.1,529.6l15.1,36.2c0.3,0,0.7,0,1,0l-13.2-36.2C-810.3,529.6-811.2,529.6-812.1,529.6"/>
					<path class="st3" d="M-809.3,529.6l13.2,36.2c0.3,0,0.6,0,0.9,0l-11.6-36.2C-807.6,529.6-808.4,529.6-809.3,529.6"/>
					<path class="st3" d="M-806.7,529.6l11.6,36.2c0.3,0,0.6,0,0.9,0l-10-36.2C-805,529.6-805.9,529.6-806.7,529.6"/>
					<path class="st3" d="M-804.2,529.6l10,36.2c0.3,0,0.6,0,0.9,0l-8.4-36.2C-802.6,529.6-803.4,529.6-804.2,529.6"/>
					<path class="st3" d="M-801.8,529.6l8.4,36.2c0.3,0,0.6,0,0.9,0l-6.9-36.2C-800.2,529.6-801,529.6-801.8,529.6"/>
					<path class="st3" d="M-799.4,529.6l6.9,36.2c0.3,0,0.6,0,0.9,0l-5.3-36.2C-797.8,529.6-798.6,529.6-799.4,529.6"/>
					<path class="st2" d="M-797,529.6l5.3,36.2c0.3,0,0.6,0,0.9,0l-3.7-36.2C-795.3,529.6-796.1,529.6-797,529.6"/>
					<path class="st2" d="M-794.5,529.6l3.7,36.2c0.3,0,0.6,0,0.9,0l-2.1-36.2C-792.8,529.6-793.7,529.6-794.5,529.6"/>
					<path class="st2" d="M-791.9,529.6l2.1,36.2c0.3,0,0.6,0,0.9,0l-0.4-36.2C-790.2,529.6-791.1,529.6-791.9,529.6"/>
					<path class="st2" d="M-789.3,529.6l0.4,36.2c0.2,0,0.5,0,0.7,0l0.9-36.2C-787.9,529.6-788.6,529.6-789.3,529.6"/>
				</g>
			</g>
			<g class="st0">
				<defs>
					<path id="SVGID_31_" class="st0" d="M-834.2,506.3C-834.2,506.3-834.2,506.3-834.2,506.3c0.8,0,21.8,0,46.9,0l0,23.3
						c-25.1,0-46.1,0-46.9,0c0,0,0,0,0,0C-834.2,522.6-834.2,513.3-834.2,506.3z"/>
				</defs>
				<clipPath id="SVGID_32_">
					<use xlink:href="#SVGID_31_"  style="overflow:visible;"/>
				</clipPath>
				<g class="st32">
					<path class="st3" d="M-834.2,506.3l0,23.3c0,0,0,0,0,0c0,0,0,0,0,0L-834.2,506.3C-834.1,506.3-834.1,506.3-834.2,506.3
						C-834.2,506.3-834.2,506.3-834.2,506.3"/>
					<path class="st3" d="M-834.1,506.3l0,23.3c0,0,0.1,0,0.1,0l0-23.3C-834.1,506.3-834.1,506.3-834.1,506.3"/>
					<path class="st4" d="M-834,506.3l0,23.3c0.1,0,0.2,0,0.3,0l0-23.3C-833.8,506.3-833.9,506.3-834,506.3"/>
					<path class="st4" d="M-833.7,506.3l0,23.3c0.1,0,0.3,0,0.4,0l0-23.3C-833.4,506.3-833.6,506.3-833.7,506.3"/>
					<path class="st4" d="M-833.3,506.3l0,23.3c0.2,0,0.4,0,0.7,0l0-23.3C-832.9,506.3-833.1,506.3-833.3,506.3"/>
					<path class="st4" d="M-832.6,506.3l0,23.3c0.3,0,0.7,0,1,0l0-23.3C-832,506.3-832.3,506.3-832.6,506.3"/>
					<path class="st4" d="M-831.6,506.3l0,23.3c0.5,0,1.2,0,1.8,0l0-23.3C-830.4,506.3-831,506.3-831.6,506.3"/>
					<path class="st4" d="M-829.7,506.3l0,23.3c0.8,0,1.8,0,2.8,0l0-23.3C-828,506.3-828.9,506.3-829.7,506.3"/>
					<path class="st10" d="M-827,506.3l0,23.3c0.6,0,1.2,0,1.9,0l0-23.3C-825.7,506.3-826.4,506.3-827,506.3"/>
					<path class="st11" d="M-825.1,506.3l0,23.3c0.4,0,0.8,0,1.3,0l0-23.3C-824.2,506.3-824.7,506.3-825.1,506.3"/>
					<path class="st12" d="M-823.8,506.3l0,23.3c0.4,0,0.7,0,1.1,0l0-23.3C-823.1,506.3-823.4,506.3-823.8,506.3"/>
					<path class="st13" d="M-822.7,506.3l0,23.3c0.3,0,0.6,0,0.9,0l0-23.3C-822.1,506.3-822.4,506.3-822.7,506.3"/>
					<path class="st14" d="M-821.8,506.3l0,23.3c0.3,0,0.5,0,0.8,0l0-23.3C-821.3,506.3-821.6,506.3-821.8,506.3"/>
					<path class="st15" d="M-821.1,506.3l0,23.3c0.3,0,0.5,0,0.8,0l0-23.3C-820.5,506.3-820.8,506.3-821.1,506.3"/>
					<path class="st16" d="M-820.3,506.3l0,23.3c0.3,0,0.5,0,0.8,0l0-23.3C-819.7,506.3-820,506.3-820.3,506.3"/>
					<path class="st17" d="M-819.5,506.3l0,23.3c0.3,0,0.5,0,0.8,0l0-23.3C-819,506.3-819.2,506.3-819.5,506.3"/>
					<path class="st18" d="M-818.7,506.3l0,23.3c0.3,0,0.5,0,0.8,0l0-23.3C-818.2,506.3-818.5,506.3-818.7,506.3"/>
					<path class="st19" d="M-818,506.3l0,23.3c0.3,0,0.5,0,0.8,0l0-23.3C-817.4,506.3-817.7,506.3-818,506.3"/>
					<path class="st20" d="M-817.2,506.3l0,23.3c0.4,0,0.8,0,1.2,0l0-23.3C-816.4,506.3-816.8,506.3-817.2,506.3"/>
					<path class="st29" d="M-816,506.3l0,23.3c0.4,0,0.8,0,1.2,0l0-23.3C-815.2,506.3-815.6,506.3-816,506.3"/>
					<path class="st30" d="M-814.8,506.3l0,23.3c1.1,0,2.2,0,3.4,0l0-23.3C-812.6,506.3-813.7,506.3-814.8,506.3"/>
					<path class="st29" d="M-811.4,506.3l0,23.3c0.3,0,0.6,0,0.9,0l0-23.3C-810.8,506.3-811.1,506.3-811.4,506.3"/>
					<path class="st20" d="M-810.5,506.3l0,23.3c0.3,0,0.6,0,0.9,0l0-23.3C-809.9,506.3-810.2,506.3-810.5,506.3"/>
					<path class="st19" d="M-809.6,506.3l0,23.3c0.3,0,0.6,0,0.9,0l0-23.3C-808.9,506.3-809.3,506.3-809.6,506.3"/>
					<path class="st18" d="M-808.6,506.3l0,23.3c0.2,0,0.5,0,0.7,0l0-23.3C-808.2,506.3-808.4,506.3-808.6,506.3"/>
					<path class="st17" d="M-807.9,506.3l0,23.3c0.2,0,0.4,0,0.6,0l0-23.3C-807.6,506.3-807.8,506.3-807.9,506.3"/>
					<path class="st16" d="M-807.4,506.3l0,23.3c0.2,0,0.4,0,0.6,0l0-23.3C-807,506.3-807.2,506.3-807.4,506.3"/>
					<path class="st15" d="M-806.8,506.3l0,23.3c0.2,0,0.4,0,0.6,0l0-23.3C-806.4,506.3-806.6,506.3-806.8,506.3"/>
					<path class="st14" d="M-806.3,506.3l0,23.3c0.2,0,0.4,0,0.6,0l0-23.3C-805.9,506.3-806.1,506.3-806.3,506.3"/>
					<path class="st13" d="M-805.7,506.3l0,23.3c0.2,0,0.4,0,0.6,0l0-23.3C-805.3,506.3-805.5,506.3-805.7,506.3"/>
					<path class="st12" d="M-805.1,506.3l0,23.3c0.2,0,0.3,0,0.5,0l0-23.3C-804.8,506.3-804.9,506.3-805.1,506.3"/>
					<path class="st11" d="M-804.6,506.3l0,23.3c0.2,0,0.3,0,0.5,0l0-23.3C-804.2,506.3-804.4,506.3-804.6,506.3"/>
					<path class="st10" d="M-804.1,506.3l0,23.3c0.2,0,0.3,0,0.5,0l0-23.3C-803.7,506.3-803.9,506.3-804.1,506.3"/>
					<path class="st4" d="M-803.5,506.3l0,23.3c0.2,0,0.4,0,0.5,0l0-23.3C-803.2,506.3-803.4,506.3-803.5,506.3"/>
					<path class="st4" d="M-803,506.3l0,23.3c0.2,0,0.4,0,0.5,0l0-23.3C-802.6,506.3-802.8,506.3-803,506.3"/>
					<path class="st4" d="M-802.5,506.3l0,23.3c0.2,0,0.4,0,0.5,0l0-23.3C-802.1,506.3-802.3,506.3-802.5,506.3"/>
					<path class="st4" d="M-801.9,506.3l0,23.3c0.2,0,0.4,0,0.6,0l0-23.3C-801.6,506.3-801.7,506.3-801.9,506.3"/>
					<path class="st4" d="M-801.4,506.3l0,23.3c0.2,0,0.4,0,0.6,0l0-23.3C-800.9,506.3-801.2,506.3-801.4,506.3"/>
					<path class="st4" d="M-800.7,506.3l0,23.3c0.2,0,0.4,0,0.6,0l0-23.3C-800.3,506.3-800.5,506.3-800.7,506.3"/>
					<path class="st3" d="M-800.1,506.3l0,23.3c0.2,0,0.4,0,0.6,0l0-23.3C-799.7,506.3-799.9,506.3-800.1,506.3"/>
					<path class="st3" d="M-799.5,506.3l0,23.3c0.2,0,0.4,0,0.6,0l0-23.3C-799.1,506.3-799.3,506.3-799.5,506.3"/>
					<path class="st3" d="M-798.9,506.3l0,23.3c0.2,0,0.4,0,0.6,0l0-23.3C-798.4,506.3-798.7,506.3-798.9,506.3"/>
					<path class="st3" d="M-798.2,506.3l0,23.3c0.3,0,0.6,0,0.8,0l0-23.3C-797.7,506.3-798,506.3-798.2,506.3"/>
					<path class="st3" d="M-797.4,506.3l0,23.3c0.3,0,0.6,0,0.9,0l0-23.3C-796.8,506.3-797.1,506.3-797.4,506.3"/>
					<path class="st3" d="M-796.5,506.3l0,23.3c0.3,0,0.6,0,0.9,0l0-23.3C-796,506.3-796.2,506.3-796.5,506.3"/>
					<path class="st3" d="M-795.7,506.3l0,23.3c0.3,0,0.6,0,0.9,0l0-23.3C-795.1,506.3-795.4,506.3-795.7,506.3"/>
					<path class="st3" d="M-794.8,506.3l0,23.3c0.4,0,0.8,0,1.2,0l0-23.3C-794,506.3-794.4,506.3-794.8,506.3"/>
					<path class="st3" d="M-793.6,506.3l0,23.3c0.4,0,0.8,0,1.2,0l0-23.3C-792.8,506.3-793.2,506.3-793.6,506.3"/>
					<path class="st2" d="M-792.4,506.3l0,23.3c0.4,0,0.8,0,1.3,0l0-23.3C-791.5,506.3-792,506.3-792.4,506.3"/>
					<path class="st2" d="M-791.1,506.3l0,23.3c0.6,0,1.1,0,1.7,0l0-23.3C-790,506.3-790.6,506.3-791.1,506.3"/>
					<path class="st2" d="M-789.5,506.3l0,23.3c0.6,0,1.1,0,1.7,0l0-23.3C-788.3,506.3-788.9,506.3-789.5,506.3"/>
					<path class="st2" d="M-787.7,506.3l0,23.3c0.2,0,0.3,0,0.5,0l0-23.3C-787.4,506.3-787.6,506.3-787.7,506.3"/>
				</g>
			</g>
			<g class="st0">
				<defs>
					<path id="SVGID_33_" class="st0" d="M-805.4,566.8c-9.9-12.3-19.8-24.5-29.8-36.8c0,0,0,0,0,0c0.8,0,22.3,0,47.9,0l-0.9,36.8
						C-797.4,566.8-805.1,566.8-805.4,566.8C-805.4,566.8-805.4,566.8-805.4,566.8z"/>
				</defs>
				<clipPath id="SVGID_34_">
					<use xlink:href="#SVGID_33_"  style="overflow:visible;"/>
				</clipPath>
				<g class="st33">
					<polyline class="st3" points="-805.4,566.8 -835.2,530 -835.2,530 -805.4,566.8 -805.4,566.8 					"/>
					<path class="st3" d="M-805.4,566.8l-29.8-36.8c0,0,0,0,0,0c0,0,0.1,0,0.1,0L-805.4,566.8C-805.4,566.8-805.4,566.8-805.4,566.8
						C-805.4,566.8-805.4,566.8-805.4,566.8"/>
					<path class="st3" d="M-805.4,566.8L-835,530c0.1,0,0.2,0,0.4,0l29.4,36.8C-805.3,566.8-805.3,566.8-805.4,566.8"/>
					<path class="st3" d="M-805.2,566.8l-29.4-36.8c0.2,0,0.5,0,0.8,0l28.9,36.8C-805,566.8-805.1,566.8-805.2,566.8"/>
					<path class="st3" d="M-804.9,566.8l-28.9-36.8c0.4,0,0.9,0,1.5,0l27.9,36.8C-804.6,566.8-804.8,566.8-804.9,566.8"/>
					<path class="st3" d="M-804.4,566.8l-27.9-36.8c2.6,0,6.7,0,12.1,0l20.2,36.8C-802,566.8-803.5,566.8-804.4,566.8"/>
					<path class="st3" d="M-800,566.8l-20.2-36.8c1.3,0,2.7,0,4.2,0l17.5,36.8C-799.1,566.8-799.6,566.8-800,566.8"/>
					<path class="st3" d="M-798.5,566.8L-816,530c1.1,0,2.2,0,3.4,0l15.3,36.8C-797.7,566.8-798.1,566.8-798.5,566.8"/>
					<path class="st3" d="M-797.3,566.8l-15.3-36.8c0.9,0,1.9,0,2.9,0l13.5,36.8C-796.6,566.8-797,566.8-797.3,566.8"/>
					<path class="st3" d="M-796.3,566.8l-13.5-36.8c0.9,0,1.8,0,2.7,0l11.8,36.8C-795.6,566.8-796,566.8-796.3,566.8"/>
					<path class="st3" d="M-795.3,566.8l-11.8-36.8c0.8,0,1.7,0,2.5,0l10.1,36.8C-794.7,566.8-795,566.8-795.3,566.8"/>
					<path class="st3" d="M-794.4,566.8l-10.1-36.8c0.8,0,1.6,0,2.5,0l8.6,36.8C-793.8,566.8-794.1,566.8-794.4,566.8"/>
					<path class="st3" d="M-793.5,566.8l-8.6-36.8c0.8,0,1.6,0,2.4,0l7,36.8C-792.9,566.8-793.2,566.8-793.5,566.8"/>
					<path class="st3" d="M-792.6,566.8l-7-36.8c0.8,0,1.6,0,2.5,0l5.4,36.8C-792,566.8-792.3,566.8-792.6,566.8"/>
					<path class="st2" d="M-791.7,566.8l-5.4-36.8c0.8,0,1.7,0,2.5,0l3.8,36.8C-791.1,566.8-791.4,566.8-791.7,566.8"/>
					<path class="st2" d="M-790.8,566.8l-3.8-36.8c0.9,0,1.7,0,2.6,0l2.1,36.8C-790.2,566.8-790.5,566.8-790.8,566.8"/>
					<path class="st2" d="M-789.9,566.8L-792,530c0.9,0,1.8,0,2.7,0l0.4,36.8C-789.2,566.8-789.6,566.8-789.9,566.8"/>
					<path class="st2" d="M-788.9,566.8l-0.4-36.8c0.7,0,1.4,0,2.1,0l-0.9,36.8C-788.4,566.8-788.7,566.8-788.9,566.8"/>
				</g>
			</g>
			<g class="st0">
				<defs>
					<path id="SVGID_35_" class="st0" d="M-835.2,530l0-23.7c0,0,0,0,0,0c0.8,0,22.3,0,47.9,0l0,23.7
						C-812.9,530-834.3,530-835.2,530C-835.2,530-835.2,530-835.2,530z"/>
				</defs>
				<clipPath id="SVGID_36_">
					<use xlink:href="#SVGID_35_"  style="overflow:visible;"/>
				</clipPath>
				<g class="st34">
					<path class="st3" d="M-835.2,530l0-23.7c0,0,0,0,0,0c0,0,0,0,0,0L-835.2,530C-835.1,530-835.1,530-835.2,530
						C-835.2,530-835.2,530-835.2,530"/>
					<path class="st3" d="M-835.1,530l0-23.7c0,0,0.1,0,0.2,0l0,23.7C-835,530-835.1,530-835.1,530"/>
					<path class="st4" d="M-835,530l0-23.7c0.1,0,0.2,0,0.3,0l0,23.7C-834.8,530-834.9,530-835,530"/>
					<path class="st4" d="M-834.7,530l0-23.7c0.1,0,0.3,0,0.4,0l0,23.7C-834.4,530-834.6,530-834.7,530"/>
					<path class="st4" d="M-834.3,530l0-23.7c0.2,0,0.4,0,0.7,0l0,23.7C-833.8,530-834.1,530-834.3,530"/>
					<path class="st4" d="M-833.6,530l0-23.7c0.3,0,0.7,0,1.1,0l0,23.7C-832.9,530-833.3,530-833.6,530"/>
					<path class="st4" d="M-832.5,530l0-23.7c0.5,0,1.2,0,1.9,0l0,23.7C-831.3,530-832,530-832.5,530"/>
					<path class="st4" d="M-830.6,530l0-23.7c0.8,0,1.8,0,2.8,0l0,23.7C-828.8,530-829.8,530-830.6,530"/>
					<path class="st10" d="M-827.8,530l0-23.7c0.6,0,1.3,0,1.9,0l0,23.7C-826.5,530-827.2,530-827.8,530"/>
					<path class="st11" d="M-825.9,530l0-23.7c0.4,0,0.8,0,1.3,0l0,23.7C-825,530-825.4,530-825.9,530"/>
					<path class="st12" d="M-824.6,530l0-23.7c0.4,0,0.7,0,1.1,0l0,23.7C-823.8,530-824.2,530-824.6,530"/>
					<path class="st13" d="M-823.5,530l0-23.7c0.3,0,0.6,0,0.9,0l0,23.7C-822.9,530-823.2,530-823.5,530"/>
					<path class="st14" d="M-822.6,530l0-23.7c0.3,0,0.5,0,0.8,0l0,23.7C-822,530-822.3,530-822.6,530"/>
					<path class="st15" d="M-821.8,530l0-23.7c0.3,0,0.5,0,0.8,0l0,23.7C-821.2,530-821.5,530-821.8,530"/>
					<path class="st16" d="M-821,530l0-23.7c0.3,0,0.5,0,0.8,0l0,23.7C-820.4,530-820.7,530-821,530"/>
					<path class="st17" d="M-820.2,530l0-23.7c0.3,0,0.5,0,0.8,0l0,23.7C-819.6,530-819.9,530-820.2,530"/>
					<path class="st18" d="M-819.4,530l0-23.7c0.3,0,0.5,0,0.8,0l0,23.7C-818.9,530-819.1,530-819.4,530"/>
					<path class="st19" d="M-818.6,530l0-23.7c0.3,0,0.5,0,0.8,0l0,23.7C-818.1,530-818.3,530-818.6,530"/>
					<path class="st20" d="M-817.8,530l0-23.7c0.4,0,0.8,0,1.2,0l0,23.7C-817,530-817.4,530-817.8,530"/>
					<path class="st29" d="M-816.6,530l0-23.7c0.4,0,0.8,0,1.2,0l0,23.7C-815.8,530-816.2,530-816.6,530"/>
					<path class="st30" d="M-815.3,530l0-23.7c1.1,0,2.3,0,3.5,0l0,23.7C-813.1,530-814.2,530-815.3,530"/>
					<path class="st29" d="M-811.9,530l0-23.7c0.3,0,0.6,0,0.9,0l0,23.7C-811.3,530-811.6,530-811.9,530"/>
					<path class="st20" d="M-811,530l0-23.7c0.3,0,0.6,0,0.9,0l0,23.7C-810.3,530-810.7,530-811,530"/>
					<path class="st19" d="M-810,530l0-23.7c0.3,0,0.6,0,1,0l0,23.7C-809.4,530-809.7,530-810,530"/>
					<path class="st18" d="M-809.1,530l0-23.7c0.2,0,0.5,0,0.7,0l0,23.7C-808.6,530-808.8,530-809.1,530"/>
					<path class="st17" d="M-808.4,530l0-23.7c0.2,0,0.4,0,0.6,0l0,23.7C-808,530-808.2,530-808.4,530"/>
					<path class="st16" d="M-807.8,530l0-23.7c0.2,0,0.4,0,0.6,0l0,23.7C-807.4,530-807.6,530-807.8,530"/>
					<path class="st15" d="M-807.2,530l0-23.7c0.2,0,0.4,0,0.6,0l0,23.7C-806.8,530-807,530-807.2,530"/>
					<path class="st14" d="M-806.6,530l0-23.7c0.2,0,0.4,0,0.6,0l0,23.7C-806.2,530-806.4,530-806.6,530"/>
					<path class="st13" d="M-806.1,530l0-23.7c0.2,0,0.4,0,0.6,0l0,23.7C-805.7,530-805.9,530-806.1,530"/>
					<path class="st12" d="M-805.5,530l0-23.7c0.2,0,0.4,0,0.5,0l0,23.7C-805.1,530-805.3,530-805.5,530"/>
					<path class="st11" d="M-804.9,530l0-23.7c0.2,0,0.4,0,0.5,0l0,23.7C-804.6,530-804.7,530-804.9,530"/>
					<path class="st10" d="M-804.4,530l0-23.7c0.2,0,0.4,0,0.5,0l0,23.7C-804,530-804.2,530-804.4,530"/>
					<path class="st4" d="M-803.9,530l0-23.7c0.2,0,0.4,0,0.5,0l0,23.7C-803.5,530-803.7,530-803.9,530"/>
					<path class="st4" d="M-803.3,530l0-23.7c0.2,0,0.4,0,0.5,0l0,23.7C-803,530-803.1,530-803.3,530"/>
					<path class="st4" d="M-802.8,530l0-23.7c0.2,0,0.4,0,0.5,0l0,23.7C-802.4,530-802.6,530-802.8,530"/>
					<path class="st4" d="M-802.2,530l0-23.7c0.2,0,0.4,0,0.6,0l0,23.7C-801.8,530-802,530-802.2,530"/>
					<path class="st4" d="M-801.6,530l0-23.7c0.2,0,0.4,0,0.6,0l0,23.7C-801.2,530-801.4,530-801.6,530"/>
					<path class="st4" d="M-801,530l0-23.7c0.2,0,0.4,0,0.6,0l0,23.7C-800.6,530-800.8,530-801,530"/>
					<path class="st3" d="M-800.4,530l0-23.7c0.2,0,0.4,0,0.6,0l0,23.7C-799.9,530-800.2,530-800.4,530"/>
					<path class="st3" d="M-799.7,530l0-23.7c0.2,0,0.4,0,0.6,0l0,23.7C-799.3,530-799.5,530-799.7,530"/>
					<path class="st3" d="M-799.1,530l0-23.7c0.2,0,0.4,0,0.6,0l0,23.7C-798.7,530-798.9,530-799.1,530"/>
					<path class="st3" d="M-798.4,530l0-23.7c0.3,0,0.6,0,0.9,0l0,23.7C-797.9,530-798.2,530-798.4,530"/>
					<path class="st3" d="M-797.6,530l0-23.7c0.3,0,0.6,0,0.9,0l0,23.7C-797,530-797.3,530-797.6,530"/>
					<path class="st3" d="M-796.7,530l0-23.7c0.3,0,0.6,0,0.9,0l0,23.7C-796.1,530-796.4,530-796.7,530"/>
					<path class="st3" d="M-795.8,530l0-23.7c0.3,0,0.6,0,0.9,0l0,23.7C-795.2,530-795.5,530-795.8,530"/>
					<path class="st3" d="M-794.9,530l0-23.7c0.4,0,0.8,0,1.2,0l0,23.7C-794.1,530-794.5,530-794.9,530"/>
					<path class="st3" d="M-793.7,530l0-23.7c0.4,0,0.8,0,1.3,0l0,23.7C-792.9,530-793.3,530-793.7,530"/>
					<path class="st2" d="M-792.5,530l0-23.7c0.4,0,0.9,0,1.3,0l0,23.7C-791.6,530-792,530-792.5,530"/>
					<path class="st2" d="M-791.2,530l0-23.7c0.6,0,1.1,0,1.7,0l0,23.7C-790.1,530-790.6,530-791.2,530"/>
					<path class="st2" d="M-789.5,530l0-23.7c0.6,0,1.2,0,1.8,0l0,23.7C-788.3,530-788.9,530-789.5,530"/>
					<path class="st2" d="M-787.7,530l0-23.7c0.2,0,0.3,0,0.5,0l0,23.7C-787.4,530-787.6,530-787.7,530"/>
				</g>
			</g>
		</g>
	</g>
</g>
</svg>
