<?xml version="1.0" encoding="iso-8859-1"?>
<!-- Generator: Adobe Illustrator 18.1.1, SVG Export Plug-In . SVG Version: 6.00 Build 0)  -->
<svg version="1.1" id="Capa_1" xmlns="http://www.w3.org/2000/svg" xmlns:xlink="http://www.w3.org/1999/xlink" x="0px" y="0px" width="512" height="512"
	 viewBox="0 0 21.406 21.406" style="enable-background:new 0 0 21.406 21.406;" xml:space="preserve">
<g>
	<g>
		<g>
			<circle style="fill:#010002;" cx="10.72" cy="10.752" r="0.256"/>
			<path style="fill:#010002;" d="M4.928,17.932c0.363-1.104,1.362-1.771,2.226-1.486c0.865,0.283,1.272,1.414,0.909,2.519
				c-0.363,1.104-1.362,1.772-2.226,1.487c-0.352-0.114-0.636-0.371-0.823-0.742C4.756,19.197,4.725,18.55,4.928,17.932
				L4.928,17.932z M11.822,10.824c0.325-0.789,1.928-4.603,2.669-7.272C15.335,0.511,15.163,0.029,14.895,0L9.619,10.824
				c-1.094,2.341-0.626,2.484-1.768,3.422c-0.725,0.597-1.775,1.165-2.303,1.572c-0.65,0.365-1.195,1.009-1.467,1.834
				c-0.277,0.842-0.227,1.738,0.137,2.457c0.291,0.578,0.768,1,1.34,1.188c1.331,0.437,2.731-0.522,3.351-2.056
				c0.396-0.98,0.154-3.68,0.41-4.633c0.172-0.644,0.82-1.454,1.401-2.143C11.115,12.038,11.497,11.613,11.822,10.824z"/>
			<path style="fill:#010002;" d="M16.392,19.708c-0.187,0.371-0.471,0.628-0.822,0.742c-0.864,0.284-1.862-0.384-2.228-1.487
				c-0.362-1.104,0.045-2.234,0.909-2.52c0.864-0.284,1.863,0.384,2.228,1.488C16.682,18.55,16.652,19.197,16.392,19.708
				L16.392,19.708z M10.687,12.468c0.58,0.688,1.229,1.499,1.4,2.144c0.255,0.953,0.013,3.65,0.409,4.631
				c0.62,1.533,2.021,2.494,3.352,2.057c0.572-0.188,1.05-0.609,1.341-1.188c0.363-0.721,0.414-1.616,0.138-2.457
				c-0.272-0.826-0.817-1.471-1.466-1.834c-0.528-0.408-1.579-0.978-2.305-1.573c-1.142-0.938-0.674-1.081-1.768-3.422L6.512,0
				C6.244,0.029,6.073,0.511,6.916,3.552c0.741,2.67,2.344,6.483,2.669,7.272S10.292,12.038,10.687,12.468z"/>
		</g>
	</g>
</g>
<g>
</g>
<g>
</g>
<g>
</g>
<g>
</g>
<g>
</g>
<g>
</g>
<g>
</g>
<g>
</g>
<g>
</g>
<g>
</g>
<g>
</g>
<g>
</g>
<g>
</g>
<g>
</g>
<g>
</g>
</svg>
