<?xml version="1.0" encoding="utf-8"?>
<!-- Generator: Adobe Illustrator 19.1.0, SVG Export Plug-In . SVG Version: 6.00 Build 0)  -->
<svg version="1.1" id="Capa_1" xmlns="http://www.w3.org/2000/svg" xmlns:xlink="http://www.w3.org/1999/xlink" x="0px" y="0px"
	 viewBox="-703 285 512 512" style="enable-background:new -703 285 512 512;" xml:space="preserve">
<style type="text/css">
	.st0{fill:#010002;}
	.st1{fill:#FFFFFF;}
</style>
<g>
	<g>
		<g>
			<circle class="st0" cx="-446.6" cy="542.2" r="6.1"/>
			<path class="st0" d="M-585.1,713.9c8.7-26.4,32.6-42.4,53.2-35.5c20.7,6.8,30.4,33.8,21.7,60.3c-8.7,26.4-32.6,42.4-53.2,35.6
				c-8.4-2.7-15.2-8.9-19.7-17.7C-589.2,744.2-590,728.7-585.1,713.9L-585.1,713.9z M-420.2,543.9c7.8-18.9,46.1-110.1,63.8-173.9
				c20.2-72.7,16.1-84.3,9.7-85l-126.2,258.9c-26.2,56-15,59.4-42.3,81.8c-17.3,14.3-42.5,27.9-55.1,37.6
				c-15.5,8.7-28.6,24.1-35.1,43.9c-6.6,20.1-5.4,41.6,3.3,58.8c7,13.8,18.4,23.9,32.1,28.4c31.8,10.5,65.3-12.5,80.2-49.2
				c9.5-23.4,3.7-88,9.8-110.8c4.1-15.4,19.6-34.8,33.5-51.3C-437.1,572.9-428,562.8-420.2,543.9z"/>
			<path class="st0" d="M-310.9,756.4c-4.5,8.9-11.3,15-19.7,17.7c-20.7,6.8-44.5-9.2-53.3-35.6c-8.7-26.4,1.1-53.4,21.7-60.3
				c20.7-6.8,44.6,9.2,53.3,35.6C-304,728.7-304.7,744.2-310.9,756.4L-310.9,756.4z M-447.4,583.2c13.9,16.5,29.4,35.9,33.5,51.3
				c6.1,22.8,0.3,87.3,9.8,110.8c14.8,36.7,48.3,59.7,80.2,49.2c13.7-4.5,25.1-14.6,32.1-28.4c8.7-17.2,9.9-38.7,3.3-58.8
				c-6.5-19.8-19.5-35.2-35.1-43.9c-12.6-9.8-37.8-23.4-55.1-37.6c-27.3-22.4-16.1-25.9-42.3-81.8L-547.2,285
				c-6.4,0.7-10.5,12.2,9.7,85c17.7,63.9,56.1,155.1,63.8,173.9C-466,562.8-456.8,572.9-447.4,583.2z"/>
		</g>
	</g>
</g>
<ellipse class="st1" cx="-447" cy="537" rx="13" ry="17"/>
<ellipse cx="-447" cy="537" rx="10.9" ry="14.3"/>
</svg>
