<?xml version="1.0" encoding="iso-8859-1"?>
<!-- Generator: Adobe Illustrator 19.0.0, SVG Export Plug-In . SVG Version: 6.00 Build 0)  -->
<svg version="1.1" id="Capa_1" xmlns="http://www.w3.org/2000/svg" xmlns:xlink="http://www.w3.org/1999/xlink" x="0px" y="0px"
	 viewBox="0 0 329.98 329.98" style="enable-background:new 0 0 329.98 329.98;" xml:space="preserve">
<path d="M260.274,95.291L164.988,0L69.706,95.291c-25.976,25.972-40.285,60.509-40.285,97.25c0,36.743,14.309,71.278,40.285,97.25
	c25.351,25.357,59.118,39.634,95.076,40.189h0.205h0.205c35.963-0.555,69.73-14.832,95.081-40.189
	c25.976-25.972,40.285-60.508,40.285-97.25C300.559,155.799,286.25,121.263,260.274,95.291z M241.708,271.225
	c-20.458,20.464-47.691,31.993-76.72,32.496c-29.023-0.503-56.256-12.032-76.715-32.496c-21.018-21.018-32.593-48.958-32.593-78.684
	s11.575-57.667,32.593-78.684l76.715-76.725l76.72,76.725c21.018,21.018,32.593,48.958,32.593,78.684
	S262.725,250.208,241.708,271.225z"/>
<g>
</g>
<g>
</g>
<g>
</g>
<g>
</g>
<g>
</g>
<g>
</g>
<g>
</g>
<g>
</g>
<g>
</g>
<g>
</g>
<g>
</g>
<g>
</g>
<g>
</g>
<g>
</g>
<g>
</g>
</svg>
