<?xml version="1.0" encoding="utf-8"?>
<!-- Generator: Adobe Illustrator 19.1.0, SVG Export Plug-In . SVG Version: 6.00 Build 0)  -->
<svg version="1.1" id="Capa_1" xmlns="http://www.w3.org/2000/svg" xmlns:xlink="http://www.w3.org/1999/xlink" x="0px" y="0px"
	 viewBox="-782 369.4 141.2 342.6" style="enable-background:new -782 369.4 141.2 342.6;" xml:space="preserve">
<g>
	<g id="Layer_5_17_">
		<g>
			<path d="M-666.8,440c-6.2,0-5.8-7.6-5.8-7.6v-17c0-25.4-17.4-46-38.8-46c-10.4,0-20.1,4.8-27.5,13.5
				c-7.3,8.7-11.4,20.2-11.4,32.5v14.6c0,0,0.9,10.1-6.2,10.1c-2.9,0-11.5,0-11.5,0c-3.7,0-7.3,1.7-9.9,4.9
				c-2.7,3.1-4.1,7.3-4.1,11.8l0,19.3c0,9.2,6.3,16.6,14.1,16.6h5.6c0,0,3.2,0,3.2,3.9c0,13.8,0,55.1,0,55.1c0,0,0,0,0,0
				c0,0,0,0,0,0v40c0,0,0,0,0,0c0,0,0,0,0,0l0,79.1c0,55.1,95.3,55.3,95.3,0c0,0,0-128.8,0-171.7c0-6.5,4.2-6.4,4.2-6.4h4.6
				c3.7,0,7.3-1.7,9.9-4.9c2.7-3.1,4.1-7.3,4.1-11.8v-19.3c0-9.2-6.3-16.6-14.1-16.6C-654.9,440-663.8,440-666.8,440z M-673.6,670.6
				c0.2,41.2-73.6,41.2-75.7,0c0,0,0-22.1,0-29.5c0-3.8,2.3-3.8,2.3-3.8h26.7c1.4,0,2.6-0.7,3.5-1.7c0.9-1.1,1.4-2.5,1.4-4.1
				c0-3.2-2.2-5.8-4.9-5.8h-26.6c0,0-2.4,0.2-2.4-3.9c0-6.1,0-15.6,0-20.8c0-3.8,2.5-3.6,2.5-3.6l26.6,0c1.4,0,2.6-0.7,3.5-1.7
				c0.9-1.1,1.4-2.5,1.4-4.1c0-3.2-2.2-5.8-4.9-5.8h-25.9c0,0-3.1,0.1-3.1-4.4c0-6,0-15.5,0-20.7c0-3.8,3-3.2,3-3.2h26.1
				c1.4,0,2.6-0.7,3.5-1.7c0.9-1.1,1.4-2.5,1.4-4.1c0-3.2-2.2-5.8-4.9-5.8l-26.4,0c0,0-2.6-0.2-2.6-3.6c0-12.4,0-34.1,0-45.5
				c0-4.2,3.1-4.1,3.1-4.1h68.6c0,0,4-0.2,4,4.5C-673.6,540.4-673.6,670.6-673.6,670.6z"/>
		</g>
	</g>
</g>
</svg>
