<?xml version="1.0" encoding="UTF-8" standalone="no"?>
<!-- Generator: Adobe Illustrator 19.1.0, SVG Export Plug-In . SVG Version: 6.00 Build 0)  -->

<svg
   xmlns:dc="http://purl.org/dc/elements/1.1/"
   xmlns:cc="http://creativecommons.org/ns#"
   xmlns:rdf="http://www.w3.org/1999/02/22-rdf-syntax-ns#"
   xmlns:svg="http://www.w3.org/2000/svg"
   xmlns="http://www.w3.org/2000/svg"
   xmlns:sodipodi="http://sodipodi.sourceforge.net/DTD/sodipodi-0.dtd"
   xmlns:inkscape="http://www.inkscape.org/namespaces/inkscape"
   version="1.1"
   id="Capa_1"
   x="0px"
   y="0px"
   viewBox="-457.3 491.3 100 100"
   style="enable-background:new -457.3 491.3 100 100;"
   xml:space="preserve"
   inkscape:version="0.48.5 r10040"
   width="100%"
   height="100%"
   sodipodi:docname="leaf.svg"><metadata
     id="metadata13"><rdf:RDF><cc:Work
         rdf:about=""><dc:format>image/svg+xml</dc:format><dc:type
           rdf:resource="http://purl.org/dc/dcmitype/StillImage" /><dc:title></dc:title></cc:Work></rdf:RDF></metadata><defs
     id="defs11" /><sodipodi:namedview
     pagecolor="#ffffff"
     bordercolor="#666666"
     borderopacity="1"
     objecttolerance="10"
     gridtolerance="10"
     guidetolerance="10"
     inkscape:pageopacity="0"
     inkscape:pageshadow="2"
     inkscape:window-width="1920"
     inkscape:window-height="1014"
     id="namedview9"
     showgrid="false"
     inkscape:zoom="6.675088"
     inkscape:cx="56.839888"
     inkscape:cy="46.091333"
     inkscape:window-x="0"
     inkscape:window-y="27"
     inkscape:window-maximized="1"
     inkscape:current-layer="Capa_1" /><style
     type="text/css"
     id="style3">
	.st0{fill:#008000;}
</style><g
     id="g5"
     transform="translate(-0.14981076,-0.29962152)"><path
       class="st0"
       d="m -382.8,491.3 c 0,0 -8.2,7.9 -17,11.1 -65.4,23.6 -37.8,69.7 -36.9,69.9 0,0 3.7,-6.4 8.6,-10 31.4,-23.1 37.8,-49.7 37.8,-49.7 0,0 -7.1,32 -35,51.9 -6.2,4.4 -10.4,15.2 -12.1,26 0,0 4.4,-1.8 6.3,-2.2 0.7,-4.8 2.3,-9.4 4.9,-13.5 39.1,4.7 51.9,-26.8 53.5,-37.8 3.9,-25.9 -10.1,-45.7 -10.1,-45.7 z"
       id="path7"
       inkscape:connector-curvature="0"
       style="fill:#008000" /></g><path
     style="fill:none;stroke:#545000;stroke-width:1px;stroke-linecap:butt;stroke-linejoin:miter;stroke-opacity:1"
     d="m 27.789896,28.165741 6.067336,-5.168471 11.01109,-6.591673 12.434293,-5.168472 4.86885,-2.0224449 5.917525,-3.745269 4.269607,-3.2958367 2.09735,-2.02244522 2.396972,4.11979582 2.771499,5.84262 2.546783,6.816389 1.573013,5.917525 1.198486,9.063551 0.07491,9.88751 -1.048676,7.041106 -2.996215,8.239592 -2.771499,4.943755 -1.498107,2.621688 -17.452954,-6.891295 -3.595458,0.07491 -1.348297,-2.621688 -1.423202,-0.898864 -0.823959,0 L 51.46,53.933197 48.239068,50.337738 45.242853,46.367753 41.647395,43.895876 39.400234,43.146822 38.201748,40.150607 36.928356,39.251742 34.681195,36.779865 c 0,0 -1.94754,-0.97377 -2.322067,-0.97377 -0.374527,0 -0.823959,-1.423202 -0.898865,-1.797729 -0.07491,-0.374527 -0.749053,-1.94754 -0.749053,-1.94754 l -2.696594,-0.299622 c 0,0 0,-0.07491 0,-0.749053 0,-0.674149 -0.224716,-2.846405 -0.224716,-2.846405 z"
     id="path3794"
     inkscape:connector-curvature="0"
     transform="translate(-457.3,491.3)" /><path
     style="fill:#545000;fill-opacity:1;stroke:#7e561f;stroke-width:0.07490537999999999;stroke-opacity:1"
     d="m 67.835998,60.572725 -8.501761,-3.367774 -1.685371,0.04938 -1.685371,0.04938 -0.611537,-1.231975 -0.611537,-1.231974 -0.859687,-0.536647 c -0.79318,-0.495132 -0.891331,-0.536647 -1.268746,-0.536647 -0.300943,0 -0.474474,-0.04455 -0.656552,-0.168537 -0.448592,-0.305484 -0.44521,-0.338988 0.112231,-1.11192 0.766669,-1.06304 2.691983,-3.985152 3.589139,-5.44735 3.94417,-6.428271 7.284563,-13.571815 9.621172,-20.575204 0.866258,-2.596386 1.648452,-5.316501 1.55553,-5.409423 -0.01999,-0.01999 -0.0752,0.107984 -0.122699,0.284377 -1.185574,4.402885 -4.278246,11.241301 -7.58551,16.772833 -1.905213,3.186544 -4.292412,6.714574 -6.411503,9.47553 -1.056067,1.375947 -2.877733,3.632911 -2.932234,3.632911 -0.116139,0 -1.301597,-1.451281 -2.684053,-3.285914 l -1.472244,-1.95379 -1.865035,-1.284764 -1.865034,-1.284764 -1.046089,-0.349645 -1.046088,-0.349645 -0.579167,-1.449614 -0.579166,-1.449615 -0.703768,-0.503859 c -0.53252,-0.381255 -0.977169,-0.806656 -1.827349,-1.748247 l -1.12358,-1.244387 -1.008245,-0.455418 c -0.554534,-0.25048 -1.104024,-0.474574 -1.221088,-0.497987 -0.255705,-0.05114 -0.479402,-0.449758 -0.727115,-1.295683 -0.09048,-0.308985 -0.336264,-0.992424 -0.546187,-1.518755 -0.295431,-0.740724 -0.416746,-0.964229 -0.536872,-0.989111 -0.08536,-0.01768 -0.64182,-0.08491 -1.236586,-0.149394 -0.594765,-0.06449 -1.095289,-0.131148 -1.112276,-0.148135 -0.01699,-0.01699 -0.07824,-0.664109 -0.136116,-1.438048 -0.09894,-1.323082 -0.09738,-1.414795 0.02615,-1.534904 0.07226,-0.07026 1.361699,-1.176859 2.865425,-2.459114 l 2.734046,-2.331372 5.542998,-3.324335 5.542998,-3.324335 8.614119,-3.57495 8.614119,-3.5749508 3.033668,-1.921239 c 2.548914,-1.614242 3.362085,-2.175094 5.088959,-3.5099039 1.130409,-0.8737657 2.451113,-1.9596184 2.934894,-2.4130061 l 0.879604,-0.8243414 0.407029,0.6941857 c 0.223865,0.3818021 0.671362,1.1492359 0.994438,1.7054083 0.323077,0.5561725 1.206996,2.3089583 1.964265,3.8950797 1.225657,2.5671722 1.517151,3.2581215 2.654458,6.2920515 1.204075,3.212044 1.322535,3.576325 2.058284,6.329505 l 0.780682,2.92131 0.595814,4.45687 0.595815,4.45687 0.04246,5.056113 0.04247,5.056113 -0.525407,3.445648 -0.525407,3.445647 -1.494186,4.082343 -1.494186,4.082343 -1.495421,2.659141 c -2.251491,4.003575 -2.449731,4.343289 -2.530927,4.337107 -0.0412,-0.0031 -3.900698,-1.521201 -8.576666,-3.373477 z"
     id="path3802"
     inkscape:connector-curvature="0"
     transform="translate(-457.3,491.3)" /><path
     style="fill:none;stroke:#000049;stroke-width:1px;stroke-linecap:butt;stroke-linejoin:miter;stroke-opacity:1"
     d="m 27.265558,28.165741 -3.745269,4.044891 -4.419417,6.292051 -2.396972,5.243377 -2.022446,5.917525 -0.374527,3.670364 -0.374526,5.168471 0.599243,5.842619 1.722823,7.939971 2.696594,6.292051 1.573013,2.247162 0.524338,-1.123581 2.247161,-3.295837 4.194701,-4.644133 4.86885,-3.670364 5.917525,-5.01866 6.441863,-6.142241 4.269606,-4.719039 -3.146026,-3.595458 -1.573013,-2.247162 -3.07112,-1.94754 -2.396972,-0.674148 -0.82396,-3.146026 -2.546783,-1.797729 -1.048675,-1.498108 -2.696593,-0.97377 -1.348297,-3.670363 -2.92131,-0.374527 z"
     id="path3808"
     inkscape:connector-curvature="0"
     transform="translate(-457.3,491.3)" /><path
     style="fill:#000049;fill-opacity:1;stroke:#000060;stroke-width:0.07490537999999999;stroke-opacity:0.2962963"
     d="m 19.900162,78.997056 c -0.410365,-0.58695 -0.682967,-1.156593 -1.806856,-3.77569 l -1.323577,-3.084451 -0.868501,-4.031794 -0.868501,-4.031794 -0.279301,-2.771499 -0.2793,-2.771499 0.167158,-2.396972 c 0.09194,-1.318335 0.255002,-3.273365 0.362366,-4.344512 l 0.195208,-1.94754 0.993064,-2.924715 c 0.894584,-2.634677 1.110733,-3.182447 2.179619,-5.523654 l 1.186556,-2.598938 2.183602,-3.108123 c 2.045553,-2.911624 2.272906,-3.205195 3.59615,-4.643554 1.371358,-1.490658 1.413185,-1.528367 1.434411,-1.293186 0.01203,0.133234 0.04573,0.865831 0.07491,1.627994 l 0.05304,1.385749 1.475853,0.187264 c 0.811719,0.102995 1.508427,0.220971 1.54824,0.262169 0.03981,0.0412 0.356787,0.850176 0.704387,1.797729 l 0.632001,1.722823 0.815975,0.304925 c 0.448786,0.16771 1.07421,0.397561 1.389833,0.510783 l 0.573857,0.205857 0.50626,0.725156 c 0.490179,0.702123 0.545135,0.752408 1.730178,1.583113 0.988476,0.692914 1.235996,0.90185 1.286701,1.086128 0.03453,0.125495 0.224605,0.851759 0.422386,1.613921 0.197781,0.762163 0.366233,1.394568 0.374338,1.405346 0.0081,0.01078 0.601417,0.183702 1.31847,0.384277 l 1.303732,0.364682 1.45441,0.926566 1.454411,0.926567 0.792751,1.128153 c 0.436013,0.620484 1.407911,1.830312 2.159774,2.688508 0.751863,0.858194 1.367023,1.587901 1.367023,1.621569 0,0.03367 -0.846741,0.997969 -1.881647,2.14289 -4.122453,4.560689 -11.363719,11.110636 -16.807245,15.20267 l -2.396972,1.801864 -2.146323,2.378624 c -2.059906,2.282855 -2.194113,2.450379 -3.33329,4.160763 -0.652831,0.980176 -1.20382,1.784598 -1.224419,1.787604 -0.0206,0.003 -0.254927,-0.305592 -0.52073,-0.685773 z"
     id="path3810"
     inkscape:connector-curvature="0"
     transform="translate(-457.3,491.3)" /><path
     style="fill:#00005b;fill-opacity:1;stroke:#000060;stroke-width:0.07490537999999999;stroke-opacity:0.29629630000000001"
     d="m 20.086866,79.185487 c -0.376838,-0.480291 -1.03427,-1.840579 -2.253577,-4.66286 l -1.01938,-2.359519 -0.663232,-3.071121 c -0.364777,-1.689116 -0.752169,-3.475609 -0.860871,-3.969985 -0.122636,-0.557747 -0.309792,-1.97907 -0.493169,-3.745269 -0.335401,-3.230432 -0.342979,-2.564173 0.08732,-7.677801 0.339579,-4.035489 0.253841,-3.581974 1.200483,-6.350008 0.996489,-2.913788 1.323685,-3.739674 2.562208,-6.467354 l 0.93919,-2.06844 1.813533,-2.575694 c 2.593084,-3.682862 2.888092,-4.056041 4.633059,-5.860737 0.736046,-0.76124 0.734559,-0.761754 0.74795,0.25845 0.0041,0.312875 0.02936,0.926726 0.05612,1.364114 l 0.04866,0.795249 0.307143,0.03981 c 1.045669,0.135527 2.545191,0.356114 2.622512,0.385785 0.08487,0.03257 0.738979,1.64129 1.205486,2.964765 l 0.202887,0.575587 1.171797,0.428385 c 0.644488,0.235612 1.277961,0.470648 1.407719,0.522303 0.150461,0.0599 0.348814,0.26016 0.547571,0.55284 0.506034,0.74517 0.731366,0.961409 1.922609,1.845026 0.623198,0.462265 1.158298,0.88127 1.189108,0.931124 0.03081,0.04985 0.235208,0.765947 0.454216,1.591321 0.219008,0.825374 0.425472,1.52477 0.45881,1.554212 0.03334,0.02944 0.630574,0.214298 1.327192,0.410788 l 1.266579,0.357256 1.417679,0.901519 c 0.779723,0.495837 1.497462,1.005666 1.594976,1.132953 0.09752,0.127288 0.479914,0.641392 0.849776,1.142454 0.369861,0.501062 1.269104,1.623417 1.998318,2.494123 l 1.325842,1.583101 -0.145987,0.165018 c -0.08029,0.09076 -0.648547,0.738045 -1.262787,1.43841 -1.31186,1.495803 -4.937917,5.146205 -6.962678,7.009425 -4.181597,3.847977 -7.115794,6.306614 -11.235807,9.414764 -1.518273,1.145388 -1.749509,1.376107 -4.46551,4.455492 -1.166036,1.322044 -1.530339,1.797821 -2.754111,3.596846 -0.468966,0.689409 -0.877372,1.253471 -0.907571,1.253471 -0.0302,0 -0.180529,-0.160111 -0.334068,-0.355801 z"
     id="path3812"
     inkscape:connector-curvature="0"
     transform="translate(-457.3,491.3)" /><path
     style="fill:#00005b;fill-opacity:1;stroke:#000060;stroke-width:0.07490538;stroke-opacity:0.2962963"
     d="m 19.566857,80.25122 -1.034152,-1.482457 -1.365156,-3.190469 -1.365156,-3.19047 -0.872723,-4.044891 -0.872723,-4.04489 -0.295495,-2.92131 -0.295495,-2.92131 0.177765,-2.434424 c 0.09777,-1.338934 0.267365,-3.327672 0.376876,-4.419418 l 0.199111,-1.984992 1.034314,-3.033668 c 0.939348,-2.755127 1.144887,-3.27554 2.23859,-5.667963 l 1.204275,-2.634294 2.237891,-3.184575 2.23789,-3.184576 2.238296,-2.414529 2.238297,-2.414529 0.04813,0.586883 c 0.02647,0.322786 0.07258,1.401927 0.102466,2.398091 l 0.05433,1.811208 1.409449,0.175085 1.409448,0.175085 0.615854,1.690238 c 0.338719,0.92963 0.658756,1.776624 0.711193,1.882207 0.07932,0.159702 0.313422,0.270646 1.392785,0.660043 l 1.297444,0.468073 0.561791,0.795432 c 0.556224,0.787551 0.574521,0.804365 1.846752,1.697055 l 1.284961,0.901624 0.397102,1.520675 0.3971,1.520675 0.490193,0.142588 c 0.269607,0.07842 0.758734,0.216427 1.086949,0.306673 0.500878,0.137721 0.856917,0.328195 2.216087,1.185562 l 1.619333,1.021478 0.742675,1.077648 c 0.46847,0.679766 1.385163,1.81366 2.482835,3.07112 0.957088,1.09641 1.740786,2.013833 1.74155,2.038716 7.64e-4,0.02488 -1.018259,1.171404 -2.264498,2.547824 -4.501512,4.97174 -11.333234,11.182207 -17.065997,15.514069 l -2.440722,1.84429 -2.091054,2.315541 c -1.90395,2.108353 -2.187176,2.457714 -3.165323,3.904458 -0.700996,1.036818 -1.222783,1.903369 -1.501682,2.493899 l -0.42741,0.904982 -1.034152,-1.482457 0,0 z m 0.982361,-0.580332 c 0.04261,-0.09351 0.595012,-0.92777 1.227567,-1.853908 1.049239,-1.536213 1.3359,-1.889884 3.268718,-4.032816 l 2.118617,-2.34893 2.492669,-1.883224 c 3.722906,-2.812675 7.638115,-6.172486 11.580951,-9.938116 2.342988,-2.237686 3.637766,-3.542204 4.87499,-4.911659 0.926565,-1.025593 1.814536,-2.006733 1.97327,-2.180311 l 0.288606,-0.315596 -1.448932,-1.65706 C 46.128761,49.637885 45.131343,48.399677 44.709189,47.797696 L 43.941636,46.703184 42.476874,45.774325 C 41.119051,44.91328 40.953605,44.829291 40.210758,44.623943 39.770015,44.502106 39.18697,44.336949 38.915103,44.256927 L 38.420801,44.111435 38.023782,42.594406 C 37.805421,41.760039 37.598461,41.0213 37.56387,40.952765 37.529279,40.884229 36.952859,40.439686 36.282936,39.964891 35.11073,39.134113 35.046593,39.075041 34.578563,38.3951 l -0.486332,-0.706528 -1.386303,-0.498446 -1.386303,-0.498445 -0.636696,-1.765408 c -0.484184,-1.34253 -0.67258,-1.779315 -0.786506,-1.823466 -0.0824,-0.03193 -0.781825,-0.135455 -1.554287,-0.23005 l -1.404475,-0.171991 -0.0099,-0.830356 c -0.0054,-0.456695 -0.0307,-1.216587 -0.05618,-1.688649 l -0.04632,-0.858293 -1.464071,1.576539 c -1.403366,1.511171 -1.555183,1.706217 -3.661499,4.704078 l -2.197428,3.127539 -1.215153,2.670983 c -1.095919,2.408898 -1.310954,2.953957 -2.191485,5.554841 l -0.976332,2.883857 -0.192806,1.984992 c -0.106043,1.091746 -0.267064,3.036224 -0.357825,4.321062 l -0.16502,2.336069 0.283547,2.832402 0.283546,2.832402 0.85471,3.969985 0.85471,3.969985 1.346919,3.146026 c 1.162016,2.714146 1.416203,3.245937 1.851621,3.87382 0.277587,0.400287 0.524574,0.728935 0.548859,0.730328 0.02429,0.0014 0.07902,-0.07398 0.121623,-0.167488 z"
     id="path3814"
     inkscape:connector-curvature="0"
     transform="translate(-457.3,491.3)" /><path
     style="fill:#00005b;stroke:#000000;stroke-width:1px;stroke-linecap:butt;stroke-linejoin:miter;stroke-opacity:1;fill-opacity:1"
     d="m 25.992167,80.299885 3.895079,-5.542998 4.793945,-3.820174 11.160901,-10.112226 3.89508,-4.719039 0.898865,-1.94754 1.423202,0.898864 1.423202,0.674149 0.149811,0.749054 0.674148,0.823959 0.898865,1.273391 3.820174,-0.07491 16.928616,6.666579 -6.741484,7.490537 -8.614119,6.067336 -10.936185,3.89508 -8.014876,0.97377 -10.86128,-0.524338 z"
     id="path3816"
     inkscape:connector-curvature="0"
     transform="translate(-457.3,491.3)" /><path
     style="fill:#00005b;fill-opacity:1;stroke:#000060;stroke-width:0.0529661;stroke-opacity:0.2962963"
     d="m 35.859242,83.796516 c -2.83782,-0.139675 -5.20997,-0.276872 -5.271445,-0.304882 -0.147957,-0.06741 -5.183668,-2.977814 -5.229178,-3.022215 -0.02826,-0.02757 3.564749,-5.198689 4.097292,-5.896889 0.07696,-0.100898 1.220446,-1.043812 2.541082,-2.095364 2.340932,-1.863958 2.540495,-2.038196 7.956437,-6.946759 l 5.555279,-5.034847 1.912941,-2.319167 1.912941,-2.319168 0.522207,-1.138027 c 0.287214,-0.625915 0.541585,-1.158817 0.56527,-1.184228 0.02368,-0.02541 0.456044,0.215197 0.960843,0.53471 0.50478,0.319501 1.275303,0.748869 1.712274,0.954152 l 0.794491,0.373241 0.09441,0.44013 c 0.08504,0.39645 0.124677,0.47718 0.399426,0.813448 0.167761,0.205324 0.480091,0.620663 0.694066,0.922975 l 0.389048,0.549657 0.588646,-0.03254 c 0.323755,-0.0179 1.149275,-0.03734 1.83449,-0.04321 l 1.245845,-0.01067 8.791231,3.460281 c 4.835177,1.903155 8.798773,3.466428 8.80799,3.473941 0.0092,0.0075 -1.611546,1.821327 -3.601694,4.030699 L 69.51468,73.018823 65.250909,76.0264 c -2.345074,1.654167 -4.327997,3.042675 -4.406496,3.085573 -0.0785,0.0429 -2.616899,0.957463 -5.64089,2.032366 l -5.498165,1.95437 -3.998941,0.482504 c -2.199417,0.265377 -4.153866,0.479523 -4.34322,0.475881 -0.189354,-0.0036 -2.666132,-0.120903 -5.503951,-0.260578 l 0,0 z m 9.772403,-1.165069 3.929862,-0.478325 5.408599,-1.927569 5.4086,-1.927569 3.217349,-2.265869 c 1.769543,-1.246228 3.678292,-2.58876 4.241665,-2.983406 l 1.024314,-0.717538 3.120283,-3.46504 c 1.716156,-1.905772 3.119942,-3.478865 3.119525,-3.495763 -4.24e-4,-0.0169 -3.628803,-1.458311 -8.063081,-3.203142 l -8.062324,-3.172421 -1.060329,0.0077 c -0.583182,0.0042 -1.489356,0.0209 -2.01372,0.03703 l -0.95339,0.02934 -0.423729,-0.622463 C 54.292218,58.104057 53.896248,57.567303 53.645333,57.253625 53.247012,56.755666 53.18133,56.643672 53.127681,56.370979 l -0.06144,-0.312321 -0.631653,-0.296536 c -0.347409,-0.163095 -0.836297,-0.428554 -1.086417,-0.589909 -0.25012,-0.161355 -0.47181,-0.292569 -0.492644,-0.291587 -0.02083,9.82e-4 -0.190096,0.334493 -0.376138,0.741135 l -0.338258,0.739348 -2.00226,2.423591 -2.00226,2.42359 -5.630881,5.093951 c -5.427346,4.909825 -5.714691,5.160637 -7.949582,6.938864 l -2.318703,1.844914 -1.768871,2.515584 c -1.338457,1.903475 -1.753748,2.530148 -1.706721,2.575434 0.03418,0.03292 0.979788,0.590654 2.101345,1.239415 l 2.039195,1.179565 5.005297,0.249891 c 2.752913,0.137439 5.182777,0.253034 5.399697,0.256877 0.21692,0.0038 2.162839,-0.208258 4.324263,-0.471338 l 0,0 z"
     id="path3818"
     inkscape:connector-curvature="0"
     transform="translate(-457.3,491.3)" /><path
     style="fill:none;stroke:#ffffff;stroke-width:1px;stroke-linecap:butt;stroke-linejoin:miter;stroke-opacity:1"
     d="m 49.362645,51.910746 1.048675,-1.273391 1.498108,1.94754 -0.749054,1.273391 -0.674148,0.524338 -0.674149,-0.07491 z"
     id="path3820"
     inkscape:connector-curvature="0"
     transform="translate(-457.3,491.3)" /><path
     style="fill:none;stroke:#ffffff;stroke-width:1px;stroke-linecap:butt;stroke-linejoin:miter;stroke-opacity:1"
     d="m 49.886983,52.435084 0.898864,-0.823959 0.374527,1.198486 -0.97377,0.898864 -0.674148,-0.374526 0,-0.674149 z"
     id="path3822"
     inkscape:connector-curvature="0"
     transform="translate(-457.3,491.3)" /><path
     style="fill:none;stroke:#ffffff;stroke-width:1px;stroke-linecap:butt;stroke-linejoin:miter;stroke-opacity:1"
     d="m 49.924435,52.772158 0.599244,-0.486885 0.224716,0.262169 0,0.224716 -0.09363,0.318348 -0.224716,0.01873 -0.337074,0.149811"
     id="path3824"
     inkscape:connector-curvature="0"
     transform="translate(-457.3,491.3)" /></svg>