<?xml version="1.0" encoding="utf-8"?>
<!-- Generator: Adobe Illustrator 19.1.0, SVG Export Plug-In . SVG Version: 6.00 Build 0)  -->
<svg version="1.1" id="Capa_1" xmlns="http://www.w3.org/2000/svg" xmlns:xlink="http://www.w3.org/1999/xlink" x="0px" y="0px"
	 viewBox="-457.3 491.3 100 100" style="enable-background:new -457.3 491.3 100 100;" xml:space="preserve">
<style type="text/css">
	.st0{fill:#008000;}
</style>
<g>
	<path class="st0" d="M-382.8,491.3c0,0-8.2,7.9-17,11.1c-65.4,23.6-37.8,69.7-36.9,69.9c0,0,3.7-6.4,8.6-10
		c31.4-23.1,37.8-49.7,37.8-49.7s-7.1,32-35,51.9c-6.2,4.4-10.4,15.2-12.1,26c0,0,4.4-1.8,6.3-2.2c0.7-4.8,2.3-9.4,4.9-13.5
		c39.1,4.7,51.9-26.8,53.5-37.8C-368.8,511.1-382.8,491.3-382.8,491.3z"/>
</g>
</svg>
