<?xml version="1.0" encoding="utf-8"?>
<!-- Generator: Adobe Illustrator 19.1.0, SVG Export Plug-In . SVG Version: 6.00 Build 0)  -->
<svg version="1.1"
	 id="svg3766" inkscape:version="0.45.1" sodipodi:version="0.32" inkscape:output_extension="org.inkscape.output.svg.inkscape" sodipodi:docbase="/home/phsi/Desktop/clIPART" sodipodi:docname="Steak-Silhouette.svg" xmlns:rdf="http://www.w3.org/1999/02/22-rdf-syntax-ns#" xmlns:dc="http://purl.org/dc/elements/1.1/" xmlns:inkscape="http://www.inkscape.org/namespaces/inkscape" xmlns:cc="http://web.resource.org/cc/" xmlns:svg="http://www.w3.org/2000/svg" xmlns:sodipodi="http://sodipodi.sourceforge.net/DTD/sodipodi-0.dtd"
	 xmlns="http://www.w3.org/2000/svg" xmlns:xlink="http://www.w3.org/1999/xlink" x="0px" y="0px" viewBox="-870.8 307.9 100 100"
	 style="enable-background:new -870.8 307.9 100 100;" xml:space="preserve">
<style type="text/css">
	.st0{fill:#D11E1E;}
</style>
<sodipodi:namedview  height="220px" width="360px" inkscape:window-y="25" inkscape:window-x="0" inkscape:window-height="949" inkscape:window-width="1280" inkscape:current-layer="layer1" inkscape:guide-bbox="true" inkscape:pageshadow="2" inkscape:pageopacity="0.0" inkscape:document-units="px" gridtolerance="10000" borderopacity="1.0" id="base" objecttolerance="10" guidetolerance="10" inkscape:cx="192.33159" inkscape:zoom="1.6942857" bordercolor="#666666" pagecolor="#ffffff" showguides="true" inkscape:cy="144.83762">
	</sodipodi:namedview>
<g id="layer1" transform="translate(1139.1156,-1412.7278)" inkscape:groupmode="layer" inkscape:label="Layer 1">
	<path id="path15831" class="st0" d="M-1936.6,1760.6c-0.9,0-2.3,0.2-4.7,0.5c-2.6,0.4-5.4,1-6.3,1.3c-3,1.1-5.6,2.3-7,3.1
		c-0.8,0.5-2.5,1.4-3.7,2.1s-2.5,1.4-2.7,1.6c-0.6,0.5-3.3,1.6-5.2,2.1c-0.8,0.2-1.7,0.6-2.1,0.9c-0.4,0.3-1.2,0.6-1.7,0.7
		c-0.6,0.1-1.4,0.4-1.8,0.7c-0.4,0.3-1,0.6-1.4,0.7c-0.4,0.1-1,0.5-1.4,0.7s-0.8,0.5-1,0.5c-0.2,0-0.7,0.3-1.2,0.7s-1,0.7-1.1,0.7
		c-0.4,0-4,1.9-4.6,2.4c-0.3,0.2-0.8,0.5-1.2,0.6c-0.4,0.1-0.9,0.4-1.1,0.6s-0.8,0.5-1.1,0.7c-0.4,0.2-1.3,0.7-2,1.3
		s-1.9,1.3-2.8,1.7c-0.8,0.4-1.8,1.1-2.3,1.5s-1.3,1.1-2,1.6s-1.6,1.2-2.1,1.6s-1.1,0.9-1.3,0.9c-0.2,0-1.8,1.4-3.6,3.2
		c-1.8,1.8-4,3.8-4.7,4.5c-0.8,0.7-1.8,1.9-2.2,2.5l-0.8,1.3l0,5.4c0,3,0.1,6.6,0.2,8l0.2,2.6l1.2,1.1c0.7,0.6,1.7,1.4,2.3,1.6
		c1.7,0.8,2.7,0.7,4.2-0.6c2.3-1.9,7.2-4.7,9.8-5.5c0.6-0.2,1.5-0.6,2-0.9c0.5-0.3,1.3-0.6,1.9-0.7c0.6-0.1,1.6-0.3,2.3-0.5
		c0.7-0.2,2.3-0.5,3.4-0.7c1.2-0.2,3.1-0.7,4.3-1c3.6-1,8-1.3,15.4-1.3c7.3,0,12.6,0.4,15.2,1.2c0.8,0.2,2.1,0.6,2.8,0.7
		s2.1,0.5,3.1,0.7c1,0.2,2.6,0.6,3.6,0.8c1,0.2,1.9,0.5,2.2,0.7c0.2,0.2,1.1,0.5,1.8,0.8c2.2,0.6,5,1.6,6.4,2.2
		c1.9,0.8,3.6,1.1,6.3,1.1c4.7,0,6.7-0.8,9.2-3.8c1.6-1.9,2-3.9,2.2-10.5c0.1-5.2,0-8.2-0.8-19.5c-0.3-4.4-0.5-5.2-2.1-8.8
		c-1.4-3.1-4.5-6.5-7.7-8.4c-1.2-0.7-3-1.8-4-2.4c-1-0.6-2-1.1-2.3-1.1c-0.3,0-0.9-0.2-1.4-0.4c-0.5-0.2-1.9-0.6-3.2-0.9
		c-1.3-0.2-3-0.5-3.8-0.7C-1935.6,1760.7-1936.1,1760.6-1936.6,1760.6z M-1936.5,1763c2.5,0,4.8,0.2,6.4,0.8
		c0.7,0.3,1.9,0.6,2.7,0.8c0.8,0.2,1.8,0.6,2.2,1s1,0.7,1.3,0.8c0.6,0.2,1.3,1.4,1.1,1.8c-0.1,0.2-0.6,0.4-1,0.5
		c-0.6,0.1-1.2,0.7-2.5,2.6c-0.9,1.3-1.7,2.4-1.9,2.4s-0.4,0.1-0.6,0.2c-0.8,0.3-1.7-0.8-2.1-2.9c-0.2-1.1-0.4-2.3-0.4-2.8
		c0-0.5-0.4-1.2-1-1.9c-1.3-1.4-3.1-1.8-7.4-1.5c-3.2,0.2-4.5,0.5-8.1,1.8c-2.4,0.8-3.5,0.9-3.5,0.3c0-0.2,0.2-0.5,0.5-0.6
		c0.3-0.1,1.1-0.5,1.9-0.8C-1945.6,1764-1940.7,1763.1-1936.5,1763z M-1963.3,1772c0.5,0,0.9,0.1,1,0.4c0.1,0.4-0.3,0.8-2.6,2.7
		c-0.9,0.7-1.7,1.6-1.8,2s-0.5,1.2-0.9,1.7c-0.6,0.9-0.7,1.2-0.6,2.6c0.2,2.5,1.4,4,4,5.2c5.3,2.4,8.2,3.9,8.5,4.4
		c0.2,0.4,0.2,0.5-0.1,0.5c-1-0.1-2-0.4-4.6-1.1c-8.5-2.6-11.1-5.6-9.4-10.8c0.6-1.8,0.3-2.4-1.2-2.5c-0.9-0.1-1.2,0.1-2,0.9
		c-0.5,0.6-1.2,1.9-1.6,2.9c-0.5,1.4-1,2.1-1.7,2.6c-0.9,0.7-1.1,0.8-5.6,0.8c-2.5,0-4.8,0-5-0.2c-0.5-0.3-0.1-1.2,0.5-1.2
		c0.3,0,0.8-0.2,1.2-0.5c0.4-0.3,1.2-0.8,1.8-1.1s1.6-0.8,2.1-1.1c0.6-0.3,1.3-0.7,1.6-1c0.3-0.3,1-0.6,1.6-0.7
		c0.5-0.1,2.1-0.8,3.4-1.6c1.3-0.7,3-1.5,3.6-1.7s1.6-0.7,2.1-1c0.6-0.4,1.6-0.8,2.3-1s1.6-0.6,1.9-0.9
		C-1964.3,1772.1-1963.7,1772-1963.3,1772z M-1980.6,1792c0.6,0,1.4,0,2.6,0.1c2.4,0.1,3.4,0.3,3.7,0.6c0.4,0.4,0.4,0.5,0,0.8
		c-0.3,0.2-1.4,0.4-2.5,0.5c-1.2,0.1-2.4,0.4-2.9,0.7c-0.5,0.3-1.6,0.8-2.5,1.1c-0.9,0.3-1.9,0.6-2.3,0.6c-0.8,0-1.9-0.7-1.9-1.2
		c0-0.6,1.2-1.5,3.2-2.4C-1982.1,1792.2-1981.6,1792-1980.6,1792z M-1961.9,1794.6c6.1,0,13.7,0.5,18.6,1.2c1.6,0.3,5.9,1.3,8.2,2
		c0.5,0.1,2.1,0.6,3.6,1c1.5,0.4,3,0.9,3.3,1.1c1.4,0.9,4.1,1.6,6.9,1.7c2.5,0.2,3,0.1,4.3-0.4c1.5-0.6,3-2.1,4.2-4.2
		c0.3-0.6,0.8-1,0.9-0.9c0.2,0.1,0.4,1.7,0.5,4.6c0.2,4.2,0.1,4.7-0.5,6.7c-0.4,1.2-0.7,2.7-0.9,3.3c-0.7,3.9-7.2,5.6-13.6,3.5
		c-0.7-0.2-2.6-0.8-4.3-1.2c-1.7-0.4-3.6-1.1-4.4-1.4c-1.5-0.7-4-1.5-8.9-2.9c-4.4-1.3-10.8-1.9-19.2-1.7c-3.7,0.1-7.2,0.3-7.8,0.5
		c-0.6,0.2-2,0.4-3.3,0.4c-3.4,0.2-5,0.5-6.1,0.9c-0.6,0.2-2.1,0.6-3.5,0.8c-1.4,0.2-2.8,0.6-3.3,0.9s-1.1,0.4-1.5,0.4
		c-0.4,0-1.4,0.3-2.3,0.7s-1.9,0.7-2.1,0.7c-0.2,0-0.8,0.3-1.4,0.7s-1.3,0.7-1.5,0.7c-0.5,0-5.1,2.9-5.4,3.4
		c-0.3,0.5-1.2,0.3-1.4-0.2c-0.1-0.3-0.2-2.4-0.3-4.7c-0.2-4.5-0.1-5.2,1.1-5.5c0.6-0.2,2.2-0.9,8.4-3.4c1.3-0.5,2.8-1.2,3.4-1.5
		c0.6-0.3,1.4-0.6,1.7-0.6c0.3,0,0.9-0.2,1.3-0.5c0.4-0.3,1.2-0.7,1.8-0.9c0.6-0.2,2.1-0.8,3.4-1.3c5.6-2.4,8.1-3,13.2-3.6
		C-1967.2,1794.7-1964.7,1794.6-1961.9,1794.6z M-1968,1797.3c-1.3,0-2.1,0.2-2.6,0.8c-0.3,0.3-0.5,0.8-0.5,1c0,0.6,1,1.6,1.6,1.6
		c0.3,0,4,0.1,8.1,0.3c8.3,0.3,8.4,0.3,13.6,2.5c2.3,1,2.9,1.1,3.7,0.5c0.6-0.5,0.4-1.7-0.4-2.2c-0.3-0.2-1.2-0.8-2-1.5
		c-1-0.9-2.1-1.5-3.5-1.9c-2.2-0.7-2.8-0.7-8.9-0.4c-3,0.2-4.2,0.1-6.2-0.3C-1966.3,1797.5-1967.2,1797.4-1968,1797.3z
		 M-1975.5,1798.8c-0.4,0-0.9,0.2-1.7,0.6c-0.9,0.4-1.9,1-2.2,1.2c-0.6,0.6-0.7,1.4,0,1.8c0.5,0.3,1.3,0.2,2.2-0.4
		c0.3-0.2,1.1-0.5,1.8-0.7c1.1-0.3,1.2-0.4,1.2-1.2c0-0.6-0.2-0.9-0.7-1.2C-1975.1,1798.8-1975.3,1798.8-1975.5,1798.8z
		 M-1929.3,1801.3c-0.1,0-0.1,0-0.2,0c-1.3,0.1-1.1,1,0.4,2.7c1.8,1.9,3.4,4.3,3.8,5.8c0.2,0.7,0.5,1.4,0.8,1.6
		c0.7,0.7,1.4,0.5,1.8-0.3c0.5-1.1,0.4-1.6-0.5-3.3c-1-1.9-2.6-4-4.2-5.4C-1928.3,1801.6-1928.8,1801.3-1929.3,1801.3z"/>
</g>
</svg>
