<?xml version="1.0" encoding="UTF-8" standalone="no"?>
<svg
   xmlns:dc="http://purl.org/dc/elements/1.1/"
   xmlns:cc="http://creativecommons.org/ns#"
   xmlns:rdf="http://www.w3.org/1999/02/22-rdf-syntax-ns#"
   xmlns:svg="http://www.w3.org/2000/svg"
   xmlns="http://www.w3.org/2000/svg"
   xmlns:sodipodi="http://sodipodi.sourceforge.net/DTD/sodipodi-0.dtd"
   xmlns:inkscape="http://www.inkscape.org/namespaces/inkscape"
   version="1.1"
   x="0px"
   y="0px"
   viewBox="0 0 100 85"
   enable-background="new 0 0 100 85.71"
   xml:space="preserve"
   id="svg2"
   inkscape:version="0.48.4 r9939"
   width="100%"
   height="100%"
   sodipodi:docname="message-box.svg"><metadata
     id="metadata10"><rdf:RDF><cc:Work
         rdf:about=""><dc:format>image/svg+xml</dc:format><dc:type
           rdf:resource="http://purl.org/dc/dcmitype/StillImage" /></cc:Work></rdf:RDF></metadata><defs
     id="defs8" /><sodipodi:namedview
     pagecolor="#ffffff"
     bordercolor="#666666"
     borderopacity="1"
     objecttolerance="10"
     gridtolerance="10"
     guidetolerance="10"
     inkscape:pageopacity="0"
     inkscape:pageshadow="2"
     inkscape:window-width="1920"
     inkscape:window-height="1022"
     id="namedview6"
     showgrid="false"
     inkscape:zoom="2.2027768"
     inkscape:cx="50"
     inkscape:cy="53.56875"
     inkscape:window-x="0"
     inkscape:window-y="30"
     inkscape:window-maximized="1"
     inkscape:current-layer="svg2" /><path
     height="80"
     width="100"
     d="M 18.52,0.10715056 C 9.581,0.25715056 0,6.0741508 0,18.646151 l 0,30.57 c 0.107,8.405 5.374,17.288 16.449,18.338 0,3.217 0,18.264 0,18.264 0,0 26.046,-17.342 27.168,-18.062 1.365,0 37.845,0 37.845,0 8.957,-0.116 18.538,-5.971 18.538,-18.54 l 0,-30.594 C 99.876,9.6741507 94.018,0.10715056 81.462,0.10715056 l -35.610782,0 z M 4.688,49.196151 l 0,-30.55 C 4.688,5.3721506 17.139,4.8061506 18.559,4.7941506 l 62.903,0 c 13.257,0 13.838,12.4150004 13.851,13.8500004 l 0,30.572 c 0,13.27 -12.472,13.84 -13.871,13.852 l -39.24,0 c 0,0 -15.825,10.49 -21.065,13.988 0,-4.611 0,-13.988 0,-13.988 l -2.617,0 c -13.254,-10e-4 -13.821,-12.473 -13.832,-13.872 z"
     id="path4"
     inkscape:connector-curvature="0"
     style="fill:#010101"
     sodipodi:nodetypes="cscccccscscccscscscccccc" /></svg>
