<?xml version="1.0" encoding="UTF-8" standalone="no"?>
<svg
   xmlns:dc="http://purl.org/dc/elements/1.1/"
   xmlns:cc="http://creativecommons.org/ns#"
   xmlns:rdf="http://www.w3.org/1999/02/22-rdf-syntax-ns#"
   xmlns:svg="http://www.w3.org/2000/svg"
   xmlns="http://www.w3.org/2000/svg"
   xmlns:sodipodi="http://sodipodi.sourceforge.net/DTD/sodipodi-0.dtd"
   xmlns:inkscape="http://www.inkscape.org/namespaces/inkscape"
   version="1.1"
   x="0px"
   y="0px"
   viewBox="0 0 100 85"
   enable-background="new 0 0 100 85.71"
   xml:space="preserve"
   id="svg2"
   inkscape:version="0.48.4 r9939"
   width="100%"
   height="100%"
   sodipodi:docname="message-box.svg"><metadata
     id="metadata10"><rdf:RDF><cc:Work
         rdf:about=""><dc:format>image/svg+xml</dc:format><dc:type
           rdf:resource="http://purl.org/dc/dcmitype/StillImage" /></cc:Work></rdf:RDF></metadata><defs
     id="defs8" /><sodipodi:namedview
     pagecolor="#ffffff"
     bordercolor="#666666"
     borderopacity="1"
     objecttolerance="10"
     gridtolerance="10"
     guidetolerance="10"
     inkscape:pageopacity="0"
     inkscape:pageshadow="2"
     inkscape:window-width="1920"
     inkscape:window-height="1022"
     id="namedview6"
     showgrid="false"
     inkscape:zoom="5.6568542"
     inkscape:cx="18.710525"
     inkscape:cy="53.56875"
     inkscape:window-x="0"
     inkscape:window-y="30"
     inkscape:window-maximized="1"
     inkscape:current-layer="svg2" /><path
     height="80"
     width="100"
     d="m 18.343224,0.1071505 c -8.939,0.15 -18.52,5.967 -18.52,18.5390005 l 0,30.57 c 0.107,8.405 5.374,17.288 16.449,18.338 0,3.217 0,18.264 0,18.264 0,0 26.046,-17.342 27.168,-18.062 1.365,0 37.844996,0 37.844996,0 8.957,-0.116 18.538,-5.971 18.538,-18.54 l 0,-30.594 c -0.124,-8.9480005 -5.982,-18.5150005 -18.538,-18.5150005 l -35.610778,0 z M 0.798913,49.372928 l 0,-30.726777 c 0,-13.2740005 9.622573,-17.7290875 17.760088,-17.7410875 l 62.549449,0 c 16.61575,0 17.90386,16.4808645 17.91686,17.9158645 l 0.17678,31.102329 C 99.27749,63.193044 84.60877,67.829122 81.26522,66.957238 L 43.439438,66.780462 c 0,0 -20.774747,13.671981 -26.014747,17.169981 0,-4.611 0.176776,-17.700311 0.176776,-17.700311 l -2.440223,0 C 1.907243,65.895578 0.809913,50.771928 0.798913,49.372928 z"
     id="path4"
     inkscape:connector-curvature="0"
     style="fill:#010101"
     sodipodi:nodetypes="cscccccscscccscscscccccc" /><path
     style="fill:#fff6d5"
     d="m 17.580806,74.901548 0.05469,-8.822066 -1.999229,-0.0012 C 8.6544528,66.073919 3.7192256,61.88492 1.7204715,54.266583 0.81953385,50.83262 0.78401526,49.910206 0.87180328,32.226745 0.95686279,15.092896 0.95167194,15.202048 1.8174277,12.34238 3.646328,6.3013608 8.3736114,2.4041215 15.228024,1.2864945 c 2.383767,-0.38867829 66.90874,-0.38909797 69.296465,-4.507e-4 6.601488,1.0745171 11.234182,5.2997276 13.407955,12.2286202 0.98386,3.136046 0.984431,3.14803 1.038128,21.805673 l 0.04961,17.235728 -0.400559,1.414214 c -1.102597,3.892833 -3.544989,7.210831 -7.013062,9.527259 -1.900515,1.269411 -3.283042,1.943192 -5.549151,2.704401 -2.25327,0.756898 0.50099,0.685452 -23.839693,0.618399 l -18.948021,-0.0522 -12.695008,8.371662 c -6.982255,4.604414 -12.774559,8.419396 -12.871786,8.477738 -0.117197,0.07033 -0.158346,-2.867286 -0.122092,-8.715991 z"
     id="path3757"
     inkscape:connector-curvature="0" /></svg>
