<?xml version="1.0" encoding="UTF-8" standalone="no"?>
<!-- Generator: Adobe Illustrator 16.0.0, SVG Export Plug-In . SVG Version: 6.00 Build 0)  -->

<svg
   xmlns:dc="http://purl.org/dc/elements/1.1/"
   xmlns:cc="http://creativecommons.org/ns#"
   xmlns:rdf="http://www.w3.org/1999/02/22-rdf-syntax-ns#"
   xmlns:svg="http://www.w3.org/2000/svg"
   xmlns="http://www.w3.org/2000/svg"
   xmlns:sodipodi="http://sodipodi.sourceforge.net/DTD/sodipodi-0.dtd"
   xmlns:inkscape="http://www.inkscape.org/namespaces/inkscape"
   version="1.1"
   id="Capa_1"
   x="0px"
   y="0px"
   width="512"
   height="512"
   viewBox="0 0 873.5 873.5"
   style="enable-background:new 0 0 873.5 873.5;"
   xml:space="preserve"
   inkscape:version="0.48.4 r9939"
   sodipodi:docname="microscope.svg"><metadata
     id="metadata47"><rdf:RDF><cc:Work
         rdf:about=""><dc:format>image/svg+xml</dc:format><dc:type
           rdf:resource="http://purl.org/dc/dcmitype/StillImage" /></cc:Work></rdf:RDF></metadata><defs
     id="defs45" /><sodipodi:namedview
     pagecolor="#ffffff"
     bordercolor="#666666"
     borderopacity="1"
     objecttolerance="10"
     gridtolerance="10"
     guidetolerance="10"
     inkscape:pageopacity="0"
     inkscape:pageshadow="2"
     inkscape:window-width="1920"
     inkscape:window-height="1025"
     id="namedview43"
     showgrid="false"
     inkscape:zoom="0.27017745"
     inkscape:cx="436.75"
     inkscape:cy="436.75"
     inkscape:window-x="0"
     inkscape:window-y="30"
     inkscape:window-maximized="1"
     inkscape:current-layer="Capa_1" /><g
     id="g3"
     transform="matrix(-1.0043216,0,0,1,858.73172,3.7012712)"><g
       id="g5"><path
         d="m 244.35,723 h -52.8 c -13.8,0 -25,11.199 -25,25 v 100.5 c 0,13.801 11.2,25 25,25 h 509.2 c 13.8,0 25,-11.199 25,-25 V 748 c 0,-13.801 -11.2,-25 -25,-25 h -155 v -49.5 h 65 c 13.8,0 25,-11.199 25,-25 v -12.6 c 0,-13.801 -11.2,-25 -25,-25 h -197.1 c -13.801,0 -25,11.199 -25,25 v 12.6 c 0,13.801 11.199,25 25,25 h 65 V 723 h -99.2 c -23.7,-12.5 -45.7,-28.301 -65.3,-47.199 C 260.25,623.9 230.55,555.1 230.55,482 c 0,-73.1 29.7,-141.9 83.601,-193.8 23.5,-22.6 50.399,-40.8 79.5,-54.2 v -89 c -6.5,2.2 -12.9,4.6 -19.301,7.2 -44,17.9 -83.6,43.6 -117.6,76.3 -34.1,32.8 -60.9,71.1 -79.7,113.7 -19.5,44.301 -29.3,91.301 -29.3,139.8 0,48.5 9.9,95.5 29.3,139.801 16.4,37.299 39,71.299 67.3,101.199 z"
         id="path7"
         inkscape:connector-curvature="0" /><path
         d="M 600.75,297.3 V 107.9 c 0,-13.8 -11.2,-25 -25,-25 h -9.3 V 25 c 0,-13.8 -11.2,-25 -25,-25 h -58.5 c -13.8,0 -25,11.2 -25,25 v 57.9 h -9.3 c -13.801,0 -25,11.2 -25,25 v 28.1 86.2 75 c 0.199,0 0.5,0 0.699,0 h 176.4 v 0.1 z"
         id="path9"
         inkscape:connector-curvature="0" /><path
         d="m 424.35,424.5 c 1.7,0 3.4,-0.2 5.101,-0.5 l 179.6,-37.301 c 9.3,-1.899 15.9,-10.1 15.9,-19.6 v -2.5 -17.3 c 0,-7.101 -3.7,-13.3 -9.3,-16.9 -3.101,-2 -6.801,-3.1 -10.7,-3.1 h -4.2 -176.4 c -0.199,0 -0.5,0 -0.699,0 -5.7,0.2 -10.9,2.2 -15,5.6 -5.601,4.6 -9.301,11.601 -9.301,19.4 v 47.2 c 0,4.1 1,8 2.7,11.399 C 406.35,419 414.85,424.5 424.35,424.5 z"
         id="path11"
         inkscape:connector-curvature="0" /></g></g><g
     id="g13" /><g
     id="g15" /><g
     id="g17" /><g
     id="g19" /><g
     id="g21" /><g
     id="g23" /><g
     id="g25" /><g
     id="g27" /><g
     id="g29" /><g
     id="g31" /><g
     id="g33" /><g
     id="g35" /><g
     id="g37" /><g
     id="g39" /><g
     id="g41" /></svg>
