<?xml version="1.0" encoding="UTF-8" ?>
<!DOCTYPE svg PUBLIC "-//W3C//DTD SVG 1.1//EN" "http://www.w3.org/Graphics/SVG/1.1/DTD/svg11.dtd">
<svg width="390pt" height="364pt" viewBox="0 0 390 364" version="1.1" xmlns="http://www.w3.org/2000/svg">
<path fill="#fefefe" d=" M 0.00 0.00 L 390.00 0.00 L 390.00 364.00 L 0.00 364.00 L 0.00 0.00 Z" />
<path fill="#ebc1cb" d=" M 196.01 14.14 C 207.93 14.13 220.37 11.10 231.70 16.27 C 257.06 17.43 281.59 27.64 302.91 39.97 C 302.40 40.04 301.39 40.16 300.88 40.22 C 304.50 43.60 309.17 45.86 312.13 49.90 C 304.89 53.36 298.28 50.09 293.67 44.42 C 290.46 44.55 286.96 46.07 284.42 48.17 C 283.53 47.71 282.64 47.24 281.77 46.76 C 259.43 34.65 233.47 30.79 208.58 30.36 C 206.99 25.19 216.37 27.55 216.96 22.93 C 217.06 17.64 209.52 13.64 205.58 17.60 C 195.68 14.35 184.32 16.29 173.91 18.92 C 166.35 22.45 157.55 21.94 150.35 26.36 C 147.71 26.99 143.46 31.18 141.73 27.36 C 158.93 19.91 177.36 15.69 196.01 14.14 Z" />
<path fill="#f2d3d9" d=" M 173.91 18.92 C 184.32 16.29 195.68 14.35 205.58 17.60 C 209.52 13.64 217.06 17.64 216.96 22.93 C 216.37 27.55 206.99 25.19 208.58 30.36 C 188.95 30.44 168.89 32.81 150.72 40.71 C 143.50 46.17 134.39 47.64 126.82 52.46 C 115.79 60.35 103.99 68.63 95.76 79.69 C 82.82 93.96 72.86 111.14 67.81 129.83 C 67.99 136.60 65.09 142.60 63.07 148.86 C 60.31 151.15 56.57 151.14 53.31 152.33 C 50.62 155.27 50.33 161.62 45.03 161.13 C 44.46 153.99 46.73 147.10 47.05 140.02 C 46.98 135.99 53.11 134.79 50.93 129.94 C 50.19 123.82 59.86 115.21 55.17 110.76 C 58.96 105.32 62.84 99.89 64.44 93.36 C 75.73 78.18 87.50 63.26 101.79 50.86 C 111.41 47.01 116.92 37.59 126.88 33.87 C 131.64 31.27 137.23 30.62 141.73 27.36 C 143.46 31.18 147.71 26.99 150.35 26.36 C 157.55 21.94 166.35 22.45 173.91 18.92 Z" />
<path fill="#df92a6" d=" M 150.72 40.71 C 168.89 32.81 188.95 30.44 208.58 30.36 C 233.47 30.79 259.43 34.65 281.77 46.76 C 283.96 58.66 302.07 52.87 303.17 65.83 C 310.25 66.15 319.30 71.96 318.29 80.73 C 322.27 83.59 329.24 83.87 330.56 89.34 C 330.18 93.87 329.48 99.48 332.83 103.11 C 337.36 104.22 342.81 106.67 344.97 111.05 C 344.19 114.28 337.69 115.89 340.50 120.40 C 340.94 126.97 349.07 122.78 351.69 127.24 C 350.18 136.74 354.41 145.37 350.57 154.66 C 352.21 162.17 348.25 171.62 356.95 176.06 C 362.89 182.62 347.51 181.23 352.74 187.16 C 362.40 187.55 361.35 203.33 352.70 204.76 C 347.44 206.07 348.58 211.45 352.81 213.26 C 351.52 220.36 339.55 219.23 340.12 226.83 C 343.14 230.56 345.75 237.53 339.61 239.47 C 332.98 239.89 334.49 247.83 331.84 252.07 C 328.42 251.03 324.57 249.32 322.17 253.20 C 318.91 256.16 324.16 258.90 324.92 261.84 C 320.87 266.51 315.34 268.81 309.76 270.82 C 306.99 271.86 309.04 274.51 309.35 276.50 C 312.12 282.51 302.84 290.69 298.10 284.85 C 292.69 281.66 289.31 286.97 288.27 291.32 C 287.16 295.53 282.08 294.67 278.76 294.61 C 274.08 294.86 271.12 299.17 267.49 301.66 C 263.58 303.94 260.05 297.97 256.71 301.69 C 254.45 303.48 247.55 308.25 254.17 308.40 C 249.37 313.58 241.21 305.90 236.29 311.29 C 232.34 315.88 224.72 308.19 221.94 314.94 C 215.14 323.46 204.46 318.89 195.80 316.56 C 186.82 319.60 178.88 314.16 169.94 315.11 C 163.51 314.70 159.81 308.51 153.03 309.51 C 146.94 303.28 136.68 303.99 131.63 296.36 C 128.24 290.83 120.86 291.80 116.59 287.40 C 113.81 284.83 111.34 281.87 107.96 280.03 C 105.15 268.44 91.12 265.62 87.54 254.61 C 86.05 246.90 76.97 243.27 76.43 235.07 C 76.90 229.35 69.01 227.87 69.43 221.82 C 70.55 212.01 61.31 204.99 63.87 194.99 C 60.56 179.87 65.15 164.91 63.16 149.69 L 63.07 148.86 C 65.09 142.60 67.99 136.60 67.81 129.83 C 72.86 111.14 82.82 93.96 95.76 79.69 C 95.71 86.91 90.17 91.11 84.98 95.04 C 80.06 99.07 87.11 106.28 81.41 109.45 C 72.29 111.59 76.87 123.98 70.72 129.70 C 65.39 134.29 74.00 141.55 68.80 145.81 C 63.67 152.80 64.26 163.15 70.90 169.09 C 74.60 173.83 64.43 175.64 65.97 180.94 C 67.08 185.13 71.53 180.74 74.01 180.13 C 74.77 183.12 73.43 186.91 77.83 186.89 C 77.45 184.91 76.97 182.79 78.98 181.50 C 80.16 185.90 80.70 190.41 81.15 194.93 C 76.33 191.30 66.66 195.53 68.26 201.70 C 73.92 206.96 80.72 213.33 79.19 221.86 C 84.63 233.01 94.65 240.81 100.30 251.83 C 105.91 259.52 109.46 268.55 113.43 277.03 C 112.49 289.23 129.18 283.98 136.60 286.35 C 138.21 292.44 142.97 294.37 148.67 295.31 C 152.35 300.88 158.17 302.18 164.82 301.15 C 167.19 304.37 165.94 310.27 170.37 311.75 C 173.70 312.57 176.71 311.05 179.85 310.42 C 182.90 311.84 184.96 315.35 189.02 314.06 C 192.49 314.08 193.20 308.55 196.92 309.03 C 201.27 310.05 202.05 317.48 207.83 314.96 C 209.43 314.28 210.58 312.39 212.46 312.59 C 220.35 314.77 223.17 304.59 230.06 303.56 C 227.11 301.83 223.00 301.81 220.78 299.10 C 231.28 298.79 242.37 298.10 251.68 292.69 C 258.96 288.50 267.97 289.97 274.91 284.89 C 287.17 276.16 299.85 267.29 309.13 255.14 C 314.60 247.96 322.62 242.63 325.89 233.89 C 331.07 219.17 340.21 205.33 339.10 188.98 C 345.53 172.42 340.26 154.20 337.68 137.13 C 332.68 121.46 325.56 105.54 312.72 94.38 C 317.70 95.78 317.71 86.98 313.88 85.12 C 310.08 83.40 315.19 78.09 310.87 77.15 C 304.64 72.20 295.11 67.41 293.76 59.18 C 282.09 60.74 280.03 46.42 269.34 44.67 C 257.54 46.54 249.15 34.17 237.00 38.00 C 230.69 40.73 226.67 34.31 221.14 32.85 C 216.51 31.50 211.56 32.25 206.79 32.02 C 188.71 31.68 170.36 34.98 153.28 41.26 C 145.25 46.43 136.23 51.07 126.82 52.46 C 134.39 47.64 143.50 46.17 150.72 40.71 Z" />
<path fill="#e8adbb" d=" M 153.28 41.26 C 170.36 34.98 188.71 31.68 206.79 32.02 C 211.32 40.29 222.43 33.16 227.42 41.59 C 235.84 43.34 244.98 45.66 253.17 45.79 C 255.10 53.90 265.19 45.27 268.83 51.30 C 269.54 53.95 267.12 56.02 265.91 58.10 C 263.16 57.25 260.55 56.06 257.95 54.85 C 246.48 50.89 234.24 48.35 222.10 47.74 C 217.74 47.15 213.34 46.75 208.95 47.04 C 208.94 52.05 217.72 47.33 218.85 52.11 C 220.18 54.98 220.12 59.72 224.33 59.57 C 229.22 58.54 233.02 61.93 237.16 63.94 C 241.50 64.36 244.77 60.74 246.34 57.07 C 253.51 53.78 252.68 63.85 246.97 62.37 C 248.24 68.57 257.27 64.87 260.62 69.41 C 264.71 73.76 269.89 76.74 275.57 78.51 C 278.04 78.79 277.56 83.48 275.02 83.28 C 273.69 82.30 272.34 81.35 270.94 80.50 C 269.77 79.73 268.59 78.97 267.41 78.22 C 261.18 71.66 251.30 75.41 244.72 69.46 C 228.55 66.26 212.41 62.47 195.86 62.94 C 207.25 63.16 197.94 55.17 194.04 51.94 C 189.11 50.87 182.73 55.57 178.87 50.35 C 186.57 47.40 194.98 47.66 203.06 48.56 C 206.35 48.68 210.37 44.05 206.34 41.67 C 201.72 34.30 192.61 40.14 185.84 38.22 C 177.64 34.43 170.17 42.36 162.05 42.05 C 155.62 41.73 149.80 45.07 145.84 49.89 C 134.41 51.20 121.44 56.62 116.16 67.17 C 105.27 71.98 98.91 84.13 96.48 95.43 C 94.89 98.84 95.70 102.60 98.98 104.22 C 103.40 99.88 107.53 95.27 111.77 90.76 C 109.22 95.91 115.94 103.27 109.76 106.80 C 101.73 109.24 101.26 117.82 102.58 124.71 C 99.70 129.40 97.61 134.76 93.28 138.35 C 92.93 141.59 94.93 151.14 99.28 146.24 C 98.27 152.03 98.27 157.90 97.22 163.70 C 97.14 165.12 97.05 166.54 96.96 167.96 C 94.16 171.82 90.58 167.18 88.40 164.99 C 91.79 157.35 85.30 150.77 85.86 143.10 C 81.16 142.89 81.05 151.42 81.03 154.68 C 80.01 163.59 79.43 172.54 78.98 181.50 C 76.97 182.79 77.45 184.91 77.83 186.89 C 73.43 186.91 74.77 183.12 74.01 180.13 C 71.53 180.74 67.08 185.13 65.97 180.94 C 64.43 175.64 74.60 173.83 70.90 169.09 C 64.26 163.15 63.67 152.80 68.80 145.81 C 74.00 141.55 65.39 134.29 70.72 129.70 C 76.87 123.98 72.29 111.59 81.41 109.45 C 87.11 106.28 80.06 99.07 84.98 95.04 C 90.17 91.11 95.71 86.91 95.76 79.69 C 103.99 68.63 115.79 60.35 126.82 52.46 C 136.23 51.07 145.25 46.43 153.28 41.26 Z" />
<path fill="#e3a0b1" d=" M 206.79 32.02 C 211.56 32.25 216.51 31.50 221.14 32.85 C 226.67 34.31 230.69 40.73 237.00 38.00 C 249.15 34.17 257.54 46.54 269.34 44.67 C 280.03 46.42 282.09 60.74 293.76 59.18 C 295.11 67.41 304.64 72.20 310.87 77.15 C 315.19 78.09 310.08 83.40 313.88 85.12 C 317.71 86.98 317.70 95.78 312.72 94.38 C 309.61 89.99 307.29 84.89 302.79 81.66 C 295.80 77.02 289.68 71.00 281.97 67.50 C 275.63 65.99 272.25 59.82 265.91 58.10 C 267.12 56.02 269.54 53.95 268.83 51.30 C 265.19 45.27 255.10 53.90 253.17 45.79 C 244.98 45.66 235.84 43.34 227.42 41.59 C 222.43 33.16 211.32 40.29 206.79 32.02 Z" />
<path fill="#edbfc8" d=" M 162.05 42.05 C 170.17 42.36 177.64 34.43 185.84 38.22 C 192.61 40.14 201.72 34.30 206.34 41.67 C 210.37 44.05 206.35 48.68 203.06 48.56 C 194.98 47.66 186.57 47.40 178.87 50.35 C 182.73 55.57 189.11 50.87 194.04 51.94 C 197.94 55.17 207.25 63.16 195.86 62.94 C 194.81 63.34 193.79 63.81 192.78 64.32 C 191.23 64.88 189.69 65.78 187.98 65.53 C 189.46 62.68 183.57 61.45 181.82 59.40 C 178.35 60.94 174.31 64.56 170.77 61.23 C 164.49 55.87 157.38 60.92 150.66 61.63 C 148.94 65.30 150.66 75.96 142.99 72.70 C 139.59 71.39 138.11 75.89 134.90 75.35 C 127.75 74.75 129.53 82.86 128.85 86.83 C 123.03 87.02 115.55 90.98 117.20 98.05 C 117.70 100.56 115.49 106.78 119.85 103.88 C 115.86 112.77 108.06 119.87 106.23 129.67 C 102.87 134.71 101.15 140.53 99.28 146.24 C 94.93 151.14 92.93 141.59 93.28 138.35 C 97.61 134.76 99.70 129.40 102.58 124.71 C 101.26 117.82 101.73 109.24 109.76 106.80 C 115.94 103.27 109.22 95.91 111.77 90.76 C 107.53 95.27 103.40 99.88 98.98 104.22 C 95.70 102.60 94.89 98.84 96.48 95.43 C 98.91 84.13 105.27 71.98 116.16 67.17 C 121.44 56.62 134.41 51.20 145.84 49.89 C 149.80 45.07 155.62 41.73 162.05 42.05 Z" />
<path fill="#e6b9c3" d=" M 300.88 40.22 C 301.39 40.16 302.40 40.04 302.91 39.97 C 312.30 42.72 317.09 53.45 326.90 56.13 C 339.60 65.83 350.07 79.04 356.12 93.92 C 364.91 103.15 366.83 115.91 371.75 127.15 C 375.08 141.18 383.74 154.30 380.66 169.41 C 374.94 164.63 367.81 158.89 369.59 150.59 C 373.87 146.93 373.58 140.26 368.98 137.02 C 364.82 133.77 361.64 129.02 361.40 123.61 C 361.38 115.61 349.71 111.43 352.84 102.90 C 355.27 97.73 353.73 91.89 348.12 89.83 C 342.35 88.14 343.72 79.75 337.17 79.73 C 333.11 76.21 327.86 72.46 322.11 73.88 C 319.01 69.59 315.19 65.52 310.07 63.77 C 303.05 56.10 293.22 52.91 284.42 48.17 C 286.96 46.07 290.46 44.55 293.67 44.42 C 298.28 50.09 304.89 53.36 312.13 49.90 C 309.17 45.86 304.50 43.60 300.88 40.22 Z" />
<path fill="#e5a2b0" d=" M 208.95 47.04 C 213.34 46.75 217.74 47.15 222.10 47.74 C 221.92 50.03 221.99 52.46 224.14 53.83 C 226.95 52.66 229.31 50.25 232.74 51.10 C 235.30 53.02 234.68 56.96 237.25 58.86 C 242.17 60.73 243.59 52.30 249.04 54.94 C 252.10 54.67 255.87 56.72 254.68 60.24 C 253.71 65.28 261.98 61.82 261.94 66.08 C 262.03 70.37 268.38 64.48 268.83 69.13 C 270.00 73.88 275.12 72.74 278.70 72.28 C 283.73 74.25 281.51 82.13 286.45 84.45 C 289.74 86.06 291.73 89.33 294.89 91.14 C 299.86 92.84 301.59 102.87 294.70 102.47 C 291.75 98.88 288.54 95.38 284.02 93.89 C 280.72 90.72 278.78 86.14 275.02 83.28 C 277.56 83.48 278.04 78.79 275.57 78.51 C 269.89 76.74 264.71 73.76 260.62 69.41 C 257.27 64.87 248.24 68.57 246.97 62.37 C 252.68 63.85 253.51 53.78 246.34 57.07 C 244.77 60.74 241.50 64.36 237.16 63.94 C 233.02 61.93 229.22 58.54 224.33 59.57 C 220.12 59.72 220.18 54.98 218.85 52.11 C 217.72 47.33 208.94 52.05 208.95 47.04 Z" />
<path fill="#d8869d" d=" M 303.17 65.83 C 302.07 52.87 283.96 58.66 281.77 46.76 C 282.64 47.24 283.53 47.71 284.42 48.17 C 293.22 52.91 303.05 56.10 310.07 63.77 C 314.48 67.98 318.98 71.95 321.21 77.75 C 327.98 80.73 335.81 86.40 334.55 94.79 C 333.53 98.03 337.70 98.12 339.63 99.42 C 345.81 103.17 348.82 110.34 348.85 117.36 C 351.79 123.19 358.97 127.43 356.48 135.02 C 358.65 140.25 364.95 148.50 356.65 151.67 C 351.47 155.40 360.05 155.68 361.84 158.26 C 364.29 167.31 364.64 177.38 360.35 185.96 C 363.39 192.74 361.15 199.80 358.27 206.22 C 357.28 213.89 353.91 223.32 345.50 225.34 C 347.09 229.49 345.08 235.91 348.92 238.29 C 348.26 239.69 347.28 240.91 346.26 242.07 C 340.66 242.84 339.93 249.86 336.28 253.28 C 328.73 260.95 325.32 272.15 315.30 277.31 C 311.94 289.33 297.94 288.72 290.60 296.59 C 286.84 299.53 282.04 300.18 277.43 299.27 C 275.36 309.11 261.75 306.07 255.68 311.63 C 249.79 316.92 241.35 315.14 234.56 318.51 C 231.08 316.24 218.33 321.26 228.27 321.34 C 214.41 326.60 200.48 319.93 186.67 320.15 C 181.90 319.40 177.17 318.26 172.31 318.15 C 171.70 317.91 170.49 317.44 169.88 317.21 C 169.89 316.68 169.92 315.63 169.94 315.11 C 178.88 314.16 186.82 319.60 195.80 316.56 C 204.46 318.89 215.14 323.46 221.94 314.94 C 224.72 308.19 232.34 315.88 236.29 311.29 C 241.21 305.90 249.37 313.58 254.17 308.40 C 247.55 308.25 254.45 303.48 256.71 301.69 C 260.05 297.97 263.58 303.94 267.49 301.66 C 271.12 299.17 274.08 294.86 278.76 294.61 C 282.08 294.67 287.16 295.53 288.27 291.32 C 289.31 286.97 292.69 281.66 298.10 284.85 C 302.84 290.69 312.12 282.51 309.35 276.50 C 309.04 274.51 306.99 271.86 309.76 270.82 C 315.34 268.81 320.87 266.51 324.92 261.84 C 324.16 258.90 318.91 256.16 322.17 253.20 C 324.57 249.32 328.42 251.03 331.84 252.07 C 334.49 247.83 332.98 239.89 339.61 239.47 C 345.75 237.53 343.14 230.56 340.12 226.83 C 339.55 219.23 351.52 220.36 352.81 213.26 C 348.58 211.45 347.44 206.07 352.70 204.76 C 361.35 203.33 362.40 187.55 352.74 187.16 C 347.51 181.23 362.89 182.62 356.95 176.06 C 348.25 171.62 352.21 162.17 350.57 154.66 C 354.41 145.37 350.18 136.74 351.69 127.24 C 349.07 122.78 340.94 126.97 340.50 120.40 C 337.69 115.89 344.19 114.28 344.97 111.05 C 342.81 106.67 337.36 104.22 332.83 103.11 C 329.48 99.48 330.18 93.87 330.56 89.34 C 329.24 83.87 322.27 83.59 318.29 80.73 C 319.30 71.96 310.25 66.15 303.17 65.83 Z" />
<path fill="#e395a7" d=" M 222.10 47.74 C 234.24 48.35 246.48 50.89 257.95 54.85 C 257.67 56.19 256.00 58.39 258.45 58.39 C 264.48 58.90 268.53 63.58 272.00 68.00 C 274.49 72.01 280.86 68.18 283.74 72.29 C 288.74 78.69 295.88 82.72 300.74 89.22 C 304.43 93.50 300.80 100.59 305.76 104.21 C 313.04 110.22 314.42 120.17 318.79 128.08 C 320.54 134.02 327.41 137.98 325.46 144.84 C 325.43 150.18 331.79 154.51 328.76 159.72 C 327.19 166.16 329.70 172.94 331.84 179.04 C 330.40 181.99 327.79 184.23 326.00 186.97 C 321.76 190.99 327.46 197.82 322.71 201.71 C 317.53 205.91 322.59 214.28 316.60 217.52 C 308.57 221.75 312.29 232.60 306.79 238.81 C 305.24 241.16 302.18 239.14 300.09 238.73 C 299.00 232.02 305.29 227.30 305.03 220.82 C 314.26 210.42 311.46 195.40 319.63 184.60 C 318.71 176.10 320.57 167.81 320.51 159.39 C 317.58 146.32 317.79 128.11 304.59 120.41 C 304.92 112.75 299.10 107.82 294.70 102.47 C 301.59 102.87 299.86 92.84 294.89 91.14 C 291.73 89.33 289.74 86.06 286.45 84.45 C 281.51 82.13 283.73 74.25 278.70 72.28 C 275.12 72.74 270.00 73.88 268.83 69.13 C 268.38 64.48 262.03 70.37 261.94 66.08 C 261.98 61.82 253.71 65.28 254.68 60.24 C 255.87 56.72 252.10 54.67 249.04 54.94 C 243.59 52.30 242.17 60.73 237.25 58.86 C 234.68 56.96 235.30 53.02 232.74 51.10 C 229.31 50.25 226.95 52.66 224.14 53.83 C 221.99 52.46 221.92 50.03 222.10 47.74 Z" />
<path fill="#e08ca0" d=" M 257.95 54.85 C 260.55 56.06 263.16 57.25 265.91 58.10 C 272.25 59.82 275.63 65.99 281.97 67.50 C 288.14 77.39 307.86 83.05 306.29 98.67 C 316.96 99.44 313.50 113.43 322.20 116.64 C 325.78 119.04 321.85 124.64 323.67 128.19 C 323.59 132.91 329.00 132.26 331.80 134.25 C 334.26 137.92 331.29 142.08 331.06 145.89 C 332.27 148.96 334.72 151.61 335.03 155.00 C 334.13 158.92 329.99 163.57 333.71 167.29 C 338.13 171.43 333.69 177.64 335.69 182.70 C 333.99 185.59 329.26 184.82 328.24 188.30 C 326.33 193.01 334.24 194.95 332.78 199.69 C 331.74 203.37 325.99 201.39 325.00 205.07 C 324.77 212.28 323.82 219.93 315.71 222.73 C 312.32 225.76 317.29 229.39 316.70 232.52 C 310.70 233.74 312.29 243.69 305.37 242.55 C 300.18 240.92 295.77 246.80 296.58 251.68 C 293.82 255.63 290.54 259.23 288.81 263.82 C 284.43 265.89 275.93 263.72 274.47 270.37 C 273.74 275.39 268.84 271.49 265.98 270.98 C 261.19 271.29 259.45 277.35 255.08 278.75 C 251.98 277.15 248.57 276.87 245.34 278.31 C 242.96 280.65 243.65 284.86 240.73 286.87 C 237.22 287.63 234.96 283.02 231.36 284.10 C 230.77 287.26 230.51 291.58 227.04 293.09 C 221.79 297.01 217.02 284.83 212.39 290.25 C 213.80 294.01 210.61 296.52 207.10 296.82 C 204.66 294.33 204.51 290.36 201.74 288.12 C 195.83 286.47 196.31 297.32 190.34 294.68 C 183.64 291.97 174.71 291.99 170.35 285.64 C 163.74 287.15 163.70 280.86 161.77 276.98 C 156.64 274.88 153.77 279.44 151.61 282.97 C 145.87 279.42 138.79 276.85 134.98 270.98 C 122.53 264.22 112.95 252.76 104.58 241.42 C 90.29 229.96 87.38 211.09 81.15 194.93 C 80.70 190.41 80.16 185.90 78.98 181.50 C 79.43 172.54 80.01 163.59 81.03 154.68 C 84.88 155.74 82.80 161.31 83.38 163.86 C 82.40 169.61 92.91 170.42 89.35 176.34 C 87.78 178.84 84.22 181.68 87.70 184.29 C 93.20 189.38 87.81 198.77 93.81 203.18 C 95.73 205.86 99.31 209.37 96.66 212.69 C 93.12 217.39 99.34 221.52 101.62 225.38 C 105.52 228.83 104.52 237.14 111.54 236.58 C 114.87 237.81 112.66 243.95 116.99 244.01 C 122.28 244.16 123.26 251.17 127.84 252.00 C 129.55 248.19 127.38 244.47 125.72 241.11 C 132.24 245.10 137.77 250.56 144.05 254.91 C 148.42 256.60 152.69 258.54 155.81 262.20 C 179.84 276.31 210.07 281.31 236.91 272.97 C 248.25 271.78 260.05 267.48 267.61 258.69 C 276.82 255.56 284.00 248.10 289.20 240.16 C 296.45 235.57 301.35 228.41 305.03 220.82 C 305.29 227.30 299.00 232.02 300.09 238.73 C 302.18 239.14 305.24 241.16 306.79 238.81 C 312.29 232.60 308.57 221.75 316.60 217.52 C 322.59 214.28 317.53 205.91 322.71 201.71 C 327.46 197.82 321.76 190.99 326.00 186.97 C 327.79 184.23 330.40 181.99 331.84 179.04 C 329.70 172.94 327.19 166.16 328.76 159.72 C 331.79 154.51 325.43 150.18 325.46 144.84 C 327.41 137.98 320.54 134.02 318.79 128.08 C 314.42 120.17 313.04 110.22 305.76 104.21 C 300.80 100.59 304.43 93.50 300.74 89.22 C 295.88 82.72 288.74 78.69 283.74 72.29 C 280.86 68.18 274.49 72.01 272.00 68.00 C 268.53 63.58 264.48 58.90 258.45 58.39 C 256.00 58.39 257.67 56.19 257.95 54.85 Z" />
<path fill="#f0c9cf" d=" M 150.66 61.63 C 157.38 60.92 164.49 55.87 170.77 61.23 C 174.31 64.56 178.35 60.94 181.82 59.40 C 183.57 61.45 189.46 62.68 187.98 65.53 C 177.66 64.37 166.62 68.79 158.68 75.42 C 149.38 76.23 144.12 84.31 136.45 88.49 C 132.79 95.64 124.56 97.75 119.85 103.88 C 115.49 106.78 117.70 100.56 117.20 98.05 C 115.55 90.98 123.03 87.02 128.85 86.83 C 129.53 82.86 127.75 74.75 134.90 75.35 C 138.11 75.89 139.59 71.39 142.99 72.70 C 150.66 75.96 148.94 65.30 150.66 61.63 Z" />
<path fill="#d26483" d=" M 192.78 64.32 C 193.79 63.81 194.81 63.34 195.86 62.94 C 212.41 62.47 228.55 66.26 244.72 69.46 C 251.30 75.41 261.18 71.66 267.41 78.22 C 261.64 77.19 255.73 73.61 249.28 75.80 C 245.72 68.07 236.44 71.20 229.89 68.33 C 217.62 66.69 205.55 64.00 192.78 64.32 Z" />
<path fill="#de8799" d=" M 187.98 65.53 C 189.69 65.78 191.23 64.88 192.78 64.32 C 205.55 64.00 217.62 66.69 229.89 68.33 C 236.44 71.20 245.72 68.07 249.28 75.80 C 255.73 73.61 261.64 77.19 267.41 78.22 C 268.59 78.97 269.77 79.73 270.94 80.50 C 269.47 83.07 274.18 83.94 275.22 85.80 C 279.48 88.65 279.70 96.02 285.61 96.55 C 291.90 98.05 292.06 105.97 297.51 108.52 C 300.17 111.67 302.87 115.87 301.33 120.16 C 300.34 123.25 304.59 123.63 306.56 124.58 C 311.84 126.70 310.18 133.78 313.31 137.70 C 319.62 144.73 314.52 154.85 318.17 162.98 C 320.43 168.45 313.87 173.11 317.26 178.71 C 320.73 187.13 309.61 191.03 310.86 198.98 C 306.40 212.11 296.66 221.46 292.31 234.34 C 285.84 232.74 282.57 237.33 281.57 242.65 C 277.89 245.87 273.92 248.79 270.61 252.44 C 263.80 251.26 262.44 259.02 257.20 261.20 C 251.29 263.52 245.61 267.05 239.04 267.09 C 223.48 275.72 203.19 276.40 186.92 269.36 C 180.77 269.69 173.45 268.95 169.71 263.42 C 162.46 265.23 156.62 260.59 153.02 254.94 C 144.03 255.78 138.00 247.71 131.87 242.11 C 122.46 238.49 120.74 227.73 112.99 222.03 C 108.96 212.69 102.85 204.47 100.79 194.25 C 101.24 183.88 97.76 174.05 97.22 163.70 C 98.27 157.90 98.27 152.03 99.28 146.24 C 101.15 140.53 102.87 134.71 106.23 129.67 C 107.68 132.15 105.65 134.35 104.47 136.43 C 98.42 146.36 101.12 157.28 102.81 167.91 C 101.00 171.74 97.86 177.18 103.01 179.97 C 108.50 183.08 99.55 189.99 104.21 193.79 C 109.71 197.58 105.36 205.12 110.97 208.97 C 111.35 216.34 115.68 226.96 124.77 226.34 C 128.58 229.86 128.61 238.98 136.03 236.99 C 140.26 236.70 138.11 243.30 141.46 244.42 C 145.20 244.22 147.43 246.51 148.65 249.53 C 152.15 250.47 159.34 248.62 159.98 254.01 C 161.37 259.73 170.21 254.65 173.19 258.87 C 176.71 262.60 183.17 264.00 187.84 261.84 C 193.73 258.38 192.80 271.98 200.03 267.95 C 203.12 267.62 205.57 269.53 208.16 270.84 C 211.41 271.22 213.45 264.54 216.92 267.06 C 221.76 271.31 227.79 265.42 232.13 263.19 C 235.33 259.25 240.87 263.37 244.65 260.63 C 255.81 253.70 268.64 248.65 276.41 237.55 C 277.06 233.15 280.68 230.70 284.63 229.44 C 292.88 218.23 304.16 207.04 304.33 192.27 C 308.51 188.70 316.04 184.70 312.00 178.01 C 308.88 173.48 315.27 169.28 313.39 164.66 C 310.45 158.51 309.43 151.64 311.61 145.14 C 305.61 140.40 307.00 131.06 299.29 127.75 C 295.86 125.61 298.06 120.94 295.88 118.06 C 290.85 112.00 288.54 103.35 280.73 100.22 C 275.00 88.01 262.82 79.06 249.02 79.92 C 241.70 76.45 233.62 76.06 226.34 72.69 C 219.83 74.28 216.38 67.88 210.56 67.52 C 203.62 67.44 195.79 63.72 189.84 68.86 C 179.04 65.01 168.64 71.67 158.68 75.42 C 166.62 68.79 177.66 64.37 187.98 65.53 Z" />
<path fill="#d27892" d=" M 310.07 63.77 C 315.19 65.52 319.01 69.59 322.11 73.88 C 333.89 84.85 346.18 97.32 350.85 113.17 C 356.54 121.86 360.33 131.56 363.40 141.47 C 366.44 164.61 367.95 189.03 359.15 211.10 C 356.95 220.69 350.74 228.61 348.92 238.29 C 345.08 235.91 347.09 229.49 345.50 225.34 C 353.91 223.32 357.28 213.89 358.27 206.22 C 361.15 199.80 363.39 192.74 360.35 185.96 C 364.64 177.38 364.29 167.31 361.84 158.26 C 360.05 155.68 351.47 155.40 356.65 151.67 C 364.95 148.50 358.65 140.25 356.48 135.02 C 358.97 127.43 351.79 123.19 348.85 117.36 C 348.82 110.34 345.81 103.17 339.63 99.42 C 337.70 98.12 333.53 98.03 334.55 94.79 C 335.81 86.40 327.98 80.73 321.21 77.75 C 318.98 71.95 314.48 67.98 310.07 63.77 Z" />
<path fill="#e39da9" d=" M 189.84 68.86 C 195.79 63.72 203.62 67.44 210.56 67.52 C 216.38 67.88 219.83 74.28 226.34 72.69 C 233.62 76.06 241.70 76.45 249.02 79.92 C 262.82 79.06 275.00 88.01 280.73 100.22 C 288.54 103.35 290.85 112.00 295.88 118.06 C 298.06 120.94 295.86 125.61 299.29 127.75 C 307.00 131.06 305.61 140.40 311.61 145.14 C 309.43 151.64 310.45 158.51 313.39 164.66 C 315.27 169.28 308.88 173.48 312.00 178.01 C 316.04 184.70 308.51 188.70 304.33 192.27 C 304.16 207.04 292.88 218.23 284.63 229.44 C 280.68 230.70 277.06 233.15 276.41 237.55 C 268.64 248.65 255.81 253.70 244.65 260.63 C 240.87 263.37 235.33 259.25 232.13 263.19 C 227.79 265.42 221.76 271.31 216.92 267.06 C 213.45 264.54 211.41 271.22 208.16 270.84 C 205.57 269.53 203.12 267.62 200.03 267.95 C 192.80 271.98 193.73 258.38 187.84 261.84 C 183.17 264.00 176.71 262.60 173.19 258.87 C 170.21 254.65 161.37 259.73 159.98 254.01 C 159.34 248.62 152.15 250.47 148.65 249.53 C 147.43 246.51 145.20 244.22 141.46 244.42 C 138.11 243.30 140.26 236.70 136.03 236.99 C 128.61 238.98 128.58 229.86 124.77 226.34 C 115.68 226.96 111.35 216.34 110.97 208.97 C 105.36 205.12 109.71 197.58 104.21 193.79 C 99.55 189.99 108.50 183.08 103.01 179.97 C 97.86 177.18 101.00 171.74 102.81 167.91 C 101.12 157.28 98.42 146.36 104.47 136.43 C 105.65 134.35 107.68 132.15 106.23 129.67 C 108.06 119.87 115.86 112.77 119.85 103.88 C 124.56 97.75 132.79 95.64 136.45 88.49 C 144.12 84.31 149.38 76.23 158.68 75.42 C 168.64 71.67 179.04 65.01 189.84 68.86 Z" />
<path fill="#db7c95" d=" M 306.29 98.67 C 307.86 83.05 288.14 77.39 281.97 67.50 C 289.68 71.00 295.80 77.02 302.79 81.66 C 308.61 94.73 319.95 104.00 327.13 115.88 C 325.66 124.44 334.07 128.57 335.74 136.11 C 335.63 139.87 334.20 144.12 336.55 147.53 C 340.62 153.44 338.27 161.05 338.43 167.67 C 339.23 173.06 340.49 178.91 338.06 184.08 C 334.88 189.64 338.33 196.51 335.11 202.10 C 330.67 208.39 332.77 218.11 325.28 222.32 C 324.22 233.11 318.76 243.75 308.98 248.99 C 304.48 252.98 302.71 260.10 295.77 260.80 C 295.34 267.31 289.34 270.23 283.68 269.77 C 279.54 282.51 265.41 287.10 253.31 288.39 C 248.81 290.73 245.21 296.14 239.38 294.54 C 232.30 293.76 225.56 299.79 218.52 295.53 C 216.69 293.87 210.40 298.94 215.14 298.21 C 192.81 301.17 171.15 292.97 151.61 282.97 C 153.77 279.44 156.64 274.88 161.77 276.98 C 163.70 280.86 163.74 287.15 170.35 285.64 C 174.71 291.99 183.64 291.97 190.34 294.68 C 196.31 297.32 195.83 286.47 201.74 288.12 C 204.51 290.36 204.66 294.33 207.10 296.82 C 210.61 296.52 213.80 294.01 212.39 290.25 C 217.02 284.83 221.79 297.01 227.04 293.09 C 230.51 291.58 230.77 287.26 231.36 284.10 C 234.96 283.02 237.22 287.63 240.73 286.87 C 243.65 284.86 242.96 280.65 245.34 278.31 C 248.57 276.87 251.98 277.15 255.08 278.75 C 259.45 277.35 261.19 271.29 265.98 270.98 C 268.84 271.49 273.74 275.39 274.47 270.37 C 275.93 263.72 284.43 265.89 288.81 263.82 C 290.54 259.23 293.82 255.63 296.58 251.68 C 295.77 246.80 300.18 240.92 305.37 242.55 C 312.29 243.69 310.70 233.74 316.70 232.52 C 317.29 229.39 312.32 225.76 315.71 222.73 C 323.82 219.93 324.77 212.28 325.00 205.07 C 325.99 201.39 331.74 203.37 332.78 199.69 C 334.24 194.95 326.33 193.01 328.24 188.30 C 329.26 184.82 333.99 185.59 335.69 182.70 C 333.69 177.64 338.13 171.43 333.71 167.29 C 329.99 163.57 334.13 158.92 335.03 155.00 C 334.72 151.61 332.27 148.96 331.06 145.89 C 331.29 142.08 334.26 137.92 331.80 134.25 C 329.00 132.26 323.59 132.91 323.67 128.19 C 321.85 124.64 325.78 119.04 322.20 116.64 C 313.50 113.43 316.96 99.44 306.29 98.67 Z" />
<path fill="#e8b3b8" d=" M 182.73 70.31 C 187.89 73.61 193.70 72.84 199.34 71.44 C 212.29 73.28 223.42 81.43 236.99 81.06 C 252.03 85.74 268.43 90.30 277.46 104.60 C 282.92 113.92 293.13 119.93 294.90 131.16 C 306.22 147.56 306.09 168.90 302.81 187.86 C 297.23 193.79 296.38 202.27 291.76 208.74 C 288.58 211.51 285.64 214.57 284.82 218.85 C 275.55 225.07 270.74 235.19 262.27 242.28 C 250.75 253.18 234.85 256.75 220.09 260.30 C 210.63 259.83 200.42 264.60 192.01 258.03 C 174.88 255.76 158.94 247.26 143.83 239.17 C 139.22 233.80 134.45 228.52 129.69 223.35 C 123.37 222.45 117.87 216.80 118.86 210.08 C 108.39 194.39 107.84 174.64 109.43 156.63 C 104.09 150.52 105.04 140.18 109.93 133.94 C 106.62 127.58 114.08 123.33 114.35 117.27 C 120.75 113.09 120.27 102.85 127.99 99.98 C 134.09 99.29 133.86 92.02 138.80 89.82 C 145.65 86.65 150.80 80.24 158.65 79.69 C 164.40 72.55 174.18 71.31 182.73 70.31 Z" />
<path fill="#e2afba" d=" M 322.11 73.88 C 327.86 72.46 333.11 76.21 337.17 79.73 C 343.72 79.75 342.35 88.14 348.12 89.83 C 353.73 91.89 355.27 97.73 352.84 102.90 C 349.71 111.43 361.38 115.61 361.40 123.61 C 361.64 129.02 364.82 133.77 368.98 137.02 C 373.58 140.26 373.87 146.93 369.59 150.59 C 367.81 158.89 374.94 164.63 380.66 169.41 C 383.75 181.71 380.53 194.61 382.97 207.03 C 383.36 214.69 378.46 221.12 376.24 228.13 C 375.23 233.12 375.51 238.40 373.48 243.16 C 373.10 239.06 373.30 234.96 373.92 230.90 C 370.27 232.37 367.44 236.06 363.33 236.04 C 362.61 232.98 362.53 229.64 360.88 226.87 C 356.11 231.59 350.24 236.25 349.35 243.43 C 342.65 249.50 344.08 259.96 337.00 266.00 C 329.47 273.25 324.02 282.34 315.95 288.97 C 310.12 296.38 301.74 303.22 302.50 313.64 C 300.24 318.32 307.54 320.12 310.69 318.71 C 320.41 311.98 329.93 304.52 336.77 294.80 C 342.37 293.40 344.73 287.93 348.95 284.84 C 346.85 293.61 336.19 296.52 332.29 304.30 C 326.39 314.49 315.47 319.06 305.07 323.09 C 298.25 330.34 287.63 329.17 279.97 334.92 C 274.84 337.38 269.02 337.71 263.58 339.23 C 265.22 333.48 279.09 337.14 280.09 329.12 C 274.61 321.07 268.55 326.79 264.60 331.78 C 259.75 330.81 250.57 330.64 250.86 323.97 C 243.33 322.85 239.17 330.36 237.27 336.25 C 231.03 343.26 228.00 326.22 221.71 329.67 C 218.39 331.27 213.54 331.32 212.45 335.57 C 211.15 339.71 203.43 336.17 205.45 332.39 C 207.95 326.38 199.99 322.12 194.98 323.15 C 191.76 323.22 187.66 323.97 186.67 320.15 C 200.48 319.93 214.41 326.60 228.27 321.34 C 236.73 322.17 244.93 319.44 252.84 316.77 C 261.70 312.12 272.50 312.75 280.69 306.65 C 308.46 292.96 332.89 270.27 346.26 242.07 C 347.28 240.91 348.26 239.69 348.92 238.29 C 350.74 228.61 356.95 220.69 359.15 211.10 C 367.95 189.03 366.44 164.61 363.40 141.47 C 360.33 131.56 356.54 121.86 350.85 113.17 C 346.18 97.32 333.89 84.85 322.11 73.88 Z" />
<path fill="#eabfc0" d=" M 157.91 86.02 C 169.32 76.38 185.31 79.33 199.01 76.07 C 206.57 78.00 214.56 79.43 221.21 83.73 C 225.47 87.20 212.75 82.50 214.54 87.33 C 215.58 90.51 211.59 96.11 216.23 96.60 C 220.15 96.27 222.84 89.25 227.35 91.56 C 232.03 92.48 226.12 101.09 231.05 101.98 C 234.30 101.38 240.72 97.16 241.82 102.10 C 241.91 108.81 251.34 106.81 253.75 112.22 C 256.77 115.03 259.10 110.54 261.83 109.80 C 261.17 113.23 258.57 117.22 261.96 120.02 C 263.53 123.83 270.97 119.11 269.61 124.40 C 265.67 130.36 276.30 130.99 274.41 136.33 C 272.41 141.33 280.55 142.04 279.66 146.69 C 277.12 155.60 277.50 165.55 281.70 173.91 C 278.28 176.21 275.11 178.94 274.16 183.10 C 271.11 192.57 262.27 199.14 259.87 208.91 C 258.69 213.85 253.12 215.60 250.71 219.81 C 246.84 219.73 242.65 218.42 239.78 221.79 C 234.77 231.86 220.74 230.89 211.13 230.18 C 200.82 236.49 189.62 229.14 179.83 225.16 C 175.00 219.35 165.74 226.06 162.26 218.79 C 155.91 219.84 155.23 214.54 153.68 210.37 C 146.64 207.80 138.97 205.34 137.14 196.96 C 137.32 193.68 130.94 193.09 133.81 189.81 C 137.36 186.83 130.45 183.15 127.97 185.00 C 124.11 184.98 122.64 178.09 126.23 176.20 C 129.31 172.66 122.12 171.73 122.95 168.00 C 122.80 165.02 125.39 163.47 127.89 162.71 C 122.70 159.11 122.70 145.11 131.99 149.92 C 133.05 145.85 128.36 150.20 127.10 147.76 C 123.88 144.13 132.69 137.54 127.13 135.83 C 131.52 131.91 131.71 122.17 138.09 121.98 C 137.63 125.53 135.65 128.63 134.95 132.13 C 138.50 131.67 141.62 127.28 144.98 131.27 C 146.71 140.47 138.44 146.80 136.06 154.97 C 135.55 163.84 128.98 173.66 135.04 181.96 C 144.83 185.74 140.39 199.66 150.15 203.74 C 154.87 205.40 157.09 209.86 160.47 213.09 C 160.54 216.79 166.39 216.98 169.02 218.53 C 176.82 216.73 182.96 223.97 190.76 222.68 C 195.08 228.04 208.83 231.03 207.86 221.26 C 199.88 215.68 185.01 220.24 181.12 208.48 C 183.49 207.75 185.58 206.48 187.25 204.64 C 193.68 206.15 200.28 207.22 206.85 206.26 C 211.96 209.21 217.79 206.97 222.68 204.64 C 228.59 196.47 239.45 193.35 243.53 183.61 C 244.61 179.95 247.95 177.82 249.79 174.65 C 252.19 170.52 246.29 167.44 248.61 163.64 C 255.04 151.64 247.36 135.85 235.57 130.60 C 227.71 131.70 224.91 121.31 216.94 123.05 C 212.16 123.08 208.98 117.84 204.13 118.27 C 199.69 119.36 195.45 121.05 191.17 122.59 C 186.19 121.82 191.37 117.28 194.50 118.41 C 197.42 110.23 205.59 106.16 213.76 105.58 C 217.04 106.51 220.21 109.62 223.70 107.79 C 226.48 105.29 225.56 101.16 224.78 97.98 C 221.21 98.23 218.28 100.66 214.98 101.79 C 210.70 99.98 206.57 97.77 202.89 94.93 C 200.99 96.33 200.06 100.39 197.39 97.70 C 197.40 93.75 196.45 89.95 195.36 86.19 C 198.03 84.41 203.36 84.73 203.96 81.19 C 200.20 79.74 196.10 80.16 192.28 81.22 C 188.61 82.68 192.23 89.49 187.99 89.09 C 186.28 89.43 186.11 86.96 185.16 86.01 C 178.48 79.17 167.27 87.69 159.78 90.56 C 148.32 92.31 141.84 103.10 132.24 108.34 C 126.88 117.71 118.92 126.53 118.84 137.96 C 118.01 144.20 113.42 150.87 117.01 156.99 C 120.07 161.50 112.83 168.22 119.64 170.41 C 123.09 172.38 121.19 176.17 120.22 179.00 C 121.22 185.69 125.11 191.33 125.74 198.20 C 130.21 207.14 135.71 217.55 146.50 219.55 C 149.06 225.34 154.68 228.44 159.00 232.77 C 160.48 234.11 162.28 235.01 164.00 236.01 C 172.43 241.15 181.94 245.35 191.20 248.76 C 193.45 250.27 189.69 250.12 188.65 250.66 C 179.12 249.53 168.94 248.42 160.65 242.41 C 148.31 238.99 140.16 229.10 131.73 220.29 C 125.94 218.22 124.12 212.81 122.56 207.36 C 109.89 190.71 115.50 168.26 112.07 148.97 C 113.63 138.41 113.99 126.95 121.14 118.21 C 121.62 109.84 128.39 103.28 135.71 100.73 C 134.23 91.80 143.42 92.69 148.57 89.60 C 149.77 85.06 154.09 84.54 157.91 86.02 Z" />
<path fill="#ebcac4" d=" M 192.28 81.22 C 196.10 80.16 200.20 79.74 203.96 81.19 C 203.36 84.73 198.03 84.41 195.36 86.19 C 196.45 89.95 197.40 93.75 197.39 97.70 C 200.06 100.39 200.99 96.33 202.89 94.93 C 206.57 97.77 210.70 99.98 214.98 101.79 C 218.28 100.66 221.21 98.23 224.78 97.98 C 225.56 101.16 226.48 105.29 223.70 107.79 C 220.21 109.62 217.04 106.51 213.76 105.58 C 205.59 106.16 197.42 110.23 194.50 118.41 C 191.37 117.28 186.19 121.82 191.17 122.59 C 195.45 121.05 199.69 119.36 204.13 118.27 C 208.98 117.84 212.16 123.08 216.94 123.05 C 224.91 121.31 227.71 131.70 235.57 130.60 C 247.36 135.85 255.04 151.64 248.61 163.64 C 246.29 167.44 252.19 170.52 249.79 174.65 C 247.95 177.82 244.61 179.95 243.53 183.61 C 239.45 193.35 228.59 196.47 222.68 204.64 C 217.79 206.97 211.96 209.21 206.85 206.26 C 200.28 207.22 193.68 206.15 187.25 204.64 C 185.58 206.48 183.49 207.75 181.12 208.48 C 185.01 220.24 199.88 215.68 207.86 221.26 C 208.83 231.03 195.08 228.04 190.76 222.68 C 182.96 223.97 176.82 216.73 169.02 218.53 C 166.39 216.98 160.54 216.79 160.47 213.09 C 168.35 213.96 177.79 213.99 184.76 219.32 C 183.42 216.70 183.44 212.82 179.98 212.00 C 171.86 208.61 167.57 200.45 160.75 195.29 C 155.12 191.16 162.74 185.56 157.52 180.48 C 146.24 181.95 156.28 173.83 159.74 171.09 C 161.39 173.75 162.37 176.72 163.43 179.64 C 164.26 183.89 170.74 182.16 171.74 186.34 C 172.29 190.69 170.38 194.66 169.47 198.80 C 172.98 202.05 176.07 207.36 181.80 206.01 C 183.13 203.93 183.56 201.45 184.43 199.17 C 190.42 199.76 196.35 200.98 202.02 203.00 C 206.33 201.97 211.01 196.24 214.87 201.14 C 218.36 206.41 229.17 195.92 221.93 194.13 C 212.47 197.11 200.91 195.64 193.85 188.22 C 186.49 179.82 175.51 175.96 167.27 168.75 C 165.93 162.95 162.46 156.72 166.06 151.00 C 168.81 142.91 178.51 142.19 184.37 137.37 C 187.95 133.37 194.65 134.46 197.16 129.09 C 192.87 128.12 187.34 125.71 185.04 130.99 C 174.29 134.09 164.24 140.14 157.12 148.99 C 154.35 149.71 150.39 156.61 148.97 151.92 C 150.59 147.06 149.97 141.29 153.21 137.10 C 155.52 136.30 156.20 137.93 156.32 139.97 C 159.61 138.01 161.42 134.88 162.04 131.11 C 171.04 129.86 173.34 116.12 184.36 118.76 C 184.26 111.41 193.13 109.98 198.91 108.64 C 198.81 103.59 191.34 102.52 188.02 99.16 C 185.50 99.74 186.56 106.59 182.62 104.53 C 177.38 104.93 179.09 98.40 175.35 96.43 C 178.47 92.81 182.01 89.60 185.16 86.01 C 186.11 86.96 186.28 89.43 187.99 89.09 C 192.23 89.49 188.61 82.68 192.28 81.22 Z" />
<path fill="#d66b86" d=" M 275.22 85.80 C 274.18 83.94 269.47 83.07 270.94 80.50 C 272.34 81.35 273.69 82.30 275.02 83.28 C 278.78 86.14 280.72 90.72 284.02 93.89 C 288.54 95.38 291.75 98.88 294.70 102.47 C 299.10 107.82 304.92 112.75 304.59 120.41 C 317.79 128.11 317.58 146.32 320.51 159.39 C 320.57 167.81 318.71 176.10 319.63 184.60 C 311.46 195.40 314.26 210.42 305.03 220.82 C 301.35 228.41 296.45 235.57 289.20 240.16 C 284.00 248.10 276.82 255.56 267.61 258.69 C 260.05 267.48 248.25 271.78 236.91 272.97 C 210.07 281.31 179.84 276.31 155.81 262.20 C 152.69 258.54 148.42 256.60 144.05 254.91 C 137.77 250.56 132.24 245.10 125.72 241.11 C 115.60 228.89 106.52 215.85 100.93 201.03 C 97.61 190.19 98.68 179.03 96.96 167.96 C 97.05 166.54 97.14 165.12 97.22 163.70 C 97.76 174.05 101.24 183.88 100.79 194.25 C 102.85 204.47 108.96 212.69 112.99 222.03 C 120.74 227.73 122.46 238.49 131.87 242.11 C 138.00 247.71 144.03 255.78 153.02 254.94 C 156.62 260.59 162.46 265.23 169.71 263.42 C 173.45 268.95 180.77 269.69 186.92 269.36 C 203.19 276.40 223.48 275.72 239.04 267.09 C 245.61 267.05 251.29 263.52 257.20 261.20 C 262.44 259.02 263.80 251.26 270.61 252.44 C 273.92 248.79 277.89 245.87 281.57 242.65 C 282.57 237.33 285.84 232.74 292.31 234.34 C 296.66 221.46 306.40 212.11 310.86 198.98 C 309.61 191.03 320.73 187.13 317.26 178.71 C 313.87 173.11 320.43 168.45 318.17 162.98 C 314.52 154.85 319.62 144.73 313.31 137.70 C 310.18 133.78 311.84 126.70 306.56 124.58 C 304.59 123.63 300.34 123.25 301.33 120.16 C 302.87 115.87 300.17 111.67 297.51 108.52 C 292.06 105.97 291.90 98.05 285.61 96.55 C 279.70 96.02 279.48 88.65 275.22 85.80 Z" />
<path fill="#d56485" d=" M 327.13 115.88 C 319.95 104.00 308.61 94.73 302.79 81.66 C 307.29 84.89 309.61 89.99 312.72 94.38 C 325.56 105.54 332.68 121.46 337.68 137.13 C 340.26 154.20 345.53 172.42 339.10 188.98 C 340.21 205.33 331.07 219.17 325.89 233.89 C 322.62 242.63 314.60 247.96 309.13 255.14 C 299.85 267.29 287.17 276.16 274.91 284.89 C 267.97 289.97 258.96 288.50 251.68 292.69 C 242.37 298.10 231.28 298.79 220.78 299.10 C 219.09 297.98 217.07 298.09 215.14 298.21 C 210.40 298.94 216.69 293.87 218.52 295.53 C 225.56 299.79 232.30 293.76 239.38 294.54 C 245.21 296.14 248.81 290.73 253.31 288.39 C 265.41 287.10 279.54 282.51 283.68 269.77 C 289.34 270.23 295.34 267.31 295.77 260.80 C 302.71 260.10 304.48 252.98 308.98 248.99 C 318.76 243.75 324.22 233.11 325.28 222.32 C 332.77 218.11 330.67 208.39 335.11 202.10 C 338.33 196.51 334.88 189.64 338.06 184.08 C 340.49 178.91 339.23 173.06 338.43 167.67 C 338.27 161.05 340.62 153.44 336.55 147.53 C 334.20 144.12 335.63 139.87 335.74 136.11 C 334.07 128.57 325.66 124.44 327.13 115.88 Z" />
<path fill="#efcfcc" d=" M 159.78 90.56 C 167.27 87.69 178.48 79.17 185.16 86.01 C 182.01 89.60 178.47 92.81 175.35 96.43 C 179.09 98.40 177.38 104.93 182.62 104.53 C 186.56 106.59 185.50 99.74 188.02 99.16 C 191.34 102.52 198.81 103.59 198.91 108.64 C 193.13 109.98 184.26 111.41 184.36 118.76 C 173.34 116.12 171.04 129.86 162.04 131.11 C 161.42 134.88 159.61 138.01 156.32 139.97 C 156.20 137.93 155.52 136.30 153.21 137.10 C 149.97 141.29 150.59 147.06 148.97 151.92 C 150.39 156.61 154.35 149.71 157.12 148.99 C 164.24 140.14 174.29 134.09 185.04 130.99 C 187.34 125.71 192.87 128.12 197.16 129.09 C 194.65 134.46 187.95 133.37 184.37 137.37 C 178.51 142.19 168.81 142.91 166.06 151.00 C 162.46 156.72 165.93 162.95 167.27 168.75 C 175.51 175.96 186.49 179.82 193.85 188.22 C 200.91 195.64 212.47 197.11 221.93 194.13 C 229.17 195.92 218.36 206.41 214.87 201.14 C 211.01 196.24 206.33 201.97 202.02 203.00 C 196.35 200.98 190.42 199.76 184.43 199.17 C 183.56 201.45 183.13 203.93 181.80 206.01 C 176.07 207.36 172.98 202.05 169.47 198.80 C 170.38 194.66 172.29 190.69 171.74 186.34 C 170.74 182.16 164.26 183.89 163.43 179.64 C 162.37 176.72 161.39 173.75 159.74 171.09 C 156.28 173.83 146.24 181.95 157.52 180.48 C 162.74 185.56 155.12 191.16 160.75 195.29 C 167.57 200.45 171.86 208.61 179.98 212.00 C 183.44 212.82 183.42 216.70 184.76 219.32 C 177.79 213.99 168.35 213.96 160.47 213.09 C 157.09 209.86 154.87 205.40 150.15 203.74 C 140.39 199.66 144.83 185.74 135.04 181.96 C 128.98 173.66 135.55 163.84 136.06 154.97 C 138.44 146.80 146.71 140.47 144.98 131.27 C 141.62 127.28 138.50 131.67 134.95 132.13 C 135.65 128.63 137.63 125.53 138.09 121.98 C 131.71 122.17 131.52 131.91 127.13 135.83 C 121.61 146.48 122.18 159.02 119.64 170.41 C 112.83 168.22 120.07 161.50 117.01 156.99 C 113.42 150.87 118.01 144.20 118.84 137.96 C 118.92 126.53 126.88 117.71 132.24 108.34 C 141.84 103.10 148.32 92.31 159.78 90.56 Z" />
<path fill="#edc5cf" d=" M 55.17 110.76 C 59.86 115.21 50.19 123.82 50.93 129.94 C 53.11 134.79 46.98 135.99 47.05 140.02 C 46.73 147.10 44.46 153.99 45.03 161.13 C 50.33 161.62 50.62 155.27 53.31 152.33 C 56.57 151.14 60.31 151.15 63.07 148.86 L 63.16 149.69 C 60.68 157.70 64.00 166.23 61.14 174.11 C 59.78 177.97 60.26 182.09 61.48 185.89 C 58.85 190.11 48.07 188.70 51.74 195.30 C 54.93 198.13 51.62 201.45 52.14 204.76 C 55.35 208.18 63.25 209.52 61.05 216.01 C 61.17 220.30 53.35 223.59 57.28 227.69 C 62.22 231.27 60.21 237.49 60.22 242.66 C 64.84 243.93 69.63 247.20 68.00 253.00 C 71.68 259.19 66.88 258.08 64.26 257.85 C 60.69 253.54 59.03 247.85 54.95 243.95 C 48.15 236.65 50.43 225.94 45.18 217.89 C 40.92 192.65 39.90 166.82 44.64 141.66 C 49.94 131.96 49.49 120.36 55.17 110.76 Z" />
<path fill="#e3bfb5" d=" M 204.37 131.35 C 222.16 130.17 236.68 145.58 241.37 161.68 C 245.23 169.29 238.17 175.96 235.71 182.69 C 227.46 188.63 217.76 194.71 207.08 192.92 C 195.30 189.17 187.53 178.75 177.06 172.80 C 177.88 166.79 186.91 169.29 190.85 165.77 C 189.65 162.32 187.06 159.45 186.00 155.98 C 185.94 149.43 196.85 150.46 196.03 144.03 C 189.11 146.17 181.92 144.92 174.84 145.93 C 184.06 139.77 194.60 136.93 204.37 131.35 Z" />
<path fill="#e79dae" d=" M 81.03 154.68 C 81.05 151.42 81.16 142.89 85.86 143.10 C 85.30 150.77 91.79 157.35 88.40 164.99 C 90.58 167.18 94.16 171.82 96.96 167.96 C 98.68 179.03 97.61 190.19 100.93 201.03 C 106.52 215.85 115.60 228.89 125.72 241.11 C 127.38 244.47 129.55 248.19 127.84 252.00 C 123.26 251.17 122.28 244.16 116.99 244.01 C 112.66 243.95 114.87 237.81 111.54 236.58 C 104.52 237.14 105.52 228.83 101.62 225.38 C 99.34 221.52 93.12 217.39 96.66 212.69 C 99.31 209.37 95.73 205.86 93.81 203.18 C 87.81 198.77 93.20 189.38 87.70 184.29 C 84.22 181.68 87.78 178.84 89.35 176.34 C 92.91 170.42 82.40 169.61 83.38 163.86 C 82.80 161.31 84.88 155.74 81.03 154.68 Z" />
<path fill="#dcb6a8" d=" M 196.02 153.01 C 195.85 150.03 202.85 141.30 201.56 147.64 C 200.43 149.61 202.88 148.85 204.04 149.06 C 198.88 154.49 202.54 161.48 208.85 163.12 C 208.28 167.30 212.88 166.19 215.82 166.55 C 221.42 164.87 217.87 157.01 218.08 152.96 C 218.25 149.49 212.51 149.66 212.92 146.02 C 218.18 144.45 222.25 149.73 223.90 154.04 C 222.16 159.21 225.51 164.74 222.66 169.68 C 220.13 177.07 211.12 176.76 205.27 173.71 C 201.81 168.01 196.36 164.60 191.18 160.81 C 187.34 156.96 196.88 157.42 196.02 153.01 Z" />
<path fill="#e4b5b3" d=" M 260.30 148.17 C 274.81 144.47 263.22 164.13 265.95 171.01 C 268.76 181.81 263.67 193.33 255.51 200.47 C 245.67 212.48 230.31 218.51 214.96 218.98 C 214.16 212.69 226.58 220.07 222.01 210.97 C 226.09 203.54 236.81 199.52 243.42 193.46 C 248.68 189.42 248.20 180.32 255.75 178.64 C 255.30 174.14 256.92 169.33 253.29 165.70 C 253.06 159.60 255.52 152.38 260.30 148.17 Z" />
<path fill="#d09994" d=" M 204.04 149.06 C 208.97 147.63 207.62 153.77 209.37 156.67 C 210.46 158.60 212.94 163.87 208.85 163.12 C 202.54 161.48 198.88 154.49 204.04 149.06 Z" />
<path fill="#da7392" d=" M 63.16 149.69 C 65.15 164.91 60.56 179.87 63.87 194.99 C 61.31 204.99 70.55 212.01 69.43 221.82 C 69.01 227.87 76.90 229.35 76.43 235.07 C 76.97 243.27 86.05 246.90 87.54 254.61 C 91.12 265.62 105.15 268.44 107.96 280.03 C 102.91 274.97 98.38 269.45 92.01 265.93 C 86.67 261.80 84.49 255.05 81.87 249.11 C 75.70 242.31 73.40 233.22 68.43 225.63 C 66.64 219.92 66.33 213.77 63.71 208.31 C 60.51 201.27 63.16 193.24 61.48 185.89 C 60.26 182.09 59.78 177.97 61.14 174.11 C 64.00 166.23 60.68 157.70 63.16 149.69 Z" />
<path fill="#e3aab0" d=" M 289.46 176.41 C 293.19 173.96 290.80 181.50 290.79 183.68 C 286.28 188.36 287.90 197.59 278.17 195.90 C 282.03 200.01 278.75 206.30 273.37 206.51 C 267.36 207.47 272.30 214.73 269.29 218.29 C 267.38 221.04 263.64 218.65 260.98 219.93 C 256.84 221.31 261.74 227.61 257.06 229.08 C 253.27 231.97 249.98 227.36 246.30 226.82 C 245.78 230.06 247.05 239.04 239.96 236.00 C 237.30 235.41 236.58 237.79 235.66 239.72 C 232.79 237.99 226.41 234.72 225.60 239.74 C 227.09 246.88 215.86 243.49 212.28 241.53 C 208.78 245.88 203.10 245.31 197.98 245.04 C 185.52 240.70 173.50 234.86 160.82 231.36 C 159.45 230.70 158.84 231.17 159.00 232.77 C 154.68 228.44 149.06 225.34 146.50 219.55 C 135.71 217.55 130.21 207.14 125.74 198.20 C 128.26 194.16 128.82 201.70 131.30 202.65 C 140.28 200.20 134.17 211.19 140.28 212.73 C 143.29 215.45 148.38 211.21 150.68 214.31 C 146.52 225.74 165.07 217.80 160.17 227.80 C 161.92 229.85 166.93 233.22 167.82 228.88 C 168.54 224.16 176.17 223.77 176.77 228.73 C 175.28 230.18 173.45 231.62 173.96 233.99 C 178.06 235.69 180.03 227.57 183.72 232.27 C 185.43 237.57 190.55 232.26 193.70 235.31 C 196.90 236.40 192.49 240.35 195.18 241.81 C 198.39 245.75 197.26 236.39 200.72 238.27 C 203.43 238.65 203.75 242.85 206.81 241.96 C 209.79 239.09 206.38 230.66 214.01 233.97 C 216.87 233.48 217.24 240.00 220.20 237.19 C 225.96 231.59 234.24 231.28 241.77 231.81 C 239.48 224.44 246.69 222.70 251.91 224.62 C 255.15 219.87 260.28 213.68 266.85 215.85 C 267.37 214.01 267.94 212.02 266.70 210.33 C 263.51 204.52 273.29 202.61 272.69 196.68 C 273.57 190.07 281.28 193.81 284.92 190.77 C 289.50 184.49 277.10 185.01 281.27 180.27 C 284.05 178.73 288.04 179.84 289.46 176.41 Z" />
<path fill="#e19ca6" d=" M 278.17 195.90 C 287.90 197.59 286.28 188.36 290.79 183.68 C 292.15 190.97 286.65 196.38 284.85 202.91 C 283.37 208.65 276.62 210.64 275.64 216.68 C 268.00 223.80 262.40 234.89 250.88 235.82 C 240.77 243.29 226.94 251.30 214.06 246.00 C 206.45 251.41 196.62 247.65 188.88 244.31 C 179.73 244.92 173.31 235.00 164.00 236.01 C 162.28 235.01 160.48 234.11 159.00 232.77 C 158.84 231.17 159.45 230.70 160.82 231.36 C 173.50 234.86 185.52 240.70 197.98 245.04 C 203.10 245.31 208.78 245.88 212.28 241.53 C 215.86 243.49 227.09 246.88 225.60 239.74 C 226.41 234.72 232.79 237.99 235.66 239.72 C 236.58 237.79 237.30 235.41 239.96 236.00 C 247.05 239.04 245.78 230.06 246.30 226.82 C 249.98 227.36 253.27 231.97 257.06 229.08 C 261.74 227.61 256.84 221.31 260.98 219.93 C 263.64 218.65 267.38 221.04 269.29 218.29 C 272.30 214.73 267.36 207.47 273.37 206.51 C 278.75 206.30 282.03 200.01 278.17 195.90 Z" />
<path fill="#e7bac4" d=" M 61.48 185.89 C 63.16 193.24 60.51 201.27 63.71 208.31 C 66.33 213.77 66.64 219.92 68.43 225.63 C 73.40 233.22 75.70 242.31 81.87 249.11 C 84.49 255.05 86.67 261.80 92.01 265.93 C 90.70 268.01 89.83 270.34 91.25 272.61 C 96.16 277.04 85.40 279.30 90.24 282.90 C 94.44 281.58 98.69 279.56 103.53 280.51 C 105.23 284.64 109.21 286.47 113.00 288.27 C 113.11 290.94 108.80 294.78 113.13 295.86 C 117.92 297.39 114.19 303.91 117.20 306.83 C 122.19 304.53 129.97 304.80 132.08 310.83 C 132.57 315.89 136.90 318.72 140.40 321.72 C 146.04 322.14 150.52 317.92 155.90 317.17 C 161.21 318.88 166.83 320.94 172.31 318.15 C 177.17 318.26 181.90 319.40 186.67 320.15 C 187.66 323.97 191.76 323.22 194.98 323.15 C 199.99 322.12 207.95 326.38 205.45 332.39 C 203.43 336.17 211.15 339.71 212.45 335.57 C 213.54 331.32 218.39 331.27 221.71 329.67 C 228.00 326.22 231.03 343.26 237.27 336.25 C 239.17 330.36 243.33 322.85 250.86 323.97 C 250.57 330.64 259.75 330.81 264.60 331.78 C 268.55 326.79 274.61 321.07 280.09 329.12 C 279.09 337.14 265.22 333.48 263.58 339.23 C 258.60 343.57 247.93 344.17 241.10 343.78 C 233.52 341.67 226.84 348.30 219.30 346.70 C 208.30 343.69 196.25 350.76 186.10 343.91 C 177.32 342.55 168.16 343.41 159.96 339.11 C 147.56 338.40 139.52 327.98 128.02 324.93 C 106.61 311.17 87.12 294.28 71.83 274.11 C 67.05 263.59 58.95 254.78 54.95 243.95 C 59.03 247.85 60.69 253.54 64.26 257.85 C 66.88 258.08 71.68 259.19 68.00 253.00 C 69.63 247.20 64.84 243.93 60.22 242.66 C 60.21 237.49 62.22 231.27 57.28 227.69 C 53.35 223.59 61.17 220.30 61.05 216.01 C 63.25 209.52 55.35 208.18 52.14 204.76 C 51.62 201.45 54.93 198.13 51.74 195.30 C 48.07 188.70 58.85 190.11 61.48 185.89 Z" />
<path fill="#e6a4b3" d=" M 68.26 201.70 C 66.66 195.53 76.33 191.30 81.15 194.93 C 87.38 211.09 90.29 229.96 104.58 241.42 C 112.95 252.76 122.53 264.22 134.98 270.98 C 138.79 276.85 145.87 279.42 151.61 282.97 C 171.15 292.97 192.81 301.17 215.14 298.21 C 217.07 298.09 219.09 297.98 220.78 299.10 C 223.00 301.81 227.11 301.83 230.06 303.56 C 223.17 304.59 220.35 314.77 212.46 312.59 C 210.58 312.39 209.43 314.28 207.83 314.96 C 202.05 317.48 201.27 310.05 196.92 309.03 C 193.20 308.55 192.49 314.08 189.02 314.06 C 184.96 315.35 182.90 311.84 179.85 310.42 C 176.71 311.05 173.70 312.57 170.37 311.75 C 165.94 310.27 167.19 304.37 164.82 301.15 C 158.17 302.18 152.35 300.88 148.67 295.31 C 142.97 294.37 138.21 292.44 136.60 286.35 C 129.18 283.98 112.49 289.23 113.43 277.03 C 109.46 268.55 105.91 259.52 100.30 251.83 C 94.65 240.81 84.63 233.01 79.19 221.86 C 80.72 213.33 73.92 206.96 68.26 201.70 Z" />
<path fill="#e5b8c1" d=" M 349.35 243.43 C 350.24 236.25 356.11 231.59 360.88 226.87 C 362.53 229.64 362.61 232.98 363.33 236.04 C 367.44 236.06 370.27 232.37 373.92 230.90 C 373.30 234.96 373.10 239.06 373.48 243.16 C 373.23 249.90 368.54 255.05 365.86 260.92 C 358.76 267.83 357.76 279.55 348.95 284.84 C 344.73 287.93 342.37 293.40 336.77 294.80 C 329.93 304.52 320.41 311.98 310.69 318.71 C 307.54 320.12 300.24 318.32 302.50 313.64 C 301.74 303.22 310.12 296.38 315.95 288.97 C 324.02 282.34 329.47 273.25 337.00 266.00 C 344.08 259.96 342.65 249.50 349.35 243.43 Z" />
<path fill="#d47892" d=" M 336.28 253.28 C 339.93 249.86 340.66 242.84 346.26 242.07 C 332.89 270.27 308.46 292.96 280.69 306.65 C 272.50 312.75 261.70 312.12 252.84 316.77 C 244.93 319.44 236.73 322.17 228.27 321.34 C 218.33 321.26 231.08 316.24 234.56 318.51 C 241.35 315.14 249.79 316.92 255.68 311.63 C 261.75 306.07 275.36 309.11 277.43 299.27 C 282.04 300.18 286.84 299.53 290.60 296.59 C 297.94 288.72 311.94 289.33 315.30 277.31 C 325.32 272.15 328.73 260.95 336.28 253.28 Z" />
<path fill="#e3adba" d=" M 92.01 265.93 C 98.38 269.45 102.91 274.97 107.96 280.03 C 111.94 287.79 119.43 292.46 127.01 295.99 C 136.75 310.37 155.01 311.44 169.88 317.21 C 170.49 317.44 171.70 317.91 172.31 318.15 C 166.83 320.94 161.21 318.88 155.90 317.17 C 150.52 317.92 146.04 322.14 140.40 321.72 C 136.90 318.72 132.57 315.89 132.08 310.83 C 129.97 304.80 122.19 304.53 117.20 306.83 C 114.19 303.91 117.92 297.39 113.13 295.86 C 108.80 294.78 113.11 290.94 113.00 288.27 C 109.21 286.47 105.23 284.64 103.53 280.51 C 98.69 279.56 94.44 281.58 90.24 282.90 C 85.40 279.30 96.16 277.04 91.25 272.61 C 89.83 270.34 90.70 268.01 92.01 265.93 Z" />
<path fill="#d67491" d=" M 107.96 280.03 C 111.34 281.87 113.81 284.83 116.59 287.40 C 120.86 291.80 128.24 290.83 131.63 296.36 C 136.68 303.99 146.94 303.28 153.03 309.51 C 159.81 308.51 163.51 314.70 169.94 315.11 C 169.92 315.63 169.89 316.68 169.88 317.21 C 155.01 311.44 136.75 310.37 127.01 295.99 C 119.43 292.46 111.94 287.79 107.96 280.03 Z" />
</svg>
