<?xml version="1.0" encoding="iso-8859-1"?>
<!-- Generator: Adobe Illustrator 18.0.0, SVG Export Plug-In . SVG Version: 6.00 Build 0)  -->
<!DOCTYPE svg PUBLIC "-//W3C//DTD SVG 1.1//EN" "http://www.w3.org/Graphics/SVG/1.1/DTD/svg11.dtd">
<svg version="1.1" id="Capa_1" xmlns="http://www.w3.org/2000/svg" xmlns:xlink="http://www.w3.org/1999/xlink" x="0px" y="0px"
	 viewBox="0 0 303.959 303.959" style="enable-background:new 0 0 303.959 303.959;" xml:space="preserve">
<g>
	<path d="M245.896,89.043c-14.794-12.432-32.088-21.648-50.715-27.253c-4.847-3.564-23.35-19.76-10.496-51.471
		c1.057-2.608,0.564-5.589-1.274-7.719c-1.839-2.131-4.715-3.054-7.451-2.386c-0.675,0.164-13.843,3.492-23.98,14.32
		c-10.138-10.828-23.306-14.156-23.981-14.32c-2.736-0.669-5.612,0.255-7.451,2.386c-1.839,2.13-2.331,5.11-1.274,7.719
		c12.855,31.716-5.653,47.91-10.498,51.472C90.15,67.394,72.857,76.612,58.063,89.043c-25.153,21.134-39.579,49.021-39.579,76.508
		c0,27.536,14.177,53.279,39.918,72.486c20.396,15.217,46.177,24.875,74.056,27.955c-4.765,6.311-12.121,11.137-15.437,12.862
		c-3.677,1.897-5.124,6.412-3.232,10.093c1.33,2.588,3.955,4.074,6.677,4.074c1.154,0,2.325-0.268,3.422-0.831
		c0.68-0.349,12.537-6.554,20.594-17.269v21.537c0,4.143,3.357,7.5,7.5,7.5c4.142,0,7.5-3.357,7.5-7.5v-21.535
		c8.057,10.715,19.912,16.918,20.592,17.267c1.096,0.563,2.265,0.83,3.417,0.83c2.714,0,5.333-1.482,6.666-4.061
		c1.898-3.674,0.457-8.195-3.212-10.103c-3.314-1.724-10.676-6.55-15.442-12.864c27.879-3.08,53.661-12.738,74.056-27.955
		c25.741-19.207,39.918-44.95,39.918-72.486C285.474,138.063,271.049,110.176,245.896,89.043z M109.67,190.043
		c-5.86-40.191,18.702-82.517,34.811-105.251v160.584C124.501,230.147,112.809,211.584,109.67,190.043z M159.48,245.369V84.763
		c16.105,22.695,40.663,64.97,34.815,105.235C191.165,211.556,179.468,230.132,159.48,245.369z M94.818,192.154
		c2.496,17.185,9.448,32.669,20.746,46.331c-23.849-12.145-50.15-33.629-50.15-69.329c0-29.979,24.128-62.452,61.272-85.1
		C109.705,109.796,88.852,151.075,94.818,192.154z M195.58,234.64c-2.427,1.414-4.858,2.723-7.266,3.941
		c11.345-13.686,18.324-29.201,20.826-46.427c5.966-41.079-14.887-82.358-31.865-108.099c37.143,22.647,61.27,55.121,61.27,85.1
		C238.545,195.998,224.09,218.03,195.58,234.64z M138.052,21.99c2.597,2.146,5.086,4.853,6.97,8.229
		c1.442,2.586,4.188,3.977,6.957,3.829c2.769,0.148,5.516-1.243,6.957-3.829c1.884-3.377,4.374-6.085,6.97-8.229
		c-2.316,15.16,1.306,26.787,5.629,34.737c-6.387-0.833-12.864-1.26-19.394-1.267c-0.045-0.001-0.09-0.002-0.135-0.002
		c-0.009,0-0.018,0-0.026,0c-0.022,0-0.043,0-0.065,0c-0.02,0.001-0.042,0.001-0.062,0.002c-6.541,0.005-13.031,0.433-19.431,1.267
		C136.747,48.778,140.369,37.151,138.052,21.99z M33.484,165.55c0-23.047,12.476-46.747,34.229-65.023
		c12.302-10.336,26.551-18.195,41.91-23.283c-11.749,8.111-22.227,17.288-31.105,27.315c-18.386,20.765-28.104,43.102-28.104,64.597
		c0,26.568,11.944,49.713,34.747,67.799C53.982,221.355,33.484,195.169,33.484,165.55z M218.798,236.955
		c22.803-18.086,34.747-41.23,34.747-67.799c0-21.495-9.718-43.832-28.102-64.597c-8.879-10.028-19.357-19.204-31.107-27.315
		c15.36,5.088,29.609,12.947,41.911,23.283c21.752,18.276,34.228,41.977,34.228,65.023
		C270.474,195.17,249.976,221.355,218.798,236.955z"/>
</g>
<g>
</g>
<g>
</g>
<g>
</g>
<g>
</g>
<g>
</g>
<g>
</g>
<g>
</g>
<g>
</g>
<g>
</g>
<g>
</g>
<g>
</g>
<g>
</g>
<g>
</g>
<g>
</g>
<g>
</g>
</svg>
