<?xml version="1.0" encoding="utf-8"?>
<!-- Generator: Adobe Illustrator 19.1.0, SVG Export Plug-In . SVG Version: 6.00 Build 0)  -->
<svg version="1.1" id="Capa_1" xmlns="http://www.w3.org/2000/svg" xmlns:xlink="http://www.w3.org/1999/xlink" x="0px" y="0px"
	 viewBox="-793 374.8 332.2 332.2" style="enable-background:new -793 374.8 332.2 332.2;" xml:space="preserve">
<style type="text/css">
	.st0{fill:#010002;}
</style>
<g>
	<path class="st0" d="M-746.4,447.1c0,5.1,1.2,9.9,3.3,14.1c13.9-15.9,31.1-28.9,50.4-38c-5.7-5.1-13.2-8.3-21.5-8.3
		C-732,414.9-746.4,429.3-746.4,447.1z"/>
	<path class="st0" d="M-626.9,707c79.4,0,143.8-64.4,143.8-143.8c0-71.1-51.6-130.2-119.5-141.7V416v-5.5v-15.9h12.5
		c4.1,0,7.5-4.4,7.5-9.9c0-5.4-3.3-9.9-7.5-9.9h-73.6c-4.1,0-7.5,4.4-7.5,9.9c0,5.4,3.3,9.9,7.5,9.9h12.5v15.9v5.5v5.5
		c-12.1,2.1-23.7,5.6-34.6,10.5c-19.7,8.8-37,22-50.8,38.2c-21.3,25.1-34.1,57.5-34.1,93C-770.7,642.6-706.3,707-626.9,707z
		 M-710.1,479c7.5-7.4,16.1-13.9,25.4-19.1c17.1-9.6,36.8-15.1,57.8-15.1c65.3,0,118.4,53.1,118.4,118.4s-53.1,118.4-118.4,118.4
		s-118.4-53.1-118.4-118.4C-745.3,530.3-731.8,500.5-710.1,479z"/>
	<path class="st0" d="M-715.5,614c2.9,5,6.1,9.7,9.8,14.1c18.7,22.7,47.1,37.2,78.8,37.2c56.4,0,102.1-45.7,102.1-102.1
		s-45.7-102.1-102.1-102.1c-31.7,0-60.1,14.5-78.8,37.2c-3.6,4.4-6.9,9.1-9.8,14.1c-8.6,15-13.5,32.3-13.5,50.8
		C-729,581.7-724.1,599-715.5,614z M-712.2,542.5c0-3,2.4-5.4,5.4-5.4h156.8c3,0,5.4,2.4,5.4,5.4v42.6c0,3-2.4,5.4-5.4,5.4h-156.8
		c-3,0-5.4-2.4-5.4-5.4C-712.2,585.1-712.2,542.5-712.2,542.5z"/>
	<path class="st0" d="M-673.9,543.7"/>
	<path class="st0" d="M-615.3,543.7"/>
	<path class="st0" d="M-578.7,543.7"/>
</g>
</svg>
