<?xml version="1.0" encoding="UTF-8" standalone="no"?>
<!-- Generator: Adobe Illustrator 19.1.0, SVG Export Plug-In . SVG Version: 6.00 Build 0)  -->

<svg
   xmlns:dc="http://purl.org/dc/elements/1.1/"
   xmlns:cc="http://creativecommons.org/ns#"
   xmlns:rdf="http://www.w3.org/1999/02/22-rdf-syntax-ns#"
   xmlns:svg="http://www.w3.org/2000/svg"
   xmlns="http://www.w3.org/2000/svg"
   xmlns:sodipodi="http://sodipodi.sourceforge.net/DTD/sodipodi-0.dtd"
   xmlns:inkscape="http://www.inkscape.org/namespaces/inkscape"
   version="1.1"
   id="Capa_1"
   x="0px"
   y="0px"
   viewBox="-793 374.8 360.2 360.2"
   xml:space="preserve"
   inkscape:version="0.48.5 r10040"
   width="100%"
   height="100%"
   sodipodi:docname="stop-watch.svg"><metadata
     id="metadata23"><rdf:RDF><cc:Work
         rdf:about=""><dc:format>image/svg+xml</dc:format><dc:type
           rdf:resource="http://purl.org/dc/dcmitype/StillImage" /></cc:Work></rdf:RDF></metadata><defs
     id="defs21" /><sodipodi:namedview
     pagecolor="#ffffff"
     bordercolor="#666666"
     borderopacity="1"
     objecttolerance="10"
     gridtolerance="10"
     guidetolerance="10"
     inkscape:pageopacity="0"
     inkscape:pageshadow="2"
     inkscape:window-width="1920"
     inkscape:window-height="1014"
     id="namedview19"
     showgrid="false"
     inkscape:object-paths="true"
     inkscape:zoom="1.0046791"
     inkscape:cx="168.91525"
     inkscape:cy="186.00685"
     inkscape:window-x="0"
     inkscape:window-y="27"
     inkscape:window-maximized="1"
     inkscape:current-layer="Capa_1" /><style
     type="text/css"
     id="style3">
	.st0{fill:#010002;}
</style><g
     id="g5"
     transform="matrix(1.0611961,0,0,1.054183,54.923128,-14.078219)"><path
       class="st0"
       d="m -746.4,447.1 c 0,5.1 1.2,9.9 3.3,14.1 13.9,-15.9 31.1,-28.9 50.4,-38 -5.7,-5.1 -13.2,-8.3 -21.5,-8.3 -17.8,0 -32.2,14.4 -32.2,32.2 z"
       id="path7"
       inkscape:connector-curvature="0"
       style="fill:#010002" /><path
       class="st0"
       d="m -626.9,707 c 79.4,0 143.8,-64.4 143.8,-143.8 0,-71.1 -51.6,-130.2 -119.5,-141.7 v -5.5 -5.5 -15.9 h 12.5 c 4.1,0 7.5,-4.4 7.5,-9.9 0,-5.4 -3.3,-9.9 -7.5,-9.9 h -73.6 c -4.1,0 -7.5,4.4 -7.5,9.9 0,5.4 3.3,9.9 7.5,9.9 h 12.5 v 15.9 5.5 5.5 c -12.1,2.1 -23.7,5.6 -34.6,10.5 -19.7,8.8 -37,22 -50.8,38.2 -21.3,25.1 -34.1,57.5 -34.1,93 0,79.4 64.4,143.8 143.8,143.8 z m -83.2,-228 c 7.5,-7.4 16.1,-13.9 25.4,-19.1 17.1,-9.6 36.8,-15.1 57.8,-15.1 65.3,0 118.4,53.1 118.4,118.4 0,65.3 -53.1,118.4 -118.4,118.4 -65.3,0 -118.4,-53.1 -118.4,-118.4 0,-32.9 13.5,-62.7 35.2,-84.2 z"
       id="path9"
       inkscape:connector-curvature="0"
       style="fill:#010002" /><path
       class="st0"
       d="m -715.5,614 c 2.9,5 6.1,9.7 9.8,14.1 18.7,22.7 47.1,37.2 78.8,37.2 56.4,0 102.1,-45.7 102.1,-102.1 0,-56.4 -45.7,-102.1 -102.1,-102.1 -31.7,0 -60.1,14.5 -78.8,37.2 -3.6,4.4 -6.9,9.1 -9.8,14.1 -8.6,15 -13.5,32.3 -13.5,50.8 0,18.5 4.9,35.8 13.5,50.8 z m 3.3,-71.5 c 0,-3 2.4,-5.4 5.4,-5.4 H -550 c 3,0 5.4,2.4 5.4,5.4 v 42.6 c 0,3 -2.4,5.4 -5.4,5.4 h -156.8 c -3,0 -5.4,-2.4 -5.4,-5.4 0,0 0,-42.6 0,-42.6 z"
       id="path11"
       inkscape:connector-curvature="0"
       style="fill:#010002" /><path
       class="st0"
       d="M -673.9,543.7"
       id="path13"
       inkscape:connector-curvature="0"
       style="fill:#010002" /><path
       class="st0"
       d="M -615.3,543.7"
       id="path15"
       inkscape:connector-curvature="0"
       style="fill:#010002" /><path
       class="st0"
       d="M -578.7,543.7"
       id="path17"
       inkscape:connector-curvature="0"
       style="fill:#010002" /></g><g
     inkscape:groupmode="layer"
     id="layer1"
     inkscape:label="Layer"><path
       style="fill:none;stroke:#000000;stroke-width:1.37904155px;stroke-linecap:butt;stroke-linejoin:miter;stroke-opacity:1"
       d="m -540.79601,556.24875 -9.89737,18.56042 18.80492,-0.35698 z"
       id="path3003"
       inkscape:connector-curvature="0" /><path
       style="fill:#000000;fill-opacity:0;stroke:#009b00;stroke-width:0.24883567;stroke-opacity:1"
       d="m 244.15035,198.35499 c 1.0038,-1.94491 7.88649,-14.78907 7.97498,-14.88256 0.053,-0.056 1.78013,3.34667 3.83805,7.56148 2.05792,4.21481 3.71027,7.6947 3.67189,7.73308 -0.0384,0.0384 -3.63643,0.15172 -7.99566,0.25186 l -7.92586,0.18207 0.4366,-0.84593 z"
       id="path3023"
       inkscape:connector-curvature="0"
       transform="translate(-793,374.8)" /><path
       style="fill:#000000;fill-opacity:0;stroke:#000000;stroke-width:0.24883567000000001;stroke-opacity:0"
       d=""
       id="path3025"
       inkscape:connector-curvature="0"
       transform="translate(-793,374.8)" /><path
       style="fill:#000000;fill-opacity:0;stroke:#000000;stroke-width:0.24883567;stroke-opacity:0"
       d="m 241.54636,200.3644 c 0.2013,-0.58714 10.54569,-19.88873 10.66203,-19.89428 0.0727,-0.003 2.27882,4.38875 4.90239,9.76049 l 4.77013,9.7668 -1.41869,0.15526 c -2.49087,0.27261 -19.00009,0.4574 -18.91586,0.21173 z m 18.55491,-1.34374 c 0.11534,-0.11173 -7.75657,-16.0685 -7.92703,-16.0685 -0.0927,0 -1.87684,3.21931 -3.96483,7.15403 -2.08798,3.93471 -4.07991,7.64621 -4.42649,8.24776 l -0.63016,1.09374 8.44306,-0.1833 c 4.64368,-0.10081 8.47113,-0.21049 8.50545,-0.24373 z"
       id="path3795"
       inkscape:connector-curvature="0"
       transform="translate(-793,374.8)" /><path
       style="fill:#010002;fill-opacity:1;stroke:#000000;stroke-width:0.24883567000000001;stroke-opacity:0"
       d=""
       id="path3797"
       inkscape:connector-curvature="0"
       transform="translate(-793,374.8)" /><path
       style="fill:#010002;fill-opacity:1;stroke:#000000;stroke-width:0.24883567;stroke-opacity:0"
       d="m 244.29252,198.70989 c 0.2838,-0.713 7.74791,-14.51355 7.84974,-14.51355 0.15664,0 7.11301,14.20512 7.00655,14.3076 -0.22275,0.21443 -14.94088,0.41847 -14.85629,0.20595 z"
       id="path3799"
       inkscape:connector-curvature="0"
       transform="translate(-793,374.8)" /><path
       style="fill:none;stroke:#000000;stroke-width:1.37904155px;stroke-linecap:butt;stroke-linejoin:miter;stroke-opacity:1"
       d="m -541.95624,599.25723 9.89737,-18.56042 -18.80492,0.35698 z"
       id="path3003-4"
       inkscape:connector-curvature="0" /><path
       style="fill:#000000;fill-opacity:0;stroke:#009b00;stroke-width:0.24883565;stroke-opacity:1"
       d="m -533.69413,582.39254 c -1.0038,1.94491 -7.88649,14.78907 -7.97498,14.88256 -0.053,0.056 -1.78013,-3.34667 -3.83805,-7.56148 -2.05792,-4.21481 -3.71027,-7.6947 -3.67189,-7.73308 0.0384,-0.0384 3.63643,-0.15172 7.99566,-0.25186 l 7.92586,-0.18207 -0.4366,0.84593 z"
       id="path3023-2"
       inkscape:connector-curvature="0" /></g><path
     style="fill:#010002;fill-opacity:1;stroke:#000000;stroke-width:0.24883565;stroke-opacity:0"
     d="m -534.17306,582.15699 c -0.2838,0.713 -7.74791,14.51355 -7.84974,14.51355 -0.15664,0 -7.11301,-14.20512 -7.00655,-14.3076 0.22275,-0.21443 14.94088,-0.41847 14.85629,-0.20595 z"
     id="path3799-4"
     inkscape:connector-curvature="0" /></svg>