<?xml version="1.0" encoding="iso-8859-1"?>
<!-- Generator: Adobe Illustrator 16.0.0, SVG Export Plug-In . SVG Version: 6.00 Build 0)  -->
<!DOCTYPE svg PUBLIC "-//W3C//DTD SVG 1.1//EN" "http://www.w3.org/Graphics/SVG/1.1/DTD/svg11.dtd">
<svg version="1.1" id="Capa_1" xmlns="http://www.w3.org/2000/svg" xmlns:xlink="http://www.w3.org/1999/xlink" x="0px" y="0px"
	 width="109.817px" height="109.818px" viewBox="0 0 109.817 109.818" style="enable-background:new 0 0 109.817 109.818;"
	 xml:space="preserve">
<g>
	<g>
		<path d="M62.067,34.053c1.023-2.471,1.711-5.327,1.865-8.323c0.219-3.006-0.191-6.136-1.088-9.178
			c-0.931-3.027-2.361-5.982-4.362-8.504c-1.939-2.544-4.407-4.687-6.993-6.091c-2.59-1.401-5.269-2.011-7.142-1.953
			c-0.912-0.031-1.718,0.223-2.19,0.347c-0.477,0.161-0.732,0.247-0.732,0.247s0.06,0.255,0.157,0.739
			c0.101,0.455,0.111,1.241,0.185,1.962c0.07,1.59-0.087,3.515-0.283,5.612c-0.351,4.136-0.26,8.968,1.241,13.735
			c0.746,2.368,1.706,4.738,3.013,6.916c1.248,2.193,2.755,4.223,4.29,5.965c1.391,1.542,4.531,5.112,5.669,6.021
			c0.288-2.026,0.537-4.101,0.585-6.208c0.12-1.482,0.018-2.954-0.007-4.408c-0.023-1.461-0.287-2.866-0.414-4.25
			c-0.245-1.364-0.576-2.664-0.847-3.908c-0.435-1.198-0.845-2.33-1.224-3.374c-0.532-0.977-1.02-1.879-1.451-2.676
			c-0.378-0.838-0.997-1.371-1.365-1.908c-0.818-1.034-1.283-1.622-1.283-1.622s0.512,0.551,1.398,1.518
			c0.411,0.512,1.083,1.013,1.524,1.826c0.498,0.779,1.058,1.658,1.672,2.615c0.465,1.04,0.97,2.164,1.507,3.36
			c0.368,1.244,0.806,2.562,1.162,3.946c0.232,1.401,0.61,2.849,0.748,4.337c0.133,1.494,0.349,3.012,0.338,4.535
			c0.063,1.731,0.04,3.446-0.041,5.131c0.137-0.147,0.295-0.271,0.425-0.431C59.706,38.59,61.014,36.52,62.067,34.053z"/>
		<path d="M57.997,40.466c-0.18,0.185-0.341,0.385-0.548,0.553c-0.364,0.247-0.924,2.16-1.051,2.94
			c-0.474,2.73-1.062,5.249-1.637,7.388c-0.238,0.886-0.472,1.687-0.693,2.43c-1.268-2.41-3.455-6.185-6.396-9.88
			c-0.01,0.192,0,0.389-0.038,0.589c-0.081,0.322,0.549,1.689,0.866,2.197c1.093,1.793,2.01,3.518,2.75,5.025
			c1.062,2.165,1.722,3.804,2.022,4.577c-0.164,0.356-0.116,17.053,0.007,26.789c-12.811,0.396-20.244,4.113-20.244,4.113
			c4.29,1.584,8.869,2.484,13.442,2.953c-0.14,0.13-0.277,0.26-0.414,0.384c-0.21,0.201-0.431,0.396-0.662,0.592
			c-0.456,0.362-0.924,0.855-1.314,1.352l-0.431,0.784c-0.185,0.297-0.248,0.599-0.346,0.896c-0.173,0.602-0.229,1.197-0.403,1.728
			c-0.168,0.538-0.449,1.003-0.863,1.353l-0.014,0.014v0.003c-0.245,0.127-0.438,0.366-0.736,0.394
			c-0.248,0.093-0.602,0.096-0.919,0.144c-0.636,0.075-1.271,0.284-1.884,0.466c-1.122,0.328-2.24,0.688-3.354,1.044l0.115-0.052
			l-0.396,0.144c-0.025,0.004-0.046,0.011-0.067,0.018v0.003h-0.003l0.017,0.052c1.257-0.267,2.52-0.521,3.764-0.825
			c0.633-0.146,1.237-0.312,1.88-0.359c0.324-0.03,0.625-0.021,0.986-0.126c0.364-0.045,0.642-0.315,0.946-0.493
			c0.111-0.089,0.188-0.212,0.284-0.312c-0.039,0.223-0.042,0.441-0.063,0.675c-0.018,0.273-0.033,0.455-0.07,0.694
			c-0.017,0.521-0.12,0.876-0.351,1.163c-0.231,0.261-0.659,0.435-0.967,0.613c-0.659,0.359-1,0.735-1.013,0.708
			c0,0,0.452-0.205,1.143-0.397c0.332-0.137,0.784-0.16,1.208-0.551c0.394-0.383,0.544-1.023,0.578-1.465
			c0.021-0.239,0.033-0.54,0.033-0.746c0.01-0.229-0.012-0.465,0.024-0.677c0.044-0.384,0.074-0.732,0.141-1.044
			c0.037-0.089,0.094-0.168,0.121-0.257c0.204-0.605,0.291-1.201,0.431-1.756c0.074-0.271,0.144-0.564,0.277-0.776l0.414-0.798
			c0.358-0.431,0.7-0.821,1.17-1.222c0.221-0.194,0.448-0.39,0.662-0.615c0.214-0.233,0.431-0.408,0.638-0.682
			c0.003-0.007,0.01-0.014,0.014-0.017c1.408,0.13,2.813,0.226,4.213,0.28c-0.05,0.144-0.103,0.277-0.13,0.438
			c-0.113,0.513-0.224,1.033-0.344,1.567l-0.258,0.729l-0.063,0.185c0.021-0.03-0.07,0.086-0.092,0.123l-0.251,0.329
			c-0.298,0.485-0.708,0.79-1.069,1.16c-0.378,0.414-0.823,0.729-1.097,1.229c-0.338,0.455-0.556,0.917-0.7,1.365
			c-0.15,0.473-0.32,0.832-0.571,1.143c-0.217,0.309-0.536,0.531-0.795,0.732c-0.274,0.199-0.509,0.366-0.705,0.51
			c-0.406,0.271-0.579,0.507-0.56,0.514c-0.016-0.017,0.178-0.212,0.616-0.424c0.214-0.113,0.474-0.254,0.772-0.414
			c0.298-0.175,0.652-0.343,0.934-0.698c0.303-0.305,0.547-0.76,0.715-1.178c0.18-0.451,0.435-0.865,0.722-1.238
			c0.221-0.397,0.635-0.698,0.985-1.051c-0.06,0.185-0.25,0.39-0.274,0.732c-0.167,0.691-0.056,1.574,0.063,2.426
			c0.15,0.832,0.258,1.649,0.198,2.266c0.005,0.312-0.104,0.548-0.131,0.739c-0.046,0.191-0.07,0.294-0.07,0.294
			s0.06-0.089,0.161-0.246c0.074-0.171,0.318-0.387,0.372-0.719c0.074-0.325,0.204-0.719,0.164-1.14
			c0.014-0.428-0.06-0.852-0.097-1.286c-0.094-0.486-0.175-0.944-0.231-1.376c0.284,1.013,0.88,2.193,1.482,3.357
			c0.679,1.222,1.345,2.439,1.692,3.397c0.173,0.486,0.243,0.894,0.24,1.198c-0.075,0.294-0.113,0.465-0.113,0.465
			s0.074-0.16,0.214-0.441c0.06-0.308,0.12-0.779-0.01-1.307c-0.214-1.074-0.845-2.352-1.49-3.594
			c-0.679-1.222-1.365-2.433-1.759-3.377c-0.192-0.482-0.301-0.88-0.329-1.181c0.014-0.134,0.024-0.229,0.031-0.309
			c0.397-0.38,0.855-0.746,1.136-1.188l0.241-0.339c0.053-0.071,0.06-0.062,0.144-0.215l0.067-0.209l0.274-0.821
			c0.097-0.527,0.198-1.051,0.294-1.554c0.024-0.191,0.081-0.377,0.141-0.564c1.05,0.03,2.087,0.051,3.117,0.048
			c-0.007,0.109-0.021,0.222-0.03,0.342c-0.021,0.277-0.036,0.459-0.07,0.698c-0.021,0.517-0.12,0.876-0.351,1.163
			c-0.231,0.257-0.659,0.438-0.97,0.609c-0.659,0.359-0.999,0.739-1.009,0.716c0,0,0.448-0.209,1.143-0.4
			c0.332-0.141,0.78-0.161,1.208-0.552c0.39-0.383,0.544-1.026,0.578-1.468c0.021-0.232,0.033-0.541,0.033-0.742
			c0.003-0.127,0.01-0.247,0.01-0.366c1.411-0.018,2.803-0.062,4.163-0.13c-0.063,0.246-0.116,0.482-0.184,0.745
			c-0.16,0.5-0.174,1.041-0.174,1.602c0.014,0.555-0.07,1.144,0.027,1.712c0.073,0.578,0.144,1.163,0.217,1.752
			c0.184,1.184,0.537,2.293-0.01,3.176c-0.498,0.855-1.395,1.458-2.047,2.022c-0.344,0.284-0.642,0.571-0.865,0.862
			c-0.218,0.291-0.406,0.562-0.449,0.828c-0.157,0.51,0.054,0.808,0,0.804c0.05,0.007-0.116-0.314,0.095-0.773
			c0.066-0.239,0.28-0.476,0.515-0.718c0.247-0.243,0.562-0.483,0.909-0.739c0.683-0.538,1.646-0.996,2.294-2.033
			c0.32-0.517,0.432-1.167,0.394-1.776c-0.046-0.633-0.196-1.17-0.243-1.748c-0.083-0.572-0.167-1.146-0.248-1.708
			c-0.112-0.564-0.039-1.115-0.066-1.656c-0.003-0.537-0.039-1.064,0.08-1.536c0.054-0.298,0.095-0.565,0.141-0.836
			c1.061-0.064,2.088-0.137,3.101-0.226c0.062,0.318,0.157,0.626,0.205,0.948l0.315,1.379l0.492,1.311
			c0.432,0.832,1.055,1.588,1.435,2.331c0.229,0.342,0.353,0.783,0.444,1.238c0.137,0.466,0.127,0.805,0.12,1.287
			c-0.014,0.89-0.15,1.882,0.325,2.864c0.215,0.369,0.547,0.838,0.968,1.115c0.462,0.291,0.887,0.366,1.318,0.545
			c0.845,0.317,1.636,0.811,2.453,1.211l2.471,1.222l0.034-0.041l-0.014-0.024l-0.403-0.267l0.082,0.072l-2.026-1.263
			c-0.808-0.448-1.557-0.979-2.412-1.369c-0.4-0.202-0.9-0.314-1.215-0.534c-0.322-0.239-0.548-0.544-0.787-0.965
			c-0.329-0.712-0.24-1.64-0.202-2.563c0.011-0.438-0.024-1.026-0.168-1.443c-0.099-0.445-0.219-0.891-0.499-1.325
			c-0.493-0.879-1.058-1.543-1.53-2.32l-0.551-1.238l-0.376-1.297c-0.076-0.305-0.202-0.596-0.295-0.9
			c0.616-0.055,1.226-0.103,1.817-0.168c0.633,0.575,1.204,1.216,2.04,1.667l0.01,0.007l0.011,0.003
			c0.403,0.093,0.804,0.229,1.215,0.288l1.184,0.116c0.37,0.021,0.76,0.059,1.149,0.144c0.206,0.052,0.391,0.034,0.538,0.13
			l0.482,0.22c0.349,0.119,0.558,0.451,0.852,0.69c0.284,0.302,0.555,0.637,0.887,0.843c0.171,0.123,0.294,0.226,0.514,0.358
			c0.212,0.076,0.424,0.175,0.633,0.179c0.421,0.058,0.804,0.03,1.185,0.051l0.807,0.188l0.408,0.096
			c0.03,0.004,0.061,0.011,0.092,0.018c0.038,0.014,0.065,0.03,0.116,0.027c-0.058-0.065-0.126-0.068-0.194-0.103l-0.387-0.151
			l-0.784-0.301l0,0l-0.021-0.004c-0.394-0.089-0.808-0.092-1.17-0.171c-0.192-0.017-0.332-0.116-0.493-0.174l-0.428-0.366
			c-0.329-0.24-0.523-0.562-0.78-0.832c-0.305-0.267-0.551-0.653-0.955-0.818l-0.588-0.287c-0.195-0.113-0.425-0.113-0.603-0.164
			c-0.103-0.023-0.22-0.023-0.325-0.041c0.071-0.014,0.178-0.034,0.339-0.062c0.273-0.038,0.671-0.147,1.133-0.141
			c0.462-0.041,0.992-0.03,1.581,0.004c0.578-0.007,1.204,0.096,1.823,0.144c1.253,0.109,2.52,0.25,3.484,0.219
			c0.958-0.027,1.591-0.146,1.591-0.146s-0.64-0.059-1.57-0.195c-0.935-0.127-2.177-0.325-3.443-0.473
			c-0.643-0.027-1.272-0.096-1.882-0.068c-0.603-0.014-1.17,0.086-1.656,0.188c-0.493,0.051-0.828,0.284-1.095,0.369
			c-0.192,0.079-0.295,0.127-0.35,0.15c-0.273-0.051-0.544-0.103-0.835-0.109l-1.177-0.085c-0.38-0.041-0.729-0.154-1.096-0.223
			c-0.581-0.314-1.163-0.784-1.738-1.242c8.87-0.972,15.246-2.731,15.246-2.731c-9.277-2.97-17.474-4.041-24.355-4.141
			c0.291-10.27,0.977-29.807,2.063-32.033c0.739-1.502,1.658-3.23,2.751-5.025c0.315-0.508,0.948-1.874,0.866-2.197
			c-0.041-0.199-0.027-0.392-0.041-0.588c-2.293,2.885-4.119,5.811-5.419,8.105C57.289,48.204,57.811,44.449,57.997,40.466z"/>
		<path d="M91.146,28.235c-0.208-0.304-0.54-0.85-1.074-1.285c-1.04-0.969-2.868-1.956-5.044-2.447
			c-2.17-0.488-4.641-0.498-7.016-0.014c-2.399,0.441-4.682,1.408-6.722,2.672c-2.025,1.287-3.819,2.865-5.191,4.69
			c-1.399,1.783-2.433,3.749-3.08,5.666c-0.633,1.935-0.92,3.765-0.906,5.229c-0.007,0.154,0.021,0.305,0.03,0.455
			c0.794-0.999,1.633-1.986,2.533-2.943c0.749-0.873,1.632-1.632,2.45-2.411c0.824-0.786,1.755-1.417,2.583-2.103
			c0.89-0.613,1.801-1.143,2.629-1.672c0.903-0.413,1.752-0.802,2.535-1.164c0.825-0.238,1.585-0.462,2.256-0.659
			c0.66-0.241,1.286-0.195,1.779-0.284c0.985-0.104,1.55-0.164,1.55-0.164s-0.558,0.101-1.536,0.277
			c-0.479,0.124-1.096,0.12-1.725,0.406c-0.644,0.24-1.369,0.512-2.163,0.802c-0.732,0.408-1.533,0.849-2.375,1.314
			c-0.78,0.575-1.615,1.15-2.43,1.805c-0.763,0.726-1.612,1.395-2.354,2.219c-0.739,0.812-1.533,1.6-2.2,2.505
			c-1.023,1.227-1.913,2.533-2.759,3.83c1.099,0.053,4.668-0.421,6.226-0.606c1.745-0.228,3.613-0.635,5.42-1.261
			c1.828-0.589,3.56-1.461,5.161-2.437c3.237-1.97,5.691-4.678,7.549-7.204c0.938-1.293,1.804-2.467,2.636-3.34
			c0.396-0.375,0.801-0.816,1.081-1.026c0.301-0.221,0.459-0.341,0.459-0.341S91.338,28.565,91.146,28.235z"/>
		<path d="M46.793,38.212c-0.648-1.917-1.679-3.882-3.083-5.667c-1.374-1.826-3.164-3.402-5.19-4.688
			c-2.04-1.261-4.32-2.233-6.721-2.674c-2.374-0.483-4.848-0.476-7.019,0.015c-2.173,0.489-4.006,1.479-5.039,2.445
			c-0.534,0.435-0.869,0.98-1.076,1.287c-0.193,0.329-0.294,0.508-0.294,0.508s0.157,0.115,0.455,0.342
			c0.288,0.21,0.685,0.652,1.086,1.027c0.83,0.872,1.696,2.046,2.632,3.336c1.862,2.531,4.317,5.239,7.549,7.208
			c1.603,0.974,3.332,1.843,5.164,2.435c1.805,0.631,3.677,1.034,5.414,1.263c1.564,0.185,5.132,0.657,6.229,0.603
			c-0.842-1.297-1.735-2.601-2.758-3.828c-0.669-0.904-1.461-1.689-2.197-2.509c-0.742-0.816-1.595-1.49-2.354-2.214
			c-0.818-0.655-1.658-1.23-2.433-1.805c-0.84-0.465-1.643-0.907-2.375-1.314c-0.792-0.291-1.518-0.561-2.16-0.802
			c-0.635-0.288-1.248-0.284-1.728-0.407c-0.977-0.178-1.535-0.275-1.535-0.275s0.565,0.058,1.554,0.164
			c0.489,0.087,1.118,0.041,1.776,0.284c0.669,0.191,1.427,0.416,2.253,0.659c0.789,0.361,1.636,0.75,2.538,1.164
			c0.83,0.522,1.733,1.058,2.628,1.672c0.83,0.683,1.763,1.317,2.585,2.101c0.816,0.782,1.696,1.538,2.451,2.411
			c0.896,0.953,1.733,1.946,2.532,2.945c0.003-0.15,0.036-0.301,0.025-0.46C47.712,41.975,47.424,40.146,46.793,38.212z"/>
		<path d="M55.637,93.056c-0.104-0.394-0.214-0.668-0.214-0.668s-0.074,0.271-0.125,0.691c-0.07,0.428-0.007,0.962,0.037,1.51
			c0.05,0.513,0.17,1.013,0.177,1.44c0.048,0.414,0.111,0.691,0.111,0.691s0.11-0.264,0.224-0.661
			c0.151-0.383,0.1-0.965,0.084-1.539C55.848,93.98,55.733,93.443,55.637,93.056z"/>
		<path d="M43.376,100.188c-0.108-0.394-0.218-0.668-0.218-0.668s-0.068,0.271-0.121,0.691c-0.07,0.428-0.01,0.962,0.034,1.51
			c0.05,0.51,0.169,1.013,0.18,1.437c0.048,0.418,0.107,0.695,0.107,0.695s0.11-0.264,0.225-0.664
			c0.154-0.387,0.099-0.962,0.083-1.54C43.583,101.108,43.468,100.571,43.376,100.188z"/>
		<path d="M60.07,102.792c-0.066-0.332-0.107-0.504-0.123-0.777c0-0.25,0.026-0.5,0.05-0.729c0.113-0.941,0.06-1.612,0.06-1.612
			s-0.056,0.154-0.157,0.421c-0.119,0.257-0.243,0.633-0.39,1.099c-0.059,0.243-0.095,0.514-0.118,0.808
			c-0.029,0.28,0.037,0.678,0.111,0.928c0.147,0.592,0.189,1.163,0.267,1.816c0.147,1.264,0.295,2.536,0.398,3.487l0.233,1.585
			c0,0,0.082-2.56-0.103-5.123C60.242,104.079,60.201,103.367,60.07,102.792z"/>
		<path d="M74.747,101.406c-0.22-0.003-0.462-0.044-0.716-0.075c-0.223-0.051-0.469-0.171-0.715-0.236
			c-0.521-0.109-1.006-0.51-1.643-0.608l-0.917-0.182c-0.302-0.007-0.603-0.011-0.89-0.014c-0.582-0.031-1.085,0.1-1.533,0.137
			c-0.891,0.123-1.482,0.232-1.482,0.232s0.6,0.065,1.492,0.106c0.448,0.011,0.979-0.011,1.516,0.044
			c0.274,0.018,0.548,0.031,0.836,0.049l0.817,0.205c0.564,0.058,1.071,0.424,1.66,0.53c0.574,0.195,1.112,0.205,1.561,0.15
			c0.896-0.123,1.478-0.003,1.478-0.003s-0.14-0.052-0.39-0.145C75.578,101.499,75.175,101.43,74.747,101.406z"/>
		<polygon points="42.392,97.638 42.382,97.645 42.378,97.652 		"/>
		<path d="M37.98,95.561l0.84,0.003c0.281,0.055,0.558,0.109,0.823,0.161c0.53,0.082,1.045,0.226,1.48,0.325
			c0.876,0.182,1.472,0.264,1.472,0.264s-0.548-0.25-1.381-0.589c-0.428-0.147-0.883-0.394-1.455-0.51
			c-0.281-0.068-0.571-0.137-0.862-0.209l-0.936-0.051c-0.64-0.059-1.208,0.208-1.733,0.185c-0.517,0.068-1.032,0.068-1.47-0.045
			c-0.423-0.085-0.83-0.116-1.093-0.082c-0.258,0.031-0.409,0.048-0.409,0.048s0.592,0.027,1.429,0.366
			c0.421,0.161,0.946,0.284,1.55,0.236C36.834,95.711,37.419,95.475,37.98,95.561z"/>
	</g>
</g>
<g>
</g>
<g>
</g>
<g>
</g>
<g>
</g>
<g>
</g>
<g>
</g>
<g>
</g>
<g>
</g>
<g>
</g>
<g>
</g>
<g>
</g>
<g>
</g>
<g>
</g>
<g>
</g>
<g>
</g>
</svg>
