<?xml version="1.0" encoding="utf-8"?>
<!-- Generator: Adobe Illustrator 19.1.0, SVG Export Plug-In . SVG Version: 6.00 Build 0)  -->
<svg version="1.1" id="Capa_1" xmlns="http://www.w3.org/2000/svg" xmlns:xlink="http://www.w3.org/1999/xlink" x="0px" y="0px"
	 viewBox="-904 486.2 109.8 109.8" style="enable-background:new -904 486.2 109.8 109.8;" xml:space="preserve">
<style type="text/css">
	.st0{fill:#560909;}
</style>
<g>
	<g>
		<path class="st0" d="M-841.9,520.2c1-2.5,1.7-5.3,1.9-8.3c0.2-3-0.2-6.1-1.1-9.2c-0.9-3-2.4-6-4.4-8.5c-1.9-2.5-4.4-4.7-7-6.1
			c-2.6-1.4-5.3-2-7.1-2c-0.9,0-1.7,0.2-2.2,0.3c-0.5,0.2-0.7,0.2-0.7,0.2s0.1,0.3,0.2,0.7c0.1,0.5,0.1,1.2,0.2,2
			c0.1,1.6-0.1,3.5-0.3,5.6c-0.4,4.1-0.3,9,1.2,13.7c0.7,2.4,1.7,4.7,3,6.9c1.2,2.2,2.8,4.2,4.3,6c1.4,1.5,4.5,5.1,5.7,6
			c0.3-2,0.5-4.1,0.6-6.2c0.1-1.5,0-3,0-4.4c0-1.5-0.3-2.9-0.4-4.2c-0.2-1.4-0.6-2.7-0.8-3.9c-0.4-1.2-0.8-2.3-1.2-3.4
			c-0.5-1-1-1.9-1.5-2.7c-0.4-0.8-1-1.4-1.4-1.9c-0.8-1-1.3-1.6-1.3-1.6s0.5,0.6,1.4,1.5c0.4,0.5,1.1,1,1.5,1.8
			c0.5,0.8,1.1,1.7,1.7,2.6c0.5,1,1,2.2,1.5,3.4c0.4,1.2,0.8,2.6,1.2,3.9c0.2,1.4,0.6,2.8,0.7,4.3c0.1,1.5,0.3,3,0.3,4.5
			c0.1,1.7,0,3.4,0,5.1c0.1-0.1,0.3-0.3,0.4-0.4C-844.3,524.8-843,522.7-841.9,520.2z"/>
		<path class="st0" d="M-846,526.6c-0.2,0.2-0.3,0.4-0.5,0.6c-0.4,0.2-0.9,2.2-1.1,2.9c-0.5,2.7-1.1,5.2-1.6,7.4
			c-0.2,0.9-0.5,1.7-0.7,2.4c-1.3-2.4-3.5-6.2-6.4-9.9c0,0.2,0,0.4,0,0.6c-0.1,0.3,0.5,1.7,0.9,2.2c1.1,1.8,2,3.5,2.8,5
			c1.1,2.2,1.7,3.8,2,4.6c-0.2,0.4-0.1,17.1,0,26.8c-12.8,0.4-20.2,4.1-20.2,4.1c4.3,1.6,8.9,2.5,13.4,3c-0.1,0.1-0.3,0.3-0.4,0.4
			c-0.2,0.2-0.4,0.4-0.7,0.6c-0.5,0.4-0.9,0.9-1.3,1.4l-0.4,0.8c-0.2,0.3-0.2,0.6-0.3,0.9c-0.2,0.6-0.2,1.2-0.4,1.7
			c-0.2,0.5-0.4,1-0.9,1.4l0,0v0c-0.2,0.1-0.4,0.4-0.7,0.4c-0.2,0.1-0.6,0.1-0.9,0.1c-0.6,0.1-1.3,0.3-1.9,0.5
			c-1.1,0.3-2.2,0.7-3.4,1l0.1-0.1l-0.4,0.1c0,0,0,0-0.1,0v0h0l0,0.1c1.3-0.3,2.5-0.5,3.8-0.8c0.6-0.1,1.2-0.3,1.9-0.4
			c0.3,0,0.6,0,1-0.1c0.4,0,0.6-0.3,0.9-0.5c0.1-0.1,0.2-0.2,0.3-0.3c0,0.2,0,0.4-0.1,0.7c0,0.3,0,0.5-0.1,0.7
			c0,0.5-0.1,0.9-0.4,1.2c-0.2,0.3-0.7,0.4-1,0.6c-0.7,0.4-1,0.7-1,0.7c0,0,0.5-0.2,1.1-0.4c0.3-0.1,0.8-0.2,1.2-0.6
			c0.4-0.4,0.5-1,0.6-1.5c0-0.2,0-0.5,0-0.7c0-0.2,0-0.5,0-0.7c0-0.4,0.1-0.7,0.1-1c0-0.1,0.1-0.2,0.1-0.3c0.2-0.6,0.3-1.2,0.4-1.8
			c0.1-0.3,0.1-0.6,0.3-0.8l0.4-0.8c0.4-0.4,0.7-0.8,1.2-1.2c0.2-0.2,0.4-0.4,0.7-0.6c0.2-0.2,0.4-0.4,0.6-0.7c0,0,0,0,0,0
			c1.4,0.1,2.8,0.2,4.2,0.3c0,0.1-0.1,0.3-0.1,0.4c-0.1,0.5-0.2,1-0.3,1.6l-0.3,0.7l-0.1,0.2c0,0-0.1,0.1-0.1,0.1l-0.3,0.3
			c-0.3,0.5-0.7,0.8-1.1,1.2c-0.4,0.4-0.8,0.7-1.1,1.2c-0.3,0.5-0.6,0.9-0.7,1.4c-0.2,0.5-0.3,0.8-0.6,1.1c-0.2,0.3-0.5,0.5-0.8,0.7
			c-0.3,0.2-0.5,0.4-0.7,0.5c-0.4,0.3-0.6,0.5-0.6,0.5c0,0,0.2-0.2,0.6-0.4c0.2-0.1,0.5-0.3,0.8-0.4c0.3-0.2,0.7-0.3,0.9-0.7
			c0.3-0.3,0.5-0.8,0.7-1.2c0.2-0.5,0.4-0.9,0.7-1.2c0.2-0.4,0.6-0.7,1-1.1c-0.1,0.2-0.2,0.4-0.3,0.7c-0.2,0.7-0.1,1.6,0.1,2.4
			c0.2,0.8,0.3,1.6,0.2,2.3c0,0.3-0.1,0.5-0.1,0.7c0,0.2-0.1,0.3-0.1,0.3s0.1-0.1,0.2-0.2c0.1-0.2,0.3-0.4,0.4-0.7
			c0.1-0.3,0.2-0.7,0.2-1.1c0-0.4-0.1-0.9-0.1-1.3c-0.1-0.5-0.2-0.9-0.2-1.4c0.3,1,0.9,2.2,1.5,3.4c0.7,1.2,1.3,2.4,1.7,3.4
			c0.2,0.5,0.2,0.9,0.2,1.2c-0.1,0.3-0.1,0.5-0.1,0.5s0.1-0.2,0.2-0.4c0.1-0.3,0.1-0.8,0-1.3c-0.2-1.1-0.8-2.4-1.5-3.6
			c-0.7-1.2-1.4-2.4-1.8-3.4c-0.2-0.5-0.3-0.9-0.3-1.2c0-0.1,0-0.2,0-0.3c0.4-0.4,0.9-0.7,1.1-1.2l0.2-0.3c0.1-0.1,0.1-0.1,0.1-0.2
			l0.1-0.2l0.3-0.8c0.1-0.5,0.2-1.1,0.3-1.6c0-0.2,0.1-0.4,0.1-0.6c1,0,2.1,0.1,3.1,0c0,0.1,0,0.2,0,0.3c0,0.3,0,0.5-0.1,0.7
			c0,0.5-0.1,0.9-0.4,1.2c-0.2,0.3-0.7,0.4-1,0.6c-0.7,0.4-1,0.7-1,0.7c0,0,0.4-0.2,1.1-0.4c0.3-0.1,0.8-0.2,1.2-0.6
			c0.4-0.4,0.5-1,0.6-1.5c0-0.2,0-0.5,0-0.7c0-0.1,0-0.2,0-0.4c1.4,0,2.8-0.1,4.2-0.1c-0.1,0.2-0.1,0.5-0.2,0.7
			c-0.2,0.5-0.2,1-0.2,1.6c0,0.6-0.1,1.1,0,1.7c0.1,0.6,0.1,1.2,0.2,1.8c0.2,1.2,0.5,2.3,0,3.2c-0.5,0.9-1.4,1.5-2,2
			c-0.3,0.3-0.6,0.6-0.9,0.9c-0.2,0.3-0.4,0.6-0.4,0.8c-0.2,0.5,0.1,0.8,0,0.8c0,0-0.1-0.3,0.1-0.8c0.1-0.2,0.3-0.5,0.5-0.7
			c0.2-0.2,0.6-0.5,0.9-0.7c0.7-0.5,1.6-1,2.3-2c0.3-0.5,0.4-1.2,0.4-1.8c0-0.6-0.2-1.2-0.2-1.7c-0.1-0.6-0.2-1.1-0.2-1.7
			c-0.1-0.6,0-1.1-0.1-1.7c0-0.5,0-1.1,0.1-1.5c0.1-0.3,0.1-0.6,0.1-0.8c1.1-0.1,2.1-0.1,3.1-0.2c0.1,0.3,0.2,0.6,0.2,0.9l0.3,1.4
			l0.5,1.3c0.4,0.8,1.1,1.6,1.4,2.3c0.2,0.3,0.4,0.8,0.4,1.2c0.1,0.5,0.1,0.8,0.1,1.3c0,0.9-0.2,1.9,0.3,2.9c0.2,0.4,0.5,0.8,1,1.1
			c0.5,0.3,0.9,0.4,1.3,0.5c0.8,0.3,1.6,0.8,2.5,1.2l2.5,1.2l0,0l0,0l-0.4-0.3l0.1,0.1l-2-1.3c-0.8-0.4-1.6-1-2.4-1.4
			c-0.4-0.2-0.9-0.3-1.2-0.5c-0.3-0.2-0.5-0.5-0.8-1c-0.3-0.7-0.2-1.6-0.2-2.6c0-0.4,0-1-0.2-1.4c-0.1-0.4-0.2-0.9-0.5-1.3
			c-0.5-0.9-1.1-1.5-1.5-2.3l-0.6-1.2l-0.4-1.3c-0.1-0.3-0.2-0.6-0.3-0.9c0.6-0.1,1.2-0.1,1.8-0.2c0.6,0.6,1.2,1.2,2,1.7l0,0l0,0
			c0.4,0.1,0.8,0.2,1.2,0.3l1.2,0.1c0.4,0,0.8,0.1,1.1,0.1c0.2,0.1,0.4,0,0.5,0.1l0.5,0.2c0.3,0.1,0.6,0.5,0.9,0.7
			c0.3,0.3,0.6,0.6,0.9,0.8c0.2,0.1,0.3,0.2,0.5,0.4c0.2,0.1,0.4,0.2,0.6,0.2c0.4,0.1,0.8,0,1.2,0.1l0.8,0.2l0.4,0.1
			c0,0,0.1,0,0.1,0c0,0,0.1,0,0.1,0c-0.1-0.1-0.1-0.1-0.2-0.1l-0.4-0.2l-0.8-0.3l0,0l0,0c-0.4-0.1-0.8-0.1-1.2-0.2
			c-0.2,0-0.3-0.1-0.5-0.2l-0.4-0.4c-0.3-0.2-0.5-0.6-0.8-0.8c-0.3-0.3-0.6-0.7-1-0.8l-0.6-0.3c-0.2-0.1-0.4-0.1-0.6-0.2
			c-0.1,0-0.2,0-0.3,0c0.1,0,0.2,0,0.3-0.1c0.3,0,0.7-0.1,1.1-0.1c0.5,0,1,0,1.6,0c0.6,0,1.2,0.1,1.8,0.1c1.3,0.1,2.5,0.2,3.5,0.2
			c1,0,1.6-0.1,1.6-0.1s-0.6-0.1-1.6-0.2c-0.9-0.1-2.2-0.3-3.4-0.5c-0.6,0-1.3-0.1-1.9-0.1c-0.6,0-1.2,0.1-1.7,0.2
			c-0.5,0.1-0.8,0.3-1.1,0.4c-0.2,0.1-0.3,0.1-0.3,0.2c-0.3-0.1-0.5-0.1-0.8-0.1l-1.2-0.1c-0.4,0-0.7-0.2-1.1-0.2
			c-0.6-0.3-1.2-0.8-1.7-1.2c8.9-1,15.2-2.7,15.2-2.7c-9.3-3-17.5-4-24.4-4.1c0.3-10.3,1-29.8,2.1-32c0.7-1.5,1.7-3.2,2.8-5
			c0.3-0.5,0.9-1.9,0.9-2.2c0-0.2,0-0.4,0-0.6c-2.3,2.9-4.1,5.8-5.4,8.1C-846.7,534.4-846.2,530.6-846,526.6z"/>
		<path class="st0" d="M-812.9,514.4c-0.2-0.3-0.5-0.8-1.1-1.3c-1-1-2.9-2-5-2.4c-2.2-0.5-4.6-0.5-7,0c-2.4,0.4-4.7,1.4-6.7,2.7
			c-2,1.3-3.8,2.9-5.2,4.7c-1.4,1.8-2.4,3.7-3.1,5.7c-0.6,1.9-0.9,3.8-0.9,5.2c0,0.2,0,0.3,0,0.5c0.8-1,1.6-2,2.5-2.9
			c0.7-0.9,1.6-1.6,2.4-2.4c0.8-0.8,1.8-1.4,2.6-2.1c0.9-0.6,1.8-1.1,2.6-1.7c0.9-0.4,1.8-0.8,2.5-1.2c0.8-0.2,1.6-0.5,2.3-0.7
			c0.7-0.2,1.3-0.2,1.8-0.3c1-0.1,1.5-0.2,1.5-0.2s-0.6,0.1-1.5,0.3c-0.5,0.1-1.1,0.1-1.7,0.4c-0.6,0.2-1.4,0.5-2.2,0.8
			c-0.7,0.4-1.5,0.8-2.4,1.3c-0.8,0.6-1.6,1.2-2.4,1.8c-0.8,0.7-1.6,1.4-2.4,2.2c-0.7,0.8-1.5,1.6-2.2,2.5c-1,1.2-1.9,2.5-2.8,3.8
			c1.1,0.1,4.7-0.4,6.2-0.6c1.7-0.2,3.6-0.6,5.4-1.3c1.8-0.6,3.6-1.5,5.2-2.4c3.2-2,5.7-4.7,7.5-7.2c0.9-1.3,1.8-2.5,2.6-3.3
			c0.4-0.4,0.8-0.8,1.1-1c0.3-0.2,0.5-0.3,0.5-0.3S-812.7,514.7-812.9,514.4z"/>
		<path class="st0" d="M-857.2,524.4c-0.6-1.9-1.7-3.9-3.1-5.7c-1.4-1.8-3.2-3.4-5.2-4.7c-2-1.3-4.3-2.2-6.7-2.7
			c-2.4-0.5-4.8-0.5-7,0c-2.2,0.5-4,1.5-5,2.4c-0.5,0.4-0.9,1-1.1,1.3c-0.2,0.3-0.3,0.5-0.3,0.5s0.2,0.1,0.5,0.3
			c0.3,0.2,0.7,0.7,1.1,1c0.8,0.9,1.7,2,2.6,3.3c1.9,2.5,4.3,5.2,7.5,7.2c1.6,1,3.3,1.8,5.2,2.4c1.8,0.6,3.7,1,5.4,1.3
			c1.6,0.2,5.1,0.7,6.2,0.6c-0.8-1.3-1.7-2.6-2.8-3.8c-0.7-0.9-1.5-1.7-2.2-2.5c-0.7-0.8-1.6-1.5-2.4-2.2c-0.8-0.7-1.7-1.2-2.4-1.8
			c-0.8-0.5-1.6-0.9-2.4-1.3c-0.8-0.3-1.5-0.6-2.2-0.8c-0.6-0.3-1.2-0.3-1.7-0.4c-1-0.2-1.5-0.3-1.5-0.3s0.6,0.1,1.6,0.2
			c0.5,0.1,1.1,0,1.8,0.3c0.7,0.2,1.4,0.4,2.3,0.7c0.8,0.4,1.6,0.8,2.5,1.2c0.8,0.5,1.7,1.1,2.6,1.7c0.8,0.7,1.8,1.3,2.6,2.1
			c0.8,0.8,1.7,1.5,2.5,2.4c0.9,1,1.7,1.9,2.5,2.9c0-0.2,0-0.3,0-0.5C-856.3,528.2-856.6,526.3-857.2,524.4z"/>
		<path class="st0" d="M-848.4,579.2c-0.1-0.4-0.2-0.7-0.2-0.7s-0.1,0.3-0.1,0.7c-0.1,0.4,0,1,0,1.5c0,0.5,0.2,1,0.2,1.4
			c0,0.4,0.1,0.7,0.1,0.7s0.1-0.3,0.2-0.7c0.2-0.4,0.1-1,0.1-1.5C-848.2,580.2-848.3,579.6-848.4,579.2z"/>
		<path class="st0" d="M-860.6,586.4c-0.1-0.4-0.2-0.7-0.2-0.7s-0.1,0.3-0.1,0.7c-0.1,0.4,0,1,0,1.5c0,0.5,0.2,1,0.2,1.4
			c0,0.4,0.1,0.7,0.1,0.7s0.1-0.3,0.2-0.7c0.2-0.4,0.1-1,0.1-1.5C-860.4,587.3-860.5,586.8-860.6,586.4z"/>
		<path class="st0" d="M-843.9,589c-0.1-0.3-0.1-0.5-0.1-0.8c0-0.2,0-0.5,0-0.7c0.1-0.9,0.1-1.6,0.1-1.6s-0.1,0.2-0.2,0.4
			c-0.1,0.3-0.2,0.6-0.4,1.1c-0.1,0.2-0.1,0.5-0.1,0.8c0,0.3,0,0.7,0.1,0.9c0.1,0.6,0.2,1.2,0.3,1.8c0.1,1.3,0.3,2.5,0.4,3.5
			l0.2,1.6c0,0,0.1-2.6-0.1-5.1C-843.8,590.3-843.8,589.5-843.9,589z"/>
		<path class="st0" d="M-829.3,587.6c-0.2,0-0.5,0-0.7-0.1c-0.2-0.1-0.5-0.2-0.7-0.2c-0.5-0.1-1-0.5-1.6-0.6l-0.9-0.2
			c-0.3,0-0.6,0-0.9,0c-0.6,0-1.1,0.1-1.5,0.1c-0.9,0.1-1.5,0.2-1.5,0.2s0.6,0.1,1.5,0.1c0.4,0,1,0,1.5,0c0.3,0,0.5,0,0.8,0l0.8,0.2
			c0.6,0.1,1.1,0.4,1.7,0.5c0.6,0.2,1.1,0.2,1.6,0.2c0.9-0.1,1.5,0,1.5,0s-0.1-0.1-0.4-0.1C-828.4,587.7-828.8,587.6-829.3,587.6z"
			/>
		<polygon class="st0" points="-861.6,583.8 -861.6,583.8 -861.6,583.8 		"/>
		<path class="st0" d="M-866,581.7l0.8,0c0.3,0.1,0.6,0.1,0.8,0.2c0.5,0.1,1,0.2,1.5,0.3c0.9,0.2,1.5,0.3,1.5,0.3s-0.5-0.2-1.4-0.6
			c-0.4-0.1-0.9-0.4-1.5-0.5c-0.3-0.1-0.6-0.1-0.9-0.2l-0.9-0.1c-0.6-0.1-1.2,0.2-1.7,0.2c-0.5,0.1-1,0.1-1.5,0
			c-0.4-0.1-0.8-0.1-1.1-0.1c-0.3,0-0.4,0-0.4,0s0.6,0,1.4,0.4c0.4,0.2,0.9,0.3,1.5,0.2C-867.2,581.9-866.6,581.7-866,581.7z"/>
	</g>
</g>
</svg>
