<?xml version="1.0" encoding="UTF-8" standalone="no"?>
<!-- Generator: Adobe Illustrator 19.1.0, SVG Export Plug-In . SVG Version: 6.00 Build 0)  -->

<svg
   xmlns:dc="http://purl.org/dc/elements/1.1/"
   xmlns:cc="http://creativecommons.org/ns#"
   xmlns:rdf="http://www.w3.org/1999/02/22-rdf-syntax-ns#"
   xmlns:svg="http://www.w3.org/2000/svg"
   xmlns="http://www.w3.org/2000/svg"
   xmlns:sodipodi="http://sodipodi.sourceforge.net/DTD/sodipodi-0.dtd"
   xmlns:inkscape="http://www.inkscape.org/namespaces/inkscape"
   version="1.1"
   id="Capa_1"
   x="0px"
   y="0px"
   viewBox="-904 486.2 109.8 109.8"
   style="enable-background:new -904 486.2 109.8 109.8;"
   xml:space="preserve"
   inkscape:version="0.48.4 r9939"
   width="100%"
   height="100%"
   sodipodi:docname="tree-red.svg"><metadata
     id="metadata33"><rdf:RDF><cc:Work
         rdf:about=""><dc:format>image/svg+xml</dc:format><dc:type
           rdf:resource="http://purl.org/dc/dcmitype/StillImage" /><dc:title></dc:title></cc:Work></rdf:RDF></metadata><defs
     id="defs31" /><sodipodi:namedview
     pagecolor="#ffffff"
     bordercolor="#666666"
     borderopacity="1"
     objecttolerance="10"
     gridtolerance="10"
     guidetolerance="10"
     inkscape:pageopacity="0"
     inkscape:pageshadow="2"
     inkscape:window-width="1920"
     inkscape:window-height="1022"
     id="namedview29"
     showgrid="false"
     inkscape:zoom="2.1493625"
     inkscape:cx="54.9"
     inkscape:cy="92.120339"
     inkscape:window-x="0"
     inkscape:window-y="30"
     inkscape:window-maximized="1"
     inkscape:current-layer="Capa_1" /><style
     type="text/css"
     id="style3">
	.st0{fill:#560909;}
</style><g
     id="g5"><g
       id="g7"><path
         class="st0"
         d="m -850.6,569.2 c -12.8,0.4 -20.2,4.1 -20.2,4.1 4.3,1.6 8.9,2.5 13.4,3 -0.1,0.1 -0.3,0.3 -0.4,0.4 -0.2,0.2 -0.4,0.4 -0.7,0.6 -0.5,0.4 -0.9,0.9 -1.3,1.4 l -0.4,0.8 c -0.2,0.3 -0.2,0.6 -0.3,0.9 -0.2,0.6 -0.2,1.2 -0.4,1.7 -0.2,0.5 -0.4,1 -0.9,1.4 l 0,0 0,0 c -0.2,0.1 -0.4,0.4 -0.7,0.4 -0.2,0.1 -0.6,0.1 -0.9,0.1 -0.6,0.1 -1.3,0.3 -1.9,0.5 -1.1,0.3 -2.2,0.7 -3.4,1 l 0.1,-0.1 -0.4,0.1 c 0,0 0,0 -0.1,0 l 0,0 0,0 0,0.1 c 1.3,-0.3 2.5,-0.5 3.8,-0.8 0.6,-0.1 1.2,-0.3 1.9,-0.4 0.3,0 0.6,0 1,-0.1 0.4,0 0.6,-0.3 0.9,-0.5 0.1,-0.1 0.2,-0.2 0.3,-0.3 0,0.2 0,0.4 -0.1,0.7 0,0.3 0,0.5 -0.1,0.7 0,0.5 -0.1,0.9 -0.4,1.2 -0.2,0.3 -0.7,0.4 -1,0.6 -0.7,0.4 -1,0.7 -1,0.7 0,0 0.5,-0.2 1.1,-0.4 0.3,-0.1 0.8,-0.2 1.2,-0.6 0.4,-0.4 0.5,-1 0.6,-1.5 0,-0.2 0,-0.5 0,-0.7 0,-0.2 0,-0.5 0,-0.7 0,-0.4 0.1,-0.7 0.1,-1 0,-0.1 0.1,-0.2 0.1,-0.3 0.2,-0.6 0.3,-1.2 0.4,-1.8 0.1,-0.3 0.1,-0.6 0.3,-0.8 l 0.4,-0.8 c 0.4,-0.4 0.7,-0.8 1.2,-1.2 0.2,-0.2 0.4,-0.4 0.7,-0.6 0.2,-0.2 0.4,-0.4 0.6,-0.7 l 0,0 c 1.4,0.1 2.8,0.2 4.2,0.3 0,0.1 -0.1,0.3 -0.1,0.4 -0.1,0.5 -0.2,1 -0.3,1.6 l -0.3,0.7 -0.1,0.2 -0.1,0.1 -0.3,0.3 c -0.3,0.5 -0.7,0.8 -1.1,1.2 -0.4,0.4 -0.8,0.7 -1.1,1.2 -0.3,0.5 -0.6,0.9 -0.7,1.4 -0.2,0.5 -0.3,0.8 -0.6,1.1 -0.2,0.3 -0.5,0.5 -0.8,0.7 -0.3,0.2 -0.5,0.4 -0.7,0.5 -0.4,0.3 -0.6,0.5 -0.6,0.5 0,0 0.2,-0.2 0.6,-0.4 0.2,-0.1 0.5,-0.3 0.8,-0.4 0.3,-0.2 0.7,-0.3 0.9,-0.7 0.3,-0.3 0.5,-0.8 0.7,-1.2 0.2,-0.5 0.4,-0.9 0.7,-1.2 0.2,-0.4 0.6,-0.7 1,-1.1 -0.1,0.2 -0.2,0.4 -0.3,0.7 -0.2,0.7 -0.1,1.6 0.1,2.4 0.2,0.8 0.3,1.6 0.2,2.3 0,0.3 -0.1,0.5 -0.1,0.7 0,0.2 -0.1,0.3 -0.1,0.3 0,0 0.1,-0.1 0.2,-0.2 0.1,-0.2 0.3,-0.4 0.4,-0.7 0.1,-0.3 0.2,-0.7 0.2,-1.1 0,-0.4 -0.1,-0.9 -0.1,-1.3 -0.1,-0.5 -0.2,-0.9 -0.2,-1.4 0.3,1 0.9,2.2 1.5,3.4 0.7,1.2 1.3,2.4 1.7,3.4 0.2,0.5 0.2,0.9 0.2,1.2 -0.1,0.3 -0.1,0.5 -0.1,0.5 0,0 0.1,-0.2 0.2,-0.4 0.1,-0.3 0.1,-0.8 0,-1.3 -0.2,-1.1 -0.8,-2.4 -1.5,-3.6 -0.7,-1.2 -1.4,-2.4 -1.8,-3.4 -0.2,-0.5 -0.3,-0.9 -0.3,-1.2 0,-0.1 0,-0.2 0,-0.3 0.4,-0.4 0.9,-0.7 1.1,-1.2 l 0.2,-0.3 c 0.1,-0.1 0.1,-0.1 0.1,-0.2 l 0.1,-0.2 0.3,-0.8 c 0.1,-0.5 0.2,-1.1 0.3,-1.6 0,-0.2 0.1,-0.4 0.1,-0.6 1,0 2.1,0.1 3.1,0 0,0.1 0,0.2 0,0.3 0,0.3 0,0.5 -0.1,0.7 0,0.5 -0.1,0.9 -0.4,1.2 -0.2,0.3 -0.7,0.4 -1,0.6 -0.7,0.4 -1,0.7 -1,0.7 0,0 0.4,-0.2 1.1,-0.4 0.3,-0.1 0.8,-0.2 1.2,-0.6 0.4,-0.4 0.5,-1 0.6,-1.5 0,-0.2 0,-0.5 0,-0.7 0,-0.1 0,-0.2 0,-0.4 1.4,0 2.8,-0.1 4.2,-0.1 -0.1,0.2 -0.1,0.5 -0.2,0.7 -0.2,0.5 -0.2,1 -0.2,1.6 0,0.6 -0.1,1.1 0,1.7 0.1,0.6 0.1,1.2 0.2,1.8 0.2,1.2 0.5,2.3 0,3.2 -0.5,0.9 -1.4,1.5 -2,2 -0.3,0.3 -0.6,0.6 -0.9,0.9 -0.2,0.3 -0.4,0.6 -0.4,0.8 -0.2,0.5 0.1,0.8 0,0.8 0,0 -0.1,-0.3 0.1,-0.8 0.1,-0.2 0.3,-0.5 0.5,-0.7 0.2,-0.2 0.6,-0.5 0.9,-0.7 0.7,-0.5 1.6,-1 2.3,-2 0.3,-0.5 0.4,-1.2 0.4,-1.8 0,-0.6 -0.2,-1.2 -0.2,-1.7 -0.1,-0.6 -0.2,-1.1 -0.2,-1.7 -0.1,-0.6 0,-1.1 -0.1,-1.7 0,-0.5 0,-1.1 0.1,-1.5 0.1,-0.3 0.1,-0.6 0.1,-0.8 1.1,-0.1 2.1,-0.1 3.1,-0.2 0.1,0.3 0.2,0.6 0.2,0.9 l 0.3,1.4 0.5,1.3 c 0.4,0.8 1.1,1.6 1.4,2.3 0.2,0.3 0.4,0.8 0.4,1.2 0.1,0.5 0.1,0.8 0.1,1.3 0,0.9 -0.2,1.9 0.3,2.9 0.2,0.4 0.5,0.8 1,1.1 0.5,0.3 0.9,0.4 1.3,0.5 0.8,0.3 1.6,0.8 2.5,1.2 l 2.5,1.2 0,0 0,0 -0.4,-0.3 0.1,0.1 -2,-1.3 c -0.8,-0.4 -1.6,-1 -2.4,-1.4 -0.4,-0.2 -0.9,-0.3 -1.2,-0.5 -0.3,-0.2 -0.5,-0.5 -0.8,-1 -0.3,-0.7 -0.2,-1.6 -0.2,-2.6 0,-0.4 0,-1 -0.2,-1.4 -0.1,-0.4 -0.2,-0.9 -0.5,-1.3 -0.5,-0.9 -1.1,-1.5 -1.5,-2.3 l -0.6,-1.2 -0.4,-1.3 c -0.1,-0.3 -0.2,-0.6 -0.3,-0.9 0.6,-0.1 1.2,-0.1 1.8,-0.2 0.6,0.6 1.2,1.2 2,1.7 l 0,0 0,0 c 0.4,0.1 0.8,0.2 1.2,0.3 l 1.2,0.1 c 0.4,0 0.8,0.1 1.1,0.1 0.2,0.1 0.4,0 0.5,0.1 l 0.5,0.2 c 0.3,0.1 0.6,0.5 0.9,0.7 0.3,0.3 0.6,0.6 0.9,0.8 0.2,0.1 0.3,0.2 0.5,0.4 0.2,0.1 0.4,0.2 0.6,0.2 0.4,0.1 0.8,0 1.2,0.1 l 0.8,0.2 0.4,0.1 0.1,0 0.1,0 c -0.1,-0.1 -0.1,-0.1 -0.2,-0.1 l -0.4,-0.2 -0.8,-0.3 0,0 0,0 c -0.4,-0.1 -0.8,-0.1 -1.2,-0.2 -0.2,0 -0.3,-0.1 -0.5,-0.2 l -0.4,-0.4 c -0.3,-0.2 -0.5,-0.6 -0.8,-0.8 -0.3,-0.3 -0.6,-0.7 -1,-0.8 l -0.6,-0.3 c -0.2,-0.1 -0.4,-0.1 -0.6,-0.2 -0.1,0 -0.2,0 -0.3,0 0.1,0 0.2,0 0.3,-0.1 0.3,0 0.7,-0.1 1.1,-0.1 0.5,0 1,0 1.6,0 0.6,0 1.2,0.1 1.8,0.1 1.3,0.1 2.5,0.2 3.5,0.2 1,0 1.6,-0.1 1.6,-0.1 0,0 -0.6,-0.1 -1.6,-0.2 -0.9,-0.1 -2.2,-0.3 -3.4,-0.5 -0.6,0 -1.3,-0.1 -1.9,-0.1 -0.6,0 -1.2,0.1 -1.7,0.2 -0.5,0.1 -0.8,0.3 -1.1,0.4 -0.2,0.1 -0.3,0.1 -0.3,0.2 -0.3,-0.1 -0.5,-0.1 -0.8,-0.1 l -1.2,-0.1 c -0.4,0 -0.7,-0.2 -1.1,-0.2 -0.6,-0.3 -1.2,-0.8 -1.7,-1.2 8.9,-1 15.2,-2.7 15.2,-2.7 -9.3,-3 -17.5,-4 -24.4,-4.1 0.86309,-8.79357 2.29464,-16.1171 1.67043,-21.94959 -0.76679,-7.16471 -3.08501,-6.1461 -3.08501,-6.1461 0,0 -0.90544,16.22302 -0.78542,28.19569 z"
         id="path11"
         inkscape:connector-curvature="0"
         style="fill:#560909"
         sodipodi:nodetypes="cccscccsscccccccccccccccccccccccsscssscccccccccccccccssccsccsccccccscsccsscccsccccssscccccccccscccccscscccsssscccccsccscccccccccccsssccccccccsscsccsccccccccccccccccsccccccccccccccscccsscscccssccccccccscc" /><path
         class="st0"
         d="M-848.4,579.2c-0.1-0.4-0.2-0.7-0.2-0.7s-0.1,0.3-0.1,0.7c-0.1,0.4,0,1,0,1.5c0,0.5,0.2,1,0.2,1.4    c0,0.4,0.1,0.7,0.1,0.7s0.1-0.3,0.2-0.7c0.2-0.4,0.1-1,0.1-1.5C-848.2,580.2-848.3,579.6-848.4,579.2z"
         id="path17" /><path
         class="st0"
         d="M-860.6,586.4c-0.1-0.4-0.2-0.7-0.2-0.7s-0.1,0.3-0.1,0.7c-0.1,0.4,0,1,0,1.5c0,0.5,0.2,1,0.2,1.4    c0,0.4,0.1,0.7,0.1,0.7s0.1-0.3,0.2-0.7c0.2-0.4,0.1-1,0.1-1.5C-860.4,587.3-860.5,586.8-860.6,586.4z"
         id="path19" /><path
         class="st0"
         d="M-843.9,589c-0.1-0.3-0.1-0.5-0.1-0.8c0-0.2,0-0.5,0-0.7c0.1-0.9,0.1-1.6,0.1-1.6s-0.1,0.2-0.2,0.4    c-0.1,0.3-0.2,0.6-0.4,1.1c-0.1,0.2-0.1,0.5-0.1,0.8c0,0.3,0,0.7,0.1,0.9c0.1,0.6,0.2,1.2,0.3,1.8c0.1,1.3,0.3,2.5,0.4,3.5    l0.2,1.6c0,0,0.1-2.6-0.1-5.1C-843.8,590.3-843.8,589.5-843.9,589z"
         id="path21" /><path
         class="st0"
         d="M-829.3,587.6c-0.2,0-0.5,0-0.7-0.1c-0.2-0.1-0.5-0.2-0.7-0.2c-0.5-0.1-1-0.5-1.6-0.6l-0.9-0.2    c-0.3,0-0.6,0-0.9,0c-0.6,0-1.1,0.1-1.5,0.1c-0.9,0.1-1.5,0.2-1.5,0.2s0.6,0.1,1.5,0.1c0.4,0,1,0,1.5,0c0.3,0,0.5,0,0.8,0l0.8,0.2    c0.6,0.1,1.1,0.4,1.7,0.5c0.6,0.2,1.1,0.2,1.6,0.2c0.9-0.1,1.5,0,1.5,0s-0.1-0.1-0.4-0.1C-828.4,587.7-828.8,587.6-829.3,587.6z"
         id="path23" /><polygon
         class="st0"
         points="-861.6,583.8 -861.6,583.8 -861.6,583.8   "
         id="polygon25" /><path
         class="st0"
         d="M-866,581.7l0.8,0c0.3,0.1,0.6,0.1,0.8,0.2c0.5,0.1,1,0.2,1.5,0.3c0.9,0.2,1.5,0.3,1.5,0.3s-0.5-0.2-1.4-0.6    c-0.4-0.1-0.9-0.4-1.5-0.5c-0.3-0.1-0.6-0.1-0.9-0.2l-0.9-0.1c-0.6-0.1-1.2,0.2-1.7,0.2c-0.5,0.1-1,0.1-1.5,0    c-0.4-0.1-0.8-0.1-1.1-0.1c-0.3,0-0.4,0-0.4,0s0.6,0,1.4,0.4c0.4,0.2,0.9,0.3,1.5,0.2C-867.2,581.9-866.6,581.7-866,581.7z"
         id="path27" /></g></g></svg>